<?xml version="1.0" encoding="UTF-8" standalone="no"?>
<svg width="110px" height="127px" viewBox="0 0 110 127" version="1.1" xmlns="http://www.w3.org/2000/svg" xmlns:xlink="http://www.w3.org/1999/xlink" xmlns:sketch="http://www.bohemiancoding.com/sketch/ns">
    <!-- Generator: Sketch 3.1 (8751) - http://www.bohemiancoding.com/sketch -->
    <title>mario-circle-header</title>
    <desc>Created with Sketch.</desc>
    <defs></defs>
    <g id="Page-1" stroke="none" stroke-width="1" fill="none" fill-rule="evenodd" sketch:type="MSPage">
        <g id="mario-circle-header" sketch:type="MSLayerGroup" transform="translate(59.500000, 61.000000) scale(-1, 1) rotate(-22.000000) translate(-59.500000, -61.000000) translate(5.000000, -5.000000)">
            <g id="Layer_3" transform="translate(0.000000, 25.000000)" fill="#FFE600" sketch:type="MSShapeGroup">
                <path d="M54.3,-0.2 C71.6,-0.2 86,6.7 96,19.2 C103.3,28.5 108.6,39.9 108.6,52.6 C108.6,70.3 101.6,86.3 88.5,96.3 C79.4,103.2 66.6,107 54.3,107 C38.3,107 23.9,101.2 13.9,90.2 C5.3,80.5 0,66.6 0,52.6 C0,34.7 7.2,20.3 20.5,10.4 C29.5,3.7 42.2,-0.2 54.3,-0.2 L54.3,-0.2 Z" id="Shape"></path>
            </g>
            <g id="Layer_2" transform="translate(11.000000, 0.000000)" sketch:type="MSShapeGroup">
                <path d="M24,76.1 C17.7,73.6 8,73.4 0.4,74.7 C0.3,75.8 0.3,77 0.3,78.1 C0.3,89.1 4.4,100 11.2,107.6 C11.6,108 11.9,108.4 12.3,108.8 L24,76.1 L24,76.1 Z" id="Shape" fill="#F8B905"></path>
                <path d="M0.4,81.1 C0.6,83.7 1,86.3 1.6,88.8 L10.6,79.5 C7.5,79.5 4,80.1 0.4,81.1 L0.4,81.1 L0.4,81.1 Z" id="Shape" fill="#EFA523"></path>
                <path d="M76.5,94.1 C71.1,84.1 65.3,80 52.2,75.4 L40.4,73.3 C22.7,72.9 9.9,79 1.8,89.5 C3.6,96.3 6.9,102.7 11.3,107.6 C19.1,116.3 30.4,120.8 43,120.8 C51.7,120.8 60.8,118.4 67.7,113.9 L76.5,94.1 L76.5,94.1 Z" id="Shape" fill="#F8B905"></path>
                <path d="M1.1,86.7 C1.3,87.9 1.6,89.1 1.9,90.3 C5.4,85.5 9.2,81 12,78.4 C8.3,79.8 4.2,83 1.1,86.7 L1.1,86.7 Z" id="Shape" fill="#DB7910"></path>
                <path d="M83.3,93 C74.8,87.4 64.9,86.3 56.3,90.9 C45.1,96.9 53.1,109.7 58.5,118.2 C62.7,116.8 66.5,114.8 69.8,112.4 C76.3,107.5 80.8,100.7 83.3,93 L83.3,93 Z" id="Shape" fill="#F8B905"></path>
                <path d="M80.9,98.9 C76.7,96.8 72.5,96.9 69.6,99.8 C66.6,103.1 67.6,107.5 70.7,111.6 C75,108.2 78.4,103.8 80.9,98.9 L80.9,98.9 Z" id="Shape" fill="#EFA523"></path>
                <path d="M58.8,118.1 C58.9,118.1 59,118 59.1,118 C60.7,108.7 63.4,100.9 68.9,94.5 C58.3,97.9 57.4,110.1 58.8,118.1 L58.8,118.1 Z" id="Shape" fill="#DB7910"></path>
                <path d="M21.3,75.6 C26.5,93.3 52.3,105.1 74.1,88.7 C63.7,74.6 47,72 39.4,72.4 C31.8,72.7 27.8,73.4 21.3,75.6 L21.3,75.6 Z" id="Shape" fill="#C0087F"></path>
                <path d="M33.3,73 L41.7,75.4 L37.2,83.7 L42.7,87.4 C48,84 52.3,82 57.3,80.8 L71.6,31.3 L60.1,19.3 L46.8,19.7 L31.8,43.1 C31,44.6 30.8,46.4 32.4,47.7 L37.5,51.9 L30.3,66.2 C28.8,69.2 30.4,71.9 33.3,73 L33.3,73 Z" id="Shape" fill="#F7B592"></path>
                <path d="M45.8,42.4 L55.5,21.6 L48.8,22.5 L35.7,45 L41.3,48.5 L33.9,69.8 L46.6,72.1 L52,80 L45.8,42.4 Z" id="Shape" fill="#F29F75"></path>
                <path d="M39.6,58.1 L42.4,60.4 L41.3,67.2 C47.1,68.4 58.7,63.2 59,54.8 L39.6,58.1 L39.6,58.1 Z" id="Shape" fill="#FFFFFF"></path>
                <circle id="Oval" fill="#1A171B" cx="43.6" cy="37.6" r="1.6"></circle>
                <path d="M45.7,37.2 L40.3,35.4 L40.8,32.1 L45.1,35.2 C46.1,35.9 45.9,36.9 45.7,37.2 L45.7,37.2 Z" id="Shape" fill="#1A171B"></path>
                <path d="M42.9,-7.10542736e-15 C37.2,0.1 31.6,5.3 33.2,13.3 C34.7,21.3 41,24.7 46.1,25.1 L51,22.6 C55.4,22.6 64.7,26.2 67.2,32.1 C69.7,38 65.3,47.5 65.2,50.7 C69.5,47.5 77.7,34.8 76.8,24.9 L72.5,24.7 C75,22 71.7,15.6 65.8,15.9 C60,16.1 36.1,16 42.9,-7.10542736e-15 L42.9,-7.10542736e-15 Z" id="Shape" fill="#1A171B"></path>
                <circle id="Oval" fill="#F7B592" cx="64.8" cy="51.8" r="4.8"></circle>
                <circle id="Oval" fill="#1A171B" cx="53.3" cy="39.3" r="2.3"></circle>
                <path d="M50.1,34 L49.5,35.1 L59.7,37.5 L60.6,33.4 L50.1,34 Z" id="Shape" fill="#1A171B"></path>
                <path d="M38,100.4 L32.4,98 C32,97.8 31.8,97.8 31.5,97.9 C31.3,98 31,98.1 30.8,98.4 L24.1,107.2 C23.8,107.7 23.4,108.2 23.1,108.7 C22.7,109.3 22.4,109.7 22.2,110.1 C22,110.4 21.9,110.6 21.8,110.7 L21.7,110.7 C21.7,110.7 21.8,110.4 21.9,110 C22,109.6 22.1,109.1 22.3,108.4 C22.5,107.7 22.6,107.1 22.7,106.6 L24.5,95.8 C24.6,95.4 24.5,95.2 24.4,94.9 C24.3,94.7 24,94.5 23.7,94.4 L16.9,91.6 C16.3,91.3 15.8,91.5 15.5,92.2 C15.4,92.3 15.4,92.5 15.4,92.6 L15.4,93 L14.1,110.6 C17.3,113.4 20.9,115.7 24.9,117.3 L37.9,102.5 C38,102.4 38.1,102.3 38.2,102.2 C38.3,102.1 38.4,102 38.4,101.8 C38.9,101.2 38.7,100.7 38,100.4 L38,100.4 Z" id="Shape" fill="#C0087F"></path>
            </g>
        </g>
    </g>
</svg>