<svg xmlns:sketch="http://www.bohemiancoding.com/sketch/ns" xmlns="http://www.w3.org/2000/svg" width="110" height="127" viewBox="-712 961 110 127" enable-background="new -712 961 110 127"><path fill="#FDE10F" d="M-639.4 987.4c-15.5-6.3-30.9-5.3-44.4 2.3-9.9 5.7-18.8 14-23.4 25.4-6.4 15.9-5.9 32.7 2.2 46.4 5.7 9.5 15.7 17.5 26.8 22 14.3 5.8 29.3 5.8 42.3-.4 11.2-5.6 21-16.1 26.1-28.7 6.5-16 5.2-31.5-3.1-45.2-5.7-9.4-15.7-17.4-26.5-21.8z" sketch:type="MSShapeGroup"/><title>mario-circle-header</title><desc>Created with Sketch.</desc><g transform="matrix(-.927 -.375 -.375 .927 124.574 16.13)" sketch:type="MSShapeGroup"><path fill="#BB007B" d="M310 1248c6.2 21 36.8 35 62.6 15.5-12.3-16.7-32.1-19.8-41.2-19.3-9 .4-13.7 1.2-21.4 3.8z"/><path fill="#F5B593" d="M324.2 1244.9l10 2.8-5.3 9.8 6.5 4.4c6.3-4 11.4-6.4 17.3-7.8l17-58.7-13.6-14.2-15.8.5-17.8 27.8c-.9 1.8-1.2 3.9.7 5.5l6 5-8.5 17c-1.8 3.4.1 6.6 3.5 7.9z"/><path fill="#F29F75" d="M339 1208.6l11.5-24.7-7.9 1.1-15.5 26.7 6.6 4.2-8.8 25.3 15.1 2.7 6.4 9.4-7.4-44.7z"/><path fill="#fff" d="M331.7 1227.3l3.3 2.7-1.3 8.1c6.9 1.4 20.6-4.7 21-14.7l-23 3.9z"/><circle fill="#1A171B" cx="336.4" cy="1203" r="1.9"/><path fill="#1A171B" d="M338.9 1202.5l-6.4-2.1.6-3.9 5.1 3.7c1.2.7.9 1.9.7 2.3zm-3.3-44.1c-6.8.1-13.4 6.3-11.5 15.8 1.8 9.5 9.3 13.5 15.3 14l5.8-3c5.2 0 16.3 4.3 19.2 11.3 3 7-2.3 18.3-2.4 22.1 5.1-3.8 14.8-18.9 13.8-30.6l-5.1-.2c3-3.2-.9-10.8-7.9-10.4-6.9 0-35.3-.1-27.2-19z"/><circle fill="#F5B593" cx="361.6" cy="1219.8" r="5.7"/><circle fill="#1A171B" cx="347.9" cy="1205" r="2.7"/><path fill="#1A171B" d="M344.1 1198.7l-.7 1.3 12.1 2.8 1.1-4.9-12.5.8z"/></g></svg>