<?xml version="1.0" encoding="utf-8"?>
<!-- Generator: Adobe Illustrator 18.0.0, SVG Export Plug-In . SVG Version: 6.00 Build 0)  -->
<!DOCTYPE svg PUBLIC "-//W3C//DTD SVG 1.1//EN" "http://www.w3.org/Graphics/SVG/1.1/DTD/svg11.dtd">
<svg version="1.1" xmlns="http://www.w3.org/2000/svg" xmlns:xlink="http://www.w3.org/1999/xlink" x="0px" y="0px" width="108.6px"
	 height="131.9px" viewBox="0 0 108.6 131.9" enable-background="new 0 0 108.6 131.9" xml:space="preserve">
<g id="Layer_3">
	<path fill-rule="evenodd" clip-rule="evenodd" fill="#DAECF5" d="M54.3,24.8c17.3,0,31.7,6.9,41.7,19.4
		c7.3,9.3,12.6,20.7,12.6,33.4c0,17.7-7,33.7-20.1,43.7c-9.1,6.9-21.9,10.7-34.2,10.7c-16,0-30.4-5.8-40.4-16.8
		C5.3,105.5,0,91.6,0,77.6c0-17.9,7.2-32.3,20.5-42.2C29.5,28.7,42.2,24.8,54.3,24.8z"/>
</g>
<g id="Layer_2">
	<path fill="#F8B905" d="M35,76.1c-6.3-2.5-16-2.7-23.6-1.4c-0.1,1.1-0.1,2.3-0.1,3.4c0,11,4.1,21.9,10.9,29.5
		c0.4,0.4,0.7,0.8,1.1,1.2L35,76.1z"/>
	<path fill="#EFA523" d="M11.4,81.1c0.2,2.6,0.6,5.2,1.2,7.7l9-9.3C18.5,79.5,15,80.1,11.4,81.1C11.4,81.1,11.4,81.1,11.4,81.1z"/>
	<path fill="#F8B905" d="M87.5,94.1c-5.4-10-11.2-14.1-24.3-18.7l-11.8-2.1C33.7,72.9,20.9,79,12.8,89.5c1.8,6.8,5.1,13.2,9.5,18.1
		c7.8,8.7,19.1,13.2,31.7,13.2c8.7,0,17.8-2.4,24.7-6.9L87.5,94.1z"/>
	<path fill="#DB7910" d="M12.1,86.7c0.2,1.2,0.5,2.4,0.8,3.6c3.5-4.8,7.3-9.3,10.1-11.9C19.3,79.8,15.2,83,12.1,86.7z"/>
	<path fill="#F8B905" d="M94.3,93c-8.5-5.6-18.4-6.7-27-2.1c-11.2,6-3.2,18.8,2.2,27.3c4.2-1.4,8-3.4,11.3-5.8
		C87.3,107.5,91.8,100.7,94.3,93z"/>
	<path fill="#EFA523" d="M91.9,98.9c-4.2-2.1-8.4-2-11.3,0.9c-3,3.3-2,7.7,1.1,11.8C86,108.2,89.4,103.8,91.9,98.9z"/>
	<path fill="#DB7910" d="M69.8,118.1c0.1,0,0.2-0.1,0.3-0.1c1.6-9.3,4.3-17.1,9.8-23.5C69.3,97.9,68.4,110.1,69.8,118.1z"/>
	<path fill="#C0087F" d="M32.3,75.6c5.2,17.7,31,29.5,52.8,13.1C74.7,74.6,58,72,50.4,72.4C42.8,72.7,38.8,73.4,32.3,75.6z"/>
	<path fill="#F7B592" d="M44.3,73l8.4,2.4l-4.5,8.3l5.5,3.7C59,84,63.3,82,68.3,80.8l14.3-49.5l-11.5-12l-13.3,0.4L42.8,43.1
		c-0.8,1.5-1,3.3,0.6,4.6l5.1,4.2l-7.2,14.3C39.8,69.2,41.4,71.9,44.3,73z"/>
	<polygon fill="#F29F75" points="56.8,42.4 66.5,21.6 59.8,22.5 46.7,45 52.3,48.5 44.9,69.8 57.6,72.1 63,80 	"/>
	<path fill="#FFFFFF" d="M50.6,58.1l2.8,2.3l-1.1,6.8c5.8,1.2,17.4-4,17.7-12.4L50.6,58.1z"/>
	<circle fill="#1A171B" cx="54.3" cy="37.5" r="1.6"/>
	<path fill="#1A171B" d="M56.7,37.2l-5.4-1.8l0.5-3.3l4.3,3.1C57.1,35.9,56.9,36.9,56.7,37.2z"/>
	<path fill="#1A171B" d="M53.9,0c-5.7,0.1-11.3,5.3-9.7,13.3c1.5,8,7.8,11.4,12.9,11.8l4.9-2.5c4.4,0,13.7,3.6,16.2,9.5
		c2.5,5.9-1.9,15.4-2,18.6c4.3-3.2,12.5-15.9,11.6-25.8l-4.3-0.2c2.5-2.7-0.8-9.1-6.7-8.8C71,16.1,47.1,16,53.9,0z"/>
	<circle fill="#F7B592" cx="76.2" cy="51.7" r="4.8"/>
	<circle fill="#1A171B" cx="64.2" cy="39.3" r="2.3"/>
	<polygon fill="#1A171B" points="61.1,34 60.5,35.1 70.7,37.5 71.6,33.4 	"/>
	<g>
		<path fill="#C0087F" d="M49,100.4l-5.6-2.4c-0.4-0.2-0.6-0.2-0.9-0.1c-0.2,0.1-0.5,0.2-0.7,0.5l-6.7,8.8c-0.3,0.5-0.7,1-1,1.5
			c-0.4,0.6-0.7,1-0.9,1.4c-0.2,0.3-0.3,0.5-0.4,0.6l-0.1,0c0,0,0.1-0.3,0.2-0.7c0.1-0.4,0.2-0.9,0.4-1.6c0.2-0.7,0.3-1.3,0.4-1.8
			l1.8-10.8c0.1-0.4,0-0.6-0.1-0.9c-0.1-0.2-0.4-0.4-0.7-0.5l-6.8-2.8c-0.6-0.3-1.1-0.1-1.4,0.6c-0.1,0.1-0.1,0.3-0.1,0.4
			c0,0.1,0,0.3,0,0.4l-1.3,17.6c3.2,2.8,6.8,5.1,10.8,6.7l13-14.8c0.1-0.1,0.2-0.2,0.3-0.3c0.1-0.1,0.2-0.2,0.2-0.4
			C49.9,101.2,49.7,100.7,49,100.4z"/>
	</g>
	<g>
		<g>
			<path fill="#DAECF5" d="M18.2,70.8c3.2,0,3.2-5,0-5S15,70.8,18.2,70.8L18.2,70.8z"/>
		</g>
	</g>
</g>
</svg>
