<?xml version="1.0" encoding="UTF-8" standalone="no"?>
<svg width="31px" height="36px" viewBox="0 0 31 36" version="1.1" xmlns="http://www.w3.org/2000/svg" xmlns:xlink="http://www.w3.org/1999/xlink" xmlns:sketch="http://www.bohemiancoding.com/sketch/ns">
    <!-- Generator: Sketch 3.1.1 (8761) - http://www.bohemiancoding.com/sketch -->
    <title>Shape</title>
    <desc>Created with Sketch.</desc>
    <defs></defs>
    <g id="Page-1" stroke="none" stroke-width="1" fill="none" fill-rule="evenodd" sketch:type="MSPage">
        <path d="M0.8,26.355 C0.8,28.027 1.535,29.513 2.637,30.441 L2.637,33.783 C2.637,34.897 3.373,35.64 4.475,35.64 L6.313,35.64 C7.415,35.64 8.15,34.897 8.15,33.783 L8.15,31.927 L22.85,31.927 L22.85,33.783 C22.85,34.897 23.585,35.64 24.687,35.64 L26.525,35.64 C27.627,35.64 28.363,34.897 28.363,33.783 L28.363,30.441 C29.465,29.513 30.2,28.027 30.2,26.355 L30.2,7.787 C30.2,1.288 23.585,0.36 15.5,0.36 C7.415,0.36 0.8,1.288 0.8,7.787 L0.8,26.355 L0.8,26.355 Z M7.231,28.213 C5.761,28.213 4.475,26.913 4.475,25.427 C4.475,23.942 5.761,22.641 7.231,22.641 C8.701,22.641 9.988,23.942 9.988,25.427 C9.988,26.913 8.701,28.213 7.231,28.213 L7.231,28.213 Z M23.769,28.213 C22.299,28.213 21.012,26.913 21.012,25.427 C21.012,23.942 22.299,22.641 23.769,22.641 C25.239,22.641 26.525,23.942 26.525,25.427 C26.525,26.913 25.239,28.213 23.769,28.213 L23.769,28.213 Z M26.525,17.071 L4.475,17.071 L4.475,7.787 L26.525,7.787 L26.525,17.071 L26.525,17.071 Z" id="Shape" fill="#9EABB2" sketch:type="MSShapeGroup"></path>
    </g>
</svg>