<?xml version="1.0" encoding="UTF-8" standalone="no"?>
<svg width="27px" height="37px" viewBox="0 0 27 37" version="1.1" xmlns="http://www.w3.org/2000/svg" xmlns:xlink="http://www.w3.org/1999/xlink" xmlns:sketch="http://www.bohemiancoding.com/sketch/ns">
    <!-- Generator: Sketch 3.2.2 (9983) - http://www.bohemiancoding.com/sketch -->
    <title>Shape</title>
    <desc>Created with Sketch.</desc>
    <defs></defs>
    <g id="Page-1" stroke="none" stroke-width="1" fill="none" fill-rule="evenodd" sketch:type="MSPage">
        <path d="M13.5,0.95 C6.304,0.95 0.45,6.854 0.45,14.112 C0.45,16.878 1.303,19.531 2.913,21.787 L3.256,22.271 L12.63,35.611 C12.836,35.887 13.159,36.05 13.5,36.05 C13.841,36.05 14.164,35.887 14.37,35.611 L23.627,22.429 L24.084,21.791 C25.697,19.531 26.55,16.878 26.55,14.112 C26.55,6.854 20.696,0.95 13.5,0.95 L13.5,0.95 Z M13.5,18.5 C11.101,18.5 9.15,16.532 9.15,14.112 C9.15,11.693 11.101,9.725 13.5,9.725 C15.899,9.725 17.85,11.693 17.85,14.112 C17.85,16.532 15.899,18.5 13.5,18.5 L13.5,18.5 Z" id="Shape" fill="#9EABB2" sketch:type="MSShapeGroup"></path>
    </g>
</svg>