<?xml version="1.0" encoding="utf-8"?><!DOCTYPE svg PUBLIC "-//W3C//DTD SVG 1.1//EN" "http://www.w3.org/Graphics/SVG/1.1/DTD/svg11.dtd"><svg version="1.1" baseProfile="full" xmlns="http://www.w3.org/2000/svg" xmlns:xlink="http://www.w3.org/1999/xlink" xmlns:ev="http://www.w3.org/2001/xml-events"   height="35px"   width="35px" ><path fill="rgb( 143, 181, 201 )" d="M17.472,0.56799999999998 C8.12599999999998,0.56799999999998 0.54899999999998,8.14599999999996 0.54899999999998,17.49 C0.54899999999998,26.8340000000001 8.12599999999998,34.415 17.472,34.415 C26.817,34.415 34.396,26.8340000000001 34.396,17.49 C34.396,8.14599999999996 26.817,0.56799999999998 17.472,0.56799999999998 Z "/><path fill="rgb( 255, 255, 255 )" d="M20.713,26.1420000000001 C19.903,26.462 19.258,26.7049999999999 18.775,26.873 C18.292,27.04 17.731,27.124 17.093,27.124 C16.112,27.124 15.349,26.885 14.805,26.4059999999999 C14.262,25.9269999999999 13.991,25.3209999999999 13.991,24.585 C13.991,24.299 14.011,24.0050000000001 14.051,23.7059999999999 C14.092,23.4090000000001 14.158,23.0730000000001 14.247,22.6959999999999 C14.247,22.6959999999999 15.261,19.115 15.261,19.115 C15.35,18.77 15.428,18.444 15.489,18.1400000000001 C15.55,17.8340000000001 15.579,17.5519999999999 15.579,17.297 C15.579,16.8409999999999 15.485,16.5219999999999 15.297,16.3420000000001 C15.106,16.162 14.748,16.0740000000001 14.214,16.0740000000001 C13.953,16.0740000000001 13.683,16.1120000000001 13.408,16.192 C13.135,16.277 12.897,16.354 12.703,16.4290000000001 C12.703,16.4290000000001 12.971,15.325 12.971,15.325 C13.634,15.0550000000001 14.27,14.8230000000001 14.876,14.6289999999999 C15.482,14.4369999999999 16.055,14.3399999999999 16.595,14.3399999999999 C17.569,14.3399999999999 18.32,14.578 18.849,15.047 C19.375,15.5160000000001 19.641,16.1289999999999 19.641,16.8810000000001 C19.641,17.0360000000001 19.622,17.3099999999999 19.586,17.702 C19.55,18.0940000000001 19.482,18.454 19.383,18.7840000000001 C19.383,18.7840000000001 18.375,22.3530000000001 18.375,22.3530000000001 C18.292,22.6400000000001 18.219,22.9670000000001 18.152,23.335 C18.087,23.701 18.055,23.979 18.055,24.1679999999999 C18.055,24.643 18.16,24.9659999999999 18.373,25.1379999999999 C18.584,25.3099999999999 18.953,25.396 19.475,25.396 C19.722,25.396 19.998,25.3520000000001 20.309,25.2670000000001 C20.618,25.182 20.842,25.106 20.984,25.0409999999999 C20.984,25.0409999999999 20.713,26.1420000000001 20.713,26.1420000000001 ZM20.535,11.6479999999999 C20.064,12.086 19.498,12.3040000000001 18.836,12.3040000000001 C18.175,12.3040000000001 17.605,12.086 17.13,11.6479999999999 C16.658,11.211 16.42,10.6799999999999 16.42,10.059 C16.42,9.43899999999996 16.66,8.90599999999995 17.13,8.46600000000001 C17.605,8.02300000000002 18.175,7.80399999999997 18.836,7.80399999999997 C19.498,7.80399999999997 20.066,8.02300000000002 20.535,8.46600000000001 C21.005,8.90599999999995 21.241,9.43899999999996 21.241,10.059 C21.241,10.682 21.005,11.211 20.535,11.6479999999999 Z "/></svg>