<?xml version="1.0" encoding="utf-8"?>
<!-- Generator: Adobe Illustrator 18.0.0, SVG Export Plug-In . SVG Version: 6.00 Build 0)  -->
<!DOCTYPE svg PUBLIC "-//W3C//DTD SVG 1.1//EN" "http://www.w3.org/Graphics/SVG/1.1/DTD/svg11.dtd">
<svg version="1.1" id="Layer_1" xmlns:ev="http://www.w3.org/2001/xml-events"
	 xmlns="http://www.w3.org/2000/svg" xmlns:xlink="http://www.w3.org/1999/xlink" x="0px" y="0px" width="100%" height="100%"
	 viewBox="1 0.5 74 74" xml:space="preserve">
<g>
	<path fill="#FFFFFF" d="M41.2,33.5c0,0-0.1,0.1-0.1,0.1h0.1V33.5z"/>
	<path fill="#FFFFFF" d="M29.1,15.8c-6.3,0-12.3,4.8-12.3,10.4c0,5.7,4.3,10.3,10.8,10.3l1.3,0c-0.4,0.8-0.7,1.7-0.7,2.6
		c0,1.6,0.8,2.9,1.9,3.9l-2.5,0c-7.8,0-13.9,5-13.9,10.2c0,5.1,6.6,8.3,14.5,8.3c9,0,13.9-5.1,13.9-10.2c0-4.1-1.2-6.5-4.9-9.2
		c-1.3-0.9-3.7-3.1-3.7-4.4c0-1.5,0.4-2.3,2.7-4.1c2.3-1.8,4-4.4,4-7.4c0-3.6-1.6-7-4.6-8.2h4.5l3.2-2.3H29.1z M38.3,50.4
		c0.1,0.5,0.2,1,0.2,1.5c0,4.1-2.6,7.4-10.3,7.4c-5.4,0-9.3-3.4-9.3-7.6c0-4.1,4.9-7.4,10.3-7.4c1.3,0,2.5,0.2,3.5,0.6
		C35.6,46.9,37.7,48.1,38.3,50.4z M29.6,35c-3.6-0.1-7.1-4.1-7.7-8.9c-0.6-4.8,1.8-8.5,5.5-8.3c3.6,0.1,7.1,4,7.7,8.7
		C35.7,31.3,33.3,35.1,29.6,35z"/>
	<polygon fill="#FFFFFF" points="55.9,42.1 55.9,33.2 64.8,33.2 64.8,28.7 55.9,28.7 55.9,19.8 51.5,19.8 51.5,28.7 42.6,28.7
		42.6,33.2 51.5,33.2 51.5,42.1 	"/>
</g>
</svg>
