<?xml version="1.0" encoding="utf-8"?><!DOCTYPE svg PUBLIC "-//W3C//DTD SVG 1.1//EN" "http://www.w3.org/Graphics/SVG/1.1/DTD/svg11.dtd"><svg version="1.1" baseProfile="full" xmlns="http://www.w3.org/2000/svg" xmlns:xlink="http://www.w3.org/1999/xlink" xmlns:ev="http://www.w3.org/2001/xml-events"   height="54px"   width="54px" ><path fill="rgb( 180, 199, 209 )" d="M43.9760000000001,43.9749999999999 C53.3389999999999,34.6130000000001 53.338,19.3789999999999 43.9770000000001,10.0170000000001 C34.614,0.65300000000002 19.3789999999999,0.65300000000002 10.0170000000001,10.0150000000001 C0.65300000000002,19.3779999999999 0.654,34.6130000000001 10.018,43.9770000000001 C19.3789999999999,53.3389999999999 34.614,53.3389999999999 43.9760000000001,43.9749999999999 ZM12.636,12.634 C20.5550000000001,4.7170000000001 33.4380000000001,4.71599999999989 41.3579999999999,12.635 C49.2760000000001,20.5530000000001 49.2750000000001,33.4390000000001 41.357,41.356 C33.4390000000001,49.2750000000001 20.5550000000001,49.2750000000001 12.636,41.3579999999999 C4.7170000000001,33.4390000000001 4.71800000000007,20.5519999999999 12.636,12.634 ZM29.634,21.855 C29.634,19.684 31.4010000000001,17.9169999999999 33.5740000000001,17.9169999999999 C35.7449999999999,17.9169999999999 37.5119999999999,19.684 37.5119999999999,21.855 C37.5119999999999,22.48 37.0050000000001,22.9860000000001 36.3800000000001,22.9860000000001 C35.7550000000001,22.9860000000001 35.249,22.48 35.249,21.855 C35.249,20.931 34.4970000000001,20.1800000000001 33.5740000000001,20.1800000000001 C32.6489999999999,20.1800000000001 31.8979999999999,20.931 31.8979999999999,21.855 C31.8979999999999,22.48 31.3910000000001,22.9860000000001 30.7660000000001,22.9860000000001 C30.1410000000001,22.9860000000001 29.634,22.479 29.634,21.855 ZM17.087,21.8430000000001 C17.087,19.671 18.854,17.904 21.0260000000001,17.904 C23.1969999999999,17.904 24.9639999999999,19.671 24.9639999999999,21.8430000000001 C24.9639999999999,22.4680000000001 24.4570000000001,22.9739999999999 23.8320000000001,22.9739999999999 C23.2070000000001,22.9739999999999 22.701,22.4680000000001 22.701,21.8430000000001 C22.701,20.9190000000001 21.9490000000001,20.1679999999999 21.0260000000001,20.1679999999999 C20.1010000000001,20.1679999999999 19.3499999999999,20.9190000000001 19.3499999999999,21.8430000000001 C19.3499999999999,22.4680000000001 18.8430000000001,22.9739999999999 18.2180000000001,22.9739999999999 C17.5930000000001,22.9739999999999 17.087,22.4680000000001 17.087,21.8430000000001 ZM16.585,31.9590000000001 C16.297,31.2660000000001 16.625,30.472 17.318,30.184 C17.4880000000001,30.1130000000001 17.665,30.0799999999999 17.838,30.0799999999999 C18.3710000000001,30.0799999999999 18.876,30.395 19.0930000000001,30.9179999999999 C20.3489999999999,33.943 23.463,35.8979999999999 27.0239999999999,35.8979999999999 C30.5039999999999,35.8979999999999 33.5989999999999,33.942 34.9090000000001,30.915 C35.2070000000001,30.2260000000001 36.0060000000001,29.9090000000001 36.694,30.2070000000001 C37.3820000000001,30.5050000000001 37.6990000000001,31.3040000000001 37.4010000000001,31.992 C35.662,36.0139999999999 31.588,38.6130000000001 27.0239999999999,38.6130000000001 C22.3610000000001,38.614 18.2639999999999,36.002 16.585,31.9590000000001 Z "/></svg>