<?xml version="1.0" encoding="UTF-8" standalone="no"?>
<svg width="34px" height="30px" viewBox="0 0 34 30" version="1.1" xmlns="http://www.w3.org/2000/svg" xmlns:xlink="http://www.w3.org/1999/xlink" xmlns:sketch="http://www.bohemiancoding.com/sketch/ns">
    <!-- Generator: Sketch 3.2.1 (9977) - http://www.bohemiancoding.com/sketch -->
    <title>Shape</title>
    <desc>Created with Sketch.</desc>
    <defs></defs>
    <g id="Page-1" stroke="none" stroke-width="1" fill="none" fill-rule="evenodd" sketch:type="MSPage">
        <path d="M11.463,29.3 C11.12,29.477 10.711,29.499 10.3,29.089 L0.907,19.529 C0.076,18.685 0.27,17.572 1.232,16.879 C2.463,15.993 4.108,14.549 5.496,12.439 C6.146,11.449 7.076,11.383 7.718,12.377 L10.035,15.961 C10.679,16.956 11.419,18.204 11.817,18.064 C11.978,18.007 12.173,17.868 12.407,17.592 L26.616,1.395 C27.355,0.47 28.399,0.569 28.948,1.618 L33.369,6.292 C33.918,7.34 33.613,8.792 32.687,9.532 L14.035,27.065 C13.111,27.806 12.093,28.978 11.463,29.3 L11.463,29.3 Z" id="Shape" fill="#65C454" sketch:type="MSShapeGroup"></path>
    </g>
</svg>