<?xml version="1.0" encoding="UTF-8" standalone="no"?>
<svg width="45px" height="45px" viewBox="0 0 45 45" version="1.1" xmlns="http://www.w3.org/2000/svg" xmlns:xlink="http://www.w3.org/1999/xlink" xmlns:sketch="http://www.bohemiancoding.com/sketch/ns">
    <!-- Generator: Sketch 3.2.2 (9983) - http://www.bohemiancoding.com/sketch -->
    <title>detail price chart L 22.psd (all selected layers)</title>
    <desc>Created with Sketch.</desc>
    <defs></defs>
    <g id="Page-1" stroke="none" stroke-width="1" fill="none" fill-rule="evenodd" sketch:type="MSPage">
        <g id="detail-price-chart-L-22.psd-(all-selected-layers)" sketch:type="MSLayerGroup" transform="translate(1.000000, 1.000000)">
            <path d="M21.472,0.809 C10.05,0.809 0.789,10.07 0.789,21.492 C0.789,32.913 10.05,42.177 21.472,42.177 C32.895,42.177 42.158,32.913 42.158,21.492 C42.158,10.07 32.895,0.809 21.472,0.809 L21.472,0.809 Z" id="Shape" stroke="#B6C9D3" stroke-width="2" sketch:type="MSShapeGroup"></path>
            <path d="M25.434,32.066 C24.444,32.457 23.656,32.754 23.065,32.959 C22.475,33.165 21.79,33.267 21.01,33.267 C19.811,33.267 18.878,32.974 18.213,32.388 C17.549,31.805 17.219,31.063 17.219,30.163 C17.219,29.813 17.243,29.454 17.292,29.089 C17.342,28.725 17.422,28.315 17.531,27.854 L18.771,23.476 C18.88,23.057 18.974,22.658 19.049,22.285 C19.124,21.911 19.16,21.567 19.16,21.256 C19.16,20.698 19.044,20.308 18.814,20.088 C18.581,19.868 18.143,19.761 17.49,19.761 C17.171,19.761 16.842,19.808 16.505,19.906 C16.172,20.009 15.881,20.103 15.644,20.193 L15.971,18.845 C16.782,18.514 17.559,18.232 18.3,17.996 C19.041,17.759 19.741,17.642 20.401,17.642 C21.591,17.642 22.509,17.932 23.156,18.505 C23.799,19.08 24.123,19.827 24.123,20.746 C24.123,20.936 24.1,21.272 24.056,21.75 C24.012,22.23 23.929,22.669 23.809,23.072 L22.576,27.435 C22.475,27.785 22.386,28.186 22.304,28.635 C22.224,29.082 22.185,29.422 22.185,29.653 C22.185,30.234 22.314,30.629 22.575,30.839 C22.832,31.05 23.283,31.155 23.921,31.155 C24.223,31.155 24.56,31.101 24.941,30.996 C25.319,30.893 25.592,30.8 25.765,30.719 L25.434,32.066 L25.434,32.066 Z M25.216,14.352 C24.641,14.886 23.949,15.153 23.14,15.153 C22.332,15.153 21.635,14.886 21.055,14.352 C20.479,13.818 20.187,13.169 20.187,12.409 C20.187,11.652 20.48,11.001 21.055,10.462 C21.635,9.921 22.332,9.652 23.14,9.652 C23.949,9.652 24.643,9.921 25.216,10.462 C25.791,11.001 26.079,11.652 26.079,12.409 C26.079,13.17 25.791,13.818 25.216,14.352 L25.216,14.352 Z" id="Shape" fill="#B6C9D3" sketch:type="MSShapeGroup"></path>
        </g>
    </g>
</svg>