<?xml version="1.0" encoding="utf-8"?>
<!-- Generator: Adobe Illustrator 18.0.0, SVG Export Plug-In . SVG Version: 6.00 Build 0)  -->
<!DOCTYPE svg PUBLIC "-//W3C//DTD SVG 1.1//EN" "http://www.w3.org/Graphics/SVG/1.1/DTD/svg11.dtd">
<svg version="1.1" id="Layer_1" xmlns:ev="http://www.w3.org/2001/xml-events"
	 xmlns="http://www.w3.org/2000/svg" xmlns:xlink="http://www.w3.org/1999/xlink" x="0px" y="0px" width="42.1px" height="42px"
	 viewBox="0.5 0 42.1 42" enable-background="new 0.5 0 42.1 42" xml:space="preserve">
<path fill="#77CA61" d="M7.6,0.3c0,0,6.7-0.3,13.6-0.3c7.1,0,14.4,0.3,14.4,0.3c3.7,0,6.7,3,6.7,6.7c0,0,0.3,7.2,0.3,14.2
	c0,6.9-0.3,13.7-0.3,13.7c0,3.7-3,6.7-6.7,6.7c0,0-6.9,0.3-13.9,0.3c-7,0-14.1-0.3-14.1-0.3c-3.7,0-6.7-3-6.7-6.7c0,0-0.3-7-0.3-14
	c0-7,0.3-14,0.3-14C0.9,3.3,3.9,0.3,7.6,0.3z"/>
<path fill="#FFFFFF" d="M21.3,28.2l-6.4,3.4c-0.4,0.2-0.9-0.1-0.8-0.6l1.2-7.1c0-0.2,0-0.4-0.2-0.5l-5.2-5c-0.3-0.3-0.1-0.9,0.3-0.9
	l7.2-1c0.2,0,0.3-0.1,0.4-0.3l3.2-6.5c0.2-0.4,0.8-0.4,1,0l3.2,6.5c0.1,0.2,0.2,0.3,0.4,0.3l7.2,1c0.5,0.1,0.6,0.6,0.3,0.9l-5.2,5
	c-0.1,0.1-0.2,0.3-0.2,0.5l1.2,7.1c0.1,0.4-0.4,0.8-0.8,0.6l-6.4-3.4C21.7,28.1,21.5,28.1,21.3,28.2z"/>
</svg>
