<?xml version="1.0" encoding="utf-8"?><!DOCTYPE svg PUBLIC "-//W3C//DTD SVG 1.1//EN" "http://www.w3.org/Graphics/SVG/1.1/DTD/svg11.dtd"><svg version="1.1" baseProfile="full" xmlns="http://www.w3.org/2000/svg" xmlns:xlink="http://www.w3.org/1999/xlink" xmlns:ev="http://www.w3.org/2001/xml-events"   height="49px"   width="50px" ><path fill="rgb( 180, 199, 209 )" d="M48.749,26.1030000000001 C48.749,26.1030000000001 45.921,21.684 45.921,21.684 C45.921,21.684 47.5989999999999,16.7239999999999 47.5989999999999,16.7239999999999 C47.826,16.048 47.5429999999999,15.3050000000001 46.9190000000001,14.951 C46.9190000000001,14.951 42.3430000000001,12.337 42.3430000000001,12.337 C42.3430000000001,12.337 41.501,7.173 41.501,7.173 C41.384,6.46800000000007 40.7840000000001,5.94299999999998 40.0650000000001,5.91300000000001 C40.0650000000001,5.91300000000001 34.787,5.70900000000006 34.787,5.70900000000006 C34.787,5.70900000000006 31.6199999999999,1.52199999999993 31.6199999999999,1.52199999999993 C31.1880000000001,0.95000000000005 30.4059999999999,0.75999999999999 29.76,1.06799999999998 C29.76,1.06799999999998 24.992,3.31500000000005 24.992,3.31500000000005 C24.992,3.31500000000005 20.222,1.06600000000003 20.222,1.06600000000003 C19.5740000000001,0.76199999999994 18.796,0.952 18.3620000000001,1.52199999999993 C18.3620000000001,1.52199999999993 15.1949999999999,5.70900000000006 15.1949999999999,5.70900000000006 C15.1949999999999,5.70900000000006 9.91699999999992,5.91300000000001 9.91699999999992,5.91300000000001 C9.20000000000005,5.94100000000003 8.59799999999996,6.46599999999989 8.48299999999995,7.17100000000005 C8.48299999999995,7.17100000000005 7.64100000000008,12.335 7.64100000000008,12.335 C7.64100000000008,12.335 3.06500000000005,14.9480000000001 3.06500000000005,14.9480000000001 C2.44100000000003,15.3030000000001 2.15599999999995,16.046 2.38300000000004,16.723 C2.38300000000004,16.723 4.06099999999992,21.682 4.06099999999992,21.682 C4.06099999999992,21.682 1.2349999999999,26.1030000000001 1.2349999999999,26.1030000000001 C0.84899999999993,26.7059999999999 0.94800000000009,27.4939999999999 1.4670000000001,27.989 C1.4670000000001,27.989 5.279,31.6089999999999 5.279,31.6089999999999 C5.279,31.6089999999999 4.84999999999991,36.8209999999999 4.84999999999991,36.8209999999999 C4.79299999999989,37.5350000000001 5.24700000000007,38.1859999999999 5.9380000000001,38.385 C5.9380000000001,38.385 11.011,39.8330000000001 11.011,39.8330000000001 C11.011,39.8330000000001 13.076,44.6479999999999 13.076,44.6479999999999 C13.3589999999999,45.3030000000001 14.068,45.683 14.7719999999999,45.5319999999999 C14.7719999999999,45.5319999999999 19.9480000000001,44.481 19.9480000000001,44.481 C19.9480000000001,44.481 24.0329999999999,47.7950000000001 24.0329999999999,47.7950000000001 C24.3099999999999,48.018 24.6510000000001,48.135 24.992,48.135 C25.3330000000001,48.135 25.672,48.018 25.951,47.7950000000001 C25.951,47.7950000000001 30.0360000000001,44.481 30.0360000000001,44.481 C30.0360000000001,44.481 35.212,45.5319999999999 35.212,45.5319999999999 C35.914,45.6790000000001 36.627,45.3050000000001 36.9079999999999,44.6479999999999 C36.9079999999999,44.6479999999999 38.973,39.8330000000001 38.973,39.8330000000001 C38.973,39.8330000000001 44.046,38.385 44.046,38.385 C44.7370000000001,38.1880000000001 45.191,37.5350000000001 45.133,36.8209999999999 C45.133,36.8209999999999 44.7049999999999,31.6089999999999 44.7049999999999,31.6089999999999 C44.7049999999999,31.6089999999999 48.5160000000001,27.989 48.5160000000001,27.989 C49.0360000000001,27.4939999999999 49.135,26.7059999999999 48.749,26.1030000000001 ZM35.759,22.1089999999999 C35.759,22.1089999999999 31.242,26.471 31.242,26.471 C31.242,26.471 32.308,32.6300000000001 32.308,32.6300000000001 C32.384,33.0730000000001 32.2,33.5219999999999 31.8330000000001,33.787 C31.625,33.9369999999999 31.3779999999999,34.0129999999999 31.1310000000001,34.0129999999999 C30.941,34.0129999999999 30.75,33.9680000000001 30.575,33.877 C30.575,33.877 24.992,30.9690000000001 24.992,30.9690000000001 C24.992,30.9690000000001 19.4079999999999,33.877 19.4079999999999,33.877 C19.0060000000001,34.086 18.519,34.0519999999999 18.1510000000001,33.787 C17.7829999999999,33.5219999999999 17.5989999999999,33.0740000000001 17.6759999999999,32.6310000000001 C17.6759999999999,32.6310000000001 18.7429999999999,26.471 18.7429999999999,26.471 C18.7429999999999,26.471 14.2260000000001,22.1099999999999 14.2260000000001,22.1099999999999 C13.8989999999999,21.796 13.7829999999999,21.326 13.922,20.8979999999999 C14.0630000000001,20.47 14.4359999999999,20.1569999999999 14.886,20.0930000000001 C14.886,20.0930000000001 21.1289999999999,19.194 21.1289999999999,19.194 C21.1289999999999,19.194 23.922,13.5899999999999 23.922,13.5899999999999 C24.1220000000001,13.1859999999999 24.537,12.9300000000001 24.992,12.9300000000001 C25.4469999999999,12.9300000000001 25.8610000000001,13.1859999999999 26.0619999999999,13.5889999999999 C26.0619999999999,13.5889999999999 28.854,19.193 28.854,19.193 C28.854,19.193 35.098,20.0930000000001 35.098,20.0930000000001 C35.547,20.1569999999999 35.921,20.4690000000001 36.0599999999999,20.8969999999999 C36.202,21.325 36.0830000000001,21.7950000000001 35.759,22.1089999999999 Z "/></svg>