<?xml version="1.0" encoding="UTF-8" standalone="no"?>
<svg width="42px" height="41px" viewBox="0 0 42 41" version="1.1" xmlns="http://www.w3.org/2000/svg" xmlns:xlink="http://www.w3.org/1999/xlink" xmlns:sketch="http://www.bohemiancoding.com/sketch/ns">
    <!-- Generator: Sketch 3.1.1 (8761) - http://www.bohemiancoding.com/sketch -->
    <title>Shape</title>
    <desc>Created with Sketch.</desc>
    <defs></defs>
    <g id="Page-1" stroke="none" stroke-width="1" fill="none" fill-rule="evenodd" sketch:type="MSPage">
        <path d="M38.474,26.131 L38.474,40.43 L26.833,40.43 L26.833,26.131 C26.833,26.131 23.922,26.131 23.922,23.271 L23.922,13.261 C23.922,10.401 26.833,10.401 26.833,10.401 L38.474,10.401 C41.385,10.401 41.385,13.261 41.385,13.261 L41.385,23.271 C41.385,26.131 38.474,26.131 38.474,26.131 L38.474,26.131 Z M32.654,8.973 C30.243,8.973 28.288,7.051 28.288,4.682 C28.288,2.312 30.243,0.392 32.654,0.392 C35.065,0.392 37.019,2.312 37.019,4.682 C37.019,7.051 35.065,8.973 32.654,8.973 L32.654,8.973 Z M14.867,26.131 L14.867,40.43 L3.225,40.43 L3.225,26.131 C3.225,26.131 0.315,26.131 0.315,23.271 L0.315,13.261 C0.315,10.401 3.225,10.401 3.225,10.401 L14.867,10.401 C17.777,10.401 17.777,13.261 17.777,13.261 L17.777,23.271 C17.777,26.131 14.867,26.131 14.867,26.131 L14.867,26.131 Z M9.046,8.973 C6.635,8.973 4.681,7.051 4.681,4.682 C4.681,2.312 6.635,0.392 9.046,0.392 C11.457,0.392 13.412,2.312 13.412,4.682 C13.412,7.051 11.457,8.973 9.046,8.973 L9.046,8.973 Z" id="Shape" fill="#9EABB2" sketch:type="MSShapeGroup"></path>
    </g>
</svg>