<?xml version="1.0" encoding="utf-8"?>
<!-- Generator: Adobe Illustrator 18.0.0, SVG Export Plug-In . SVG Version: 6.00 Build 0)  -->
<!DOCTYPE svg PUBLIC "-//W3C//DTD SVG 1.1//EN" "http://www.w3.org/Graphics/SVG/1.1/DTD/svg11.dtd">
<svg version="1.1" id="Layer_1" xmlns:ev="http://www.w3.org/2001/xml-events"
	 xmlns="http://www.w3.org/2000/svg" xmlns:xlink="http://www.w3.org/1999/xlink" x="0px" y="0px" width="100%" height="100%"
	 viewBox="1.4 0.5 74 74" xml:space="preserve">
<path fill="#FFFFFF" d="M61.7,24.2c-1.6,0.7-3.3,1.1-5,1.3c1.8-1,3.2-2.7,3.9-4.7c-1.7,1-3.6,1.7-5.5,2c-1.6-1.6-3.9-2.7-6.4-2.7
	c-4.8,0-8.7,3.8-8.7,8.4c0,0.7,0.1,1.3,0.2,1.9c-7.3-0.4-13.7-3.7-18-8.8c-0.8,1.2-1.2,2.7-1.2,4.2c0,2.9,1.5,5.5,3.9,7
	c-1.4,0-2.8-0.4-3.9-1v0.1c0,4.1,3,7.5,7,8.3c-0.7,0.2-1.5,0.3-2.3,0.3c-0.6,0-1.1,0-1.6-0.2c1.1,3.3,4.3,5.8,8.2,5.9
	c-3,2.3-6.8,3.6-10.9,3.6c-0.7,0-1.4,0-2.1-0.1c3.9,2.4,8.5,3.8,13.4,3.8c16.1,0,24.9-12.9,24.9-24l0-1.1
	C59.1,27.4,60.6,25.9,61.7,24.2z"/>
<path fill="#FFFFFF" d="M61.3,24.5c-1.5,0.7-3.2,1.1-4.9,1.3c1.8-1,3.1-2.6,3.8-4.6c-1.7,0.9-3.5,1.6-5.4,2
	c-1.6-1.6-3.8-2.6-6.2-2.6c-4.7,0-8.5,3.7-8.5,8.2c0,0.7,0.1,1.3,0.2,1.9c-7.1-0.4-13.4-3.6-17.6-8.6c-0.7,1.2-1.2,2.6-1.2,4.1
	c0,2.8,1.5,5.4,3.8,6.8c-1.4,0-2.7-0.4-3.9-1v0.1c0,4,2.9,7.3,6.8,8.1c-0.7,0.2-1.5,0.3-2.2,0.3c-0.6,0-1.1,0-1.6-0.1
	c1.1,3.3,4.2,5.7,8,5.7c-2.9,2.2-6.6,3.5-10.6,3.5c-0.7,0-1.4,0-2-0.1c3.8,2.4,8.3,3.7,13.1,3.7C48.4,53.3,57,40.7,57,29.8l0-1.1
	C58.7,27.6,60.1,26.2,61.3,24.5z"/>
</svg>
