<?xml version="1.0" encoding="utf-8"?><!DOCTYPE svg PUBLIC "-//W3C//DTD SVG 1.1//EN" "http://www.w3.org/Graphics/SVG/1.1/DTD/svg11.dtd"><svg version="1.1" baseProfile="full" xmlns="http://www.w3.org/2000/svg" xmlns:xlink="http://www.w3.org/1999/xlink" xmlns:ev="http://www.w3.org/2001/xml-events"   height="25px"   width="43px" ><path fill="rgb( 158, 171, 178 )" d="M40.454,14.917 C40.454,14.917 38.7539999999999,14.917 38.7539999999999,14.917 C37.4749999999999,14.917 36.4380000000001,13.876 36.4380000000001,12.591 C36.4380000000001,11.306 37.4749999999999,10.264 38.7539999999999,10.264 C38.7539999999999,10.264 40.454,10.264 40.454,10.264 C41.7339999999999,10.264 42.771,11.306 42.771,12.591 C42.771,13.876 41.7339999999999,14.917 40.454,14.917 ZM31.297,14.917 C31.297,14.917 29.597,14.917 29.597,14.917 C28.317,14.917 27.28,13.876 27.28,12.591 C27.28,11.306 28.317,10.264 29.597,10.264 C29.597,10.264 31.297,10.264 31.297,10.264 C32.576,10.264 33.6130000000001,11.306 33.6130000000001,12.591 C33.6130000000001,13.876 32.576,14.917 31.297,14.917 ZM14.576,23.7089999999999 C13.671,24.617 12.204,24.617 11.3,23.7089999999999 C11.3,23.7089999999999 10.97,23.378 10.97,23.378 C10.066,22.4690000000001 10.066,20.997 10.97,20.088 C10.97,20.088 16.1189999999999,14.917 16.1189999999999,14.917 C16.1189999999999,14.917 2.54600000000005,14.917 2.54600000000005,14.917 C1.26600000000008,14.917 0.22900000000004,13.876 0.22900000000004,12.591 C0.22900000000004,11.306 1.26600000000008,10.264 2.54600000000005,10.264 C2.54600000000005,10.264 16.1189999999999,10.264 16.1189999999999,10.264 C16.1189999999999,10.264 10.97,5.09400000000005 10.97,5.09400000000005 C10.066,4.18499999999995 10.066,2.71199999999999 10.97,1.80399999999997 C10.97,1.80399999999997 11.3,1.47199999999998 11.3,1.47199999999998 C12.204,0.56399999999996 13.671,0.56399999999996 14.576,1.47199999999998 C14.576,1.47199999999998 24.008,10.946 24.008,10.946 C24.912,11.854 24.912,13.327 24.008,14.235 C24.008,14.235 14.576,23.7089999999999 14.576,23.7089999999999 Z "/></svg>