<?xml version="1.0" encoding="utf-8"?><!DOCTYPE svg PUBLIC "-//W3C//DTD SVG 1.1//EN" "http://www.w3.org/Graphics/SVG/1.1/DTD/svg11.dtd"><svg version="1.1" baseProfile="full" xmlns="http://www.w3.org/2000/svg" xmlns:xlink="http://www.w3.org/1999/xlink" xmlns:ev="http://www.w3.org/2001/xml-events"   height="48px"   width="49px" ><path fill="rgb( 158, 171, 178 )" d="M46.8510000000001,10.621 C46.8510000000001,10.621 24.5039999999999,0.19799999999998 24.5039999999999,0.19799999999998 C24.491,0.19200000000001 24.479,0.19000000000005 24.4670000000001,0.18399999999997 C24.3989999999999,0.154 24.326,0.13300000000004 24.2560000000001,0.11099999999999 C24.1980000000001,0.09199999999998 24.1420000000001,0.07100000000003 24.085,0.05799999999999 C24.0260000000001,0.04499999999996 23.9659999999999,0.04100000000005 23.9059999999999,0.03300000000002 C23.8299999999999,0.02300000000002 23.7570000000001,0.01300000000003 23.682,0.01099999999997 C23.6679999999999,0.01099999999997 23.6579999999999,0.00800000000004 23.643,0.00800000000004 C23.598,0.00800000000004 23.557,0.01800000000003 23.511,0.01999999999998 C23.4349999999999,0.02599999999995 23.3620000000001,0.02999999999997 23.289,0.04200000000003 C23.2249999999999,0.05499999999995 23.164,0.07100000000003 23.1020000000001,0.08799999999997 C23.04,0.10599999999999 22.9780000000001,0.12199999999996 22.9169999999999,0.14400000000001 C22.855,0.16899999999998 22.796,0.19799999999998 22.7380000000001,0.22799999999995 C22.681,0.25599999999997 22.624,0.28300000000002 22.5699999999999,0.31700000000001 C22.5160000000001,0.351 22.4670000000001,0.38900000000001 22.4159999999999,0.42700000000002 C22.364,0.46799999999996 22.3119999999999,0.50699999999995 22.2629999999999,0.553 C22.2159999999999,0.59699999999998 22.175,0.64300000000003 22.1320000000001,0.69200000000001 C22.0899999999999,0.73900000000003 22.047,0.78599999999994 22.01,0.83699999999999 C21.9670000000001,0.89800000000002 21.932,0.96100000000001 21.895,1.02499999999998 C21.873,1.06500000000005 21.846,1.09699999999998 21.826,1.13800000000003 C21.8209999999999,1.14999999999998 21.819,1.16300000000001 21.8130000000001,1.173 C21.7819999999999,1.24199999999996 21.761,1.31100000000004 21.7380000000001,1.38199999999995 C21.7190000000001,1.43799999999999 21.6969999999999,1.49400000000003 21.6849999999999,1.55100000000004 C21.671,1.60799999999995 21.6669999999999,1.66800000000001 21.6590000000001,1.726 C21.6489999999999,1.80100000000004 21.6379999999999,1.87199999999996 21.6369999999999,1.947 C21.6369999999999,1.95899999999995 21.633,1.97000000000003 21.633,1.98500000000001 C21.633,1.98500000000001 21.633,8.06899999999996 21.633,8.06899999999996 C21.633,8.06899999999996 17.309,10.309 17.309,10.309 C17.308,10.3099999999999 17.3050000000001,10.312 17.3040000000001,10.313 C17.3040000000001,10.313 1.91200000000003,18.297 1.91200000000003,18.297 C1.90000000000009,18.302 1.8900000000001,18.311 1.87899999999991,18.316 C1.86799999999994,18.323 1.85599999999999,18.326 1.846,18.332 C1.81600000000003,18.348 1.79099999999994,18.3680000000001 1.76299999999992,18.386 C1.72600000000011,18.41 1.6880000000001,18.432 1.65300000000002,18.458 C1.61699999999996,18.485 1.58300000000008,18.514 1.548,18.543 C1.51600000000008,18.571 1.48199999999997,18.598 1.452,18.627 C1.4190000000001,18.659 1.38799999999992,18.692 1.35699999999997,18.726 C1.32899999999995,18.7569999999999 1.29999999999995,18.7859999999999 1.27500000000009,18.8200000000001 C1.24700000000007,18.854 1.221,18.8920000000001 1.19599999999991,18.9299999999999 C1.17200000000003,18.963 1.14899999999989,18.998 1.12599999999998,19.032 C1.10300000000007,19.071 1.08300000000008,19.11 1.0619999999999,19.15 C1.0440000000001,19.188 1.02399999999989,19.224 1.00600000000009,19.2619999999999 C0.98800000000006,19.304 0.97499999999991,19.3440000000001 0.95900000000006,19.3869999999999 C0.94499999999994,19.428 0.93000000000006,19.465 0.91799999999989,19.5069999999999 C0.90499999999997,19.55 0.89699999999993,19.595 0.88599999999997,19.64 C0.87799999999993,19.681 0.86799999999994,19.72 0.86200000000008,19.761 C0.85500000000002,19.807 0.85200000000009,19.856 0.84899999999993,19.902 C0.84699999999998,19.937 0.84099999999989,19.97 0.83999999999992,20.005 C0.83999999999992,20.013 0.84099999999989,20.02 0.84099999999989,20.025 C0.84099999999989,20.033 0.83899999999994,20.04 0.83899999999994,20.048 C0.83899999999994,20.048 0.83899999999994,20.766 0.83899999999994,20.766 C0.83899999999994,20.766 0.83899999999994,28.5839999999999 0.83899999999994,28.5839999999999 C0.83899999999994,28.5839999999999 0.83899999999994,33.2569999999999 0.83899999999994,33.2569999999999 C0.83899999999994,34.349 1.73900000000003,35.239 2.84899999999993,35.239 C3.95900000000006,35.239 4.85899999999992,34.35 4.85899999999992,33.2569999999999 C4.85899999999992,33.2569999999999 4.85899999999992,32.138 4.85899999999992,32.138 C4.85899999999992,32.138 22.183,42.7140000000001 22.183,42.7140000000001 C22.183,42.7140000000001 22.183,46.018 22.183,46.018 C22.183,47.109 23.0830000000001,47.997 24.193,47.997 C25.3019999999999,47.997 26.202,47.111 26.202,46.018 C26.202,46.018 26.202,42.725 26.202,42.725 C26.202,42.725 43.9829999999999,32.023 43.9829999999999,32.023 C43.9829999999999,32.023 43.9829999999999,32.807 43.9829999999999,32.807 C43.9829999999999,33.899 44.883,34.788 45.9929999999999,34.788 C47.1020000000001,34.788 48.0039999999999,33.902 48.0039999999999,32.807 C48.0039999999999,32.807 48.0039999999999,28.492 48.0039999999999,28.492 C48.0039999999999,28.492 48.0039999999999,20.049 48.0039999999999,20.049 C48.0039999999999,20.049 48.0039999999999,12.41 48.0039999999999,12.41 C48,11.647 47.5519999999999,10.949 46.8510000000001,10.621 ZM23.6769999999999,11.486 C23.6769999999999,11.486 29.249,14.175 29.249,14.175 C29.249,14.175 27.973,15.067 27.973,15.067 C27.973,15.067 22.48,12.105 22.48,12.105 C22.48,12.105 23.6769999999999,11.486 23.6769999999999,11.486 ZM22.182,38.0599999999999 C22.182,38.0599999999999 4.85699999999997,27.4829999999999 4.85699999999997,27.4829999999999 C4.85699999999997,27.4829999999999 4.85699999999997,23.489 4.85699999999997,23.489 C4.85699999999997,23.489 22.182,33.409 22.182,33.409 C22.182,33.409 22.182,38.0599999999999 22.182,38.0599999999999 ZM24.202,29.986 C24.202,29.986 6.99600000000009,20.133 6.99600000000009,20.133 C6.99600000000009,20.133 18.212,14.318 18.212,14.318 C18.212,14.318 35.5129999999999,23.6420000000001 35.5129999999999,23.6420000000001 C35.5129999999999,23.6420000000001 24.202,29.986 24.202,29.986 ZM31.894,17.179 C31.894,17.179 33.356,16.1559999999999 33.356,16.1559999999999 C33.356,16.1559999999999 41.693,20.1799999999999 41.693,20.1799999999999 C41.693,20.1799999999999 39.6179999999999,21.342 39.6179999999999,21.342 C39.6179999999999,21.342 31.894,17.179 31.894,17.179 ZM43.981,27.385 C43.981,27.385 26.2,38.086 26.2,38.086 C26.2,38.086 26.2,33.421 26.2,33.421 C26.2,33.421 40.643,25.324 40.643,25.324 C40.646,25.3200000000001 40.6500000000001,25.319 40.654,25.3150000000001 C40.654,25.3150000000001 43.981,23.45 43.981,23.45 C43.981,23.45 43.981,27.385 43.981,27.385 ZM43.981,16.875 C43.981,16.875 25.653,8.03099999999995 25.653,8.03099999999995 C25.653,8.03099999999995 25.653,5.11500000000001 25.653,5.11500000000001 C25.653,5.11500000000001 43.981,13.665 43.981,13.665 C43.981,13.665 43.981,16.875 43.981,16.875 Z "/></svg>