<?xml version="1.0" encoding="UTF-8" standalone="no"?>
<svg width="46px" height="37px" viewBox="0 0 46 37" version="1.1" xmlns="http://www.w3.org/2000/svg" xmlns:xlink="http://www.w3.org/1999/xlink" xmlns:sketch="http://www.bohemiancoding.com/sketch/ns">
    <!-- Generator: Sketch 3.1.1 (8761) - http://www.bohemiancoding.com/sketch -->
    <title>car</title>
    <desc>Created with Sketch.</desc>
    <defs></defs>
    <g id="Page-1" stroke="none" stroke-width="1" fill="none" fill-rule="evenodd" sketch:type="MSPage">
        <g id="car" sketch:type="MSLayerGroup">
            <path d="M45.5255814,16.9705432 L45.0071698,15.4561378 C44.7201256,14.617276 43.8070283,13.9404952 42.970641,13.9404952 L41.0887697,13.9404952 C39.6758196,9.97879105 37.9486056,5.19802123 37.4462784,4.07706433 C36.666805,2.33624054 34.1700158,1.54934364 32.7991325,1.16703053 C32.7991325,1.16703053 30.5064911,0.296 22.8627034,0.296 C15.2176783,0.296 12.9250369,1.16579327 12.9250369,1.16579327 C11.3190744,1.70276379 9.08458412,2.46244098 8.19746923,4.1537744 C7.78051285,4.95056937 6.02731647,9.86743771 4.59951927,13.939258 L2.75600296,13.939258 C1.91837843,13.939258 1.00651835,14.6185133 0.7194742,15.4561378 L0.198588048,16.9705432 C-0.0872188435,17.809405 0.358194494,18.4861858 1.19581902,18.4861858 L3.01459015,18.4861858 C2.78074814,19.1679156 2.63722607,19.5811602 2.63722607,19.5811602 C2.49246673,19.8273748 2.3872997,20.9619416 2.3872997,21.2663074 L2.3872997,29.8565985 L2.3872997,30.455432 L2.3872997,35.0741208 C2.3872997,35.9599985 3.10738459,36.6800833 3.99326223,36.6800833 L9.88137909,36.6800833 C10.768494,36.6800833 11.4873416,35.9599985 11.4873416,35.0741208 L11.4873416,32.1319183 L34.2368278,32.1319183 L34.2368278,35.0741208 C34.2368278,35.9599985 34.9556755,36.6800833 35.8427904,36.6800833 L41.72967,36.6800833 C42.6167849,36.6800833 43.3356325,35.9599985 43.3356325,35.0741208 L43.3356325,30.455432 L43.3356325,29.8565985 L43.3356325,21.2650701 C43.3356325,20.9607043 43.2317027,19.8261376 43.0857061,19.5811602 C43.0857061,19.5811602 42.9397095,19.1679156 42.6996812,18.4861858 L44.5283504,18.4861858 C45.365975,18.4861858 45.8113883,17.8081677 45.5255814,16.9705432 L45.5255814,16.9705432 Z" id="Path" fill="#FFFFFF" sketch:type="MSShapeGroup"></path>
            <path d="M11.4526984,25.4296848 L9.02024664,25.4296848 C6.84019581,25.4296848 4.66261949,25.1364544 4.66261949,23.7531985 L4.66261949,22.0779494 C4.66261949,20.4620888 5.60293654,20.4027004 6.61501462,20.4027004 C7.60358478,20.4027004 9.56340346,21.2390877 10.8526276,21.8168877 C12.2581542,22.4441782 13.8319479,22.9700134 13.8319479,24.0167347 C13.8331852,24.9842715 13.2887911,25.4296848 11.4526984,25.4296848 Z M8.06137071,14.550464 C9.25903768,9.5791563 10.5606344,6.77305228 10.8489158,5.9886299 C11.0778088,5.4207279 11.3017527,3.66381973 22.8627034,3.66381973 C34.4248912,3.66381973 34.695851,5.66817975 34.724308,5.69292493 C35.0806386,6.75820517 36.494826,9.96641845 37.6244437,14.5479895 C37.6244437,14.5479895 32.7422186,16.210866 22.8602288,16.210866 C12.9770018,16.210866 8.06137071,14.550464 8.06137071,14.550464 Z M31.889747,24.0142602 C31.889747,22.9663016 33.4635408,22.4429409 34.8690673,21.8156505 C36.1595287,21.2403249 38.1181101,20.4014631 39.1079176,20.4014631 C40.1199956,20.4014631 41.0590754,20.4596143 41.0590754,22.0767122 L41.0590754,23.7531985 L41.06155,23.7531985 C41.06155,25.1376916 38.8839736,25.4284475 36.7051601,25.4284475 L34.2689966,25.4284475 C32.4353783,25.4296848 31.889747,24.9842715 31.889747,24.0142602 Z" id="Shape" fill="#38B4F2" sketch:type="MSShapeGroup"></path>
        </g>
    </g>
</svg>