<?xml version="1.0" encoding="utf-8"?><!DOCTYPE svg PUBLIC "-//W3C//DTD SVG 1.1//EN" "http://www.w3.org/Graphics/SVG/1.1/DTD/svg11.dtd"><svg version="1.1" baseProfile="full" xmlns="http://www.w3.org/2000/svg" xmlns:xlink="http://www.w3.org/1999/xlink" xmlns:ev="http://www.w3.org/2001/xml-events"   height="26px"   width="26px" ><path opacity="0.902" fill="rgb( 0, 121, 187 )" d="M23.607,10.1849999999999 C23.607,10.1849999999999 22.5,10.1849999999999 22.5,10.1849999999999 C22.1980000000001,10.1849999999999 21.9490000000001,10.1849999999999 21.9490000000001,10.1849999999999 C21.9490000000001,10.1849999999999 21.702,10.183 21.4010000000001,10.183 C21.4010000000001,10.183 15.692,10.1849999999999 15.692,10.1849999999999 C15.204,10.2 14.2449999999999,9.62100000000009 15.0989999999999,8.61599999999999 C15.0989999999999,8.61599999999999 16.3199999999999,7.41699999999992 17.3789999999999,6.3900000000001 C14.2550000000001,4.51700000000005 10.1199999999999,4.89599999999996 7.41599999999994,7.5440000000001 C5.70000000000005,9.22600000000011 4.92900000000009,11.471 5.07300000000009,13.672 C5.07300000000009,13.672 1.01099999999997,13.672 1.01099999999997,13.672 C0.87100000000009,10.452 2.03999999999996,7.19200000000001 4.548,4.7349999999999 C8.84699999999998,0.52299999999991 15.5519999999999,0.13799999999992 20.3109999999999,3.5440000000001 C21.241,2.6400000000001 22.588,1.35400000000004 22.588,1.35400000000004 C23.402,0.56899999999996 24.191,1.25099999999998 24.1559999999999,1.95399999999995 C24.1559999999999,1.95399999999995 24.1559999999999,9.64699999999993 24.1559999999999,9.64699999999993 C24.155,9.94399999999996 23.9090000000001,10.1849999999999 23.607,10.1849999999999 ZM2.3900000000001,15.8209999999999 C2.3900000000001,15.8209999999999 3.5,15.8209999999999 3.5,15.8209999999999 C3.80199999999991,15.8209999999999 4.04999999999995,15.8209999999999 4.04999999999995,15.8209999999999 C4.04999999999995,15.8209999999999 4.29700000000003,15.8219999999999 4.59799999999996,15.8219999999999 C4.59799999999996,15.8219999999999 10.307,15.8209999999999 10.307,15.8209999999999 C10.7950000000001,15.8050000000001 11.7550000000001,16.385 10.9000000000001,17.3889999999999 C10.9000000000001,17.3889999999999 9.67900000000009,18.588 8.62100000000009,19.616 C11.7449999999999,21.4870000000001 15.8789999999999,21.1099999999999 18.5830000000001,18.46 C20.3,16.778 21.0699999999999,14.5350000000001 20.9259999999999,12.3340000000001 C20.9259999999999,12.3340000000001 24.9880000000001,12.3340000000001 24.9880000000001,12.3340000000001 C25.1279999999999,15.5540000000001 23.9570000000001,18.8130000000001 21.45,21.271 C17.153,25.4829999999999 10.4480000000001,25.8679999999999 5.6880000000001,22.462 C4.75700000000006,23.364 3.41000000000008,24.6500000000001 3.41000000000008,24.6500000000001 C2.59500000000003,25.4349999999999 1.80799999999999,24.7529999999999 1.8420000000001,24.05 C1.8420000000001,24.05 1.8420000000001,16.3579999999999 1.8420000000001,16.3579999999999 C1.84300000000007,16.0630000000001 2.08799999999997,15.8209999999999 2.3900000000001,15.8209999999999 ZM20.9259999999999,12.3340000000001 C20.9259999999999,12.3340000000001 20.9259999999999,12.3340000000001 20.9259999999999,12.3340000000001 C20.9259999999999,12.3340000000001 20.9259999999999,12.3340000000001 20.9259999999999,12.3340000000001 C20.9259999999999,12.3340000000001 20.9259999999999,12.3340000000001 20.9259999999999,12.3340000000001 Z "/></svg>