<?xml version="1.0" encoding="utf-8"?><!DOCTYPE svg PUBLIC "-//W3C//DTD SVG 1.1//EN" "http://www.w3.org/Graphics/SVG/1.1/DTD/svg11.dtd"><svg version="1.1" baseProfile="full" xmlns="http://www.w3.org/2000/svg" xmlns:xlink="http://www.w3.org/1999/xlink" xmlns:ev="http://www.w3.org/2001/xml-events"   height="30px"   width="34px" ><path fill="rgb( 0, 121, 187 )" d="M11.463,29.3 C11.12,29.4770000000001 10.711,29.499 10.3,29.0889999999999 C10.3,29.0889999999999 0.90700000000001,19.529 0.90700000000001,19.529 C0.07599999999999,18.6849999999999 0.27000000000001,17.5719999999999 1.232,16.8789999999999 C2.46299999999999,15.9929999999999 4.108,14.549 5.49600000000001,12.4390000000001 C6.14599999999999,11.4490000000001 7.07599999999999,11.383 7.71799999999999,12.377 C7.71799999999999,12.377 10.035,15.961 10.035,15.961 C10.679,16.9559999999999 11.419,18.204 11.817,18.0640000000001 C11.978,18.0070000000001 12.173,17.8679999999999 12.407,17.5920000000001 C12.407,17.5920000000001 26.616,1.39499999999998 26.616,1.39499999999998 C27.355,0.47000000000003 28.399,0.56899999999996 28.948,1.61800000000005 C28.948,1.61800000000005 33.369,6.29200000000003 33.369,6.29200000000003 C33.918,7.34000000000003 33.613,8.79200000000003 32.687,9.53199999999993 C32.687,9.53199999999993 14.035,27.0650000000001 14.035,27.0650000000001 C13.111,27.806 12.093,28.9780000000001 11.463,29.3 Z "/></svg>