<?xml version="1.0" encoding="UTF-8" standalone="no"?>
<svg width="41px" height="32px" viewBox="0 0 41 32" version="1.1" xmlns="http://www.w3.org/2000/svg" xmlns:xlink="http://www.w3.org/1999/xlink" xmlns:sketch="http://www.bohemiancoding.com/sketch/ns">
    <!-- Generator: Sketch 3.1.1 (8761) - http://www.bohemiancoding.com/sketch -->
    <title>envelope</title>
    <desc>Created with Sketch.</desc>
    <defs></defs>
    <g id="Page-1" stroke="none" stroke-width="1" fill="none" fill-rule="evenodd" sketch:type="MSPage">
        <path d="M36.346,1.485 L4.653,1.485 C2.366,1.485 0.506,3.513 0.506,6.004 L0.506,25.995 C0.506,28.487 2.366,30.515 4.653,30.515 L36.347,30.515 C38.634,30.515 40.494,28.488 40.494,25.995 L40.494,6.004 C40.493,3.513 38.633,1.485 36.346,1.485 L36.346,1.485 Z M4.653,3.347 L36.347,3.347 C36.936,3.347 37.471,3.586 37.893,3.967 L20.5,19.868 L3.107,3.967 C3.529,3.586 4.064,3.347 4.653,3.347 L4.653,3.347 Z M2.215,25.995 L2.215,6.004 C2.215,5.871 2.234,5.743 2.251,5.614 L13.407,15.814 L2.751,27.636 C2.421,27.183 2.215,26.617 2.215,25.995 L2.215,25.995 Z M36.346,28.653 L4.653,28.653 C4.522,28.653 4.396,28.632 4.271,28.611 L14.721,17.017 L19.951,21.798 C20.109,21.944 20.305,22.016 20.5,22.016 C20.695,22.016 20.891,21.944 21.049,21.798 L26.274,17.021 L36.562,28.629 C36.49,28.636 36.42,28.653 36.346,28.653 L36.346,28.653 Z M38.785,25.995 C38.785,26.671 38.545,27.282 38.162,27.752 L27.586,15.821 L38.748,5.614 C38.766,5.742 38.784,5.871 38.784,6.004 L38.784,25.995 L38.785,25.995 L38.785,25.995 Z" id="envelope" stroke="#38B4F2" fill="#38B4F2" sketch:type="MSShapeGroup"></path>
    </g>
</svg>