<?xml version="1.0" encoding="UTF-8" standalone="no"?>
<svg width="1082px" height="40px" viewBox="0 0 1082 40" version="1.1" xmlns="http://www.w3.org/2000/svg" xmlns:xlink="http://www.w3.org/1999/xlink" xmlns:sketch="http://www.bohemiancoding.com/sketch/ns">
    <!-- Generator: Sketch 3.2.1 (9977) - http://www.bohemiancoding.com/sketch -->
    <title>detail offer selected L 16.psd (all selected layers)</title>
    <desc>Created with Sketch.</desc>
    <defs></defs>
    <g id="Page-1" stroke="none" stroke-width="1" fill="none" fill-rule="evenodd" sketch:type="MSPage">
        <g id="detail-offer-selected-L-16.psd-(all-selected-layers)" sketch:type="MSLayerGroup">
            <path d="M581.5,19.5 L1081.5,19.5" id="Line" stroke="#B0C4CF" stroke-linecap="square" sketch:type="MSShapeGroup"></path>
            <path d="M0.5,19.5 L500.5,19.5" id="Line-2" stroke="#B0C4CF" stroke-linecap="square" sketch:type="MSShapeGroup"></path>
            <path d="M557.953532,22.717 C559.495532,21.941 560.312532,20.97 560.405532,19.798 C560.304532,18.627 559.480532,17.648 557.933532,16.861 C556.385532,16.076 554.695532,15.681 552.861532,15.673 L547.068532,15.656 L537.857532,0.551 C537.724532,0.294 537.495532,0.158 537.169532,0.147 L532.534532,0.132 C532.269532,0.13 532.052532,0.241 531.884532,0.459 C531.728532,0.69 531.687532,0.94 531.760532,1.209 L535.954532,15.622 L526.578532,15.592 L524.010532,11.066 C523.998532,11.028 523.956532,10.972 523.883532,10.901 C523.713532,10.729 523.520532,10.641 523.303532,10.641 L519.809532,10.649 C519.544532,10.673 519.340532,10.77 519.195532,10.941 C519.027532,11.159 518.967532,11.379 519.016532,11.6 L520.185532,19.67 L519.073532,27.735 C519.049532,27.979 519.116532,28.206 519.274532,28.413 L519.310532,28.451 C519.480532,28.622 519.673532,28.709 519.890532,28.709 L523.365532,28.719 C523.691532,28.707 523.926532,28.569 524.070532,28.301 L526.606532,23.79 L535.983532,23.818 L531.887532,38.206 C531.804532,38.438 531.834532,38.663 531.980532,38.884 C532.004532,38.933 532.041532,38.981 532.089532,39.03 C532.234532,39.176 532.385532,39.256 532.543532,39.269 L536.599532,39.868 C536.973532,39.906 537.244532,39.778 537.412532,39.486 L547.061532,23.854 L552.889532,23.873 C554.723532,23.878 556.411532,23.493 557.953532,22.717 L557.953532,22.717 Z" id="Shape" fill="#B0C4CF" sketch:type="MSShapeGroup"></path>
        </g>
    </g>
</svg>