<?xml version="1.0" encoding="UTF-8" standalone="no"?>
<svg width="42px" height="44px" viewBox="0 0 42 44" version="1.1" xmlns="http://www.w3.org/2000/svg" xmlns:xlink="http://www.w3.org/1999/xlink" xmlns:sketch="http://www.bohemiancoding.com/sketch/ns">
    <!-- Generator: Sketch 3.1.1 (8761) - http://www.bohemiancoding.com/sketch -->
    <title>Vector 1</title>
    <desc>Created with Sketch.</desc>
    <defs></defs>
    <g id="Page-1" stroke="none" stroke-width="1" fill="none" fill-rule="evenodd" sketch:type="MSPage">
        <path d="M34.386,43.088 C33.923,43.555 31.185,43.793 30.544,43.8 C30.552,43.801 30.56,43.803 30.568,43.803 L30.507,43.803 C30.516,43.803 30.525,43.8 30.534,43.799 C29.903,43.793 29.355,43.556 28.891,43.088 C28.419,42.612 28.183,42.046 28.183,41.395 L28.183,21.879 L25.478,21.879 C25.316,21.879 25.176,21.82 25.059,21.7 C24.941,21.581 24.882,21.44 24.882,21.277 L24.882,6.221 C24.882,4.565 25.466,3.148 26.633,1.969 C27.8,0.789 31.406,0.199 33.045,0.199 L33.902,0.199 C34.225,0.199 34.504,0.318 34.74,0.556 C34.976,0.795 35.094,1.079 35.094,1.404 L35.094,41.395 C35.094,42.046 34.858,42.612 34.386,43.088 L34.386,43.088 Z M17.769,15.866 L17.769,40.9 C17.769,41.552 17.533,42.118 17.061,42.594 C16.598,43.062 14.954,43.298 14.319,43.306 C14.327,43.307 14.335,43.31 14.344,43.31 L14.283,43.31 C14.292,43.31 14.3,43.307 14.308,43.306 C13.672,43.298 12.029,43.062 11.567,42.594 C11.094,42.118 10.858,41.552 10.858,40.9 L10.858,15.866 C10.15,15.615 5.906,13.226 5.906,12.459 L5.906,2.391 C5.906,2.065 6.024,1.785 6.26,1.545 C6.496,1.307 7.876,1.187 8.199,1.187 C8.522,1.187 8.802,1.307 9.037,1.545 C9.274,1.782 9.391,2.065 9.391,2.391 L9.391,10.219 C9.391,10.547 9.509,10.828 9.745,11.069 C9.981,11.305 10.26,11.424 10.583,11.424 C10.906,11.424 11.186,11.305 11.422,11.069 C11.657,10.828 11.776,10.547 11.776,10.219 L11.776,2.391 C11.776,2.065 11.894,1.785 12.13,1.545 C12.365,1.307 13.746,1.187 14.069,1.187 C14.392,1.187 15.772,1.307 16.008,1.545 C16.244,1.782 16.362,2.065 16.362,2.391 L16.362,10.219 C16.362,10.547 16.481,10.828 16.716,11.069 C16.952,11.305 17.231,11.424 17.554,11.424 C17.877,11.424 18.156,11.305 18.393,11.069 C18.628,10.828 18.747,10.547 18.747,10.219 L18.747,2.391 C18.747,2.065 18.865,1.785 19.1,1.545 C19.336,1.307 19.615,1.187 19.939,1.187 C20.261,1.187 21.642,1.307 21.878,1.545 C22.114,1.782 22.232,2.065 22.232,2.391 L22.232,12.461 C22.232,13.226 18.477,15.616 17.769,15.866 L17.769,15.866 Z" id="nom-nom" fill="#9EABB2" sketch:type="MSShapeGroup"></path>
    </g>
</svg>