<?xml version="1.0" encoding="UTF-8" standalone="no"?>
<svg width="38px" height="38px" viewBox="0 0 38 38" version="1.1" xmlns="http://www.w3.org/2000/svg" xmlns:xlink="http://www.w3.org/1999/xlink" xmlns:sketch="http://www.bohemiancoding.com/sketch/ns">
    <!-- Generator: Sketch 3.2 (9961) - http://www.bohemiancoding.com/sketch -->
    <title>Shape</title>
    <desc>Created with Sketch.</desc>
    <defs></defs>
    <g id="Page-1" stroke="none" stroke-width="1" fill="none" fill-rule="evenodd" sketch:type="MSPage">
        <path d="M18.343,18.116 C17.602,18.855 16.397,18.855 15.657,18.116 L4.299,6.77300001 L4.299,15.984 C4.299,16.518 4.072,17.029 3.676,17.388 C3.281,17.746 2.747,17.923 2.213,17.871 C1.253,17.78 0.5,16.924 0.5,15.925 L0.5,2.14400001 L0.628,1.51800001 C0.835,1.01400001 1.208,0.639000012 1.672,0.448000012 C1.718,0.428000012 2.347,0.300000012 2.347,0.300000012 L16.207,0.300000012 C17.255,0.300000012 18.107,1.14900001 18.107,2.19600001 C18.107,3.24200001 17.255,4.09300001 16.207,4.09300001 L6.985,4.09300001 L18.343,15.434 C18.701,15.792 18.899,16.268 18.899,16.775 C18.899,17.282 18.701,17.758 18.343,18.116 Z M37.3530004,36.0989996 C37.1650004,36.5579996 36.7910004,36.9309996 36.3270004,37.1249996 L36.2800004,37.1449996 L35.6520004,37.2729996 L21.7910004,37.2729996 C20.7440004,37.2729996 19.8920004,36.4209996 19.8920004,35.3759996 C19.8920004,34.3299996 20.7440004,33.4789996 21.7910004,33.4789996 L31.0150004,33.4789996 L19.6570004,22.1379996 C19.2980004,21.7799996 19.1000004,21.3029996 19.1000004,20.7969996 C19.1000004,20.2909996 19.2980004,19.8139996 19.6570004,19.4549996 C20.0150004,19.0979996 20.4920004,18.8999996 21.0000004,18.8999996 C21.5070004,18.8999996 21.9840004,19.0979996 22.3420004,19.4549996 L33.7000004,30.7969996 L33.7000004,21.5879996 C33.7000004,21.0549996 33.9270004,20.5419996 34.3230004,20.1839996 C34.7180004,19.8239996 35.2510004,19.6489996 35.7860004,19.6999996 C36.7470004,19.7929996 37.4990004,20.6479996 37.4990004,21.6479996 L37.4990004,35.4279996 L37.3710004,36.0539996 L37.3530004,36.0989996 L37.3530004,36.0989996 Z" id="Shape" fill="#FFFFFF" sketch:type="MSShapeGroup"></path>
    </g>
</svg>