<?xml version="1.0" encoding="utf-8"?><!DOCTYPE svg PUBLIC "-//W3C//DTD SVG 1.1//EN" "http://www.w3.org/Graphics/SVG/1.1/DTD/svg11.dtd"><svg version="1.1" baseProfile="full" xmlns="http://www.w3.org/2000/svg" xmlns:xlink="http://www.w3.org/1999/xlink" xmlns:ev="http://www.w3.org/2001/xml-events"   height="49px"   width="49px" ><path fill="rgb( 180, 199, 209 )" d="M24.473,48.4960000000001 C11.217,48.4960000000001 0.46799999999999,37.7429999999999 0.46799999999999,24.489 C0.46799999999999,11.232 11.217,0.4849999999999 24.473,0.4849999999999 C37.729,0.4849999999999 48.48,11.232 48.48,24.489 C48.48,37.7429999999999 37.729,48.4960000000001 24.473,48.4960000000001 ZM18.088,21.4169999999999 C18.088,21.4169999999999 17.708,22.982 17.708,22.982 C17.984,22.876 18.321,22.768 18.708,22.6479999999999 C19.1,22.5340000000001 19.481,22.479 19.852,22.479 C20.609,22.479 21.118,22.604 21.388,22.8589999999999 C21.655,23.114 21.789,23.567 21.789,24.2139999999999 C21.789,24.576 21.747,24.9739999999999 21.66,25.4090000000001 C21.573,25.8420000000001 21.464,26.3050000000001 21.337,26.7919999999999 C21.337,26.7919999999999 19.899,31.8720000000001 19.899,31.8720000000001 C19.772,32.4069999999999 19.68,32.883 19.621,33.306 C19.564,33.7280000000001 19.536,34.146 19.536,34.5519999999999 C19.536,35.597 19.92,36.4570000000001 20.691,37.134 C21.462,37.8140000000001 22.545,38.155 23.936,38.155 C24.841,38.155 25.637,38.0350000000001 26.321,37.797 C27.007,37.559 27.922,37.213 29.071,36.761 C29.071,36.761 29.455,35.1969999999999 29.455,35.1969999999999 C29.254,35.2909999999999 28.937,35.3989999999999 28.498,35.52 C28.056,35.6410000000001 27.665,35.703 27.315,35.703 C26.574,35.703 26.051,35.5809999999999 25.752,35.336 C25.45,35.0930000000001 25.3,34.635 25.3,33.96 C25.3,33.693 25.346,33.297 25.438,32.778 C25.533,32.258 25.637,31.7929999999999 25.754,31.386 C25.754,31.386 27.185,26.3219999999999 27.185,26.3219999999999 C27.325,25.855 27.421,25.345 27.472,24.788 C27.523,24.2329999999999 27.549,23.8430000000001 27.549,23.6220000000001 C27.549,22.556 27.173,21.6890000000001 26.427,21.0219999999999 C25.677,20.3579999999999 24.611,20.021 23.229,20.021 C22.464,20.021 21.651,20.1559999999999 20.791,20.431 C19.931,20.7049999999999 19.029,21.0329999999999 18.088,21.4169999999999 ZM28.818,11.6880000000001 C28.152,11.0599999999999 27.347,10.7470000000001 26.408,10.7470000000001 C25.47,10.7470000000001 24.661,11.0599999999999 23.989,11.6880000000001 C23.322,12.3119999999999 22.982,13.068 22.982,13.9469999999999 C22.982,14.828 23.32,15.5830000000001 23.989,16.202 C24.661,16.8219999999999 25.47,17.1320000000001 26.408,17.1320000000001 C27.347,17.1320000000001 28.15,16.8219999999999 28.818,16.202 C29.485,15.5830000000001 29.819,14.8299999999999 29.819,13.9469999999999 C29.819,13.068 29.485,12.3119999999999 28.818,11.6880000000001 Z "/></svg>