<?xml version="1.0" encoding="UTF-8" standalone="no"?>
<svg width="46px" height="41px" viewBox="0 0 46 41" version="1.1" xmlns="http://www.w3.org/2000/svg" xmlns:xlink="http://www.w3.org/1999/xlink" xmlns:sketch="http://www.bohemiancoding.com/sketch/ns">
    <!-- Generator: Sketch 3.1.1 (8761) - http://www.bohemiancoding.com/sketch -->
    <title>Shape</title>
    <desc>Created with Sketch.</desc>
    <defs></defs>
    <g id="Page-1" stroke="none" stroke-width="1" fill="none" fill-rule="evenodd" sketch:type="MSPage">
        <path d="M44.486,10.272 C45.557,8.66 45.809,7.264 45.242,6.082 C44.486,5.007 43.131,4.523 41.178,4.631 C39.224,4.738 37.35,5.303 35.554,6.324 L29.884,9.548 L12.4,0.125 C12.125,-0.05 11.825,-0.051 11.499,0.119 L6.963,2.699 C6.703,2.846 6.552,3.074 6.511,3.379 C6.488,3.689 6.589,3.953 6.811,4.172 L19.005,15.737 L9.827,20.956 L4.775,18.025 C4.742,17.995 4.67,17.966 4.558,17.936 C4.296,17.865 4.059,17.891 3.846,18.011 L0.437,19.974 C0.191,20.145 0.045,20.353 -2.3939184e-16,20.597 C-0.042,20.903 0.023,21.148 0.195,21.333 L5.87,28.471 L9.313,36.879 C9.427,37.128 9.62,37.309 9.891,37.422 L9.947,37.436 C10.209,37.507 10.446,37.482 10.659,37.361 L14.061,35.426 C14.373,35.233 14.524,34.967 14.514,34.629 L14.459,28.853 L23.638,23.632 L27.716,39.813 C27.764,40.083 27.922,40.283 28.187,40.416 C28.238,40.449 28.302,40.476 28.376,40.495 C28.6,40.555 28.793,40.548 28.953,40.472 L33.254,38.779 C33.64,38.607 33.834,38.332 33.834,37.957 L34.482,17.467 L40.187,14.222 C41.982,13.201 43.416,11.884 44.486,10.272 L44.486,10.272 Z" id="Shape" fill="#38B4F2" sketch:type="MSShapeGroup"></path>
    </g>
</svg>