<?xml version="1.0" encoding="UTF-8" standalone="no"?>
<svg width="48px" height="49px" viewBox="0 0 48 49" version="1.1" xmlns="http://www.w3.org/2000/svg" xmlns:xlink="http://www.w3.org/1999/xlink" xmlns:sketch="http://www.bohemiancoding.com/sketch/ns">
    <!-- Generator: Sketch 3.2.2 (9983) - http://www.bohemiancoding.com/sketch -->
    <title>Shape</title>
    <desc>Created with Sketch.</desc>
    <defs></defs>
    <g id="Page-1" stroke="none" stroke-width="1" fill="none" fill-rule="evenodd" sketch:type="MSPage">
        <path d="M32.7172422,15.6049335 C28.126448,10.9184978 25.3890386,5.26156288 24.7250202,-0.002 C30.6291842,0.185838551 36.4840135,2.56240457 40.9881386,7.16308792 C45.489597,11.7624101 47.8243285,17.7337704 47.999,23.7609379 C42.8415234,23.0817245 37.3093697,20.2913693 32.7172422,15.6049335 L32.7172422,15.6049335 Z M47.9069974,26.7976611 C47.4096503,32.2858136 45.1015862,37.6405734 40.9828051,41.841079 C36.8600239,46.0415845 31.629212,48.4004556 26.2450624,48.9095253 C25.5663769,42.8973305 22.5489597,36.4917637 17.3994833,31.2363677 C12.2526737,25.9823329 5.98316623,22.9061363 0.0870024445,22.2078669 C0.587016334,16.7197145 2.89641382,11.3676769 7.01519489,7.16717137 C11.1353093,2.9639435 16.3767883,0.605072419 21.7476041,0.0932804245 C22.4342899,6.11228095 25.451707,12.5178478 30.5971833,17.7718826 C35.7439929,23.0259174 42.0241674,26.102114 47.9069974,26.7976611 L47.9069974,26.7976611 Z M23.2703131,48.998 C17.3674825,48.8224118 11.5179866,46.4349566 7.01519489,41.8383567 C2.50973641,37.2417568 0.172338148,31.2690353 -0.001,25.2445902 C5.15380986,25.9265258 10.6926304,28.7182422 15.2794245,33.4033168 C19.871552,38.0897525 22.6062946,43.742604 23.2703131,48.998 L23.2703131,48.998 Z" id="Shape" fill="#B0C4CF" sketch:type="MSShapeGroup"></path>
    </g>
</svg>