<?xml version="1.0" encoding="UTF-8" standalone="no"?>
<svg width="24px" height="24px" viewBox="0 0 24 24" version="1.1" xmlns="http://www.w3.org/2000/svg" xmlns:xlink="http://www.w3.org/1999/xlink" xmlns:sketch="http://www.bohemiancoding.com/sketch/ns">
    <!-- Generator: Sketch 3.1.1 (8761) - http://www.bohemiancoding.com/sketch -->
    <title>Shape</title>
    <desc>Created with Sketch.</desc>
    <defs></defs>
    <g id="Page-1" stroke="none" stroke-width="1" fill="none" fill-rule="evenodd" sketch:type="MSPage">
        <path d="M22.607,9.185 L21.5,9.185 L20.949,9.185 C20.949,9.185 20.702,9.183 20.401,9.183 L14.692,9.185 C14.204,9.2 13.245,8.621 14.099,7.616 C14.099,7.616 15.32,6.417 16.379,5.39 C13.255,3.517 9.12,3.896 6.416,6.544 C4.7,8.226 3.929,10.471 4.073,12.672 L0.011,12.672 C-0.129,9.452 1.04,6.192 3.548,3.735 C7.847,-0.477 14.552,-0.862 19.311,2.544 C20.241,1.64 21.588,0.354 21.588,0.354 C22.402,-0.431 23.191,0.251 23.156,0.954 L23.156,8.647 C23.155,8.944 22.909,9.185 22.607,9.185 L22.607,9.185 Z M1.39,14.821 L2.5,14.821 L3.05,14.821 C3.05,14.821 3.297,14.822 3.598,14.822 L9.307,14.821 C9.795,14.805 10.755,15.385 9.9,16.389 C9.9,16.389 8.679,17.588 7.621,18.616 C10.745,20.487 14.879,20.11 17.583,17.46 C19.3,15.778 20.07,13.535 19.926,11.334 L23.988,11.334 C24.128,14.554 22.957,17.813 20.45,20.271 C16.153,24.483 9.448,24.868 4.688,21.462 C3.757,22.364 2.41,23.65 2.41,23.65 C1.595,24.435 0.808,23.753 0.842,23.05 L0.842,15.358 C0.843,15.063 1.088,14.821 1.39,14.821 L1.39,14.821 Z" id="Shape" opacity="0.902" fill="#A3B6C0" sketch:type="MSShapeGroup"></path>
    </g>
</svg>