<?xml version="1.0" encoding="utf-8"?><!DOCTYPE svg PUBLIC "-//W3C//DTD SVG 1.1//EN" "http://www.w3.org/Graphics/SVG/1.1/DTD/svg11.dtd"><svg version="1.1" baseProfile="full" xmlns="http://www.w3.org/2000/svg" xmlns:xlink="http://www.w3.org/1999/xlink" xmlns:ev="http://www.w3.org/2001/xml-events"   height="37px"   width="37px" ><path fill="rgb( 56, 180, 242 )" d="M34.2239999999999,2.76999999999998 C36.001,4.54600000000005 35.998,7.42699999999991 34.2239999999999,9.20499999999993 C34.2239999999999,9.20499999999993 32.079,11.3489999999999 32.079,11.3489999999999 C32.079,11.3489999999999 25.643,4.91399999999999 25.643,4.91399999999999 C25.643,4.91399999999999 27.787,2.76999999999998 27.787,2.76999999999998 C29.5650000000001,0.99299999999994 32.4469999999999,0.99299999999994 34.2239999999999,2.76999999999998 ZM1.82999999999993,29.3979999999999 C1.82999999999993,29.3979999999999 0.39899999999989,35.1289999999999 0.39899999999989,35.1289999999999 C0.17699999999991,36.0150000000001 0.97900000000004,36.816 1.86500000000001,36.595 C1.86500000000001,36.595 7.596,35.163 7.596,35.163 C8.18000000000006,35.0150000000001 8.71299999999997,34.7139999999999 9.1389999999999,34.289 C9.1389999999999,34.289 29.9349999999999,13.4929999999999 29.9349999999999,13.4929999999999 C29.9349999999999,13.4929999999999 23.498,7.05899999999997 23.498,7.05899999999997 C23.498,7.05899999999997 2.70399999999995,27.855 2.70399999999995,27.855 C2.27800000000002,28.2809999999999 1.97600000000011,28.8150000000001 1.82999999999993,29.3979999999999 Z "/></svg>