<?xml version="1.0" encoding="UTF-8" standalone="no"?>
<svg width="188px" height="152px" viewBox="0 0 188 152" version="1.1" xmlns="http://www.w3.org/2000/svg" xmlns:xlink="http://www.w3.org/1999/xlink" xmlns:sketch="http://www.bohemiancoding.com/sketch/ns">
    <!-- Generator: Sketch 3.1 (8751) - http://www.bohemiancoding.com/sketch -->
    <title>logo-anvr</title>
    <desc>Created with Sketch.</desc>
    <defs></defs>
    <g id="Page-1" stroke="none" stroke-width="1" fill="none" fill-rule="evenodd" sketch:type="MSPage">
        <g id="logo-anvr" sketch:type="MSLayerGroup">
            <path d="M90.6,45.5 L90.6,50.6 L46.2,50.6 C47.2,45.5 48.6,40.4 50.6,35.6 C62.6,42.1 76.5,44.3 90.6,45.5 L90.6,45.5 L90.6,45.5 Z" id="Shape" fill="#E13451" sketch:type="MSShapeGroup"></path>
            <path d="M135.5,36.8 C137.3,41.2 138.8,45.8 139.6,50.7 L96,50.7 L96,45.6 C109.7,45.1 123.2,41.9 135.5,36.8 L135.5,36.8 L135.5,36.8 Z" id="Shape" fill="#E13451" sketch:type="MSShapeGroup"></path>
            <path d="M90.6,40.2 C77.2,39.5 64.4,36.8 53.3,30.6 C58.7,18.5 68.7,5.4 82.4,1 C84.9,0.2 87.5,0 90.6,0 L90.6,40.2 L90.6,40.2 L90.6,40.2 Z" id="Shape" fill="#E13451" sketch:type="MSShapeGroup"></path>
            <path d="M126.6,19.8 C127.2,21.1 128.4,22.8 129.4,24.2 C130.5,26.6 132.4,29 133.1,31.7 C121.8,37.1 109.3,39.3 96,40.2 L96,0 C109,0 119.2,9.8 126.6,19.8 L126.6,19.8 L126.6,19.8 Z" id="Shape" fill="#E13451" sketch:type="MSShapeGroup"></path>
            <path d="M68.6,2.1 C59.3,9.2 53.7,19 47.9,28.3 C42.5,24.8 36.9,20.9 32.9,15.7 C44,9.1 56,5.1 68.6,2.1 L68.6,2.1 L68.6,2.1 Z" id="Shape" fill="#E13451" sketch:type="MSShapeGroup"></path>
            <path d="M154.4,16 C149.7,20.9 144.1,26.5 137.9,28.9 C133.1,19.1 126.4,8.8 117.1,2.2 C130.5,4.5 142.8,9.2 154.4,16 L154.4,16 L154.4,16 Z" id="Shape" fill="#E13451" sketch:type="MSShapeGroup"></path>
            <path d="M46.2,33.4 C43.7,38.9 41.8,44 40.5,50.7 L0,50.7 C5.8,38.3 16,26 28.1,18.7 C33.7,24 39.7,29.6 46.2,33.4 L46.2,33.4 L46.2,33.4 Z" id="Shape" fill="#E13451" sketch:type="MSShapeGroup"></path>
            <path d="M187.1,50.6 L145,50.6 C143.9,44.8 141.9,39.6 140.2,33.9 C147.1,30.5 153.6,25.1 159.3,19.3 C171.2,26 181.7,38.6 187.1,50.6 L187.1,50.6 L187.1,50.6 Z" id="Shape" fill="#E13451" sketch:type="MSShapeGroup"></path>
            <path d="M33,80.9 L24,80.9 L32,67.5 L32.1,67.5 L33,80.9 L33,80.9 Z M33.7,89.3 L34.5,96.6 L46,96.6 L41.4,54.4 L29.6,54.4 L2.6,96.6 L14,96.6 L18.8,89.3 L33.7,89.3 L33.7,89.3 Z" id="Shape" fill="#3E70DC" sketch:type="MSShapeGroup"></path>
            <path d="M60.4,54.4 L71.2,54.4 L84.3,80.2 L84.4,80.2 L91.1,54.4 L101.9,54.4 L90.9,96.6 L80.1,96.6 L67,70.7 L66.9,70.7 L60.2,96.6 L49.4,96.6 L60.4,54.4 L60.4,54.4 Z" id="Shape" fill="#3E70DC" sketch:type="MSShapeGroup"></path>
            <path d="M119.7,80 L136.5,54.4 L148.2,54.4 L119.5,96.6 L111.1,96.6 L104.6,54.4 L116.4,54.4 L119.7,80 L119.7,80 Z" id="Shape" fill="#3E70DC" sketch:type="MSShapeGroup"></path>
            <path d="M159.6,62.8 L160.6,62.8 C164.1,62.8 167.9,63.5 166.7,68.1 C165.5,72.7 161.4,73.4 157.8,73.4 L156.8,73.4 L159.6,62.8 L159.6,62.8 Z M165.9,79.3 C172.1,78.2 176.6,73.2 178.1,67.4 C180.4,58.4 175.3,54.4 167,54.4 L150.8,54.4 L139.8,96.6 L150.6,96.6 L154.8,80.4 L154.9,80.4 L160.9,96.6 L174.4,96.6 L165.9,79.3 L165.9,79.3 Z" id="Shape" fill="#3E70DC" sketch:type="MSShapeGroup"></path>
            <path d="M90.6,111.2 C77.2,111.9 64.4,114.6 53.3,120.8 C58.7,132.8 68.7,145.9 82.4,150.3 C84.9,151.1 87.5,151.3 90.6,151.3 L90.6,111.2 L90.6,111.2 L90.6,111.2 Z" id="Shape" fill="#3E70DC" sketch:type="MSShapeGroup"></path>
            <path d="M126.6,131.5 C127.2,130.2 128.4,128.5 129.4,127.1 C130.5,124.7 132.4,122.3 133.1,119.6 C121.8,114.2 109.3,112 96.1,111.1 L96.1,151.3 C109,151.3 119.2,141.6 126.6,131.5 L126.6,131.5 L126.6,131.5 Z" id="Shape" fill="#3E70DC" sketch:type="MSShapeGroup"></path>
            <path d="M68.6,149.2 C59.3,142.1 53.7,132.3 48,123 C42.6,126.5 37,130.4 33,135.6 C44,142.3 56,146.2 68.6,149.2 L68.6,149.2 L68.6,149.2 Z" id="Shape" fill="#3E70DC" sketch:type="MSShapeGroup"></path>
            <path d="M154.4,135.3 C149.7,130.4 144.1,124.8 137.9,122.4 C133.1,132.2 126.4,142.5 117.1,149.1 C130.5,146.8 142.8,142.1 154.4,135.3 L154.4,135.3 L154.4,135.3 Z" id="Shape" fill="#3E70DC" sketch:type="MSShapeGroup"></path>
            <path d="M46.2,118 C43.7,112.5 41.8,107.4 40.5,100.8 L0,100.8 C5.8,113.2 16,125.5 28.1,132.8 C33.7,127.3 39.7,121.8 46.2,118 L46.2,118 L46.2,118 Z" id="Shape" fill="#3E70DC" sketch:type="MSShapeGroup"></path>
            <path d="M187.1,100.7 L145,100.7 C143.9,106.5 141.9,111.7 140.2,117.4 C147.1,120.8 153.6,126.2 159.3,132 C171.2,125.3 181.7,112.7 187.1,100.7 L187.1,100.7 L187.1,100.7 Z" id="Shape" fill="#3E70DC" sketch:type="MSShapeGroup"></path>
            <path d="M90.6,105.8 L90.6,100.7 L46.2,100.7 C47.2,105.8 48.6,110.9 50.6,115.7 C62.6,109.2 76.5,107.1 90.6,105.8 L90.6,105.8 L90.6,105.8 Z" id="Shape" fill="#3E70DC" sketch:type="MSShapeGroup"></path>
            <path d="M135.5,114.6 C137.3,110.2 138.8,105.5 139.6,100.7 L96,100.7 L96,105.8 C109.7,106.2 123.2,109.5 135.5,114.6 L135.5,114.6 L135.5,114.6 Z" id="Shape" fill="#3E70DC" sketch:type="MSShapeGroup"></path>
        </g>
    </g>
</svg>