<?xml version="1.0" encoding="utf-8"?>
<!-- Generator: Adobe Illustrator 18.0.0, SVG Export Plug-In . SVG Version: 6.00 Build 0)  -->
<!DOCTYPE svg PUBLIC "-//W3C//DTD SVG 1.1//EN" "http://www.w3.org/Graphics/SVG/1.1/DTD/svg11.dtd">
<svg version="1.1" id="Logo_on_white" xmlns="http://www.w3.org/2000/svg" xmlns:xlink="http://www.w3.org/1999/xlink" x="0px"
	 y="0px" width="535.7px" height="60.8px" viewBox="0 0 535.7 60.8" enable-background="new 0 0 535.7 60.8" xml:space="preserve">
<g>
	<path fill="#231F20" d="M121.3,3.5c0,0.6,0,1.1-0.1,1.5c-0.1,0.4-0.2,0.8-0.3,1.1c-0.1,0.3-0.3,0.5-0.5,0.6
		c-0.2,0.1-0.4,0.2-0.7,0.2h-17v52.4c0,0.3-0.1,0.5-0.2,0.7c-0.1,0.2-0.3,0.3-0.7,0.4c-0.3,0.1-0.7,0.2-1.2,0.3
		c-0.5,0.1-1.2,0.1-1.9,0.1c-0.7,0-1.4,0-1.9-0.1c-0.5-0.1-0.9-0.2-1.3-0.3c-0.3-0.1-0.5-0.3-0.6-0.4c-0.1-0.2-0.2-0.4-0.2-0.7V6.8
		h-17c-0.2,0-0.5-0.1-0.7-0.2c-0.2-0.1-0.4-0.3-0.5-0.6c-0.1-0.3-0.2-0.6-0.3-1.1C76.1,4.6,76,4,76,3.5c0-0.6,0-1.1,0.1-1.6
		c0.1-0.5,0.2-0.8,0.3-1.1c0.1-0.3,0.3-0.5,0.5-0.6C77.2,0.1,77.4,0,77.6,0h42.1c0.3,0,0.5,0.1,0.7,0.2c0.2,0.1,0.4,0.3,0.5,0.6
		c0.1,0.3,0.2,0.6,0.3,1.1C121.3,2.3,121.3,2.9,121.3,3.5z"/>
	<path fill="#231F20" d="M172.9,59.3c0,0.3,0,0.5-0.2,0.7c-0.1,0.2-0.3,0.3-0.6,0.5c-0.3,0.1-0.7,0.2-1.3,0.3
		c-0.6,0.1-1.3,0.1-2.2,0.1c-0.8,0-1.5,0-2-0.1c-0.5-0.1-0.9-0.2-1.2-0.3c-0.3-0.1-0.6-0.3-0.7-0.6c-0.2-0.2-0.3-0.6-0.5-0.9
		l-5.6-14.3c-0.7-1.6-1.3-3.1-2-4.5c-0.7-1.4-1.5-2.5-2.5-3.5c-1-1-2.1-1.7-3.4-2.3c-1.3-0.5-2.9-0.8-4.7-0.8h-5.4v25.8
		c0,0.3-0.1,0.5-0.2,0.7c-0.1,0.2-0.4,0.3-0.7,0.4c-0.3,0.1-0.7,0.2-1.2,0.3c-0.5,0.1-1.2,0.1-1.9,0.1c-0.8,0-1.4,0-1.9-0.1
		c-0.5-0.1-0.9-0.2-1.2-0.3c-0.3-0.1-0.5-0.3-0.7-0.4c-0.1-0.2-0.2-0.4-0.2-0.7v-56c0-1.2,0.3-2.1,1-2.6c0.6-0.5,1.3-0.7,2-0.7h12.9
		c1.5,0,2.8,0,3.8,0.1c1,0.1,1.9,0.2,2.7,0.3c2.3,0.4,4.4,1,6.2,1.9c1.8,0.9,3.3,2,4.5,3.3c1.2,1.3,2.1,2.9,2.7,4.6
		c0.6,1.7,0.9,3.6,0.9,5.7c0,2-0.3,3.8-0.8,5.5c-0.5,1.6-1.3,3-2.4,4.2c-1,1.2-2.3,2.3-3.7,3.2c-1.4,0.9-3,1.7-4.8,2.3
		c1,0.4,1.9,1,2.7,1.7c0.8,0.7,1.6,1.5,2.3,2.4c0.7,0.9,1.4,2,2,3.2c0.6,1.2,1.2,2.6,1.9,4.1l5.4,13.3c0.4,1.1,0.7,1.9,0.8,2.4
		C172.8,58.7,172.9,59,172.9,59.3z M160.8,16.8c0-2.4-0.5-4.4-1.6-6c-1.1-1.6-2.8-2.8-5.3-3.5c-0.8-0.2-1.7-0.4-2.6-0.5
		c-1-0.1-2.3-0.1-3.9-0.1h-6.8V27h7.9c2.1,0,3.9-0.3,5.5-0.8c1.5-0.5,2.8-1.2,3.9-2.2c1-0.9,1.8-2,2.3-3.2
		C160.5,19.6,160.8,18.2,160.8,16.8z"/>
	<path fill="#231F20" d="M226.8,37.8c0,3.6-0.5,6.8-1.6,9.7c-1.1,2.8-2.6,5.2-4.5,7.2c-2,2-4.4,3.4-7.2,4.5c-2.8,1-6,1.5-9.6,1.5
		c-3.3,0-6.3-0.5-9-1.4c-2.7-0.9-5-2.4-6.9-4.2c-1.9-1.9-3.4-4.2-4.5-7c-1-2.8-1.6-6-1.6-9.7v-37c0-0.2,0.1-0.5,0.2-0.6
		c0.1-0.2,0.3-0.3,0.6-0.4c0.3-0.1,0.7-0.2,1.2-0.3c0.5-0.1,1.1-0.1,1.9-0.1c0.7,0,1.4,0,1.9,0.1c0.5,0.1,0.9,0.2,1.2,0.3
		c0.3,0.1,0.5,0.3,0.6,0.4c0.1,0.2,0.2,0.4,0.2,0.6v36c0,2.8,0.3,5.2,1,7.2c0.7,2.1,1.7,3.8,2.9,5.1c1.3,1.4,2.8,2.4,4.6,3.1
		c1.8,0.7,3.8,1,6.1,1c2.3,0,4.3-0.3,6.1-1c1.8-0.7,3.3-1.7,4.6-3c1.2-1.4,2.2-3,2.8-5c0.7-2,1-4.3,1-7V1.5c0-0.2,0.1-0.5,0.2-0.6
		c0.1-0.2,0.3-0.3,0.6-0.4c0.3-0.1,0.7-0.2,1.2-0.3c0.5-0.1,1.1-0.1,1.9-0.1c0.7,0,1.4,0,1.9,0.1c0.5,0.1,0.9,0.2,1.2,0.3
		c0.3,0.1,0.5,0.3,0.6,0.4c0.1,0.2,0.2,0.4,0.2,0.6V37.8z"/>
	<path fill="#231F20" d="M272.1,43.3c0,2.8-0.5,5.2-1.5,7.4c-1,2.2-2.4,4-4.2,5.5c-1.8,1.5-3.9,2.6-6.4,3.4
		c-2.5,0.8-5.1,1.1-7.9,1.1c-2,0-3.8-0.2-5.5-0.5c-1.7-0.3-3.2-0.7-4.5-1.2c-1.3-0.5-2.4-1-3.3-1.5c-0.9-0.5-1.5-1-1.9-1.3
		c-0.4-0.4-0.6-0.8-0.8-1.4c-0.2-0.6-0.3-1.3-0.3-2.3c0-0.7,0-1.2,0.1-1.7c0.1-0.4,0.1-0.8,0.3-1.1c0.1-0.3,0.3-0.5,0.5-0.6
		c0.2-0.1,0.4-0.2,0.6-0.2c0.4,0,1,0.3,1.8,0.8c0.8,0.5,1.8,1.1,3,1.7c1.2,0.6,2.7,1.2,4.4,1.7c1.7,0.5,3.7,0.8,6,0.8
		c1.7,0,3.3-0.2,4.7-0.7c1.4-0.5,2.6-1.1,3.7-1.9c1-0.8,1.8-1.9,2.3-3.1c0.5-1.2,0.8-2.6,0.8-4.1c0-1.7-0.4-3.1-1.1-4.3
		c-0.8-1.2-1.8-2.2-3-3.1c-1.3-0.9-2.7-1.7-4.3-2.5c-1.6-0.7-3.2-1.5-4.9-2.3c-1.7-0.8-3.3-1.6-4.9-2.6c-1.6-0.9-3-2-4.2-3.3
		c-1.3-1.3-2.3-2.8-3-4.5c-0.8-1.7-1.2-3.8-1.2-6.2c0-2.5,0.4-4.7,1.4-6.6c0.9-1.9,2.1-3.6,3.7-4.9c1.6-1.3,3.5-2.3,5.7-3
		c2.2-0.7,4.6-1,7.1-1c1.3,0,2.6,0.1,3.9,0.3c1.3,0.2,2.6,0.5,3.7,0.9c1.2,0.4,2.2,0.8,3.1,1.3c0.9,0.5,1.5,0.9,1.8,1.1
		c0.3,0.3,0.5,0.5,0.6,0.7c0.1,0.2,0.2,0.4,0.2,0.6c0.1,0.3,0.1,0.6,0.1,0.9c0,0.4,0.1,0.8,0.1,1.4c0,0.6,0,1-0.1,1.5
		c0,0.4-0.1,0.8-0.2,1.1c-0.1,0.3-0.2,0.5-0.4,0.6c-0.2,0.1-0.4,0.2-0.6,0.2c-0.3,0-0.9-0.2-1.6-0.6c-0.7-0.4-1.6-0.9-2.6-1.4
		c-1-0.5-2.3-1-3.7-1.5c-1.4-0.4-3-0.7-4.8-0.7c-1.6,0-3.1,0.2-4.3,0.7c-1.2,0.4-2.2,1-3,1.8c-0.8,0.7-1.4,1.6-1.8,2.6
		c-0.4,1-0.6,2.1-0.6,3.2c0,1.6,0.4,3,1.1,4.2c0.8,1.2,1.8,2.2,3,3.1c1.3,0.9,2.7,1.8,4.3,2.5c1.6,0.8,3.3,1.5,4.9,2.3
		c1.7,0.8,3.3,1.6,4.9,2.5c1.6,0.9,3,2,4.3,3.3c1.3,1.3,2.3,2.8,3,4.5C271.7,39,272.1,41,272.1,43.3z"/>
	<path fill="#231F20" d="M322.1,3.5c0,0.6,0,1.1-0.1,1.5c-0.1,0.4-0.2,0.8-0.3,1.1c-0.1,0.3-0.3,0.5-0.5,0.6
		c-0.2,0.1-0.4,0.2-0.7,0.2h-17v52.4c0,0.2-0.1,0.5-0.2,0.7c-0.1,0.2-0.3,0.3-0.7,0.4c-0.3,0.1-0.7,0.2-1.2,0.3
		c-0.5,0.1-1.2,0.1-1.9,0.1c-0.8,0-1.4,0-1.9-0.1c-0.5-0.1-1-0.2-1.3-0.3c-0.3-0.1-0.5-0.3-0.7-0.4c-0.1-0.2-0.2-0.4-0.2-0.7V6.8
		h-17c-0.2,0-0.5-0.1-0.7-0.2c-0.2-0.1-0.4-0.3-0.5-0.6c-0.1-0.3-0.2-0.6-0.3-1.1c-0.1-0.4-0.1-0.9-0.1-1.5c0-0.6,0-1.1,0.1-1.6
		c0.1-0.5,0.2-0.8,0.3-1.1c0.1-0.3,0.3-0.5,0.5-0.6c0.2-0.1,0.4-0.2,0.7-0.2h42c0.2,0,0.5,0.1,0.7,0.2c0.2,0.1,0.4,0.3,0.5,0.6
		c0.1,0.3,0.2,0.6,0.3,1.1C322,2.3,322.1,2.9,322.1,3.5z"/>
	<path fill="#929497" d="M368.8,17.7c0,3-0.5,5.8-1.5,8.2c-1,2.4-2.4,4.5-4.3,6.2c-1.9,1.7-4.1,3-6.8,4c-2.7,0.9-5.9,1.4-9.7,1.4
		h-6.9v21.8c0,0.3-0.1,0.5-0.2,0.7c-0.1,0.2-0.4,0.3-0.7,0.4c-0.3,0.1-0.7,0.2-1.2,0.3c-0.5,0.1-1.2,0.1-1.9,0.1
		c-0.8,0-1.4,0-1.9-0.1c-0.5-0.1-0.9-0.2-1.2-0.3c-0.3-0.1-0.5-0.3-0.7-0.4c-0.1-0.2-0.2-0.4-0.2-0.7V3.5c0-1.2,0.3-2.1,1-2.7
		c0.7-0.5,1.4-0.8,2.2-0.8h12.9c1.3,0,2.6,0.1,3.8,0.2c1.2,0.1,2.6,0.3,4.2,0.7c1.6,0.4,3.3,1,5,2c1.7,1,3.1,2.2,4.3,3.6
		c1.2,1.4,2.1,3.1,2.7,5C368.4,13.4,368.8,15.4,368.8,17.7z M360.3,18.4c0-2.5-0.5-4.5-1.4-6.2c-0.9-1.7-2.1-2.9-3.4-3.7
		c-1.4-0.8-2.8-1.3-4.2-1.5c-1.5-0.2-2.9-0.3-4.2-0.3h-7.4v24.3h7.2c2.4,0,4.4-0.3,6-0.9c1.6-0.6,3-1.5,4-2.6c1.1-1.1,1.9-2.4,2.5-4
		C360,21.9,360.3,20.2,360.3,18.4z"/>
	<path fill="#929497" d="M387.8,59.2c0,0.2-0.1,0.5-0.2,0.6c-0.1,0.2-0.3,0.3-0.7,0.4c-0.3,0.1-0.7,0.2-1.2,0.3
		c-0.5,0.1-1.2,0.1-1.9,0.1c-0.7,0-1.4,0-1.9-0.1c-0.5-0.1-1-0.2-1.3-0.3c-0.3-0.1-0.5-0.3-0.7-0.4c-0.1-0.2-0.2-0.4-0.2-0.6V1.5
		c0-0.3,0.1-0.5,0.2-0.7c0.1-0.2,0.4-0.3,0.7-0.4c0.3-0.1,0.7-0.2,1.2-0.3c0.5-0.1,1.1-0.1,1.8-0.1c0.8,0,1.4,0,1.9,0.1
		c0.5,0.1,0.9,0.2,1.2,0.3c0.3,0.1,0.5,0.3,0.7,0.4c0.1,0.2,0.2,0.4,0.2,0.7V59.2z"/>
	<path fill="#929497" d="M434,57.3c0,0.6,0,1.1-0.1,1.6c-0.1,0.4-0.2,0.8-0.3,1.1c-0.1,0.3-0.3,0.5-0.5,0.6
		c-0.2,0.1-0.4,0.2-0.7,0.2h-26.7c-0.7,0-1.4-0.2-2-0.7c-0.6-0.5-1-1.3-1-2.5v-56c0-0.2,0.1-0.5,0.2-0.7c0.1-0.2,0.3-0.3,0.6-0.4
		c0.3-0.1,0.7-0.2,1.3-0.3c0.5-0.1,1.2-0.1,1.9-0.1c0.8,0,1.4,0,1.9,0.1c0.5,0.1,0.9,0.2,1.2,0.3c0.3,0.1,0.5,0.3,0.7,0.4
		c0.1,0.2,0.2,0.4,0.2,0.7v52.3h21.7c0.3,0,0.5,0.1,0.7,0.2c0.2,0.1,0.4,0.3,0.5,0.6c0.1,0.3,0.2,0.6,0.3,1.1
		C434,56.1,434,56.6,434,57.3z"/>
	<path fill="#929497" d="M488.8,29.6c0,4.8-0.6,9.1-1.7,12.9c-1.1,3.8-2.8,7.1-5,9.8c-2.2,2.7-5,4.7-8.4,6.2
		c-3.4,1.4-7.3,2.2-11.8,2.2c-4.4,0-8.3-0.7-11.5-2c-3.2-1.3-5.9-3.2-8-5.8c-2.1-2.5-3.7-5.6-4.7-9.4c-1-3.7-1.6-8-1.6-12.9
		c0-4.6,0.6-8.9,1.7-12.7c1.1-3.8,2.8-7,5.1-9.7c2.2-2.7,5-4.7,8.4-6.1c3.4-1.4,7.3-2.2,11.8-2.2c4.3,0,8.1,0.7,11.3,2
		c3.2,1.3,5.9,3.2,8,5.7c2.1,2.5,3.7,5.6,4.8,9.3C488.2,20.6,488.8,24.9,488.8,29.6z M480.5,30.2c0-3.3-0.3-6.4-0.9-9.3
		c-0.6-2.9-1.6-5.3-3-7.5c-1.4-2.1-3.2-3.8-5.5-4.9c-2.3-1.2-5.2-1.8-8.5-1.8c-3.4,0-6.2,0.6-8.5,1.9c-2.3,1.3-4.2,3-5.6,5.1
		c-1.4,2.1-2.5,4.6-3.1,7.4c-0.6,2.8-0.9,5.8-0.9,8.9c0,3.5,0.3,6.6,0.9,9.6c0.6,2.9,1.5,5.4,2.9,7.5c1.4,2.1,3.2,3.8,5.5,4.9
		c2.3,1.2,5.2,1.8,8.6,1.8c3.4,0,6.3-0.6,8.6-1.9c2.3-1.3,4.2-3,5.6-5.2c1.4-2.2,2.4-4.7,3-7.5C480.2,36.4,480.5,33.4,480.5,30.2z"
		/>
	<path fill="#929497" d="M535.7,3.5c0,0.6,0,1.1-0.1,1.5c-0.1,0.4-0.2,0.8-0.3,1.1c-0.1,0.3-0.3,0.5-0.5,0.6
		c-0.2,0.1-0.4,0.2-0.7,0.2h-17v52.4c0,0.3-0.1,0.5-0.2,0.7c-0.1,0.2-0.3,0.3-0.6,0.4c-0.3,0.1-0.7,0.2-1.2,0.3
		c-0.5,0.1-1.2,0.1-1.9,0.1c-0.7,0-1.4,0-1.9-0.1c-0.5-0.1-1-0.2-1.3-0.3c-0.3-0.1-0.5-0.3-0.7-0.4c-0.1-0.2-0.2-0.4-0.2-0.7V6.8
		h-17c-0.2,0-0.5-0.1-0.7-0.2c-0.2-0.1-0.4-0.3-0.5-0.6c-0.1-0.3-0.2-0.6-0.3-1.1c-0.1-0.4-0.1-1-0.1-1.5c0-0.6,0-1.1,0.1-1.6
		c0.1-0.5,0.2-0.8,0.3-1.1c0.1-0.3,0.3-0.5,0.5-0.6c0.2-0.1,0.4-0.2,0.7-0.2h42.1c0.2,0,0.5,0.1,0.7,0.2c0.2,0.1,0.4,0.3,0.5,0.6
		c0.1,0.3,0.2,0.6,0.3,1.1C535.7,2.3,535.7,2.9,535.7,3.5z"/>
	<path fill="#F9A21E" d="M0.1,1v25.7c0,0,19.4,9.3,29.3,25.8c0,0,4.4-36.6,28.8-51.5H0.1z"/>
	<linearGradient id="SVGID_1_" gradientUnits="userSpaceOnUse" x1="29.0661" y1="59.2715" x2="29.0661" y2="26.0625">
		<stop  offset="0" style="stop-color:#E37A26"/>
		<stop  offset="0.4725" style="stop-color:#F9A21E"/>
	</linearGradient>
	<path fill="url(#SVGID_1_)" d="M0,47.9v11.4h26.1C26.1,59.3,16.2,48.7,0,47.9z M33.1,59.2h25V26.1C44,29.9,33.1,59.2,33.1,59.2z"/>
	<linearGradient id="SVGID_2_" gradientUnits="userSpaceOnUse" x1="28.9575" y1="23.7228" x2="28.9575" y2="1.4356">
		<stop  offset="0" style="stop-color:#FFFFFF"/>
		<stop  offset="1" style="stop-color:#F9A21E"/>
	</linearGradient>
	<path opacity="0.5" fill="url(#SVGID_2_)" d="M0.4,1.4h57.1c0,0-9.4,3.3-19.5,21.9c0,0-22.1,2.2-37.6-4.5L0.4,1.4z"/>
	<g>
		<linearGradient id="SVGID_3_" gradientUnits="userSpaceOnUse" x1="58.0969" y1="1.0471" x2="58.0969" y2="1.0955">
			<stop  offset="0" style="stop-color:#484848"/>
			<stop  offset="1" style="stop-color:#000000"/>
		</linearGradient>
		<path fill="url(#SVGID_3_)" d="M58.1,1.1C58.1,1.1,58.1,1.1,58.1,1.1"/>
		<linearGradient id="SVGID_4_" gradientUnits="userSpaceOnUse" x1="29.0947" y1="1.3254" x2="29.0947" y2="59.0419">
			<stop  offset="0" style="stop-color:#484848"/>
			<stop  offset="1" style="stop-color:#000000"/>
		</linearGradient>
		<path fill="url(#SVGID_4_)" d="M29.3,52.5C19.5,36,0.1,26.7,0.1,26.7v21.2c16.1,0.8,26.1,11.4,26.1,11.4l7,0
			c0,0,10.8-29.4,25-33.2v-25h-0.1C33.7,16.1,29.3,52.5,29.3,52.5z"/>
	</g>
</g>
</svg>
