<?xml version="1.0" encoding="utf-8"?>
<!-- Generator: Adobe Illustrator 18.0.0, SVG Export Plug-In . SVG Version: 6.00 Build 0)  -->
<!DOCTYPE svg PUBLIC "-//W3C//DTD SVG 1.1//EN" "http://www.w3.org/Graphics/SVG/1.1/DTD/svg11.dtd">
<svg version="1.1" id="Layer_1" xmlns="http://www.w3.org/2000/svg" xmlns:xlink="http://www.w3.org/1999/xlink" x="0px" y="0px"
	 width="175.7px" height="158.6px" viewBox="0 0 175.7 158.6" enable-background="new 0 0 175.7 158.6" xml:space="preserve">
<path fill-rule="evenodd" clip-rule="evenodd" fill="#EE334E" d="M64.2,4.4c0,0,52.3-19,91.5,22.2l-9.9,6.7c0,0-13.2-17.8-49.7-22.3
	c0,0,23,9.6,32,32.9l-10.5,5.5c0,0-13.7-32.7-44.1-33.8l14.3,46.2c0,0-4.8,1.8-11.5,3.6L62.3,19.5c0,0-22.4,11.9-17.8,52.3L33,73
	c0,0-5.8-25,8.3-45.3c0,0-25.4,19-29.4,46.9L0,74.8C0,74.8,4.1,24.1,64.2,4.4L64.2,4.4z"/>
<path fill-rule="evenodd" clip-rule="evenodd" fill="#0060A9" d="M79.6,75.7c0,0,6.3-1.8,11.5-3.4l4.2,13.7c0,0,8-4.1,8.8-16.3
	l9.5-4.1c0,0,3.2,23.4-14.7,32.3l3.8,12.2c23.4-12.4,18.2-50.3,18.2-50.3l10.4-5.5c5.5,23.5-5.1,43.4-5.1,43.4
	c25.4-21.4,23.5-54.4,23.5-54.4l10.9-7.2c0,0,8.1,67.2-59.8,87.3c-69.7,20.7-99.5-38-99.5-38l13-0.5c0,0,16.7,26.7,49.4,30.7
	c0,0-19.5-9.4-27.9-32.2l11.7-1.4c0,0,15.9,33.5,43.8,31.4l-3.7-12.1c-20.8,2.6-31-18.5-31-18.5l10.7-2.1c0,0,6.3,9.8,16.6,8.6
	L79.6,75.7L79.6,75.7z"/>
<path fill-rule="evenodd" clip-rule="evenodd" fill="#0060A9" d="M164.3,144.8c1.2-0.1,8.4-2.5,8.4-7.8c0-6.5-10.4-7.1-14.7-7h-28.8
	l0,26.9h14.2l0-10h7.4l8.2,10h16.8L164.3,144.8z M149.9,141.5h-6.6l0-6.3c0,0,2.5,0,6.4,0c3.1,0,6.6,0.5,6.6,3
	C156.4,140.6,153.2,141.4,149.9,141.5z"/>
<path fill-rule="evenodd" clip-rule="evenodd" fill="#EE334E" d="M61.8,44.2c1,0.2,7.1,1.7,5.5,9.5c-1.5,7.4-7.4,6.9-8.5,6.6
	c-1.1-0.3-6.9-2-5.6-9.3C54.6,43.1,60.6,43.9,61.8,44.2L61.8,44.2z"/>
<path fill-rule="evenodd" clip-rule="evenodd" fill="#0060A9" d="M170.1,5.2h0.4l0.3,0c0.2,0,0.3,0,0.4,0.1c0.2,0.1,0.3,0.3,0.3,0.5
	c0,0.1,0.1,0.3,0.1,0.6c0,0.3,0,0.5,0.1,0.7h1.2l0-0.1c0,0,0-0.1,0-0.1c0,0,0-0.1,0-0.1V6.2c0-0.5-0.1-0.8-0.4-1.1
	c-0.2-0.1-0.4-0.2-0.7-0.3c0.3,0,0.6-0.1,0.8-0.3c0.2-0.2,0.3-0.5,0.3-0.9c0-0.5-0.2-0.9-0.6-1.1c-0.2-0.1-0.6-0.2-0.9-0.2l-2.3,0
	v4.8h1.1V5.2L170.1,5.2z"/>
<path fill-rule="evenodd" clip-rule="evenodd" fill="#FFFFFF" d="M171.4,4.4c-0.2,0.1-0.4,0.2-0.7,0.2h-0.6V3.2h0.5
	c0.3,0,0.6,0,0.7,0.1c0.3,0.1,0.4,0.3,0.4,0.5C171.7,4.1,171.6,4.2,171.4,4.4L171.4,4.4z"/>
<path fill-rule="evenodd" clip-rule="evenodd" fill="#EE334E" d="M89.2,35c-0.8,0.5-5.7,4.5-0.9,11c4.5,6,9.6,3,10.5,2.4
	c1-0.7,5.4-4.8,1.1-10.8C95.2,31,90.1,34.4,89.2,35L89.2,35z"/>
<path fill-rule="evenodd" clip-rule="evenodd" fill="#0060A9" d="M36,130.7c5.7,0.3,15,1.8,15,1.8l-5.1,4.6c0,0-18-3-18.1,0.4
	c-0.1,2,12.2,4.7,16,5.9c2.9,0.9,8.2,2.8,8.2,6.3c0,4.3-8.6,9.3-26.6,8.9c-7.2-0.1-19.4-1.2-23.8-2.2l6.7-4.7c0,0,7.7,1.2,12.2,1.5
	c3.7,0.2,9.3-0.2,9.8-2.4c0.4-2.2-8.6-4.1-13-5.4c-4.6-1.4-10.9-2.4-11-7.1c-0.1-6.1,12.9-7,16.4-7.3
	C26.9,130.6,31.7,130.5,36,130.7L36,130.7z"/>
<path fill-rule="evenodd" clip-rule="evenodd" fill="#0060A9" d="M109,131.4l1.8,5.7c0,0-10.6-1.5-15.2-1.4
	c-4.6,0.1-16.8,0.7-16.4,9.1c0.3,6.2,10.6,7.4,14.6,7.4c4.1,0,7.8-1.8,7.8-1.8l-1.9-6.7l13,0l4.1,13.1h-13.2l-0.3-1
	c0,0-6.2,2-13.6,2c-6.9,0-27.2-2.3-27.1-13.5c0.1-12.6,23.5-14.1,31-14.2C101.7,129.9,109,131.4,109,131.4L109,131.4z"/>
<path fill-rule="evenodd" clip-rule="evenodd" fill="#0060A9" d="M174.2,2.3c0.9,1,1.1,2.6,0.7,3.9c-0.5,1.3-1.7,2.5-3,2.8
	c-1.8,0.4-3.6-0.2-4.6-1.7c-0.8-1.1-1-2.7-0.5-4c0.6-1.5,2.2-2.6,3.7-2.8C172,0.5,173.3,1.1,174.2,2.3L174.2,2.3z M170.8,1.3
	c-1,0-1.8,0.4-2.5,1.1c-0.7,0.7-1,1.5-1,2.5c0,1,0.3,1.8,1,2.5c0.7,0.7,1.5,1,2.5,1c1,0,1.8-0.4,2.5-1c0.7-0.7,1-1.5,1-2.5
	c0-1-0.3-1.8-1-2.5C172.6,1.6,171.8,1.3,170.8,1.3L170.8,1.3z"/>
</svg>
