<?xml version="1.0" encoding="UTF-8" standalone="no"?>
<svg width="612px" height="527px" viewBox="0 0 612 527" version="1.1" xmlns="http://www.w3.org/2000/svg" xmlns:xlink="http://www.w3.org/1999/xlink" xmlns:sketch="http://www.bohemiancoding.com/sketch/ns">
    <!-- Generator: Sketch 3.1 (8751) - http://www.bohemiancoding.com/sketch -->
    <title>logo-ideal</title>
    <desc>Created with Sketch.</desc>
    <defs></defs>
    <g id="Page-1" stroke="none" stroke-width="1" fill="none" fill-rule="evenodd" sketch:type="MSPage">
        <g id="logo-ideal" sketch:type="MSLayerGroup">
            <g id="Layer_2" sketch:type="MSShapeGroup">
                <rect id="Rectangle-path" fill="#000000" x="67" y="297" width="96.9" height="160.8"></rect>
                <path d="M171.3,216.2 C171.3,246.5 146.8,271 116.5,271 C86.2,271 61.7,246.4 61.7,216.2 C61.7,185.9 86.2,161.4 116.5,161.4 C146.8,161.4 171.3,185.9 171.3,216.2 L171.3,216.2 Z" id="Shape" fill="#000000"></path>
                <path d="M347.5,0 L0,0 L0,527 L347.5,527 L347.5,526.9 C423.4,525.9 483.5,507 526.2,470.7 C578.1,426.5 604.4,356.8 604.4,263.5 C604.4,218.9 597.5,178.9 583.8,144.6 C570.7,111.8 551.4,83.9 526.4,61.7 C482.4,22.6 420.6,1.4 347.4,0.2 C347.5,0.1 347.5,0 347.5,0 L347.5,0 Z M340.9,35 C408.2,35 464.4,53.2 503.2,87.8 C547.1,126.8 569.4,185.9 569.4,263.5 C569.4,417.2 494.7,492 340.9,492 L35,492 L35,35 L340.9,35 L340.9,35 Z" id="Shape" fill="#000000"></path>
                <path d="M331.3,457.6 L208.5,457.6 L208.5,77.6 L331.3,77.6 L326.3,77.6 C428.8,77.6 537.8,118 537.8,268.1 C537.8,426.8 428.7,457.6 326.3,457.6 L331.3,457.6 L331.3,457.6 Z" id="Shape" fill="#CD0067"></path>
            </g>
            <g id="Layer_3" transform="translate(185.000000, 173.000000)" fill="#FFFFFF" sketch:type="MSShapeGroup">
                <g id="Group">
                    <g id="Shape">
                        <path d="M2.3,2.7 L36,2.7 C43.6,2.7 49.4,3.3 53.4,4.4 C58.8,6 63.4,8.8 67.2,12.8 C71,16.8 73.9,21.8 75.9,27.6 C77.9,33.4 78.9,40.6 78.9,49.2 C78.9,56.7 78,63.2 76.1,68.7 C73.8,75.4 70.6,80.7 66.3,84.9 C63.1,88 58.8,90.5 53.3,92.2 C49.2,93.5 43.8,94.1 37,94.1 L2.3,94.1 L2.3,2.7 L2.3,2.7 Z M20.8,18.2 L20.8,78.6 L34.6,78.6 C39.8,78.6 43.5,78.3 45.8,77.7 C48.8,77 51.3,75.7 53.3,73.9 C55.3,72.1 56.9,69.2 58.1,65.1 C59.3,61 60,55.4 60,48.4 C60,41.3 59.4,35.9 58.1,32.2 C56.9,28.4 55.1,25.5 52.9,23.4 C50.7,21.3 47.8,19.9 44.3,19.1 C41.7,18.5 36.7,18.2 29.1,18.2 L20.8,18.2 L20.8,18.2 Z"></path>
                        <path d="M-0.2,0.2 L-0.2,96.6 L37,96.6 C44,96.6 49.8,95.9 54.1,94.5 C59.9,92.6 64.6,90 68.1,86.6 C72.6,82.2 76.1,76.5 78.5,69.5 C80.5,63.8 81.4,57 81.4,49.2 C81.4,40.4 80.3,32.9 78.3,26.8 C76.2,20.6 73.1,15.4 69,11.1 C64.9,6.8 59.9,3.7 54.1,2 C49.8,0.8 43.9,0.2 36,0.2 L-0.2,0.2 L-0.2,0.2 Z M36.1,5.2 C43.4,5.2 49.1,5.8 52.8,6.8 C57.7,8.2 62,10.8 65.5,14.5 C69.1,18.3 71.8,22.9 73.7,28.4 C75.6,34 76.6,41 76.6,49.2 C76.6,56.4 75.7,62.7 73.9,67.8 C71.8,74 68.7,79.2 64.7,83 C61.8,85.8 57.8,88.1 52.7,89.7 C48.9,90.9 43.7,91.5 37.1,91.5 L4.9,91.5 L4.9,5.1 C9.1,5.2 36.1,5.2 36.1,5.2 L36.1,5.2 Z"></path>
                        <path d="M18.3,15.7 L18.3,81.1 L34.6,81.1 C40,81.1 43.9,80.8 46.4,80.2 C49.8,79.4 52.6,77.9 54.9,75.8 C57.2,73.7 59.1,70.4 60.5,65.9 C61.8,61.5 62.5,55.8 62.5,48.5 C62.5,41.1 61.8,35.5 60.5,31.5 C59.1,27.3 57.1,24 54.6,21.6 C52,19.2 48.7,17.5 44.9,16.7 C42.1,16.1 37,15.8 29.2,15.8 L18.3,15.8 L18.3,15.7 Z M29.1,20.7 C38.2,20.7 42.1,21.1 43.7,21.5 C46.7,22.2 49.2,23.4 51.1,25.2 C53,27 54.6,29.6 55.7,33 C56.9,36.5 57.4,41.7 57.4,48.5 C57.4,55.3 56.8,60.6 55.6,64.5 C54.5,68.1 53.1,70.7 51.5,72.2 C49.8,73.7 47.7,74.8 45.1,75.4 C43,75.9 39.5,76.2 34.5,76.2 L23.2,76.2 L23.2,20.8 C25.7,20.7 29.1,20.7 29.1,20.7 L29.1,20.7 Z"></path>
                    </g>
                    <g transform="translate(97.000000, 0.000000)" id="Shape">
                        <path d="M2.8,94.1 L2.8,2.7 L70.5,2.7 L70.5,18.2 L21.3,18.2 L21.3,38.4 L67.1,38.4 L67.1,54 L21.3,54 L21.3,78.7 L72.3,78.7 L72.3,94.2 L2.8,94.2 L2.8,94.1 Z"></path>
                        <path d="M0.3,0.2 L0.3,96.6 L74.7,96.6 L74.7,76.1 L23.7,76.1 L23.7,56.4 L69.5,56.4 L69.5,36 L23.7,36 L23.7,20.8 L72.9,20.8 L72.9,0.3 L0.3,0.3 L0.3,0.2 Z M68,5.2 L68,15.7 L18.8,15.7 L18.8,41 L64.6,41 L64.6,51.5 L18.8,51.5 L18.8,81.2 L69.8,81.2 L69.8,91.7 L5.4,91.7 L5.4,5.3 C9.8,5.2 63.5,5.2 68,5.2 L68,5.2 Z"></path>
                    </g>
                    <g transform="translate(177.000000, 0.000000)" id="Shape">
                        <path d="M95.5,94.1 L75.4,94.1 L67.4,73.3 L30.9,73.3 L23.3,94.1 L3.7,94.1 L39.2,2.7 L58.9,2.7 L95.5,94.1 L95.5,94.1 Z M61.5,57.9 L48.9,24 L36.5,57.9 L61.5,57.9 L61.5,57.9 Z"></path>
                        <path d="M37.6,0.2 L0.1,96.6 L25.1,96.6 C25.1,96.6 31.7,78.6 32.7,75.8 L65.8,75.8 C66.8,78.5 73.8,96.6 73.8,96.6 L99.3,96.6 L60.7,0.2 L37.6,0.2 L37.6,0.2 Z M57.2,5.2 C58.4,8.1 89.3,85.4 91.8,91.6 L77.1,91.6 C76.1,88.9 69.1,70.8 69.1,70.8 L29.1,70.8 C29.1,70.8 22.5,88.8 21.5,91.6 L7.3,91.6 C9.7,85.4 39.7,8.1 40.9,5.2 C43.6,5.2 54.7,5.2 57.2,5.2 L57.2,5.2 Z"></path>
                        <path d="M33,60.4 L65.1,60.4 L48.9,16.8 L33,60.4 L33,60.4 Z M48.9,31.2 C51.6,38.6 56.3,51 57.9,55.3 L40.1,55.3 C41.7,51.1 46.2,38.6 48.9,31.2 L48.9,31.2 Z"></path>
                    </g>
                    <g transform="translate(285.000000, 1.000000)" id="Shape">
                        <path d="M2.9,93.1 L2.9,2.4 L21.3,2.4 L21.3,77.6 L67.2,77.6 L67.2,93.1 L2.9,93.1 L2.9,93.1 Z"></path>
                        <path d="M0.4,0 L0.4,95.7 L69.8,95.7 L69.8,75.2 L23.9,75.2 L23.9,0 L0.4,0 L0.4,0 Z M18.9,5 L18.9,80.2 L64.8,80.2 L64.8,90.7 L5.4,90.7 L5.4,5 L18.9,5 L18.9,5 Z"></path>
                    </g>
                </g>
            </g>
        </g>
    </g>
</svg>