<?xml version="1.0" encoding="UTF-8" standalone="no"?>
<svg width="176px" height="159px" viewBox="0 0 176 159" version="1.1" xmlns="http://www.w3.org/2000/svg" xmlns:xlink="http://www.w3.org/1999/xlink" xmlns:sketch="http://www.bohemiancoding.com/sketch/ns">
    <!-- Generator: Sketch 3.1 (8751) - http://www.bohemiancoding.com/sketch -->
    <title>logo-sgr</title>
    <desc>Created with Sketch.</desc>
    <defs></defs>
    <g id="Page-1" stroke="none" stroke-width="1" fill="none" fill-rule="evenodd" sketch:type="MSPage">
        <g id="logo-sgr" sketch:type="MSLayerGroup">
            <path d="M64.2,4.4 C64.2,4.4 116.5,-14.6 155.7,26.6 L145.8,33.3 C145.8,33.3 132.6,15.5 96.1,11 C96.1,11 119.1,20.6 128.1,43.9 L117.6,49.4 C117.6,49.4 103.9,16.7 73.5,15.6 L87.8,61.8 C87.8,61.8 83,63.6 76.3,65.4 L62.3,19.5 C62.3,19.5 39.9,31.4 44.5,71.8 L33,73 C33,73 27.2,48 41.3,27.7 C41.3,27.7 15.9,46.7 11.9,74.6 L0,74.8 C0,74.8 4.1,24.1 64.2,4.4 L64.2,4.4 L64.2,4.4 Z" id="Shape" fill="#E13A6E" sketch:type="MSShapeGroup"></path>
            <path d="M79.6,75.7 C79.6,75.7 85.9,73.9 91.1,72.3 L95.3,86 C95.3,86 103.3,81.9 104.1,69.7 L113.6,65.6 C113.6,65.6 116.8,89 98.9,97.9 L102.7,110.1 C126.1,97.7 120.9,59.8 120.9,59.8 L131.3,54.3 C136.8,77.8 126.2,97.7 126.2,97.7 C151.6,76.3 149.7,43.3 149.7,43.3 L160.6,36.1 C160.6,36.1 168.7,103.3 100.8,123.4 C31.1,144.1 1.3,85.4 1.3,85.4 L14.3,84.9 C14.3,84.9 31,111.6 63.7,115.6 C63.7,115.6 44.2,106.2 35.8,83.4 L47.5,82 C47.5,82 63.4,115.5 91.3,113.4 L87.6,101.3 C66.8,103.9 56.6,82.8 56.6,82.8 L67.3,80.7 C67.3,80.7 73.6,90.5 83.9,89.3 L79.6,75.7 L79.6,75.7 Z" id="Shape" fill="#3D83CF" sketch:type="MSShapeGroup"></path>
            <path d="M164.3,144.8 C165.5,144.7 172.7,142.3 172.7,137 C172.7,130.5 162.3,129.9 158,130 L129.2,130 L129.2,156.9 L143.4,156.9 L143.4,146.9 L150.8,146.9 L159,156.9 L175.8,156.9 L164.3,144.8 L164.3,144.8 Z M149.9,141.5 L143.3,141.5 L143.3,135.2 L149.7,135.2 C152.8,135.2 156.3,135.7 156.3,138.2 C156.4,140.6 153.2,141.4 149.9,141.5 L149.9,141.5 Z" id="Shape" fill="#3D83CF" sketch:type="MSShapeGroup"></path>
            <path d="M61.8,44.2 C62.8,44.4 68.9,45.9 67.3,53.7 C65.8,61.1 59.9,60.6 58.8,60.3 C57.7,60 51.9,58.3 53.2,51 C54.6,43.1 60.6,43.9 61.8,44.2 L61.8,44.2 L61.8,44.2 Z" id="Shape" fill="#E13A6E" sketch:type="MSShapeGroup"></path>
            <path d="M170.1,5.2 L170.5,5.2 L170.8,5.2 C171,5.2 171.1,5.2 171.2,5.3 C171.4,5.4 171.5,5.6 171.5,5.8 C171.5,5.9 171.6,6.1 171.6,6.4 C171.6,6.7 171.6,6.9 171.7,7.1 L172.9,7.1 L172.9,7 L172.9,6.9 L172.9,6.8 L172.9,6.2 C172.9,5.7 172.8,5.4 172.5,5.1 C172.3,5 172.1,4.9 171.8,4.8 C172.1,4.8 172.4,4.7 172.6,4.5 C172.8,4.3 172.9,4 172.9,3.6 C172.9,3.1 172.7,2.7 172.3,2.5 C172.1,2.4 171.7,2.3 171.4,2.3 L169.1,2.3 L169.1,7.1 L170.2,7.1 L170.2,5.2 L170.1,5.2 L170.1,5.2 Z" id="Shape" fill="#3D83CF" sketch:type="MSShapeGroup"></path>
            <path d="M171.4,4.4 C171.2,4.5 171,4.6 170.7,4.6 L170.1,4.6 L170.1,3.2 L170.6,3.2 C170.9,3.2 171.2,3.2 171.3,3.3 C171.6,3.4 171.7,3.6 171.7,3.8 C171.7,4.1 171.6,4.2 171.4,4.4 L171.4,4.4 L171.4,4.4 Z" id="Shape" fill="#FFFFFF" sketch:type="MSShapeGroup"></path>
            <path d="M89.2,35 C88.4,35.5 83.5,39.5 88.3,46 C92.8,52 97.9,49 98.8,48.4 C99.8,47.7 104.2,43.6 99.9,37.6 C95.2,31 90.1,34.4 89.2,35 L89.2,35 L89.2,35 Z" id="Shape" fill="#E13A6E" sketch:type="MSShapeGroup"></path>
            <path d="M36,130.7 C41.7,131 51,132.5 51,132.5 L45.9,137.1 C45.9,137.1 27.9,134.1 27.8,137.5 C27.7,139.5 40,142.2 43.8,143.4 C46.7,144.3 52,146.2 52,149.7 C52,154 43.4,159 25.4,158.6 C18.2,158.5 6,157.4 1.6,156.4 L8.3,151.7 C8.3,151.7 16,152.9 20.5,153.2 C24.2,153.4 29.8,153 30.3,150.8 C30.7,148.6 21.7,146.7 17.3,145.4 C12.7,144 6.4,143 6.3,138.3 C6.2,132.2 19.2,131.3 22.7,131 C26.9,130.6 31.7,130.5 36,130.7 L36,130.7 L36,130.7 Z" id="Shape" fill="#3D83CF" sketch:type="MSShapeGroup"></path>
            <path d="M109,131.4 L110.8,137.1 C110.8,137.1 100.2,135.6 95.6,135.7 C91,135.8 78.8,136.4 79.2,144.8 C79.5,151 89.8,152.2 93.8,152.2 C97.9,152.2 101.6,150.4 101.6,150.4 L99.7,143.7 L112.7,143.7 L116.8,156.8 L103.6,156.8 L103.3,155.8 C103.3,155.8 97.1,157.8 89.7,157.8 C82.8,157.8 62.5,155.5 62.6,144.3 C62.7,131.7 86.1,130.2 93.6,130.1 C101.7,129.9 109,131.4 109,131.4 L109,131.4 L109,131.4 Z" id="Shape" fill="#3D83CF" sketch:type="MSShapeGroup"></path>
            <path d="M174.2,2.3 C175.1,3.3 175.3,4.9 174.9,6.2 C174.4,7.5 173.2,8.7 171.9,9 C170.1,9.4 168.3,8.8 167.3,7.3 C166.5,6.2 166.3,4.6 166.8,3.3 C167.4,1.8 169,0.7 170.5,0.5 C172,0.5 173.3,1.1 174.2,2.3 L174.2,2.3 L174.2,2.3 Z M170.8,1.3 C169.8,1.3 169,1.7 168.3,2.4 C167.6,3.1 167.3,3.9 167.3,4.9 C167.3,5.9 167.6,6.7 168.3,7.4 C169,8.1 169.8,8.4 170.8,8.4 C171.8,8.4 172.6,8 173.3,7.4 C174,6.7 174.3,5.9 174.3,4.9 C174.3,3.9 174,3.1 173.3,2.4 C172.6,1.6 171.8,1.3 170.8,1.3 L170.8,1.3 L170.8,1.3 Z" id="Shape" fill="#3D83CF" sketch:type="MSShapeGroup"></path>
        </g>
    </g>
</svg>