<?xml version="1.0" encoding="utf-8"?>
<!-- Generator: Adobe Illustrator 18.0.0, SVG Export Plug-In . SVG Version: 6.00 Build 0)  -->
<!DOCTYPE svg PUBLIC "-//W3C//DTD SVG 1.1//EN" "http://www.w3.org/Graphics/SVG/1.1/DTD/svg11.dtd">
<svg version="1.1" id="Layer_1" xmlns="http://www.w3.org/2000/svg" xmlns:xlink="http://www.w3.org/1999/xlink" x="0px" y="0px"
	 width="187.1px" height="151.3px" viewBox="0 0 187.1 151.3" enable-background="new 0 0 187.1 151.3" xml:space="preserve">
<path fill-rule="evenodd" clip-rule="evenodd" fill="#ED1E24" d="M90.6,45.5v5.1H46.2c1-5.1,2.4-10.2,4.4-15
	C62.6,42.1,76.5,44.3,90.6,45.5L90.6,45.5z"/>
<path fill-rule="evenodd" clip-rule="evenodd" fill="#ED1E24" d="M135.5,36.8c1.8,4.4,3.3,9,4.1,13.9H96v-5.1
	C109.7,45.1,123.2,41.9,135.5,36.8L135.5,36.8z"/>
<path fill-rule="evenodd" clip-rule="evenodd" fill="#ED1E24" d="M90.6,40.2c-13.4-0.7-26.2-3.4-37.3-9.6C58.7,18.5,68.7,5.4,82.4,1
	c2.5-0.8,5.1-1,8.2-1V40.2L90.6,40.2z"/>
<path fill-rule="evenodd" clip-rule="evenodd" fill="#ED1E24" d="M126.6,19.8c0.6,1.3,1.8,3,2.8,4.4c1.1,2.4,3,4.8,3.7,7.5
	c-11.3,5.4-23.8,7.6-37.1,8.5L96,0C109,0,119.2,9.8,126.6,19.8L126.6,19.8z"/>
<path fill-rule="evenodd" clip-rule="evenodd" fill="#ED1E24" d="M68.6,2.1C59.3,9.2,53.7,19,47.9,28.3c-5.4-3.5-11-7.4-15-12.6
	C44,9.1,56,5.1,68.6,2.1L68.6,2.1z"/>
<path fill-rule="evenodd" clip-rule="evenodd" fill="#ED1E24" d="M154.4,16c-4.7,4.9-10.3,10.5-16.5,12.9
	c-4.8-9.8-11.5-20.1-20.8-26.7C130.5,4.5,142.8,9.2,154.4,16L154.4,16z"/>
<path fill-rule="evenodd" clip-rule="evenodd" fill="#ED1E24" d="M46.2,33.4c-2.5,5.5-4.4,10.6-5.7,17.3H0c5.8-12.4,16-24.7,28.1-32
	C33.7,24,39.7,29.6,46.2,33.4L46.2,33.4z"/>
<path fill-rule="evenodd" clip-rule="evenodd" fill="#ED1E24" d="M187.1,50.6h-42.1c-1.1-5.8-3.1-11-4.8-16.7
	c6.9-3.4,13.4-8.8,19.1-14.6C171.2,26,181.7,38.6,187.1,50.6L187.1,50.6z"/>
<path fill-rule="evenodd" clip-rule="evenodd" fill="#233E90" d="M33,80.9h-9l8-13.4h0.1L33,80.9L33,80.9z M33.7,89.3l0.8,7.3H46
	l-4.6-42.2H29.6l-27,42.2H14l4.8-7.3H33.7L33.7,89.3z"/>
<polygon fill-rule="evenodd" clip-rule="evenodd" fill="#233E90" points="60.4,54.4 71.2,54.4 84.3,80.2 84.4,80.2 91.1,54.4 
	101.9,54.4 90.9,96.6 80.1,96.6 67,70.7 66.9,70.7 60.2,96.6 49.4,96.6 60.4,54.4 "/>
<polygon fill-rule="evenodd" clip-rule="evenodd" fill="#233E90" points="119.7,80 136.5,54.4 148.2,54.4 119.5,96.6 111.1,96.6 
	104.6,54.4 116.4,54.4 119.7,80 "/>
<path fill-rule="evenodd" clip-rule="evenodd" fill="#233E90" d="M159.6,62.8h1c3.5,0,7.3,0.7,6.1,5.3c-1.2,4.6-5.3,5.3-8.9,5.3h-1
	L159.6,62.8L159.6,62.8z M165.9,79.3c6.2-1.1,10.7-6.1,12.2-11.9c2.3-9-2.8-13-11.1-13h-16.2l-11,42.2h10.8l4.2-16.2h0.1l6,16.2
	h13.5L165.9,79.3L165.9,79.3z"/>
<path fill-rule="evenodd" clip-rule="evenodd" fill="#233E90" d="M90.6,111.2c-13.4,0.7-26.2,3.4-37.3,9.6
	c5.4,12,15.4,25.1,29.1,29.5c2.5,0.8,5.1,1,8.2,1V111.2L90.6,111.2z"/>
<path fill-rule="evenodd" clip-rule="evenodd" fill="#233E90" d="M126.6,131.5c0.6-1.3,1.8-3,2.8-4.4c1.1-2.4,3-4.8,3.7-7.5
	c-11.3-5.4-23.8-7.6-37-8.5v40.2C109,151.3,119.2,141.6,126.6,131.5L126.6,131.5z"/>
<path fill-rule="evenodd" clip-rule="evenodd" fill="#233E90" d="M68.6,149.2c-9.3-7.1-14.9-16.9-20.6-26.2c-5.4,3.5-11,7.4-15,12.6
	C44,142.3,56,146.2,68.6,149.2L68.6,149.2z"/>
<path fill-rule="evenodd" clip-rule="evenodd" fill="#233E90" d="M154.4,135.3c-4.7-4.9-10.3-10.5-16.5-12.9
	c-4.8,9.8-11.5,20.1-20.8,26.7C130.5,146.8,142.8,142.1,154.4,135.3L154.4,135.3z"/>
<path fill-rule="evenodd" clip-rule="evenodd" fill="#233E90" d="M46.2,118c-2.5-5.5-4.4-10.6-5.7-17.2l-40.5,0
	c5.8,12.4,16,24.7,28.1,32C33.7,127.3,39.7,121.8,46.2,118L46.2,118z"/>
<path fill-rule="evenodd" clip-rule="evenodd" fill="#233E90" d="M187.1,100.7h-42.1c-1.1,5.8-3.1,11-4.8,16.7
	c6.9,3.4,13.4,8.8,19.1,14.6C171.2,125.3,181.7,112.7,187.1,100.7L187.1,100.7z"/>
<path fill-rule="evenodd" clip-rule="evenodd" fill="#233E90" d="M90.6,105.8v-5.1H46.2c1,5.1,2.4,10.2,4.4,15
	C62.6,109.2,76.5,107.1,90.6,105.8L90.6,105.8z"/>
<path fill-rule="evenodd" clip-rule="evenodd" fill="#233E90" d="M135.5,114.6c1.8-4.4,3.3-9.1,4.1-13.9H96v5.1
	C109.7,106.2,123.2,109.5,135.5,114.6L135.5,114.6z"/>
</svg>
