<?xml version="1.0" encoding="UTF-8" standalone="no"?>
<svg width="40px" height="32px" viewBox="0 0 40 32" version="1.1" xmlns="http://www.w3.org/2000/svg" xmlns:xlink="http://www.w3.org/1999/xlink" xmlns:sketch="http://www.bohemiancoding.com/sketch/ns">
    <!-- Generator: Sketch 3.1.1 (8761) - http://www.bohemiancoding.com/sketch -->
    <title>StarContainer</title>
    <desc>Created with Sketch.</desc>
    <defs></defs>
    <g id="Page-1" stroke="none" stroke-width="1" fill="none" fill-rule="evenodd" sketch:type="MSPage">
        <path d="M31.7567972,12.97825 L24.6697972,20.20325 C24.4927972,20.38425 24.4117972,20.64325 24.4537972,20.89825 L26.1267972,31.10125 C26.2317972,31.74225 25.5877972,32.23225 25.0367972,31.92925 L16.2767972,27.11125 C16.0587972,26.99225 15.7967972,26.99225 15.5777972,27.11125 L6.81779716,31.92925 C6.26679716,32.23225 5.62279716,31.74225 5.72779716,31.10125 L7.40079716,20.89825 C7.44279716,20.64325 7.36279716,20.38425 7.18479716,20.20325 L0.097797164,12.97825 C-0.347202836,12.52425 -0.101202836,11.73225 0.514797164,11.63825 L10.3087972,10.14925 C10.5527972,10.11225 10.7647972,9.95125 10.8737972,9.72025 L15.2537972,0.43725 C15.5297972,-0.14575 16.3257972,-0.14575 16.6007972,0.43725 L20.9807972,9.72025 C21.0907972,9.95125 21.3017972,10.11225 21.5467972,10.14925 L31.3407972,11.63825 C31.9567972,11.73225 32.2027972,12.52425 31.7567972,12.97825 L31.7567972,12.97825 Z" id="Star-2" fill="#F6B82B" sketch:type="MSShapeGroup"></path>
    </g>
</svg>