<?xml version="1.0" encoding="UTF-8" standalone="no"?>
<svg width="46px" height="42px" viewBox="0 0 46 42" version="1.1" xmlns="http://www.w3.org/2000/svg" xmlns:xlink="http://www.w3.org/1999/xlink" xmlns:sketch="http://www.bohemiancoding.com/sketch/ns">
    <!-- Generator: Sketch 3.1 (8751) - http://www.bohemiancoding.com/sketch -->
    <title>slicer</title>
    <desc>Created with Sketch.</desc>
    <defs></defs>
    <g id="Page-1" stroke="none" stroke-width="1" fill="none" fill-rule="evenodd" sketch:type="MSPage">
        <g id="icon-rating-star" sketch:type="MSLayerGroup">
            <path d="M6.6,0.3 C6.6,0.3 13.3,0 20.2,0 C27.3,0 34.6,0.3 34.6,0.3 C38.3,0.3 41.3,3.3 41.3,7 C41.3,7 41.6,14.2 41.6,21.2 C41.6,28.1 41.3,34.9 41.3,34.9 C41.3,38.6 38.3,41.6 34.6,41.6 C34.6,41.6 27.7,41.9 20.7,41.9 C13.7,41.9 6.6,41.6 6.6,41.6 C2.9,41.6 -0.1,38.6 -0.1,34.9 C-0.1,34.9 -0.4,27.9 -0.4,20.9 C-0.4,13.9 -0.1,6.9 -0.1,6.9 C-0.1,3.3 2.9,0.3 6.6,0.3 L6.6,0.3 Z" id="Shape" fill="#B8BCC2" sketch:type="MSShapeGroup"></path>
            <path d="M20.3,28.2 L13.9,31.6 C13.5,31.8 13,31.5 13.1,31 L14.3,23.9 C14.3,23.7 14.3,23.5 14.1,23.4 L8.9,18.4 C8.6,18.1 8.8,17.5 9.2,17.5 L16.4,16.5 C16.6,16.5 16.7,16.4 16.8,16.2 L20,9.7 C20.2,9.3 20.8,9.3 21,9.7 L24.2,16.2 C24.3,16.4 24.4,16.5 24.6,16.5 L31.8,17.5 C32.3,17.6 32.4,18.1 32.1,18.4 L26.9,23.4 C26.8,23.5 26.7,23.7 26.7,23.9 L27.9,31 C28,31.4 27.5,31.8 27.1,31.6 L20.7,28.2 C20.7,28.1 20.5,28.1 20.3,28.2 L20.3,28.2 Z" id="Shape" fill="#FFFFFF" sketch:type="MSShapeGroup"></path>
        </g>
    </g>
</svg>