<svg xmlns="http://www.w3.org/2000/svg" width="364.8" height="435.9" viewBox="0 0 364.8 435.9"><path fill="#fff" d="M149.1 424.7c-29.5-15.4-54.7-35.3-74.9-59.2h-50.5l-2.4-6.6c-7.6-21.2-11.4-42-11.4-61.7 0-23 4.2-45.9 12.5-68.2l2.4-6.5h6.9c37.8 0 48.1-2.8 50.8-4.1 2.5-1.2 10.6-6.6 29.8-32.1l.1-.1c5-6.4 13.8-17.5 27.1-33.4l.2-.3 68.4-69.8 15.9-69.8 10.5 3.4c34.3 11.3 41.5 34.7 41.5 52.4 0 12.9-4.5 26.6-13.3 40.6l-4.5 7.5c-16.8 26.9-25.3 52.8-25.5 77h2.1c38.2 0 66.3 3.7 86 11.2 15.5 5.9 33.9 17.9 33.9 41.2 0 15.4-7.4 30.4-21.9 44.5 6.4 9.2 9.5 16.9 9.5 23.8 0 13.2-9.2 22.7-27.4 28.2 1.2 6.9 1.4 9.7 1.4 11.3 0 10.3-5.2 18.7-14.7 23.7-5.7 3-12.9 4.9-22 5.7.1 2.1.2 4.2.2 6.2 0 11.1-4.3 20.1-12.6 26-7.3 5.4-17.5 8-31.1 8-3.8 0-8.6-.6-14.9-1.8l-1.1-.2-10.8-4.7c-12.9 5.7-28.3 8.6-45.7 8.6l-12.3.3-2.2-1.1z"/><path fill="#7A868D" d="M231.4 25.9c23 7.6 34.6 21.8 34.6 42.8 0 10.9-3.8 22.8-11.8 35.4l-4.4 7.4c-18 29-27 56.6-27 82.9l-.4 9.4h12.5c36.6 0 64.1 3.5 82.4 10.6 18.3 7 27.5 17.7 27.5 31.9 0 14.8-8.5 29.2-25.5 43.2 8.7 10.5 13.1 18.9 13.1 25.1 0 10.1-9.7 16.9-29 20.7 2 9.9 3 16.2 3 18.8 0 13.2-12.5 19.8-37.5 19.8.7 6 1 11.2 1 15.7 0 7.9-2.8 13.9-8.4 17.9-5.6 4.1-14 6.1-25.3 6.1-3 0-7.4-.5-13-1.6l-13.9-6.1c-12.4 6.4-27.6 9.6-45.7 9.6l-9.8.3c-30-15.6-54.9-35.8-74.7-60.4h-48.3c-7.2-20.3-10.8-39.8-10.8-58.3 0-21.9 3.9-43.4 11.9-64.7 29.3 0 47.6-1.6 55-5 7.3-3.3 18.5-15.1 33.7-35.1 6-7.8 14.9-18.9 26.9-33.1l70.1-71.6 13.8-61.7m-14.7-25.9l-4.8 21.5-12.6 56.2-66.2 67.5-.5.6-.5.6c-13.5 16-22.3 27.2-27.4 33.7l-.1.1-.1.1c-17.9 23.6-24.8 28.3-26 29-1.4.5-10.6 3.2-46.7 3.2h-13.8l-4.9 13c-8.7 23.3-13.1 47.4-13.1 71.6 0 20.8 4 42.7 12 65l4.7 13.3h52.9c20.5 23.4 45.6 42.9 74.8 58.1l4.6 2.4 5.2-.1 9.5-.3c17 0 32.2-2.6 45.5-7.7l5.9 2.6 2.1.9 2.2.4c6.9 1.3 12.4 2 16.8 2 15.8 0 27.9-3.2 37-9.9 10.1-7.3 15.9-18.5 16.6-31.5 6.4-1.2 11.8-3 16.6-5.5 12.7-6.7 20-18.6 20-32.5 0-1.2-.1-2.6-.3-4.7 4-1.7 7.6-3.6 10.7-5.9 10.1-7.2 15.6-17.5 15.6-29 0-7.1-2.2-14.4-6.8-22.5 12.8-14.4 19.3-29.7 19.3-45.8 0-11.8-4.1-22.8-11.7-31.7-6.7-7.8-16.4-14.2-28.6-18.9-19.3-7.4-45.9-11.3-81.1-11.8 2.1-19.5 9.9-40.2 23.4-61.8l.1-.1.1-.2 4.3-7.2c9.6-15.8 14.6-31.2 14.6-46 0-29.6-17.2-51.6-48.4-61.8l-20.9-6.9z"/></svg>