<?xml version="1.0" encoding="utf-8"?>
<!-- Generator: Adobe Illustrator 18.0.0, SVG Export Plug-In . SVG Version: 6.00 Build 0)  -->
<!DOCTYPE svg PUBLIC "-//W3C//DTD SVG 1.1//EN" "http://www.w3.org/Graphics/SVG/1.1/DTD/svg11.dtd">
<svg version="1.1" id="Layer_1" xmlns:ev="http://www.w3.org/2001/xml-events"
	 xmlns="http://www.w3.org/2000/svg" xmlns:xlink="http://www.w3.org/1999/xlink" x="0px" y="0px" width="59.1px" height="57.1px"
	 viewBox="0.7 2.1 59.1 57.1" enable-background="new 0.7 2.1 59.1 57.1" xml:space="preserve">
<path fill="#C9F4BE" d="M30.2,2.2c16.3,0,29.6,12.9,29.6,28.1c0,5.9-1.7,11.5-5.4,15.8c-6.1,7-14.6,16.8-28,11.8
	c-16.3,1-25.7-12.4-25.7-27.5C0.7,15.1,26.7,1,30.2,2.2z"/>
<path fill="#77CA61" d="M28.5,48.8c-0.5,0.2-1.1,0.3-1.6-0.3L11.7,30.1c-1.2-1.1-0.9-0.9,0.5-1.8c1.7-1.2,4.1-3.2,6-6
	c0.9-1.3,2.2-1.4,3.1-0.1l5.1,8.6c0.9,1.4,1.9,3.1,2.5,2.9c0.2-0.1,0.5-0.3,0.8-0.6l18.2-22c1-1.3,2.5-1.1,3.3,0.3l4.3,4.5
	c0.8,1.4,0.3,3.4-1,4.4L32.1,45.8C30.8,46.8,29.3,48.4,28.5,48.8z"/>
</svg>
