<svg xmlns="http://www.w3.org/2000/svg" width="100%" height="100%" viewBox="0 0 595.3 841.9">
	<path fill="#fff" d="M281.9 421.3c-.5 0-.9 0-1.4-.1-1.5-.2-2.9-.8-4.1-1.6h-.2c-1.4 0-2.8-.3-4.2-.9-1.4-.6-2.6-1.5-3.5-2.7-1.4-.4-2.8-1.1-3.9-2.1-.7-.6-1.4-1.4-1.9-2.2-1.8 1.2-3.7 2.1-5.9 2.7-2.4.8-5 1.1-7.6 1.1-3.2 0-6.3-.6-9.2-1.7-1.9-.7-3.6-1.7-5.2-2.9-2 1.5-4.4 2.6-7 3.4-2.5.8-5.3 1.1-8.4 1.1-3.1 0-5.9-.3-8.4-1-1.5-.4-2.8-.9-4.1-1.5-1.8 1.1-3.9 1.7-6.1 1.7h-9c-3.4 0-6.4-1.3-8.6-3.7-1.6.9-3.2 1.7-5 2.3-3.6 1.3-7.9 1.9-12.6 1.9-1.3 0-2.6 0-3.9-.1-1.1-.1-2.2-.2-3.1-.3-1.2-.1-2.2-.3-3.2-.5s-1.9-.4-2.6-.7c-2.2-.7-4.1-2-5.5-3.6-1.2-1.4-2.7-3.9-2.7-7.6v-32.5c0-3.7 1.5-6.2 2.7-7.6l.1-.1c-1.1-1.6-2-3.5-2.7-5.4-.9-2.7-1.3-5.6-1.3-8.7 0-3.2.5-6.3 1.3-9 .9-3 2.4-5.6 4.2-7.9 2-2.4 4.4-4.4 7.3-5.7 1.1-.5 2.2-.9 3.4-1.3v-1.6c0-6.5 4.9-11.4 11.4-11.4h8.4c6.5 0 11.4 4.9 11.4 11.4v.4c2.7-.8 5.5-1.2 8.5-1.2 2.9 0 5.8.5 8.4 1.5 2.7 1 5.1 2.5 7.1 4.3.3.2.5.5.8.8-.3-1.1-.4-2.1-.4-3.2 0-6.5 4.9-11.4 11.4-11.4h10.1c2.8 0 4.9.8 6.3 1.7 1.4-.9 3.5-1.7 6.3-1.7h8.3c5.3 0 9.6 3.3 11 8.2 1.3-.1 2.7-.2 4.1-.2 2.4 0 4.7.3 6.8.8v-.1c0-6.6 4.9-11.5 11.5-11.5h8.9c6.6 0 11.5 4.9 11.5 11.5v.2h7c2.1 0 4.1.5 5.9 1.5 1.4-.6 2.8-1 4.5-1.4 2.6-.6 5.5-.9 8.9-.9 2.5 0 5 .3 7.2.9 2.3.6 4.4 1.5 6.3 2.6.6-.4 1.3-.7 2-1 1.1-.5 2.3-.9 3.8-1.2 1.1-.3 2.4-.5 3.7-.7 1.3-.2 2.7-.4 4.1-.5 1.4-.1 2.9-.2 4.3-.2 4.7 0 8.6.6 12 2 1.2-2.3 3.1-4.1 5.5-5.1l.5-.2 8.4-3.2c.5-.2.9-.3 1.2-.4l.2-.1c1-.3 2-.4 3.1-.4 1.8 0 3.5.4 5.1 1.1l.5-.4c2.9-2.3 6.5-3.4 10.7-3.4s7.8 1.2 10.7 3.4c2.7 2.1 4.4 4.9 5.1 8.1 2.8-.9 5.7-1.3 8.8-1.3 2.9 0 5.8.5 8.4 1.5 2.7 1 5.1 2.5 7.2 4.3 2.2 2 3.9 4.4 5.1 7.2 1.2 2.7 1.8 5.7 1.8 8.9 0 1.7-.2 3.2-.7 4.7.4 1.3.7 2.7.7 4.2 0 3.3-.8 6.3-2.5 9.1-1.4 2.3-3.3 4.4-5.6 6l-.1.1c.8.4 1.6.8 2.2 1.3 4.3 3.1 6.6 7.5 6.6 12.6 0 5.3-2.1 8.7-3.8 10.6-2.2 2.4-5.2 3.8-8.5 4.3v6.8c0 6.6-4.9 11.5-11.5 11.5h-9c-2.4 0-4.6-.7-6.5-1.9-1.3.7-2.7 1.2-4 1.6-2.4.7-4.9 1.1-7.4 1.1-3.3 0-6.4-.5-9.3-1.5-1.2-.4-2.4-.9-3.5-1.5-.6.4-1.2.8-1.9 1.1-1.4.7-3 1.2-4.7 1.6-1.6.3-3.2.5-4.9.5-1.7 0-3.4-.2-5.2-.5-2.3-.4-4.5-1.3-6.5-2.5-1.9 1.4-4.3 2.1-6.8 2.1h-9c-1.3 0-2.6-.2-3.8-.6-1.2.4-2.5.6-3.8.6h-9c-2.2 0-4.3-.6-6.1-1.7-.7.3-1.3.5-2.1.7-1.1.3-2.3.6-3.6.9-1.4.3-2.8.5-4.3.6-1.5.1-3 .2-4.5.2-1 0-2 0-3.2-.1-1.4-.1-2.9-.3-4.4-.5-1.6-.3-3.2-.8-4.8-1.4-1.6-.6-3.2-1.4-4.5-2.5-.6 1-1.3 2-2.2 2.8-1.1 1-2.5 1.7-3.9 2.1-1 1.1-2.2 2.1-3.5 2.7-1.3.6-2.7.9-4.2.9h-.2c-1.2.8-2.7 1.4-4.1 1.6-.5.1-.9.1-1.4.1-1 0-2-.2-3-.5-1 .3-2 .4-3 .4zm-62.2-55.8c2.7 0 5.2.3 7.4.8.8.2 1.5.4 2.2.6-.8-1-1.4-2.2-1.9-3.5l-5.7-17.1c-.1.7-.3 1.5-.5 2.2.4 1.3.7 2.7.7 4.2 0 3.3-.8 6.3-2.5 9.1-.9 1.4-1.9 2.8-3.1 3.9 1.1-.2 2.3-.2 3.4-.2z"/><path d="M259.2 325.3c0 .2 0 .4-.1.6l-.2.6-11.2 33.5c-.2.5-.4.8-.6 1-.2.2-.6.3-1.2.3h-7.2c-.5 0-.9-.1-1.2-.3-.2-.2-.5-.5-.6-1l-11.3-33.6-.2-.6c-.1-.2-.1-.4-.1-.6 0-1 .5-1.4 1.4-1.4h10.1c.5 0 .9.1 1.2.3.3.2.5.5.6 1l3.4 14.6c.2.7.3 1.6.5 2.5.1.9.2 1.7.3 2.2.1.5.1.9.1.9h.1c0-.1 0-.4.1-.9s.2-1.3.4-2.2c.2-.9.3-1.8.5-2.5l3.8-14.6c.1-.5.3-.8.6-1 .2-.2.6-.3 1.2-.3h8.3c.9.1 1.3.6 1.3 1.5zm25.2 33c-.3.7-.9 1.4-1.9 1.9-.4.3-1.1.5-1.8.7-.8.2-1.6.4-2.6.6-.9.2-1.9.3-3 .4-1.1.1-2.1.2-3.2.2-1.7 0-3.4-.1-5.1-.3-1.7-.2-3.3-.6-4.7-1.2-1.4-.6-2.6-1.4-3.5-2.5-.9-1.1-1.4-2.5-1.4-4.3 0-2 .5-3.5 1.6-4.8 1.1-1.2 2.4-2.2 4-3 1.6-.7 3.4-1.3 5.3-1.7 1.9-.4 3.7-.8 5.4-1.1v-3.2c0-.8-.2-1.3-.6-1.7-.4-.4-.9-.6-1.5-.6-.7 0-1.2.2-1.7.7-.5.5-.8 1-1 1.6-.3 1-.9 1.7-1.8 2.2-.9.5-2 .8-3.3.8-1.4 0-2.6-.4-3.6-1.1-1-.7-1.5-1.8-1.5-3.2 0-.8.3-1.6.8-2.5.5-.8 1.4-1.6 2.5-2.3 1.2-.7 2.7-1.2 4.5-1.6 1.8-.4 4-.6 6.6-.6 1.7 0 3.3.2 4.8.6 1.5.4 2.7.9 3.8 1.7 1.1.8 1.9 1.7 2.5 2.9.6 1.2.9 2.6.9 4.3v14.2c0 1.2-.2 2.2-.5 2.9zm-10.9-10.1c-.6.1-1.2.2-1.8.4-.6.2-1.1.5-1.6.8-.5.4-.9.8-1.2 1.4-.3.6-.4 1.3-.4 2.1 0 1.1.3 1.9.8 2.4.6.6 1.3.8 2.1.8.6 0 1.1-.2 1.5-.5.4-.3.6-.8.6-1.4v-6zm47.3 11.6c0 1-.5 1.5-1.5 1.5h-9.6c-.6 0-1.1-.1-1.4-.3-.3-.2-.6-.6-.9-1.2l-4.4-8.3c-.4-.8-.9-2-1.4-3.5h-.1v11.8c0 1-.5 1.5-1.5 1.5h-8.9c-1 0-1.5-.5-1.5-1.5v-37.3c0-1 .5-1.5 1.5-1.5h8.9c1 0 1.5.5 1.5 1.5v21.2h.1l6.3-9.5c.4-.5.7-.9 1-1.1.3-.2.7-.4 1.4-.4h8.2c1 0 1.5.5 1.5 1.5 0 .4-.2.8-.5 1.2l-7.7 9.3 8.7 14c.2.4.3.8.3 1.1zm28.5-1.5c-.3.7-.9 1.4-1.9 1.9-.4.3-1.1.5-1.8.7-.8.2-1.6.4-2.6.6-.9.2-1.9.3-3 .4-1.1.1-2.1.2-3.2.2-1.7 0-3.4-.1-5.1-.3-1.7-.2-3.3-.6-4.7-1.2-1.4-.6-2.6-1.4-3.5-2.5-.9-1.1-1.4-2.5-1.4-4.3 0-2 .5-3.5 1.6-4.8 1.1-1.2 2.4-2.2 4-3 1.6-.7 3.4-1.3 5.3-1.7 1.9-.4 3.7-.8 5.4-1.1v-3.2c0-.8-.2-1.3-.6-1.7-.4-.4-.9-.6-1.5-.6-.7 0-1.2.2-1.7.7-.5.5-.8 1-1 1.6-.3 1-.9 1.7-1.8 2.2-.9.5-2 .8-3.3.8-1.4 0-2.6-.4-3.6-1.1-1-.7-1.5-1.8-1.5-3.2 0-.8.3-1.6.8-2.5.5-.8 1.4-1.6 2.5-2.3 1.2-.7 2.7-1.2 4.5-1.6 1.8-.4 4-.6 6.6-.6 1.7 0 3.3.2 4.8.6 1.5.4 2.7.9 3.8 1.7 1.1.8 1.9 1.7 2.5 2.9.6 1.2.9 2.6.9 4.3v14.2c-.1 1.2-.2 2.2-.5 2.9zm-11-10.1c-.6.1-1.2.2-1.8.4-.6.2-1.1.5-1.6.8-.5.4-.9.8-1.2 1.4-.3.6-.4 1.3-.4 2.1 0 1.1.3 1.9.8 2.4.6.6 1.3.8 2.1.8.6 0 1.1-.2 1.5-.5.4-.3.6-.8.6-1.4v-6zm43.3 13.1h-9c-1 0-1.5-.5-1.5-1.5v-18.9c0-.8-.2-1.5-.5-2s-.9-.8-1.8-.8-1.5.3-1.8.8c-.3.5-.5 1.2-.5 2v18.9c0 1-.5 1.5-1.5 1.5h-9c-1 0-1.5-.5-1.5-1.5v-22.4c0-1.1.2-1.9.5-2.4s1-.9 2-1.4c.6-.3 1.3-.5 2.2-.7.9-.2 1.9-.4 3-.6 1.1-.2 2.2-.3 3.4-.4 1.2-.1 2.3-.1 3.5-.1 4.6 0 8.1.8 10.5 2.3 2.4 1.5 3.5 3.6 3.5 6.2v19.4c0 1.1-.5 1.6-1.5 1.6zm25.5-2.9c0 .6-.2 1.1-.6 1.5-.4.5-.9.9-1.6 1.2-.7.3-1.5.6-2.4.8s-1.9.3-2.8.3c-1.1 0-2.2-.1-3.4-.3-1.2-.2-2.3-.7-3.2-1.3-1-.7-1.8-1.6-2.4-2.8-.6-1.2-1-2.8-1-4.8v-14h-2.3c-1 0-1.5-.5-1.5-1.5v-3.3c0-1 .5-1.5 1.5-1.5h2.3v-3c0-.9.3-1.5 1-1.8l8.4-3.2.5-.2c.1 0 .3-.1.5-.1 1 0 1.5.5 1.5 1.5v6.7h3.7c1 0 1.5.5 1.5 1.5v3.3c0 1-.5 1.5-1.5 1.5h-3.7v14.3c0 1.2.3 2 .8 2.5.5.4 1.2.6 2 .6h.7c1.3.1 2 .8 2 2.1zm15.3-32.3c0 1.2-.5 2.3-1.6 3.1-1.1.9-2.6 1.3-4.5 1.3s-3.4-.4-4.5-1.3-1.6-1.9-1.6-3.1c0-1.2.5-2.2 1.6-3.1 1.1-.8 2.6-1.3 4.5-1.3s3.4.4 4.5 1.3c1 .8 1.6 1.9 1.6 3.1zm-1.6 35.2h-9c-1 0-1.5-.5-1.5-1.5v-25.7c0-1 .5-1.5 1.5-1.5h9c1 0 1.5.5 1.5 1.5v25.7c0 1-.5 1.5-1.5 1.5zm32.5-8.7c0 1.4-.4 2.7-1 3.9-.7 1.2-1.6 2.2-2.8 3-1.2.8-2.5 1.5-4 1.9-1.5.4-3 .7-4.5.7-2.2 0-4.2-.3-6.1-.9-1.8-.6-3.4-1.6-4.7-2.9-1.3-1.3-2.3-2.9-3.1-4.8-.7-1.9-1.1-4.2-1.1-6.8 0-2.5.4-4.7 1.2-6.6.8-1.8 1.8-3.4 3.2-4.6 1.3-1.2 2.9-2.1 4.7-2.7 1.8-.6 3.7-.9 5.7-.9 1.7 0 3.4.3 4.9.9 1.5.6 2.8 1.4 4 2.4 1.1 1 2 2.3 2.7 3.8.6 1.5 1 3.1 1 4.9 0 1.2-.2 2-.7 2.5-.4.5-1.1.8-2 .9l-13.5 2.2c.4 1.2 1.1 2.1 2.1 2.8.9.7 2.3 1.1 4 1.1 1.3 0 2.4-.3 3.4-.8s1.7-1 2.1-1.3c.3-.3.6-.5 1-.7.4-.2.8-.3 1.3-.3.7 0 1.2.2 1.7.7.3.2.5.9.5 1.6zm-10.9-11.6c-.1-.6-.2-1.1-.5-1.5-.2-.4-.5-.8-.9-1.1-.4-.3-.9-.4-1.5-.4-.7 0-1.2.2-1.6.6-.4.4-.8.8-1 1.4-.3.6-.4 1.2-.5 1.9-.1.7-.1 1.3-.1 1.9l6.3-1.1-.2-1.7zm-256.3 45.4c0 2.9-.4 5.5-1.1 7.8-.8 2.3-2 4.3-3.6 6-1.7 1.6-3.8 2.9-6.3 3.8-2.6.9-5.7 1.4-9.3 1.4-1.1 0-2.2 0-3.2-.1s-1.9-.1-2.8-.2c-.9-.1-1.6-.2-2.2-.3-.6-.1-1.1-.2-1.4-.3-.5-.2-.9-.4-1.1-.6-.2-.2-.3-.6-.3-1.1v-32.5c0-.5.1-.9.3-1.1.2-.2.6-.5 1.1-.6.3-.1.8-.2 1.4-.3.6-.1 1.4-.2 2.2-.3.9-.1 1.8-.2 2.8-.2 1-.1 2-.1 3.1-.1 3.7 0 6.8.5 9.4 1.4 2.6.9 4.7 2.2 6.3 3.8 1.7 1.7 2.9 3.6 3.6 6 .8 2.1 1.1 4.7 1.1 7.5zm-12.4-.2c0-3.9-.4-6.9-1.3-8.8-.9-1.9-2.4-2.9-4.7-2.9h-.5c-.1 0-.2 0-.4.1v23.2c.2 0 .3.1.4.1h.5c2.3 0 3.8-.9 4.7-2.8.8-2.1 1.3-5 1.3-8.9zm28.8-16.6c0 1.2-.5 2.3-1.6 3.1-1.1.9-2.6 1.3-4.5 1.3s-3.4-.4-4.5-1.3-1.6-1.9-1.6-3.1c0-1.2.5-2.2 1.6-3.1 1.1-.8 2.6-1.3 4.5-1.3s3.4.4 4.5 1.3c1 .9 1.6 1.9 1.6 3.1zm-1.6 35.3h-9c-1 0-1.5-.5-1.5-1.5v-25.7c0-1 .5-1.5 1.5-1.5h9c1 0 1.5.5 1.5 1.5v25.7c0 1-.5 1.5-1.5 1.5zm31.6-8.6c0 1.3-.3 2.6-.9 3.7-.6 1.2-1.4 2.2-2.5 3-1.1.8-2.5 1.5-4.1 2-1.6.5-3.4.7-5.5.7-2.2 0-4.1-.2-5.8-.7-1.7-.4-3-1-4.1-1.7-1.1-.7-1.9-1.5-2.4-2.4-.5-.9-.8-1.8-.8-2.7 0-1.3.4-2.3 1.2-3.1.8-.8 2-1.1 3.4-1.1 1.2 0 2.2.3 3.1.8.9.5 1.5 1.2 2 2 .4.8.8 1.4 1.3 1.8.5.4 1.1.6 1.8.6.5 0 1-.2 1.3-.5.4-.3.6-.7.6-1.3 0-.8-.4-1.5-1.1-2.1-.7-.5-1.6-1-2.6-1.5-1.1-.4-2.2-.9-3.4-1.3-1.2-.4-2.4-1-3.4-1.7-1.1-.7-1.9-1.6-2.6-2.6-.7-1-1.1-2.4-1.1-4 0-1.5.3-2.8.9-3.9.6-1.1 1.5-2 2.7-2.8 1.1-.7 2.5-1.3 4.1-1.7 1.6-.4 3.3-.6 5.1-.6 1.9 0 3.6.2 5.1.5 1.5.4 2.7.8 3.7 1.4 1 .6 1.8 1.3 2.3 2 .5.8.8 1.6.8 2.5 0 1.2-.4 2.2-1.2 2.8-.8.7-1.8 1-3.1 1-1.1 0-2-.3-2.9-.8-.8-.5-1.5-1.2-1.9-2.1-.4-.7-.8-1.3-1.2-1.6-.4-.3-1-.5-1.6-.5-.6 0-1.1.2-1.4.6-.3.4-.5.8-.5 1.3 0 .9.4 1.6 1.1 2.1.7.5 1.6 1 2.7 1.4 1.1.4 2.3.9 3.5 1.3 1.3.4 2.5 1 3.5 1.7 1.1.7 2 1.6 2.7 2.7.8 1.6 1.2 3 1.2 4.8zm29.1-.4c0 1.5-.3 2.8-1 4-.7 1.2-1.6 2.2-2.7 3.1-1.1.8-2.4 1.5-3.9 2s-3 .7-4.6.7c-2 0-3.8-.3-5.6-1-1.7-.7-3.2-1.6-4.4-2.9-1.2-1.3-2.2-2.8-2.9-4.7-.7-1.9-1.1-4-1.1-6.3 0-2.2.3-4.2.9-6.1.6-1.9 1.4-3.5 2.6-4.8 1.2-1.4 2.6-2.4 4.5-3.2 1.8-.8 3.9-1.2 6.4-1.2 1.9 0 3.6.2 5.1.7 1.5.4 2.7 1 3.7 1.7s1.8 1.5 2.3 2.4c.5.9.8 1.8.8 2.6 0 1.4-.4 2.5-1.2 3.4-.8.9-2.2 1.3-4 1.3-1.4 0-2.5-.4-3.2-1.1-.7-.8-1.2-1.6-1.5-2.6-.2-.6-.4-1.1-.8-1.5-.3-.5-.9-.7-1.6-.7-.8 0-1.4.5-2 1.5-.5 1-.8 2.5-.8 4.3 0 1.2.1 2.3.3 3.4.2 1.1.6 2 1.1 2.8.5.8 1.1 1.5 1.8 2s1.6.7 2.6.7c1.2 0 2.1-.2 2.7-.6.6-.4 1.2-.9 1.7-1.4.4-.4.8-.7 1.2-.9.4-.2.8-.3 1.3-.3.7 0 1.3.2 1.7.7.3.5.6 1.2.6 2zm76.1 5.8c-.3.7-.9 1.3-1.8 1.9-.5.3-1.1.6-1.9.8-.8.2-1.7.5-2.7.7-1 .2-2.1.4-3.3.5-1.2.1-2.4.2-3.6.2-.8 0-1.7 0-2.7-.1-1-.1-2-.2-3.1-.4s-2.1-.5-3.1-.9-1.9-.9-2.7-1.6c-.8-.7-1.5-1.5-1.9-2.5-.5-1-.7-2.2-.7-3.7v-18.8c0-1 .5-1.5 1.5-1.5h9c1 0 1.5.5 1.5 1.5v18.8c0 .7.2 1.2.6 1.6.4.4.9.5 1.5.5s1.1-.2 1.5-.5c.4-.4.6-.9.6-1.6v-18.8c0-1 .5-1.5 1.5-1.5h9c1 0 1.5.5 1.5 1.5v21.4c-.2.9-.4 1.8-.7 2.5zm32.8 3.2h-9c-1 0-1.5-.5-1.5-1.5v-18.9c0-.8-.2-1.5-.5-2s-.9-.8-1.8-.8-1.5.3-1.8.8c-.3.5-.5 1.2-.5 2v18.9c0 1-.5 1.5-1.5 1.5h-9c-1 0-1.5-.5-1.5-1.5v-22.4c0-1.1.2-1.9.5-2.4s1-.9 2-1.4c.6-.3 1.3-.5 2.2-.7.9-.2 1.9-.4 3-.6 1.1-.2 2.2-.3 3.4-.4 1.2-.1 2.3-.1 3.5-.1 4.6 0 8.1.8 10.5 2.3 2.4 1.5 3.5 3.6 3.5 6.2v19.4c0 1.1-.5 1.6-1.5 1.6zm25.9-2.9c0 .6-.2 1.1-.6 1.5-.4.5-.9.9-1.6 1.2-.7.3-1.5.6-2.4.8-.9.2-1.9.3-2.9.3-1.1 0-2.2-.1-3.4-.3-1.2-.2-2.3-.7-3.2-1.3-1-.7-1.8-1.6-2.4-2.8-.6-1.2-1-2.8-1-4.8v-13.9h-2.3c-1 0-1.5-.5-1.5-1.5v-3.3c0-1 .5-1.5 1.5-1.5h2.3v-3c0-.9.3-1.5 1-1.8l8.4-3.2.5-.2c.1 0 .3-.1.5-.1 1 0 1.5.5 1.5 1.5v6.8h3.7c1 0 1.5.5 1.5 1.5v3.3c0 1-.5 1.5-1.5 1.5h-3.7v14.3c0 1.2.3 2 .8 2.5.5.4 1.2.6 2 .6h.7c1.4-.1 2.1.5 2.1 1.9zm29.2-5.8c0 1.4-.4 2.7-1.1 3.9-.7 1.2-1.6 2.2-2.8 3-1.2.8-2.5 1.5-4 1.9-1.5.4-3 .7-4.5.7-2.2 0-4.2-.3-6.1-.9-1.8-.6-3.4-1.6-4.7-2.9-1.3-1.3-2.3-2.9-3.1-4.8-.7-1.9-1.1-4.2-1.1-6.8 0-2.5.4-4.7 1.2-6.6.8-1.8 1.8-3.4 3.2-4.6 1.3-1.2 2.9-2.1 4.7-2.7 1.8-.6 3.7-.9 5.7-.9 1.7 0 3.4.3 4.9.9 1.5.6 2.8 1.4 4 2.4 1.1 1 2 2.3 2.7 3.8.6 1.5 1 3.1 1 4.9 0 1.2-.2 2-.7 2.5-.4.5-1.1.8-2 .9l-13.5 2.2c.4 1.2 1.1 2.1 2.1 2.8.9.7 2.3 1.1 4 1.1 1.3 0 2.4-.3 3.4-.8s1.7-1 2.1-1.3c.3-.3.6-.5 1-.7.4-.2.8-.3 1.3-.3.7 0 1.2.2 1.7.7.4.2.6.8.6 1.6zm-10.9-11.6c-.1-.6-.2-1.1-.5-1.5-.2-.4-.5-.8-.9-1.1-.4-.3-.9-.4-1.5-.4-.7 0-1.2.2-1.6.6-.4.4-.8.8-1 1.4-.3.6-.4 1.2-.5 1.9-.1.7-.1 1.3-.1 1.9l6.3-1.1c-.1-.6-.2-1.2-.2-1.7zm39.4-2.9c0 1.7-.4 2.9-1.2 3.7-.8.8-1.9 1.2-3.3 1.2-1.3 0-2.2-.3-2.8-.8-.6-.5-1-1.1-1.3-1.7-.3-.6-.6-1.2-.9-1.7-.3-.5-.8-.8-1.5-.8-.4 0-.8.1-1.1.4-.3.3-.4.7-.4 1.1v20.2c0 1-.5 1.5-1.5 1.5h-9c-1 0-1.5-.5-1.5-1.5v-22.3c0-1.1.2-1.9.5-2.4s1-.9 2-1.4c1.1-.5 2.6-.9 4.6-1.2 2-.4 4.3-.5 6.7-.5 3.7 0 6.3.6 8 1.7 1.9 1.2 2.7 2.7 2.7 4.5z" fill="#0574B9"/><path fill="#E9217A" d="M305.8 390.6l-3.1 2.6 2.3 3.3-3.7 1.6 1.2 3.8-4 .5.1 4-4-.6-1 3.8-3.7-1.7-2.1 3.4-2.9-2.7-3 2.7-2.1-3.4-3.7 1.7-1-3.8-4 .6.1-4-4-.5 1.2-3.8-3.6-1.6 2.2-3.3-3.1-2.6 3.1-2.6-2.2-3.3 3.6-1.6-1.2-3.8 4-.5-.1-4.1 4 .7 1-3.9 3.7 1.8 2.1-3.5 3 2.7 2.9-2.7 2.1 3.5 3.7-1.8 1 3.9 4-.6-.1 4 4 .5-1.2 3.8 3.7 1.6-2.3 3.3z"/><path fill="#0574B9" d="M180.5 358.4c-.3.6-.9 1.2-1.8 1.7-.4.2-.9.5-1.7.7-.7.2-1.6.4-2.5.6-.9.2-1.9.3-3 .4-1 .1-2.1.2-3 .2-2.7 0-5-.3-6.8-1-1.9-.7-3.4-1.6-4.6-2.8-1.2-1.2-2.1-2.6-2.7-4.3-.6-1.7-.8-3.6-.8-5.6 0-2.2.3-4.2.9-6 .6-1.8 1.4-3.3 2.4-4.6 1-1.3 2.3-2.3 3.8-3 1.5-.7 3.2-1.1 5-1.1 1.1 0 2 .1 2.6.3.7.2 1.1.4 1.5.6v-11.8c0-.9.5-1.4 1.4-1.4h8.4c.9 0 1.4.5 1.4 1.4v33.1c-.1 1.1-.2 2-.5 2.6zm-10.8-18.9c-.2-.1-.4-.1-.5-.2-.2-.1-.5-.1-.9-.1-.9 0-1.7.6-2.4 1.8-.7 1.2-1 3.2-1 6 0 2.5.3 4.6 1 6.2.6 1.6 1.5 2.4 2.5 2.4.9 0 1.4-.5 1.4-1.4v-14.7zm42.2 13.1c0 1.4-.4 2.7-1.1 3.9-.7 1.2-1.6 2.2-2.8 3-1.2.8-2.5 1.5-4 1.9-1.5.4-3 .7-4.5.7-2.2 0-4.2-.3-6.1-.9-1.8-.6-3.4-1.6-4.7-2.9-1.3-1.3-2.3-2.9-3.1-4.8-.7-1.9-1.1-4.2-1.1-6.8 0-2.5.4-4.7 1.2-6.6.8-1.8 1.8-3.4 3.2-4.6 1.3-1.2 2.9-2.1 4.7-2.7 1.8-.6 3.7-.9 5.7-.9 1.7 0 3.4.3 4.9.9 1.5.6 2.8 1.4 4 2.4 1.1 1 2 2.3 2.7 3.8.6 1.5 1 3.1 1 4.9 0 1.2-.2 2-.7 2.5-.4.5-1.1.8-2 .9l-13.5 2.2c.4 1.2 1.1 2.1 2.1 2.8.9.7 2.3 1.1 4 1.1 1.3 0 2.4-.3 3.4-.8s1.7-1 2.1-1.3c.3-.3.6-.5 1-.7.4-.2.8-.3 1.3-.3.7 0 1.2.2 1.7.7.4.2.6.9.6 1.6zm-11-11.6c-.1-.6-.2-1.1-.5-1.5-.2-.4-.5-.8-.9-1.1-.4-.3-.9-.4-1.5-.4-.7 0-1.2.2-1.6.6-.4.4-.8.8-1 1.4-.3.6-.4 1.2-.5 1.9-.1.7-.1 1.3-.1 1.9l6.3-1.1-.2-1.7z"/>
</svg>