<?xml version="1.0" encoding="utf-8"?>
<!-- Generator: Adobe Illustrator 18.0.0, SVG Export Plug-In . SVG Version: 6.00 Build 0)  -->
<!DOCTYPE svg PUBLIC "-//W3C//DTD SVG 1.1//EN" "http://www.w3.org/Graphics/SVG/1.1/DTD/svg11.dtd">
<svg version="1.1" id="Layer_1" xmlns:ev="http://www.w3.org/2001/xml-events"
	 xmlns="http://www.w3.org/2000/svg" xmlns:xlink="http://www.w3.org/1999/xlink" x="0px" y="0px" width="464.1px" height="51px"
	 viewBox="0.4 0.7 464.1 51" enable-background="new 0.4 0.7 464.1 51" xml:space="preserve">
<path fill="#FF007D" d="M463.9,8.7c-0.4,1.2-1,2.3-1.6,3.3s-1.4,2-2.3,2.9c-0.8,0.9-1.7,1.9-2.6,2.9c-0.3,0-0.6,0-1,0
	c-0.3,0-0.6-0.1-0.9-0.2c-0.3-0.1-0.5-0.3-0.6-0.5c-0.2-0.2-0.2-0.5-0.1-0.9c-0.2-0.4-0.2-0.7-0.1-0.9c0.1-0.2,0.2-0.4,0.4-0.6
	c0.2-0.2,0.4-0.3,0.6-0.5c0.2-0.2,0.4-0.4,0.6-0.6c0.6-0.7,1.2-1.5,1.7-2.4c0.5-0.9,1-1.8,1.5-2.7c0.4-0.9,0.8-1.9,1.2-2.8
	c0.3-0.9,0.6-1.8,0.8-2.6c0.3,0.1,0.6,0.2,0.9,0.3c0.3,0.1,0.6,0.1,0.8,0.2c0.3,0.1,0.5,0.2,0.7,0.4c0.2,0.2,0.4,0.4,0.6,0.7
	C464.5,6.2,464.3,7.6,463.9,8.7z M454.6,13.7c-0.8,1.3-1.7,2.5-2.8,3.6c-1.1,1.1-2.2,2.2-3.3,3.2c-0.8-0.9-1.2-1.6-1.2-2.4
	c0-0.7,0.1-1.4,0.5-2.1c0.4-0.7,0.9-1.3,1.5-1.9c0.6-0.6,1.2-1.3,1.8-2c0.6-0.7,1.1-1.4,1.5-2.2c0.4-0.8,0.5-1.7,0.4-2.6l0.3-5
	c0.5-0.2,1-0.3,1.4-0.1c0.4,0.1,0.7,0.4,0.9,0.7c0.2,0.3,0.4,0.7,0.6,1c0.2,0.4,0.4,0.6,0.5,0.8c0.2,1.8,0.1,3.4-0.3,4.8
	C456,11,455.4,12.4,454.6,13.7z M434.5,17.5c-0.5,0.2-1,0.4-1.4,0.5l-8.3,0.9c-0.5,1.1-1.1,2.3-1.6,3.4c-0.6,1.1-1.1,2.2-1.6,3.3
	c-0.5,1.1-0.9,2.3-1.2,3.5c-0.3,1.2-0.5,2.4-0.6,3.7c0.4,0.3,0.9,0.3,1.4,0c0.5-0.3,1-0.6,1.5-1c0.5-0.4,0.9-0.9,1.4-1.3
	c0.4-0.5,0.8-0.8,1.1-0.9c0.3-0.1,0.6,0,0.7,0.4c0.2,0.4,0.2,1.2,0.2,2.4c-0.5,0.5-1,1.1-1.6,1.7c-0.6,0.6-1.2,1.1-1.8,1.5
	c-0.6,0.4-1.3,0.7-2.1,0.8c-0.7,0.1-1.6,0-2.4-0.5c-1-1.4-1.5-2.8-1.6-4.2c0-1.4,0.2-2.9,0.6-4.4c0.4-1.5,0.9-2.9,1.6-4.4
	c0.6-1.4,1-2.9,1.3-4.3c-0.1-0.2-0.2-0.5-0.4-0.7c-0.2-0.2-0.4-0.5-0.5-0.7c-0.2-0.2-0.3-0.5-0.3-0.7c0-0.3,0.1-0.5,0.3-0.8
	c0.4-0.2,0.8-0.2,1.3-0.2c0.5,0,1,0,1.6,0c0.7-1.1,1.4-2.1,2.2-3.2c0.8-1.1,1.5-2.2,2.2-3.4c0.7-1.2,1.3-2.4,1.8-3.6
	c0.5-1.2,1-2.5,1.2-3.8c0.2-0.5,0.5-0.8,0.8-0.8c0.3,0,0.6,0,0.9,0.2s0.6,0.4,0.8,0.7c0.3,0.3,0.5,0.5,0.7,0.7
	c-0.2,1.1-0.5,2.3-0.9,3.3c-0.4,1.1-0.8,2.1-1.3,3.2c-0.5,1-1,2.1-1.6,3.1c-0.6,1-1.1,2-1.6,3c0.6,0.2,1.4,0.2,2.3,0.1
	c0.9-0.1,1.8-0.2,2.6-0.2c0.9,0,1.6,0.1,2.3,0.4c0.7,0.3,1.1,0.9,1.3,2C435.4,17.1,435,17.2,434.5,17.5z M409.7,24.3
	c-1.2,0.5-2.4,1-3.7,1.4c-1.3,0.4-2.5,0.8-3.6,1.3h-4.6c-0.2,0.6-0.3,1.2-0.3,1.6c0,0.4,0.1,0.9,0.3,1.2c0.2,0.4,0.4,0.7,0.8,1
	c0.3,0.3,0.7,0.6,1.1,1c1.1,0.3,2.3,0.4,3.5,0.1s2.5-0.5,3.7-0.8c1.2-0.3,2.4-0.5,3.5-0.7c1.1-0.1,2.1,0.1,3,0.6
	c-0.5,0.9-1.2,1.6-2,2.1c-0.8,0.5-1.7,1-2.6,1.3c-0.9,0.3-1.9,0.6-2.9,0.8c-1,0.2-1.9,0.4-2.8,0.6c-1.4,0.1-2.7,0-3.8-0.4
	c-1.2-0.4-2.2-1-3.2-1.8c-0.8-0.8-1.4-1.6-1.8-2.5c-0.4-0.9-0.6-1.8-0.7-2.8c-0.1-1,0-2,0.1-3.1c0.2-1.1,0.4-2.2,0.6-3.4
	c1.8-2.5,3.7-4.5,5.8-6.1c2-1.6,4.4-2.5,7.3-2.9c0.9,0.1,1.7,0.3,2.5,0.6c0.8,0.3,1.5,0.7,2.2,1.2c0.7,0.5,1.2,1.1,1.7,1.8
	c0.5,0.7,0.8,1.4,1,2.2c-0.4,1.4-1,2.6-1.9,3.4C411.9,23,410.8,23.7,409.7,24.3z M407,17.5c-1.1,0.1-2.2,0.5-3.2,0.9
	c-1,0.5-2,1.1-2.8,1.9c-0.9,0.8-1.6,1.7-2.1,2.6c1.5-0.1,3-0.3,4.4-0.6c1.4-0.4,2.8-0.8,4.1-1.4c0.3-0.3,0.6-0.5,0.9-0.7
	c0.4-0.2,0.7-0.5,1-0.7c0.3-0.2,0.6-0.5,0.8-0.8c0.2-0.3,0.3-0.6,0.3-1.1C409.3,17.5,408.1,17.4,407,17.5z M395.8,7.5
	c-0.3,0.3-0.6,0.5-0.9,0.4c-0.4,0-0.7,0-1,0c-0.4-0.4-0.6-0.9-0.8-1.4c-0.2-0.5-0.2-1.1-0.1-1.6c0.2-0.2,0.5-0.3,0.9-0.3
	c0.4,0,0.7,0,1.1,0.1c0.4,0.1,0.7,0.3,1,0.6c0.3,0.3,0.4,0.6,0.5,1c0,0.3-0.1,0.5-0.3,0.6C395.8,7.1,395.7,7.3,395.8,7.5z
	 M389.8,25.9c-0.6,1.2-1.1,2.3-1.7,3.5c-0.6,1.1-1,2.3-1.3,3.5c0,0.3,0,0.5,0.1,0.8c0.1,0.3,0.1,0.6,0.1,0.8c0,0.3,0,0.5-0.1,0.8
	c-0.1,0.3-0.4,0.5-0.7,0.6c-0.4,0.2-0.8,0.2-1.1,0c-0.3-0.2-0.5-0.4-0.7-0.7c-0.2-0.3-0.4-0.6-0.5-0.9c-0.1-0.3-0.3-0.6-0.5-0.8
	c0.1-1,0.3-1.9,0.5-2.7c0.3-0.9,0.6-1.7,0.9-2.6c0.4-0.8,0.7-1.7,1.1-2.5c0.4-0.8,0.7-1.7,0.9-2.6c0.4-0.4,0.7-0.9,0.9-1.3
	c0.2-0.5,0.5-1,0.6-1.5s0.4-1,0.5-1.5s0.4-1,0.6-1.6c0.6-0.1,1.2,0,1.6,0.2c0.4,0.3,0.8,0.6,1.2,1.1c-0.1,1.3-0.4,2.6-0.9,3.8
	S390.4,24.7,389.8,25.9z M381.8,22.7c-0.3,0.9-0.5,1.6-0.6,2.3c-0.3,1-0.8,1.9-1.5,2.8c-0.7,0.9-1.3,1.8-1.9,2.7s-1.1,1.8-1.4,2.8
	c-0.3,0.9-0.3,1.9,0.1,3c-0.5,0.3-1,0.4-1.6,0.3c-0.5,0-1-0.2-1.4-0.4c-0.4-0.3-0.7-0.6-0.9-1c-0.2-0.4-0.3-1-0.2-1.6
	c0.3-1.2,0.8-2.4,1.4-3.5c0.6-1.1,1.3-2.2,2-3.4c0.7-1.1,1.3-2.3,1.9-3.5c0.6-1.2,0.9-2.5,1.1-3.8c-0.3-0.4-0.7-0.5-1-0.5
	c-0.3,0.1-0.6,0.3-1,0.5c-0.3,0.3-0.6,0.5-1,0.8c-0.3,0.3-0.7,0.4-1.1,0.5c-1.1,0.9-2.2,2-3.2,3.2c-1,1.2-2,2.4-3.1,3.7
	c-1,1.3-2.1,2.5-3.1,3.6c-1.1,1.2-2.2,2.2-3.5,3c-0.4,0.2-0.6,0.2-0.8,0.1c-0.2-0.1-0.3-0.3-0.4-0.5c-0.1-0.2-0.2-0.5-0.3-0.7
	c-0.1-0.3-0.2-0.4-0.4-0.6v-2.9c0.8-1.3,1.5-2.6,2.1-3.9c0.6-1.4,1.1-2.7,1.7-4.1c0.6-1.4,1.2-2.7,1.8-4.1c0.7-1.3,1.4-2.6,2.4-3.9
	c0.4,0.3,0.7,0.5,1.2,0.7c0.4,0.2,0.8,0.5,1,0.9c0,0.7-0.2,1.3-0.4,1.9c-0.3,0.6-0.5,1.2-0.8,1.8c-0.3,0.6-0.5,1.1-0.7,1.7
	c-0.2,0.6-0.3,1.1-0.3,1.7c0.9-0.8,1.8-1.6,2.7-2.5c0.9-0.9,1.9-1.7,2.9-2.4c1-0.7,2.1-1.3,3.3-1.6c1.2-0.4,2.4-0.4,3.7-0.1
	c1,0.5,1.5,1.1,1.8,1.9c0.2,0.8,0.3,1.6,0.1,2.4C382.3,21,382.1,21.9,381.8,22.7z M346.4,22.7c-0.3,0.9-0.5,1.6-0.6,2.3
	c-0.3,1-0.8,1.9-1.5,2.8c-0.7,0.9-1.3,1.8-1.9,2.7c-0.6,0.9-1.1,1.8-1.4,2.8c-0.3,0.9-0.3,1.9,0.1,3c-0.5,0.3-1,0.4-1.6,0.3
	c-0.5,0-1-0.2-1.4-0.4c-0.4-0.3-0.7-0.6-0.9-1c-0.2-0.4-0.3-1-0.2-1.6c0.3-1.2,0.8-2.4,1.4-3.5c0.6-1.1,1.3-2.2,2-3.4
	c0.7-1.1,1.3-2.3,1.9-3.5c0.6-1.2,0.9-2.5,1.1-3.8c-0.4-0.4-0.7-0.5-1-0.5c-0.3,0.1-0.6,0.3-1,0.5c-0.3,0.3-0.6,0.5-1,0.8
	c-0.3,0.3-0.7,0.4-1.1,0.5c-1.1,0.9-2.2,2-3.2,3.2c-1,1.2-2,2.4-3.1,3.7c-1,1.3-2.1,2.5-3.1,3.6c-1.1,1.2-2.2,2.2-3.5,3
	c-0.4,0.2-0.6,0.2-0.8,0.1c-0.2-0.1-0.3-0.3-0.4-0.5c-0.1-0.2-0.2-0.5-0.3-0.7c-0.1-0.3-0.2-0.4-0.4-0.6v-2.9
	c0.8-1.3,1.5-2.6,2.1-3.9c0.6-1.4,1.1-2.7,1.7-4.1c0.6-1.4,1.2-2.7,1.8-4.1c0.7-1.3,1.4-2.6,2.4-3.9c0.4,0.3,0.7,0.5,1.2,0.7
	c0.4,0.2,0.8,0.5,1,0.9c0,0.7-0.2,1.3-0.4,1.9c-0.3,0.6-0.5,1.2-0.8,1.8c-0.3,0.6-0.5,1.1-0.7,1.7c-0.2,0.6-0.3,1.1-0.3,1.7
	c0.9-0.8,1.8-1.6,2.7-2.5c0.9-0.9,1.9-1.7,2.9-2.4c1-0.7,2.1-1.3,3.3-1.6c1.2-0.4,2.4-0.4,3.7-0.1c1,0.5,1.5,1.1,1.8,1.9
	s0.3,1.6,0.1,2.4C346.9,21,346.7,21.9,346.4,22.7z M321.9,22.2c-0.5,1-0.9,1.9-1.2,2.9s-0.6,1.9-0.7,2.9c-0.1,0.9,0,1.8,0.2,2.7
	c0.2,0.9,0.7,1.7,1.5,2.4c0.2,0.8,0,1.4-0.6,1.8c-0.7,0.2-1.3,0.2-1.8,0c-0.4-0.2-0.8-0.5-1.1-0.9c-0.3-0.4-0.5-0.8-0.7-1.3
	c-0.2-0.5-0.4-0.9-0.6-1.4c0.2-0.6,0.1-1.1-0.1-1.5c-0.3-0.4-0.5-0.9-0.6-1.4c-1.1,0.8-2.1,1.6-3.1,2.4c-1,0.8-1.9,1.5-2.9,2.1
	c-1,0.6-2.1,1-3.2,1.3c-1.1,0.3-2.5,0.4-4,0.2c-1-0.6-1.6-1.3-2-2.3c-0.4-1-0.6-2-0.8-3.2c0.2-1.7,0.7-3.3,1.4-4.7
	c0.7-1.4,1.5-2.7,2.5-4c1-1.2,2-2.4,3.2-3.5c1.2-1.1,2.3-2.2,3.5-3.3c0.6-0.4,1.3-0.8,2.1-1.1c0.8-0.3,1.7-0.5,2.5-0.5
	c0.8,0,1.6,0.2,2.4,0.5c0.7,0.3,1.3,1,1.8,1.9c-0.3,0.4-0.5,0.7-0.8,1c-0.2,0.3-0.5,0.6-0.7,0.9c-0.3,0.3-0.5,0.5-0.9,0.6
	c-0.3,0.2-0.7,0.2-1.1,0.2c-0.4-0.3-0.5-0.4-0.5-0.5c0.1-0.1,0.2-0.2,0.4-0.3c0.2-0.1,0.3-0.2,0.4-0.3c0.1-0.1,0-0.3-0.4-0.6
	c-1.7,0.5-3.2,1.2-4.4,2.1c-1.2,1-2.3,2.1-3.3,3.3c-1,1.2-1.8,2.6-2.6,4c-0.8,1.4-1.5,2.9-2.3,4.3c0.1,0.2,0.2,0.4,0.2,0.6
	c0,0.2,0,0.4,0.1,0.7c0,0.2,0.1,0.4,0.2,0.6c0.1,0.2,0.3,0.4,0.5,0.5c2-0.5,3.9-1.3,5.7-2.4c1.8-1,3.4-2.3,4.9-3.7
	c1.5-1.4,2.8-3,4-4.8c1.2-1.8,2.1-3.6,2.9-5.5c0.3,0,0.6,0,0.9,0.1c0.3,0,0.7,0.1,1,0.2c0.3,0.1,0.5,0.3,0.7,0.5
	c0.2,0.2,0.3,0.5,0.3,0.9c-0.4,0.8-0.8,1.7-1.3,2.6C322.8,20.3,322.3,21.3,321.9,22.2z M298.6,36.6c-0.3,0.1-0.6,0.2-0.9,0.2
	c-0.3,0-0.6,0.1-0.8,0.3c-1.2,0.2-2.5,0.2-3.9,0.1c-1.4-0.1-2.7-0.3-4-0.7c-1.3-0.4-2.5-1-3.6-1.7c-1.1-0.7-2-1.7-2.7-2.8
	c-0.4,0.4-0.7,0.8-1,1.3c-0.3,0.5-0.5,1-0.8,1.5c-0.3,0.4-0.6,0.8-1,1c-0.4,0.2-0.9,0.2-1.6-0.2c-1-1.6-1-3.1,0-4.7
	c2-4.3,3.9-8.7,5.6-13.2c1.7-4.5,3.3-9.1,4.8-13.6c0.4-0.1,0.8-0.1,1-0.1c0.3,0,0.5,0.2,0.7,0.3s0.4,0.4,0.5,0.6
	c0.2,0.2,0.3,0.5,0.5,0.7c-0.8,1.7-1.4,3.4-1.9,5.1s-1,3.5-1.5,5.3c-0.5,1.8-1,3.5-1.6,5.3c-0.6,1.7-1.3,3.4-2.1,5l0.4,0.4l10.6-7
	c0.5-0.1,1.1,0,1.6,0.3c0.5,0.3,0.7,0.7,0.7,1.3c-0.2,1-0.6,1.7-1.3,2.3c-0.7,0.5-1.4,1-2.2,1.4c-0.8,0.4-1.6,0.8-2.4,1.1
	c-0.8,0.4-1.5,0.9-2,1.5c-0.3,0.4-0.7,0.7-1.1,1c-0.4,0.2-0.9,0.5-1.2,0.7c-0.4,0.2-0.6,0.5-0.8,0.8c-0.2,0.3-0.2,0.8,0,1.3
	c0.9,1,1.9,1.7,3.1,1.9c1.1,0.3,2.3,0.4,3.5,0.5c1.2,0,2.3,0.1,3.4,0.2c1.1,0.1,2,0.5,2.8,1.1c0.1,0.4,0.1,0.8,0,1
	C299.2,36.3,298.9,36.5,298.6,36.6z M259.4,19.3c-1.7,1.4-3.2,3-4.6,4.7c-1.4,1.8-2.8,3.6-4.1,5.5c-1.3,1.9-2.8,3.8-4.4,5.6
	c-0.5,0.3-1,0.3-1.3,0.1s-0.6-0.4-0.9-0.7c-0.2-0.3-0.4-0.7-0.6-1.1c-0.2-0.4-0.4-0.7-0.5-1c0.3-1.8,0.8-3.6,1.4-5.4
	c0.6-1.7,1.3-3.4,2.1-5.1c0.8-1.7,1.6-3.3,2.4-4.9s1.7-3.1,2.5-4.7l2.3,0.3c0.2,1,0.2,1.8-0.1,2.6c-0.2,0.8-0.5,1.6-0.9,2.4
	c-0.4,0.8-0.7,1.5-1.1,2.3c-0.4,0.8-0.5,1.6-0.6,2.4c1-1,1.9-2,2.7-3c0.9-1,1.8-2,2.8-2.8c1-0.8,2-1.5,3.2-2.1
	c1.2-0.5,2.5-0.8,4-0.9c0.2,0.2,0.4,0.4,0.6,0.5c0.2,0.2,0.4,0.3,0.6,0.5c0.2,0.2,0.3,0.3,0.4,0.5c0.1,0.2,0.1,0.5,0,0.8
	C263.1,16.8,261.1,17.9,259.4,19.3z M237.2,24.3c-1.2,0.5-2.4,1-3.7,1.4c-1.3,0.4-2.5,0.8-3.6,1.3h-4.6c-0.2,0.6-0.3,1.2-0.3,1.6
	c0,0.4,0.1,0.9,0.3,1.2c0.2,0.4,0.4,0.7,0.8,1c0.3,0.3,0.7,0.6,1.1,1c1.1,0.3,2.3,0.4,3.5,0.1c1.3-0.2,2.5-0.5,3.7-0.8
	c1.2-0.3,2.4-0.5,3.5-0.7c1.1-0.1,2.1,0.1,3,0.6c-0.5,0.9-1.2,1.6-2,2.1c-0.8,0.5-1.7,1-2.6,1.3c-0.9,0.3-1.9,0.6-2.9,0.8
	c-1,0.2-1.9,0.4-2.8,0.6c-1.4,0.1-2.7,0-3.8-0.4c-1.2-0.4-2.2-1-3.2-1.8c-0.8-0.8-1.4-1.6-1.8-2.5c-0.4-0.9-0.6-1.8-0.7-2.8
	c-0.1-1,0-2,0.1-3.1c0.2-1.1,0.4-2.2,0.6-3.4c1.8-2.5,3.7-4.5,5.8-6.1c2-1.6,4.4-2.5,7.3-2.9c0.9,0.1,1.7,0.3,2.5,0.6
	c0.8,0.3,1.5,0.7,2.2,1.2c0.7,0.5,1.2,1.1,1.7,1.8c0.5,0.7,0.8,1.4,1,2.2c-0.4,1.4-1,2.6-1.9,3.4C239.4,23,238.4,23.7,237.2,24.3z
	 M234.5,17.5c-1.1,0.1-2.2,0.5-3.2,0.9c-1,0.5-2,1.1-2.8,1.9c-0.9,0.8-1.6,1.7-2.1,2.6c1.5-0.1,3-0.3,4.4-0.6
	c1.4-0.4,2.8-0.8,4.1-1.4c0.3-0.3,0.6-0.5,0.9-0.7c0.4-0.2,0.7-0.5,1.1-0.7c0.3-0.2,0.6-0.5,0.8-0.8c0.2-0.3,0.3-0.6,0.3-1.1
	C236.8,17.5,235.7,17.4,234.5,17.5z M216.9,29.7c-1.2,0.9-2.5,1.6-4,2c-1.5,0.4-3.1,0.7-4.7,0.9c-1.6,0.1-3.2,0.3-4.6,0.4
	c-0.6,0.2-1.1,0.2-1.5,0.1c-0.4-0.1-0.8-0.2-1.2-0.3c-0.4-0.1-0.7-0.2-1.1-0.2s-0.7,0.1-1,0.5c-0.8,3.2-1.8,6.3-2.9,9.3
	c-1.2,3-2.2,6-3.2,9.1c-0.4,0.3-0.8,0.4-1,0.4s-0.4-0.2-0.6-0.5c-0.2-0.3-0.3-0.5-0.4-0.9s-0.3-0.6-0.5-0.8
	c1.2-3.8,2.5-7.5,3.8-11.2s2.4-7.5,3.3-11.5c-0.1-0.1,0-0.5,0.2-1.2c0.2-0.7,0.5-1.5,0.7-2.3c0.3-0.8,0.5-1.6,0.7-2.2
	c0.2-0.7,0.3-1,0.2-1c-0.1-0.8-0.1-1.4,0-1.9c0.1-0.5,0.2-0.9,0.4-1.1c0.2-0.3,0.4-0.5,0.6-0.7c0.2-0.2,0.5-0.3,0.7-0.5
	c0.5-0.1,0.9,0,1.3,0.1c0.4,0.1,0.7,0.4,0.9,0.7c0.2,0.3,0.4,0.6,0.5,1c0.1,0.4,0.1,0.8,0.1,1.2c1-0.3,2.2-0.6,3.5-0.8
	c1.3-0.2,2.6-0.3,3.9-0.2c1.3,0.1,2.6,0.3,3.8,0.7c1.2,0.4,2.3,1.1,3.1,2.1c0.5,0.7,0.9,1.5,1.3,2.4c0.4,0.9,0.4,1.8,0.2,2.8
	C219,27.6,218.1,28.9,216.9,29.7z M215.8,23.3c-1.8-1.1-3.7-1.7-5.8-1.9c-2.1-0.2-4.1,0.1-6.2,0.9c-0.3,0-0.6,0.1-0.8,0.3
	c-0.2,0.2-0.4,0.4-0.6,0.7c-0.2,0.3-0.3,0.5-0.4,0.7c-0.1,0.2-0.2,0.4-0.3,0.5c0,0.5,0,0.9-0.2,1.4c-0.2,0.4-0.3,0.9-0.5,1.3
	c-0.2,0.4-0.3,0.9-0.4,1.3c-0.1,0.4-0.1,0.9,0.1,1.3c2.2,0.1,4.4,0,6.4-0.2c2-0.3,4-0.8,5.8-1.6c0.4-0.3,0.7-0.6,1.1-0.9
	c0.4-0.3,0.8-0.7,1.1-1.1c0.3-0.4,0.5-0.8,0.7-1.2C216.1,24.2,216,23.8,215.8,23.3z M192.6,25.7c-0.5,1.2-1.2,2.4-2,3.4
	c-0.8,1-1.7,1.9-2.6,2.7c-0.9,0.7-1.9,1.4-3,2c-1.1,0.6-2.3,1.1-3.6,1.6c-1.2,0.4-2.5,0.7-3.8,0.9c-1.3,0.2-2.5,0.2-3.7,0
	c-1.1-0.4-2-1.1-2.8-1.9c-0.8-0.8-1.3-2-1.6-3.5c0.2-2,0.7-3.9,1.6-5.6s2-3.4,3.3-4.8c1.3-1.5,2.8-2.8,4.3-4
	c1.6-1.2,3.1-2.1,4.6-2.9c0.4,0,0.9,0,1.4,0c0.5,0,1,0,1.4,0.1c0.4,0.1,0.8,0.2,1.2,0.5c0.3,0.3,0.5,0.6,0.6,1.1
	c0,0.6-0.2,1-0.5,1.2c-0.3,0.3-0.7,0.4-1.2,0.5c-0.5,0.1-1,0.2-1.5,0.3c-0.5,0.1-1,0.3-1.3,0.6c-1.2,0.9-2.4,1.8-3.6,2.7
	c-1.2,1-2.3,2-3.3,3.1c-1,1.1-1.8,2.4-2.4,3.7c-0.6,1.3-0.9,2.8-0.9,4.4c0.6,0.6,1.4,0.9,2.2,1c0.8,0.1,1.6,0.1,2.5-0.1
	c0.8-0.2,1.6-0.4,2.5-0.8c0.8-0.4,1.5-0.7,2.2-1.1c1-0.5,1.9-1.1,2.8-1.9c0.9-0.8,1.7-1.6,2.4-2.6c0.7-0.9,1.3-1.9,1.9-3
	c0.5-1,0.9-2.1,1.2-3.1c0.2-0.7,0.2-1.3-0.1-1.9c-0.3-0.6-0.6-1.1-0.9-1.6c-0.3-0.5-0.5-1-0.5-1.5c-0.1-0.5,0.2-1,0.8-1.5
	c0.6,0.5,1.3,1,2,1.6c0.7,0.6,1.1,1.3,1.4,2.1c0.3,1.5,0.4,2.9,0.2,4.3C193.4,23.2,193.1,24.5,192.6,25.7z M168.1,36.6
	c-0.3,0.1-0.6,0.2-0.9,0.2c-0.3,0-0.6,0.1-0.8,0.3c-1.2,0.2-2.5,0.2-3.9,0.1c-1.4-0.1-2.7-0.3-4-0.7c-1.3-0.4-2.5-1-3.6-1.7
	c-1.1-0.7-2-1.7-2.7-2.8c-0.4,0.4-0.7,0.8-1,1.3c-0.3,0.5-0.5,1-0.8,1.5c-0.3,0.4-0.6,0.8-1,1c-0.4,0.2-0.9,0.2-1.6-0.2
	c-1-1.6-1-3.1,0-4.7c2-4.3,3.9-8.7,5.6-13.2c1.7-4.5,3.3-9.1,4.8-13.6c0.4-0.1,0.8-0.1,1-0.1c0.3,0,0.5,0.2,0.7,0.3
	c0.2,0.2,0.4,0.4,0.5,0.6c0.2,0.2,0.3,0.5,0.5,0.7c-0.8,1.7-1.4,3.4-1.9,5.1c-0.5,1.8-1,3.5-1.5,5.3c-0.5,1.8-1,3.5-1.6,5.3
	c-0.6,1.7-1.3,3.4-2.1,5l0.4,0.4l10.6-7c0.5-0.1,1.1,0,1.6,0.3c0.5,0.3,0.7,0.7,0.7,1.3c-0.2,1-0.6,1.7-1.3,2.3
	c-0.7,0.5-1.4,1-2.2,1.4c-0.8,0.4-1.6,0.8-2.4,1.1c-0.8,0.4-1.5,0.9-2,1.5c-0.3,0.4-0.7,0.7-1.1,1c-0.4,0.2-0.9,0.5-1.2,0.7
	c-0.4,0.2-0.6,0.5-0.8,0.8c-0.2,0.3-0.2,0.8,0,1.3c0.9,1,1.9,1.7,3.1,1.9c1.1,0.3,2.3,0.4,3.5,0.5c1.2,0,2.3,0.1,3.4,0.2
	c1.1,0.1,2,0.5,2.8,1.1c0.1,0.4,0.1,0.8,0,1C168.6,36.3,168.4,36.5,168.1,36.6z M141.9,15.2c-0.6,1.8-1.1,3.7-1.7,5.7
	c-0.6,1.9-1,4.1-1.4,6.4c-0.5,0.9-0.8,1.8-0.9,2.6c-0.1,0.8,0,1.5,0.1,2.1c0.1,0.6,0.2,1.2,0.4,1.6c0.1,0.4,0.2,0.8,0,1
	c-0.1,0.2-0.4,0.3-0.9,0.3s-1.4-0.2-2.5-0.5c-0.1-0.5-0.2-0.9-0.5-1.1c-0.2-0.2-0.5-0.3-0.9-0.4s-0.7,0-1.1,0.1
	c-0.4,0.1-0.7,0.2-1,0.3c-1,0.7-2,1.3-3.2,1.7c-1.2,0.4-2.4,0.7-3.7,0.8c-1.3,0.1-2.5,0-3.8-0.2c-1.3-0.2-2.4-0.6-3.5-1.2
	c-0.3-0.4-0.6-0.8-0.9-1.4c-0.4-0.6-0.7-1.2-0.9-1.8c-0.2-0.7-0.4-1.4-0.3-2.1c0-0.7,0.3-1.4,0.8-2.1c0.8-1.8,1.9-3.5,3.2-4.8
	c1.4-1.4,2.9-2.5,4.5-3.4c1.7-0.9,3.4-1.6,5.3-2c1.9-0.4,3.7-0.7,5.6-0.7c0.4,0.1,0.8,0.3,1.1,0.6c0.3,0.3,0.7,0.5,1.1,0.7
	c0.9-2.5,1.9-5.1,2.8-7.7c1-2.6,2-5.1,3-7.5c0.5,0.1,0.9,0.3,1.4,0.5c0.4,0.2,0.7,0.6,0.7,1.2c-0.4,2.1-0.8,4-1.3,5.8
	C143,11.5,142.5,13.3,141.9,15.2z M135.7,21c0-0.1-0.1-0.2-0.1-0.3c-0.1-0.1-0.2-0.3-0.3-0.4c-0.1-0.2-0.3-0.4-0.5-0.8
	c-1.1,0.1-2.3,0.3-3.4,0.7c-1.1,0.4-2.2,0.8-3.2,1.3c-1,0.5-2,1.1-2.9,1.7c-0.9,0.6-1.9,1.2-2.7,1.7c-0.4,0.4-0.8,0.8-1.2,1.3
	c-0.4,0.5-0.8,1.1-1.1,1.6c-0.3,0.6-0.5,1.2-0.6,1.8c-0.1,0.6-0.1,1.2,0.2,1.7c1,0.6,2.1,0.9,3.1,1c1.1,0,2.1-0.1,3.2-0.3
	c1.1-0.3,2.1-0.6,3.1-1.1c1-0.5,1.9-0.9,2.8-1.3c0.7-0.3,1.3-0.7,1.7-1.4c0.4-0.6,0.7-1.3,1-2.1c0.2-0.8,0.4-1.6,0.6-2.4
	c0.2-0.8,0.4-1.6,0.6-2.3C135.7,21.3,135.7,21.1,135.7,21z M108.8,24.3c-1.2,0.5-2.4,1-3.7,1.4c-1.3,0.4-2.5,0.8-3.6,1.3h-4.6
	c-0.2,0.6-0.3,1.2-0.3,1.6c0,0.4,0.1,0.9,0.3,1.2s0.4,0.7,0.8,1c0.3,0.3,0.7,0.6,1.1,1c1.1,0.3,2.3,0.4,3.5,0.1
	c1.3-0.2,2.5-0.5,3.7-0.8c1.2-0.3,2.4-0.5,3.5-0.7c1.1-0.1,2.1,0.1,3,0.6c-0.5,0.9-1.2,1.6-2,2.1c-0.8,0.5-1.7,1-2.6,1.3
	c-0.9,0.3-1.9,0.6-2.9,0.8c-1,0.2-1.9,0.4-2.8,0.6c-1.4,0.1-2.7,0-3.8-0.4c-1.2-0.4-2.2-1-3.2-1.8c-0.8-0.8-1.4-1.6-1.8-2.5
	c-0.4-0.9-0.6-1.8-0.7-2.8c-0.1-1,0-2,0.1-3.1c0.2-1.1,0.4-2.2,0.6-3.4c1.8-2.5,3.7-4.5,5.8-6.1c2-1.6,4.4-2.5,7.3-2.9
	c0.9,0.1,1.7,0.3,2.5,0.6c0.8,0.3,1.5,0.7,2.2,1.2c0.7,0.5,1.2,1.1,1.7,1.8c0.5,0.7,0.8,1.4,1,2.2c-0.3,1.4-1,2.6-1.9,3.4
	S110,23.7,108.8,24.3z M106.1,17.5c-1.1,0.1-2.2,0.5-3.2,0.9c-1,0.5-2,1.1-2.8,1.9C99.2,21.1,98.5,22,98,23c1.5-0.1,3-0.3,4.4-0.6
	c1.4-0.4,2.8-0.8,4.1-1.4c0.3-0.3,0.6-0.5,0.9-0.7c0.4-0.2,0.7-0.5,1-0.7c0.3-0.2,0.6-0.5,0.8-0.8c0.2-0.3,0.3-0.6,0.3-1.1
	C108.4,17.5,107.3,17.4,106.1,17.5z M89.7,25.7c-0.5,1.2-1.2,2.4-2,3.4c-0.8,1-1.7,1.9-2.6,2.7c-0.9,0.7-1.9,1.4-3,2
	c-1.1,0.6-2.3,1.1-3.6,1.6c-1.2,0.4-2.5,0.7-3.8,0.9c-1.3,0.2-2.5,0.2-3.7,0c-1.1-0.4-2-1.1-2.8-1.9c-0.8-0.8-1.3-2-1.6-3.5
	c0.2-2,0.7-3.9,1.6-5.6c0.9-1.8,2-3.4,3.3-4.8c1.3-1.5,2.8-2.8,4.3-4c1.6-1.2,3.1-2.1,4.6-2.9c0.4,0,0.9,0,1.4,0c0.5,0,1,0,1.4,0.1
	c0.4,0.1,0.8,0.2,1.2,0.5c0.3,0.3,0.5,0.6,0.6,1.1c0,0.6-0.2,1-0.5,1.2c-0.3,0.3-0.7,0.4-1.2,0.5c-0.5,0.1-1,0.2-1.5,0.3
	c-0.5,0.1-1,0.3-1.3,0.6c-1.2,0.9-2.4,1.8-3.6,2.7c-1.2,1-2.3,2-3.3,3.1c-1,1.1-1.8,2.4-2.4,3.7c-0.6,1.3-0.9,2.8-0.9,4.4
	c0.6,0.6,1.4,0.9,2.2,1c0.8,0.1,1.6,0.1,2.5-0.1c0.8-0.2,1.6-0.4,2.5-0.8c0.8-0.4,1.5-0.7,2.2-1.1c1-0.5,1.9-1.1,2.8-1.9
	c0.9-0.8,1.7-1.6,2.4-2.6c0.7-0.9,1.3-1.9,1.9-3c0.5-1,0.9-2.1,1.2-3.1c0.2-0.7,0.2-1.3-0.1-1.9c-0.3-0.6-0.6-1.1-0.9-1.6
	c-0.3-0.5-0.5-1-0.5-1.5c-0.1-0.5,0.2-1,0.8-1.5c0.6,0.5,1.3,1,2,1.6c0.7,0.6,1.1,1.3,1.4,2.1c0.3,1.5,0.4,2.9,0.2,4.3
	C90.6,23.2,90.3,24.5,89.7,25.7z M65.6,18.4c-0.3,0.1-0.6,0.3-1,0.3c-0.3,0.1-0.6,0.2-0.9,0.2c-0.4,0-0.7,0-1.1,0
	c-0.3,0-0.6,0.2-0.9,0.6c0.1,0.7,0,1.4-0.3,2c-0.3,0.6-0.6,1.1-1,1.6c-0.4,0.5-0.8,1-1.2,1.5c-0.4,0.5-0.7,1-0.9,1.5
	c-1,1.9-1.7,3.8-2.2,5.5c-0.5,1.8-0.9,3.7-1.3,5.7c-0.4,0.3-0.8,0.4-1.1,0.4c-0.4,0-0.6-0.2-0.9-0.5c-0.2-0.3-0.4-0.6-0.5-1
	c-0.1-0.4-0.2-0.7-0.1-1.1c-0.2-2,0.1-3.8,0.9-5.3c-0.4-0.1-0.8-0.1-1.1,0s-0.7,0.3-1,0.6c-0.3,0.2-0.7,0.5-1,0.7
	c-0.4,0.2-0.7,0.3-1.2,0.3V32c-1.1,0.2-2.3,0.4-3.6,0.8c-1.3,0.4-2.6,0.7-4,0.9c-1.3,0.2-2.6,0.2-3.9,0c-1.3-0.2-2.4-0.8-3.4-1.7
	c-0.3-0.6-0.5-1.2-0.8-1.9c-0.3-0.7-0.5-1.4-0.6-2.1c-0.1-0.7-0.2-1.4-0.1-2.1c0-0.7,0.2-1.4,0.6-2c1.1-1.9,2.4-3.9,3.8-5.8
	c1.4-2,2.9-3.9,4.6-5.6c1.7-1.8,3.5-3.4,5.5-4.8c2-1.4,4.2-2.6,6.6-3.4c1.2-0.2,2.4-0.1,3.5,0.3c1.1,0.4,1.9,1.2,2.4,2.2v0.9
	c-1.8-0.5-3.6-0.5-5.2,0c-1.6,0.5-3.2,1.2-4.6,2.2c-1.4,1-2.8,2.2-4,3.5c-1.2,1.3-2.4,2.5-3.4,3.6c-0.7,1-1.5,2-2.4,3.1
	c-0.9,1-1.6,2.1-2.3,3.2c-0.7,1.1-1.1,2.2-1.4,3.3c-0.3,1.1-0.1,2.3,0.4,3.5c2.1,0.3,4.2,0.3,6.3-0.1c2.1-0.4,4.1-1.1,6-2
	c1.9-0.9,3.6-2.1,5.2-3.4c1.6-1.4,2.9-2.8,4-4.4c-0.3-0.1-0.7-0.1-1.2,0c-0.4,0.1-0.9,0.1-1.3,0.2c-0.5,0.1-0.9,0.1-1.4,0.1
	c-0.5,0-0.9,0-1.3-0.1c-0.3-0.1-0.5-0.2-0.6-0.4c-0.1-0.2-0.2-0.4-0.3-0.6c0-0.2,0-0.5,0-0.8c0-0.3,0-0.6,0-0.9
	c1.1,0,2.3-0.2,3.5-0.5c1.2-0.3,2.4-0.5,3.6-0.8c1.2-0.2,2.5-0.4,3.7-0.4c1.3,0,2.5,0.2,3.8,0.6c0.2,0.4,0.2,0.8,0,1
	C66.1,18,65.9,18.2,65.6,18.4z M15.5,12.1c-0.7,1-1.4,2-2.3,2.9c-0.8,0.9-1.7,1.9-2.6,2.9c-0.3,0-0.6,0-1,0c-0.3,0-0.6-0.1-0.9-0.2
	c-0.3-0.1-0.5-0.3-0.6-0.5C8,17,8,16.7,8,16.3c-0.2-0.4-0.2-0.7-0.1-0.9c0.1-0.2,0.2-0.4,0.4-0.6c0.2-0.2,0.4-0.3,0.6-0.5
	c0.2-0.2,0.4-0.4,0.6-0.6c0.6-0.7,1.2-1.5,1.7-2.4c0.5-0.9,1-1.8,1.5-2.7c0.4-0.9,0.8-1.9,1.2-2.8s0.6-1.8,0.8-2.6
	c0.3,0.1,0.6,0.2,0.9,0.3c0.3,0.1,0.6,0.1,0.8,0.2c0.3,0.1,0.5,0.2,0.7,0.4c0.2,0.2,0.4,0.4,0.6,0.7c0,1.5-0.2,2.8-0.6,4
	C16.7,9.9,16.2,11,15.5,12.1z M7.8,13.7C7,14.9,6.1,16.1,5,17.2c-1.1,1.1-2.2,2.2-3.3,3.2c-0.8-0.9-1.2-1.6-1.2-2.4
	c0-0.7,0.1-1.4,0.5-2.1c0.4-0.7,0.9-1.3,1.5-1.9c0.6-0.6,1.2-1.3,1.8-2c0.6-0.7,1.1-1.4,1.5-2.2c0.4-0.8,0.5-1.7,0.4-2.6l0.3-5
	c0.5-0.2,1-0.3,1.4-0.1c0.4,0.1,0.7,0.4,0.9,0.7c0.2,0.3,0.4,0.7,0.6,1c0.2,0.4,0.4,0.6,0.5,0.8c0.2,1.8,0.1,3.4-0.3,4.8
	C9.2,11,8.6,12.4,7.8,13.7z"/>
</svg>
