<?xml version="1.0" standalone="no"?>
<!DOCTYPE svg PUBLIC "-//W3C//DTD SVG 1.1//EN" "http://www.w3.org/Graphics/SVG/1.1/DTD/svg11.dtd" >
<svg>
<metadata>
Created by FontForge 20110222 at Mon Mar  7 11:28:12 2011
 By www-data
Sushi High (c)2001, Fontalicious Fonts.
</metadata>
<defs>
<font id="SushiHigh" horiz-adv-x="717" >
  <font-face 
    font-family="Sushi High"
    font-weight="400"
    font-stretch="normal"
    units-per-em="1000"
    panose-1="0 0 4 0 0 0 0 0 0 0"
    ascent="800"
    descent="-200"
    x-height="593"
    cap-height="698"
    bbox="-12 -90 1006 816"
    underline-thickness="20"
    underline-position="-123"
    unicode-range="U+0020-2122"
  />
    <missing-glyph />
    <glyph glyph-name="space" unicode=" " horiz-adv-x="500" 
 />
    <glyph glyph-name="exclam" unicode="!" 
d="M712 302q0 -121 -85 -206.5t-206 -85.5q-122 0 -207 85t-85 207q0 121 85.5 206t206.5 85t206 -85t85 -206zM667 302q0 103 -71.5 174.5t-174.5 71.5t-175 -71.5t-72 -174.5q0 -104 71.5 -175.5t175.5 -71.5q103 0 174.5 72t71.5 175zM589 235h-148q23 45 74 45t74 -45z
M401 235h-149q23 45 74 45t75 -45zM546 181q-40 -77 -126 -77q-85 0 -125 77h251z" />
    <glyph glyph-name="quotedbl" unicode="&#x22;" 
d="M712 302q0 -121 -85 -206.5t-206 -85.5q-122 0 -207 85t-85 207q0 121 85.5 206t206.5 85t206 -85t85 -206zM667 302q0 103 -71.5 174.5t-174.5 71.5t-175 -71.5t-72 -174.5q0 -104 71.5 -175.5t175.5 -71.5q103 0 174.5 72t71.5 175zM615 233l-31 -16q-19 36 -59 36
q-28 0 -47 -20h-43q29 55 90 55t90 -55zM406 233h-43q-19 20 -47 20q-40 0 -59 -36l-31 16q29 55 90 55t90 -55zM546 181q-40 -77 -126 -77q-85 0 -125 77h251z" />
    <glyph glyph-name="numbersign" unicode="#" 
d="M712 302q0 -121 -85 -206.5t-206 -85.5q-122 0 -207 85t-85 207q0 121 85.5 206t206.5 85t206 -85t85 -206zM667 302q0 103 -71.5 174.5t-174.5 71.5t-175 -71.5t-72 -174.5q0 -104 71.5 -175.5t175.5 -71.5q103 0 174.5 72t71.5 175zM590 242l-24 -25l-26 25l-25 -25
l-24 25l25 25l-25 25l24 25l25 -25l26 25l24 -25l-25 -25zM351 242l-25 -25l-25 25l-25 -25l-25 25l25 25l-25 25l25 25l25 -25l25 25l25 -25l-26 -25zM546 181q-40 -77 -126 -77q-85 0 -125 77h251z" />
    <glyph glyph-name="dollar" unicode="$" 
d="M712 302q0 -121 -85 -206.5t-206 -85.5q-122 0 -207 85t-85 207q0 121 85.5 206t206.5 85t206 -85t85 -206zM667 302q0 103 -71.5 174.5t-174.5 71.5t-175 -71.5t-72 -174.5q0 -104 71.5 -175.5t175.5 -71.5q103 0 174.5 72t71.5 175zM588 255q0 -33 -34 -33
q-33 0 -33 33q0 34 33 34q14 0 24 -10t10 -24zM546 181q-40 -77 -126 -77q-85 0 -125 77h251zM321 255q0 -33 -34 -33q-33 0 -33 33q0 34 33 34q14 0 24 -10t10 -24z" />
    <glyph glyph-name="percent" unicode="%" 
d="M712 302q0 -121 -85 -206.5t-206 -85.5q-122 0 -207 85t-85 207q0 121 85.5 206t206.5 85t206 -85t85 -206zM667 302q0 103 -71.5 174.5t-174.5 71.5t-175 -71.5t-72 -174.5q0 -104 71.5 -175.5t175.5 -71.5q103 0 174.5 72t71.5 175zM563 215h-72v72h72v-72zM351 215
h-72v72h72v-72zM546 181q-40 -77 -126 -77q-85 0 -125 77h251z" />
    <glyph glyph-name="ampersand" unicode="&#x26;" horiz-adv-x="786" 
d="M785 490q0 -40 -22.5 -72t-59.5 -46q9 -35 9 -70q0 -121 -85 -206.5t-206 -85.5q-122 0 -207 85t-85 207q0 35 9 70q-37 14 -59.5 46t-22.5 72q0 52 37 89t89 37q67 0 104 -56q63 33 135 33q71 0 134 -33q37 56 104 56q52 0 89 -37t37 -89zM663 256q-41 61 -105 95.5
t-137 34.5q-74 0 -138 -34.5t-105 -95.5q16 -88 85 -144.5t158 -56.5t157.5 57t84.5 144zM589 235h-148q23 45 74 45t74 -45zM401 235h-149q23 45 74 45t75 -45zM546 181q-40 -77 -126 -77q-85 0 -125 77h251z" />
    <glyph glyph-name="quotesingle" unicode="'" horiz-adv-x="787" 
d="M785 490q0 -40 -22.5 -72t-59.5 -46q9 -35 9 -70q0 -121 -85 -206.5t-206 -85.5q-122 0 -207 85t-85 207q0 35 9 70q-37 14 -59.5 46t-22.5 72q0 52 37 89t89 37q67 0 104 -56q63 33 135 33q71 0 134 -33q37 56 104 56q52 0 89 -37t37 -89zM663 256q-41 61 -105 95.5
t-137 34.5q-74 0 -138 -34.5t-105 -95.5q16 -88 85 -144.5t158 -56.5t157.5 57t84.5 144zM615 233l-31 -16q-19 36 -59 36q-28 0 -47 -20h-43q29 55 90 55t90 -55zM406 233h-43q-19 20 -47 20q-40 0 -59 -36l-31 16q29 55 90 55t90 -55zM546 181q-40 -77 -126 -77
q-85 0 -125 77h251z" />
    <glyph glyph-name="parenleft" unicode="(" horiz-adv-x="787" 
d="M785 490q0 -40 -22.5 -72t-59.5 -46q9 -35 9 -70q0 -121 -85 -206.5t-206 -85.5q-122 0 -207 85t-85 207q0 35 9 70q-37 14 -59.5 46t-22.5 72q0 52 37 89t89 37q67 0 104 -56q63 33 135 33q71 0 134 -33q37 56 104 56q52 0 89 -37t37 -89zM663 256q-41 61 -105 95.5
t-137 34.5q-74 0 -138 -34.5t-105 -95.5q16 -88 85 -144.5t158 -56.5t157.5 57t84.5 144zM590 242l-24 -25l-26 25l-25 -25l-24 25l25 25l-25 25l24 25l25 -25l26 25l24 -25l-25 -25zM351 242l-25 -25l-25 25l-25 -25l-25 25l25 25l-25 25l25 25l25 -25l25 25l25 -25
l-26 -25zM546 181q-40 -77 -126 -77q-85 0 -125 77h251z" />
    <glyph glyph-name="parenright" unicode=")" horiz-adv-x="786" 
d="M785 490q0 -40 -22.5 -72t-59.5 -46q9 -35 9 -70q0 -121 -85 -206.5t-206 -85.5q-122 0 -207 85t-85 207q0 35 9 70q-37 14 -59.5 46t-22.5 72q0 52 37 89t89 37q67 0 104 -56q63 33 135 33q71 0 134 -33q37 56 104 56q52 0 89 -37t37 -89zM663 256q-41 61 -105 95.5
t-137 34.5q-74 0 -138 -34.5t-105 -95.5q16 -88 85 -144.5t158 -56.5t157.5 57t84.5 144zM588 255q0 -33 -34 -33q-33 0 -33 33q0 34 33 34q14 0 24 -10t10 -24zM546 181q-40 -77 -126 -77q-85 0 -125 77h251zM321 255q0 -33 -34 -33q-33 0 -33 33q0 34 33 34q14 0 24 -10
t10 -24z" />
    <glyph glyph-name="asterisk" unicode="*" horiz-adv-x="786" 
d="M785 490q0 -40 -22.5 -72t-59.5 -46q9 -35 9 -70q0 -121 -85 -206.5t-206 -85.5q-122 0 -207 85t-85 207q0 35 9 70q-37 14 -59.5 46t-22.5 72q0 52 37 89t89 37q67 0 104 -56q63 33 135 33q71 0 134 -33q37 56 104 56q52 0 89 -37t37 -89zM663 256q-41 61 -105 95.5
t-137 34.5q-74 0 -138 -34.5t-105 -95.5q16 -88 85 -144.5t158 -56.5t157.5 57t84.5 144zM563 215h-72v72h72v-72zM351 215h-72v72h72v-72zM546 181q-40 -77 -126 -77q-85 0 -125 77h251z" />
    <glyph glyph-name="plus" unicode="+" horiz-adv-x="1003" 
d="M986 303q14 0 14 -13q0 -40 -57 -86t-99 -48q1 -54 61 -53q14 0 14 -6q0 -21 -57 -39q-46 -15 -74 -15q-51 0 -88 29q-79 -62 -179 -62q-101 0 -180 62q-37 -29 -88 -29q-28 0 -74 15q-57 18 -57 39q0 6 14 6q60 -1 61 53q-42 2 -99 48t-57 86q0 13 14 13q7 0 20.5 -3.5
t20.5 -3.5q56 0 74 77q-48 42 -48 68q0 29 64 28q36 -1 89 62q2 2 71 94q49 53 102 48q61 -6 73 -60q10 54 72 60q53 5 102 -48q69 -92 71 -94q53 -63 89 -62q64 1 64 -28q0 -26 -48 -68q18 -77 74 -77q7 0 20.5 3.5t20.5 3.5zM928 253q-31 7 -56 33l-50 -55q-2 -14 -7 -31
q69 6 113 53zM856 424q-53 -1 -98 46q-12 12 -60 79q-34 47 -43 56q-26 26 -58 23q-25 -2 -76 -80q-54 78 -77 80q-32 3 -58 -23q-11 -11 -43 -56q-27 -38 -60 -79q-46 -47 -98 -46q-8 0 -9 -2q18 -13 43 -32q-3 -15 -22 -61q200 7 324 175q123 -168 323 -175q-15 29 -22 61
q21 15 43 32q-2 2 -9 2zM827 93q-21 29 -24 77q-16 -37 -44 -78q14 -4 30 -4q18 0 38 5zM766 275q-130 9 -245 153q-117 -144 -246 -153q11 -94 81 -157t165 -63q94 0 164 63t81 157zM226 200q-5 17 -7 31l-50 55q-25 -26 -56 -33q44 -47 113 -53zM282 92q-28 41 -44 78
q-3 -48 -24 -77q20 -5 38 -5q16 0 30 4zM689 235h-148q23 45 74 45t74 -45zM501 235h-149q23 45 74 45t75 -45zM646 181q-40 -77 -126 -77q-85 0 -125 77h251z" />
    <glyph glyph-name="comma" unicode="," horiz-adv-x="1005" 
d="M986 303q14 0 14 -13q0 -40 -57 -86t-99 -48q1 -54 61 -53q14 0 14 -6q0 -21 -57 -39q-46 -15 -74 -15q-51 0 -88 29q-79 -62 -179 -62q-101 0 -180 62q-37 -29 -88 -29q-28 0 -74 15q-57 18 -57 39q0 6 14 6q60 -1 61 53q-42 2 -99 48t-57 86q0 13 14 13q7 0 20.5 -3.5
t20.5 -3.5q56 0 74 77q-48 42 -48 68q0 29 64 28q36 -1 89 62q2 2 71 94q49 53 102 48q61 -6 73 -60q10 54 72 60q53 5 102 -48q69 -92 71 -94q53 -63 89 -62q64 1 64 -28q0 -26 -48 -68q18 -77 74 -77q7 0 20.5 3.5t20.5 3.5zM928 253q-31 7 -56 33l-50 -55q-2 -14 -7 -31
q69 6 113 53zM856 424q-53 -1 -98 46q-12 12 -60 79q-34 47 -43 56q-26 26 -58 23q-25 -2 -76 -80q-54 78 -77 80q-32 3 -58 -23q-11 -11 -43 -56q-27 -38 -60 -79q-46 -47 -98 -46q-8 0 -9 -2q18 -13 43 -32q-3 -15 -22 -61q200 7 324 175q123 -168 323 -175q-15 29 -22 61
q21 15 43 32q-2 2 -9 2zM827 93q-21 29 -24 77q-16 -37 -44 -78q14 -4 30 -4q18 0 38 5zM766 275q-130 9 -245 153q-117 -144 -246 -153q11 -94 81 -157t165 -63q94 0 164 63t81 157zM226 200q-5 17 -7 31l-50 55q-25 -26 -56 -33q44 -47 113 -53zM282 92q-28 41 -44 78
q-3 -48 -24 -77q20 -5 38 -5q16 0 30 4zM715 233l-31 -16q-19 36 -59 36q-28 0 -47 -20h-43q29 55 90 55t90 -55zM506 233h-43q-19 20 -47 20q-40 0 -59 -36l-31 16q29 55 90 55t90 -55zM646 181q-40 -77 -126 -77q-85 0 -125 77h251z" />
    <glyph glyph-name="hyphen" unicode="-" horiz-adv-x="1002" 
d="M986 303q14 0 14 -13q0 -40 -57 -86t-99 -48q1 -54 61 -53q14 0 14 -6q0 -21 -57 -39q-46 -15 -74 -15q-51 0 -88 29q-79 -62 -179 -62q-101 0 -180 62q-37 -29 -88 -29q-28 0 -74 15q-57 18 -57 39q0 6 14 6q60 -1 61 53q-42 2 -99 48t-57 86q0 13 14 13q7 0 20.5 -3.5
t20.5 -3.5q56 0 74 77q-48 42 -48 68q0 29 64 28q36 -1 89 62q2 2 71 94q49 53 102 48q61 -6 73 -60q10 54 72 60q53 5 102 -48q69 -92 71 -94q53 -63 89 -62q64 1 64 -28q0 -26 -48 -68q18 -77 74 -77q7 0 20.5 3.5t20.5 3.5zM928 253q-31 7 -56 33l-50 -55q-2 -14 -7 -31
q69 6 113 53zM856 424q-53 -1 -98 46q-12 12 -60 79q-34 47 -43 56q-26 26 -58 23q-25 -2 -76 -80q-54 78 -77 80q-32 3 -58 -23q-11 -11 -43 -56q-27 -38 -60 -79q-46 -47 -98 -46q-8 0 -9 -2q18 -13 43 -32q-3 -15 -22 -61q200 7 324 175q123 -168 323 -175q-15 29 -22 61
q21 15 43 32q-2 2 -9 2zM827 93q-21 29 -24 77q-16 -37 -44 -78q14 -4 30 -4q18 0 38 5zM766 275q-47 3 -96 27l20 -20l-25 -25l25 -25l-24 -25l-26 25l-25 -25l-24 25l25 25l-25 25l24 25l25 -25l24 23q-80 42 -143 123q-65 -82 -144 -123l24 -23l25 25l25 -25l-26 -25
l26 -25l-25 -25l-25 25l-25 -25l-25 25l25 25l-25 25l20 20q-49 -24 -96 -27q11 -94 81 -157t165 -63q94 0 164 63t81 157zM226 200q-5 17 -7 31l-50 55q-25 -26 -56 -33q44 -47 113 -53zM282 92q-28 41 -44 78q-3 -48 -24 -77q20 -5 38 -5q16 0 30 4zM646 181
q-40 -77 -126 -77q-85 0 -125 77h251z" />
    <glyph glyph-name="hyphen" unicode="&#x2010;" horiz-adv-x="1002" 
d="M986 303q14 0 14 -13q0 -40 -57 -86t-99 -48q1 -54 61 -53q14 0 14 -6q0 -21 -57 -39q-46 -15 -74 -15q-51 0 -88 29q-79 -62 -179 -62q-101 0 -180 62q-37 -29 -88 -29q-28 0 -74 15q-57 18 -57 39q0 6 14 6q60 -1 61 53q-42 2 -99 48t-57 86q0 13 14 13q7 0 20.5 -3.5
t20.5 -3.5q56 0 74 77q-48 42 -48 68q0 29 64 28q36 -1 89 62q2 2 71 94q49 53 102 48q61 -6 73 -60q10 54 72 60q53 5 102 -48q69 -92 71 -94q53 -63 89 -62q64 1 64 -28q0 -26 -48 -68q18 -77 74 -77q7 0 20.5 3.5t20.5 3.5zM928 253q-31 7 -56 33l-50 -55q-2 -14 -7 -31
q69 6 113 53zM856 424q-53 -1 -98 46q-12 12 -60 79q-34 47 -43 56q-26 26 -58 23q-25 -2 -76 -80q-54 78 -77 80q-32 3 -58 -23q-11 -11 -43 -56q-27 -38 -60 -79q-46 -47 -98 -46q-8 0 -9 -2q18 -13 43 -32q-3 -15 -22 -61q200 7 324 175q123 -168 323 -175q-15 29 -22 61
q21 15 43 32q-2 2 -9 2zM827 93q-21 29 -24 77q-16 -37 -44 -78q14 -4 30 -4q18 0 38 5zM766 275q-47 3 -96 27l20 -20l-25 -25l25 -25l-24 -25l-26 25l-25 -25l-24 25l25 25l-25 25l24 25l25 -25l24 23q-80 42 -143 123q-65 -82 -144 -123l24 -23l25 25l25 -25l-26 -25
l26 -25l-25 -25l-25 25l-25 -25l-25 25l25 25l-25 25l20 20q-49 -24 -96 -27q11 -94 81 -157t165 -63q94 0 164 63t81 157zM226 200q-5 17 -7 31l-50 55q-25 -26 -56 -33q44 -47 113 -53zM282 92q-28 41 -44 78q-3 -48 -24 -77q20 -5 38 -5q16 0 30 4zM646 181
q-40 -77 -126 -77q-85 0 -125 77h251z" />
    <glyph glyph-name="period" unicode="." horiz-adv-x="1004" 
d="M986 303q14 0 14 -13q0 -40 -57 -86t-99 -48q1 -54 61 -53q14 0 14 -6q0 -21 -57 -39q-46 -15 -74 -15q-51 0 -88 29q-79 -62 -179 -62q-101 0 -180 62q-37 -29 -88 -29q-28 0 -74 15q-57 18 -57 39q0 6 14 6q60 -1 61 53q-42 2 -99 48t-57 86q0 13 14 13q7 0 20.5 -3.5
t20.5 -3.5q56 0 74 77q-48 42 -48 68q0 29 64 28q36 -1 89 62q2 2 71 94q49 53 102 48q61 -6 73 -60q10 54 72 60q53 5 102 -48q69 -92 71 -94q53 -63 89 -62q64 1 64 -28q0 -26 -48 -68q18 -77 74 -77q7 0 20.5 3.5t20.5 3.5zM928 253q-31 7 -56 33l-50 -55q-2 -14 -7 -31
q69 6 113 53zM856 424q-53 -1 -98 46q-12 12 -60 79q-34 47 -43 56q-26 26 -58 23q-25 -2 -76 -80q-54 78 -77 80q-32 3 -58 -23q-11 -11 -43 -56q-27 -38 -60 -79q-46 -47 -98 -46q-8 0 -9 -2q18 -13 43 -32q-3 -15 -22 -61q200 7 324 175q123 -168 323 -175q-15 29 -22 61
q21 15 43 32q-2 2 -9 2zM827 93q-21 29 -24 77q-16 -37 -44 -78q14 -4 30 -4q18 0 38 5zM766 275q-130 9 -245 153q-117 -144 -246 -153q11 -94 81 -157t165 -63q94 0 164 63t81 157zM226 200q-5 17 -7 31l-50 55q-25 -26 -56 -33q44 -47 113 -53zM282 92q-28 41 -44 78
q-3 -48 -24 -77q20 -5 38 -5q16 0 30 4zM688 255q0 -33 -34 -33q-33 0 -33 33q0 34 33 34q14 0 24 -10t10 -24zM646 181q-40 -77 -126 -77q-85 0 -125 77h251zM421 255q0 -33 -34 -33q-33 0 -33 33q0 34 33 34q14 0 24 -10t10 -24z" />
    <glyph glyph-name="slash" unicode="/" horiz-adv-x="1003" 
d="M986 303q14 0 14 -13q0 -40 -57 -86t-99 -48q1 -54 61 -53q14 0 14 -6q0 -21 -57 -39q-46 -15 -74 -15q-51 0 -88 29q-79 -62 -179 -62q-101 0 -180 62q-37 -29 -88 -29q-28 0 -74 15q-57 18 -57 39q0 6 14 6q60 -1 61 53q-42 2 -99 48t-57 86q0 13 14 13q7 0 20.5 -3.5
t20.5 -3.5q56 0 74 77q-48 42 -48 68q0 29 64 28q36 -1 89 62q2 2 71 94q49 53 102 48q61 -6 73 -60q10 54 72 60q53 5 102 -48q69 -92 71 -94q53 -63 89 -62q64 1 64 -28q0 -26 -48 -68q18 -77 74 -77q7 0 20.5 3.5t20.5 3.5zM928 253q-31 7 -56 33l-50 -55q-2 -14 -7 -31
q69 6 113 53zM856 424q-53 -1 -98 46q-12 12 -60 79q-34 47 -43 56q-26 26 -58 23q-24 -2 -76 -80q-54 78 -77 80q-32 3 -58 -23q-11 -11 -43 -56q-27 -38 -60 -79q-46 -47 -98 -46q-8 0 -9 -2q18 -13 43 -32q-3 -15 -22 -61q200 7 324 175q123 -168 323 -175q-15 29 -22 61
q21 15 43 32q-2 2 -9 2zM827 93q-21 29 -24 77q-16 -37 -44 -78q14 -4 30 -4q18 0 38 5zM653 225v52h-52v-52h52zM766 275q-130 9 -245 153q-117 -144 -246 -153q1 -10 3 -19h91v41h92v-41h120v41h92v-41h90q2 9 3 19zM441 225v52h-52v-52h52zM755 224h-82v-19h-92v19h-120
v-19h-92v19h-83q25 -76 90 -122.5t145 -46.5t144.5 46.5t89.5 122.5zM226 200q-5 17 -7 31l-50 55q-25 -26 -56 -33q44 -47 113 -53zM282 92q-28 41 -44 78q-3 -48 -24 -77q20 -5 38 -5q16 0 30 4zM646 181q-40 -77 -126 -77q-85 0 -125 77h251z" />
    <glyph glyph-name="zero" unicode="0" 
d="M712 302q0 -121 -85 -206.5t-206 -85.5q-122 0 -207 85t-85 207q0 121 85.5 206t206.5 85t206 -85t85 -206zM667 302q0 133 -112 206q-2 -1 -4 -1q-13 0 -16 13q-10 5 -21 10q2 -4 2 -7q0 -16 -15 -16q-16 0 -16 16q0 10 9 14q-36 11 -73 11q-36 0 -70 -10q15 0 15 -15
q0 -16 -15 -16q-16 0 -16 16q0 7 6 12q-13 -4 -25 -10v-2q0 -16 -15 -16q-6 0 -11 4q-48 -30 -78 -78q4 -4 4 -10q0 -16 -15 -16h-3q-7 -15 -12 -31v-3q0 -7 -5 -12q-7 -29 -7 -59v-14q12 -3 12 -15q0 -10 -8 -14q15 -89 83.5 -146.5t159.5 -57.5q103 0 174.5 72t71.5 175z
M586 473q0 -16 -15 -16q-16 0 -16 16q0 15 16 15q15 0 15 -15zM616 423q0 -16 -15 -16q-16 0 -16 16q0 15 16 15q15 0 15 -15zM536 473q0 -16 -15 -16q-16 0 -16 16q0 15 16 15q15 0 15 -15zM636 373q0 -16 -15 -16q-16 0 -16 16q0 15 16 15q15 0 15 -15zM466 523
q0 -16 -15 -16q-16 0 -16 16q0 15 16 15q15 0 15 -15zM566 423q0 -16 -15 -16q-16 0 -16 16q0 15 16 15q15 0 15 -15zM666 323q0 -16 -15 -16q-16 0 -16 16q0 15 16 15q15 0 15 -15zM486 473q0 -16 -15 -16q-16 0 -16 16q0 15 16 15q15 0 15 -15zM586 373q0 -16 -15 -16
q-16 0 -16 16q0 15 16 15q15 0 15 -15zM416 523q0 -16 -15 -16q-16 0 -16 16q0 15 16 15q15 0 15 -15zM516 423q0 -16 -15 -16q-16 0 -16 16q0 15 16 15q15 0 15 -15zM616 323q0 -16 -15 -16q-16 0 -16 16q0 15 16 15q15 0 15 -15zM436 473q0 -16 -15 -16q-16 0 -16 16
q0 15 16 15q15 0 15 -15zM536 373q0 -16 -15 -16q-16 0 -16 16q0 15 16 15q15 0 15 -15zM636 273q0 -16 -15 -16q-16 0 -16 16q0 15 16 15q15 0 15 -15zM466 423q0 -16 -15 -16q-16 0 -16 16q0 15 16 15q15 0 15 -15zM566 323q0 -16 -15 -16q-16 0 -16 16q0 15 16 15
q15 0 15 -15zM386 473q0 -16 -15 -16q-16 0 -16 16q0 15 16 15q15 0 15 -15zM486 373q0 -16 -15 -16q-16 0 -16 16q0 15 16 15q15 0 15 -15zM416 423q0 -16 -15 -16q-16 0 -16 16q0 15 16 15q15 0 15 -15zM336 473q0 -16 -15 -16q-16 0 -16 16q0 15 16 15q15 0 15 -15z
M436 373q0 -16 -15 -16q-16 0 -16 16q0 15 16 15q15 0 15 -15zM366 423q0 -16 -15 -16q-16 0 -16 16q0 15 16 15q15 0 15 -15zM589 235h-148q23 45 74 45t74 -45zM286 473q0 -16 -15 -16q-16 0 -16 16q0 15 16 15q15 0 15 -15zM386 373q0 -16 -15 -16q-16 0 -16 16
q0 15 16 15q15 0 15 -15zM316 423q0 -16 -15 -16q-16 0 -16 16q0 15 16 15q15 0 15 -15zM336 373q0 -16 -15 -16q-16 0 -16 16q0 15 16 15q15 0 15 -15zM266 423q0 -16 -15 -16q-16 0 -16 16q0 15 16 15q15 0 15 -15zM286 373q0 -16 -15 -16q-16 0 -16 16q0 15 16 15
q15 0 15 -15zM236 373q0 -16 -15 -16q-16 0 -16 16q0 15 16 15q15 0 15 -15zM401 235h-149q23 45 74 45t75 -45zM266 323q0 -16 -15 -16q-16 0 -16 16q0 15 16 15q15 0 15 -15zM546 181q-40 -77 -126 -77q-85 0 -125 77h251zM216 323q0 -16 -15 -16q-16 0 -16 16q0 15 16 15
q15 0 15 -15z" />
    <glyph glyph-name="one" unicode="1" 
d="M712 302q0 -121 -85 -206.5t-206 -85.5q-122 0 -207 85t-85 207q0 121 85.5 206t206.5 85t206 -85t85 -206zM667 302q0 133 -112 206q-2 -1 -4 -1q-13 0 -16 13q-10 5 -21 10q2 -4 2 -7q0 -16 -15 -16q-16 0 -16 16q0 10 9 14q-36 11 -73 11q-36 0 -70 -10q15 0 15 -15
q0 -16 -15 -16q-16 0 -16 16q0 7 6 12q-13 -4 -25 -10v-2q0 -16 -15 -16q-6 0 -11 4q-48 -30 -78 -78q4 -4 4 -10q0 -16 -15 -16h-3q-7 -15 -12 -31v-3q0 -7 -5 -12q-7 -29 -7 -59v-14q12 -3 12 -15q0 -10 -8 -14q15 -89 83.5 -146.5t159.5 -57.5q103 0 174.5 72t71.5 175z
M586 473q0 -16 -15 -16q-16 0 -16 16q0 15 16 15q15 0 15 -15zM616 423q0 -16 -15 -16q-16 0 -16 16q0 15 16 15q15 0 15 -15zM536 473q0 -16 -15 -16q-16 0 -16 16q0 15 16 15q15 0 15 -15zM636 373q0 -16 -15 -16q-16 0 -16 16q0 15 16 15q15 0 15 -15zM466 523
q0 -16 -15 -16q-16 0 -16 16q0 15 16 15q15 0 15 -15zM566 423q0 -16 -15 -16q-16 0 -16 16q0 15 16 15q15 0 15 -15zM666 323q0 -16 -15 -16q-16 0 -16 16q0 15 16 15q15 0 15 -15zM486 473q0 -16 -15 -16q-16 0 -16 16q0 15 16 15q15 0 15 -15zM586 373q0 -16 -15 -16
q-16 0 -16 16q0 15 16 15q15 0 15 -15zM416 523q0 -16 -15 -16q-16 0 -16 16q0 15 16 15q15 0 15 -15zM516 423q0 -16 -15 -16q-16 0 -16 16q0 15 16 15q15 0 15 -15zM616 323q0 -16 -15 -16q-16 0 -16 16q0 15 16 15q15 0 15 -15zM436 473q0 -16 -15 -16q-16 0 -16 16
q0 15 16 15q15 0 15 -15zM536 373q0 -16 -15 -16q-16 0 -16 16q0 15 16 15q15 0 15 -15zM636 273q0 -16 -15 -16q-16 0 -16 16q0 15 16 15q15 0 15 -15zM466 423q0 -16 -15 -16q-16 0 -16 16q0 15 16 15q15 0 15 -15zM566 323q0 -16 -15 -16q-16 0 -16 16q0 15 16 15
q15 0 15 -15zM386 473q0 -16 -15 -16q-16 0 -16 16q0 15 16 15q15 0 15 -15zM486 373q0 -16 -15 -16q-16 0 -16 16q0 15 16 15q15 0 15 -15zM416 423q0 -16 -15 -16q-16 0 -16 16q0 15 16 15q15 0 15 -15zM336 473q0 -16 -15 -16q-16 0 -16 16q0 15 16 15q15 0 15 -15z
M436 373q0 -16 -15 -16q-16 0 -16 16q0 15 16 15q15 0 15 -15zM615 233l-31 -16q-19 36 -59 36q-28 0 -47 -20h-43q29 55 90 55t90 -55zM366 423q0 -16 -15 -16q-16 0 -16 16q0 15 16 15q15 0 15 -15zM286 473q0 -16 -15 -16q-16 0 -16 16q0 15 16 15q15 0 15 -15zM386 373
q0 -16 -15 -16q-16 0 -16 16q0 15 16 15q15 0 15 -15zM316 423q0 -16 -15 -16q-16 0 -16 16q0 15 16 15q15 0 15 -15zM336 373q0 -16 -15 -16q-16 0 -16 16q0 15 16 15q15 0 15 -15zM266 423q0 -16 -15 -16q-16 0 -16 16q0 15 16 15q15 0 15 -15zM286 373q0 -16 -15 -16
q-16 0 -16 16q0 15 16 15q15 0 15 -15zM236 373q0 -16 -15 -16q-16 0 -16 16q0 15 16 15q15 0 15 -15zM266 323q0 -16 -15 -16q-16 0 -16 16q0 15 16 15q15 0 15 -15zM406 233h-43q-19 20 -47 20q-40 0 -59 -36l-31 16q29 55 90 55t90 -55zM546 181q-40 -77 -126 -77
q-85 0 -125 77h251zM216 323q0 -16 -15 -16q-16 0 -16 16q0 15 16 15q15 0 15 -15z" />
    <glyph glyph-name="two" unicode="2" 
d="M712 302q0 -121 -85 -206.5t-206 -85.5q-122 0 -207 85t-85 207q0 121 85.5 206t206.5 85t206 -85t85 -206zM667 302q0 133 -112 206q-2 -1 -4 -1q-13 0 -16 13q-10 5 -21 10q2 -4 2 -7q0 -16 -15 -16q-16 0 -16 16q0 10 9 14q-36 11 -73 11q-36 0 -70 -10q15 0 15 -15
q0 -16 -15 -16q-16 0 -16 16q0 7 6 12q-13 -4 -25 -10v-2q0 -16 -15 -16q-6 0 -11 4q-48 -30 -78 -78q4 -4 4 -10q0 -16 -15 -16h-3q-7 -15 -12 -31v-3q0 -7 -5 -12q-7 -29 -7 -59v-14q12 -3 12 -15q0 -10 -8 -14q15 -89 83.5 -146.5t159.5 -57.5q103 0 174.5 72t71.5 175z
M586 473q0 -16 -15 -16q-16 0 -16 16q0 15 16 15q15 0 15 -15zM616 423q0 -16 -15 -16q-16 0 -16 16q0 15 16 15q15 0 15 -15zM536 473q0 -16 -15 -16q-16 0 -16 16q0 15 16 15q15 0 15 -15zM636 373q0 -16 -15 -16q-16 0 -16 16q0 15 16 15q15 0 15 -15zM466 523
q0 -16 -15 -16q-16 0 -16 16q0 15 16 15q15 0 15 -15zM566 423q0 -16 -15 -16q-16 0 -16 16q0 15 16 15q15 0 15 -15zM666 323q0 -16 -15 -16q-16 0 -16 16q0 15 16 15q15 0 15 -15zM486 473q0 -16 -15 -16q-16 0 -16 16q0 15 16 15q15 0 15 -15zM586 373q0 -16 -15 -16
q-16 0 -16 16q0 15 16 15q15 0 15 -15zM416 523q0 -16 -15 -16q-16 0 -16 16q0 15 16 15q15 0 15 -15zM516 423q0 -16 -15 -16q-16 0 -16 16q0 15 16 15q15 0 15 -15zM616 323q0 -16 -15 -16q-16 0 -16 16q0 15 16 15q15 0 15 -15zM436 473q0 -16 -15 -16q-16 0 -16 16
q0 15 16 15q15 0 15 -15zM536 373q0 -16 -15 -16q-16 0 -16 16q0 15 16 15q15 0 15 -15zM636 273q0 -16 -15 -16q-16 0 -16 16q0 15 16 15q15 0 15 -15zM466 423q0 -16 -15 -16q-16 0 -16 16q0 15 16 15q15 0 15 -15zM566 323q0 -16 -15 -16q-16 0 -16 16q0 15 16 15
q15 0 15 -15zM386 473q0 -16 -15 -16q-16 0 -16 16q0 15 16 15q15 0 15 -15zM486 373q0 -16 -15 -16q-16 0 -16 16q0 15 16 15q15 0 15 -15zM416 423q0 -16 -15 -16q-16 0 -16 16q0 15 16 15q15 0 15 -15zM590 232l-24 -25l-26 25l-25 -25l-24 25l25 25l-25 25l24 25l25 -25
l26 25l24 -25l-25 -25zM336 473q0 -16 -15 -16q-16 0 -16 16q0 15 16 15q15 0 15 -15zM436 373q0 -16 -15 -16q-16 0 -16 16q0 15 16 15q15 0 15 -15zM366 423q0 -16 -15 -16q-16 0 -16 16q0 15 16 15q15 0 15 -15zM286 473q0 -16 -15 -16q-16 0 -16 16q0 15 16 15
q15 0 15 -15zM386 373q0 -16 -15 -16q-16 0 -16 16q0 15 16 15q15 0 15 -15zM316 423q0 -16 -15 -16q-16 0 -16 16q0 15 16 15q15 0 15 -15zM336 373q0 -16 -15 -16q-16 0 -16 16q0 15 16 15q15 0 15 -15zM266 423q0 -16 -15 -16q-16 0 -16 16q0 15 16 15q15 0 15 -15z
M286 373q0 -16 -15 -16q-16 0 -16 16q0 15 16 15q15 0 15 -15zM236 373q0 -16 -15 -16q-16 0 -16 16q0 15 16 15q15 0 15 -15zM266 323q0 -16 -15 -16q-16 0 -16 16q0 15 16 15q15 0 15 -15zM546 181q-40 -77 -126 -77q-85 0 -125 77h251zM351 232l-25 -25l-25 25l-25 -25
l-25 25l25 25l-25 25l25 25l25 -25l25 25l25 -25l-26 -25zM216 323q0 -16 -15 -16q-16 0 -16 16q0 15 16 15q15 0 15 -15z" />
    <glyph glyph-name="three" unicode="3" 
d="M712 302q0 -121 -85 -206.5t-206 -85.5q-122 0 -207 85t-85 207q0 121 85.5 206t206.5 85t206 -85t85 -206zM667 302q0 133 -112 206q-2 -1 -4 -1q-13 0 -16 13q-10 5 -21 10q2 -4 2 -7q0 -16 -15 -16q-16 0 -16 16q0 10 9 14q-36 11 -73 11q-36 0 -70 -10q15 0 15 -15
q0 -16 -15 -16q-16 0 -16 16q0 7 6 12q-13 -4 -25 -10v-2q0 -16 -15 -16q-6 0 -11 4q-48 -30 -78 -78q4 -4 4 -10q0 -16 -15 -16h-3q-7 -15 -12 -31v-3q0 -7 -5 -12q-7 -29 -7 -59v-14q12 -3 12 -15q0 -10 -8 -14q15 -89 83.5 -146.5t159.5 -57.5q103 0 174.5 72t71.5 175z
M586 473q0 -16 -15 -16q-16 0 -16 16q0 15 16 15q15 0 15 -15zM616 423q0 -16 -15 -16q-16 0 -16 16q0 15 16 15q15 0 15 -15zM536 473q0 -16 -15 -16q-16 0 -16 16q0 15 16 15q15 0 15 -15zM636 373q0 -16 -15 -16q-16 0 -16 16q0 15 16 15q15 0 15 -15zM466 523
q0 -16 -15 -16q-16 0 -16 16q0 15 16 15q15 0 15 -15zM566 423q0 -16 -15 -16q-16 0 -16 16q0 15 16 15q15 0 15 -15zM666 323q0 -16 -15 -16q-16 0 -16 16q0 15 16 15q15 0 15 -15zM486 473q0 -16 -15 -16q-16 0 -16 16q0 15 16 15q15 0 15 -15zM586 373q0 -16 -15 -16
q-16 0 -16 16q0 15 16 15q15 0 15 -15zM416 523q0 -16 -15 -16q-16 0 -16 16q0 15 16 15q15 0 15 -15zM516 423q0 -16 -15 -16q-16 0 -16 16q0 15 16 15q15 0 15 -15zM616 323q0 -16 -15 -16q-16 0 -16 16q0 15 16 15q15 0 15 -15zM436 473q0 -16 -15 -16q-16 0 -16 16
q0 15 16 15q15 0 15 -15zM536 373q0 -16 -15 -16q-16 0 -16 16q0 15 16 15q15 0 15 -15zM466 423q0 -16 -15 -16q-16 0 -16 16q0 15 16 15q15 0 15 -15zM386 473q0 -16 -15 -16q-16 0 -16 16q0 15 16 15q15 0 15 -15zM486 373q0 -16 -15 -16q-16 0 -16 16q0 15 16 15
q15 0 15 -15zM416 423q0 -16 -15 -16q-16 0 -16 16q0 15 16 15q15 0 15 -15zM588 255q0 -33 -34 -33q-33 0 -33 33q0 34 33 34q14 0 24 -10t10 -24zM336 473q0 -16 -15 -16q-16 0 -16 16q0 15 16 15q15 0 15 -15zM436 373q0 -16 -15 -16q-16 0 -16 16q0 15 16 15
q15 0 15 -15zM366 423q0 -16 -15 -16q-16 0 -16 16q0 15 16 15q15 0 15 -15zM286 473q0 -16 -15 -16q-16 0 -16 16q0 15 16 15q15 0 15 -15zM386 373q0 -16 -15 -16q-16 0 -16 16q0 15 16 15q15 0 15 -15zM316 423q0 -16 -15 -16q-16 0 -16 16q0 15 16 15q15 0 15 -15z
M336 373q0 -16 -15 -16q-16 0 -16 16q0 15 16 15q15 0 15 -15zM266 423q0 -16 -15 -16q-16 0 -16 16q0 15 16 15q15 0 15 -15zM286 373q0 -16 -15 -16q-16 0 -16 16q0 15 16 15q15 0 15 -15zM236 373q0 -16 -15 -16q-16 0 -16 16q0 15 16 15q15 0 15 -15zM546 181
q-40 -77 -126 -77q-85 0 -125 77h251zM321 255q0 -33 -34 -33q-33 0 -33 33q0 34 33 34q14 0 24 -10t10 -24zM216 323q0 -16 -15 -16q-16 0 -16 16q0 15 16 15q15 0 15 -15z" />
    <glyph glyph-name="four" unicode="4" 
d="M712 302q0 -121 -85 -206.5t-206 -85.5q-122 0 -207 85t-85 207q0 121 85.5 206t206.5 85t206 -85t85 -206zM667 302q0 133 -112 206q-2 -1 -4 -1q-13 0 -16 13q-10 5 -21 10q2 -4 2 -7q0 -16 -15 -16q-16 0 -16 16q0 10 9 14q-36 11 -73 11q-36 0 -70 -10q15 0 15 -15
q0 -16 -15 -16q-16 0 -16 16q0 7 6 12q-13 -4 -25 -10v-2q0 -16 -15 -16q-6 0 -11 4q-48 -30 -78 -78q4 -4 4 -10q0 -16 -15 -16h-3q-7 -15 -12 -31v-3q0 -7 -5 -12q-7 -29 -7 -59v-14q12 -3 12 -15q0 -10 -8 -14q15 -89 83.5 -146.5t159.5 -57.5q103 0 174.5 72t71.5 175z
M586 473q0 -16 -15 -16q-16 0 -16 16q0 15 16 15q15 0 15 -15zM616 423q0 -16 -15 -16q-16 0 -16 16q0 15 16 15q15 0 15 -15zM536 473q0 -16 -15 -16q-16 0 -16 16q0 15 16 15q15 0 15 -15zM636 373q0 -16 -15 -16q-16 0 -16 16q0 15 16 15q15 0 15 -15zM466 523
q0 -16 -15 -16q-16 0 -16 16q0 15 16 15q15 0 15 -15zM566 423q0 -16 -15 -16q-16 0 -16 16q0 15 16 15q15 0 15 -15zM666 323q0 -16 -15 -16q-16 0 -16 16q0 15 16 15q15 0 15 -15zM486 473q0 -16 -15 -16q-16 0 -16 16q0 15 16 15q15 0 15 -15zM586 373q0 -16 -15 -16
q-16 0 -16 16q0 15 16 15q15 0 15 -15zM416 523q0 -16 -15 -16q-16 0 -16 16q0 15 16 15q15 0 15 -15zM516 423q0 -16 -15 -16q-16 0 -16 16q0 15 16 15q15 0 15 -15zM616 323q0 -16 -15 -16q-16 0 -16 16q0 15 16 15q15 0 15 -15zM436 473q0 -16 -15 -16q-16 0 -16 16
q0 15 16 15q15 0 15 -15zM536 373q0 -16 -15 -16q-16 0 -16 16q0 15 16 15q15 0 15 -15zM636 273q0 -16 -15 -16q-16 0 -16 16q0 15 16 15q15 0 15 -15zM466 423q0 -16 -15 -16q-16 0 -16 16q0 15 16 15q15 0 15 -15zM566 323q0 -16 -15 -16q-16 0 -16 16q0 15 16 15
q15 0 15 -15zM386 473q0 -16 -15 -16q-16 0 -16 16q0 15 16 15q15 0 15 -15zM486 373q0 -16 -15 -16q-16 0 -16 16q0 15 16 15q15 0 15 -15zM416 423q0 -16 -15 -16q-16 0 -16 16q0 15 16 15q15 0 15 -15zM336 473q0 -16 -15 -16q-16 0 -16 16q0 15 16 15q15 0 15 -15z
M436 373q0 -16 -15 -16q-16 0 -16 16q0 15 16 15q15 0 15 -15zM563 215h-72v72h72v-72zM366 423q0 -16 -15 -16q-16 0 -16 16q0 15 16 15q15 0 15 -15zM286 473q0 -16 -15 -16q-16 0 -16 16q0 15 16 15q15 0 15 -15zM386 373q0 -16 -15 -16q-16 0 -16 16q0 15 16 15
q15 0 15 -15zM316 423q0 -16 -15 -16q-16 0 -16 16q0 15 16 15q15 0 15 -15zM336 373q0 -16 -15 -16q-16 0 -16 16q0 15 16 15q15 0 15 -15zM266 423q0 -16 -15 -16q-16 0 -16 16q0 15 16 15q15 0 15 -15zM286 373q0 -16 -15 -16q-16 0 -16 16q0 15 16 15q15 0 15 -15z
M236 373q0 -16 -15 -16q-16 0 -16 16q0 15 16 15q15 0 15 -15zM266 323q0 -16 -15 -16q-16 0 -16 16q0 15 16 15q15 0 15 -15zM351 215h-72v72h72v-72zM546 181q-40 -77 -126 -77q-85 0 -125 77h251zM216 323q0 -16 -15 -16q-16 0 -16 16q0 15 16 15q15 0 15 -15z" />
    <glyph glyph-name="five" unicode="5" horiz-adv-x="1007" 
d="M1006 166q-48 -106 -152 -106q-63 0 -128 35q-85 -85 -205 -85t-206 84q-65 -34 -127 -34q-104 0 -152 106q125 28 125 147q0 14 -4.5 43t-4.5 43q0 94 90 173q8 33 38 43q3 17 9 28q1 2 7 8q-3 8 -3 17q0 19 12.5 32.5t31.5 13.5t32 -14q1 18 13.5 30.5t30.5 12.5
q23 0 36 -19q13 15 28 24q6 39 44 39t44 -39q15 -9 29 -24q13 19 35 19q40 0 45 -43q12 14 31 14t32 -13.5t13 -32.5q0 -11 -3 -18q4 -4 19 -17v-19q27 -12 34 -43q90 -78 90 -172q0 -14 -4.5 -43t-4.5 -43q0 -119 125 -147zM795 488q-1 21 -38 44q14 8 14 26q0 30 -26 30
q-4 0 -9 -2v33l-1 1q-9 7 -27 33q12 2 12 15q0 16 -15 16q-14 0 -14 -16q0 -12 11 -15q-16 -17 -31 -19q-22 14 -39 47q12 3 12 16q0 16 -15 16q-14 0 -14 -16q0 -13 11 -15q-21 -21 -32 -19q-19 62 -65 65q6 5 6 13q0 16 -14 16t-14 -16q0 -8 6 -13q-46 -3 -65 -65
q-11 -2 -32 19q11 2 11 15q0 16 -14 16t-14 -16q0 -13 11 -16q-17 -33 -39 -47q-14 2 -31 19q11 3 11 15q0 16 -14 16t-14 -16q0 -13 12 -15q-10 -18 -28 -33v-34q-6 2 -9 2q-27 0 -27 -30q0 -17 13 -26q-38 -22 -38 -44q-3 -20 15 -20q16 0 16 12q0 33 109 53q77 14 135 14
t135 -14q108 -20 108 -53q0 -11 14 -11q17 0 17 19zM767 287q-17 3 -34 25q-13 17 -42 65q-35 -45 -80 -39q-66 9 -74 50q-83 -100 -172 -100q-30 0 -58 13q-3 -41 -27 -54q19 -85 86.5 -138.5t154.5 -53.5q98 0 169 67t77 165zM755 557q0 -12 -11 -12t-11 12q0 13 11 13
t11 -13zM709 602q0 -9 -3 -49q-14 5 -30 9q1 5 4 45l16 12q4 -10 13 -17zM649 615q-1 -30 -1 -45q-26 5 -52 8q-2 38 -2 50q19 8 28 17q12 -18 27 -30zM567 580q-24 2 -46 2q-23 0 -47 -2v63q0 22 13 38.5t34 16.5t33.5 -17t12.5 -38v-63zM447 628l-2 -50q-27 -3 -52 -8
q-1 26 -1 45q15 12 27 30q9 -9 28 -17zM365 563q-15 -4 -30 -9q-2 35 -3 48q9 7 13 17q13 -9 16 -12q2 -21 4 -44zM689 235h-148q23 45 74 45t74 -45zM309 558q0 -13 -11 -13t-11 13q0 12 11 12t11 -12zM501 235h-149q23 45 74 45t75 -45zM646 181q-40 -77 -126 -77
q-85 0 -125 77h251zM566 653h-1q0 1 -1 1h-32q-1 6 -10 35l-1 1q-2 0 -2 -1l-10 -35h-32q-1 0 -2 -1q1 -1 1 -2l26 -21q-2 0 -10 -35q0 -1 1 -2h2l26 22q4 -4 25 -22h2q1 1 1 2v0l-10 35q27 17 27 23z" />
    <glyph glyph-name="six" unicode="6" horiz-adv-x="1007" 
d="M1006 166q-48 -106 -152 -106q-63 0 -128 35q-85 -85 -205 -85t-206 84q-65 -34 -127 -34q-104 0 -152 106q125 28 125 147q0 14 -4.5 43t-4.5 43q0 94 90 173q8 33 38 43q3 17 9 28q1 2 7 8q-3 8 -3 17q0 19 12.5 32.5t31.5 13.5t32 -14q1 18 13.5 30.5t30.5 12.5
q23 0 36 -19q13 15 28 24q6 39 44 39t44 -39q15 -9 29 -24q13 19 35 19q40 0 45 -43q12 14 31 14t32 -13.5t13 -32.5q0 -11 -3 -18q4 -4 19 -17v-19q27 -12 34 -43q90 -78 90 -172q0 -14 -4.5 -43t-4.5 -43q0 -119 125 -147zM795 488q-1 21 -38 44q14 8 14 26q0 30 -26 30
q-4 0 -9 -2v33l-1 1q-9 7 -27 33q12 2 12 15q0 16 -15 16q-14 0 -14 -16q0 -12 11 -15q-16 -17 -31 -19q-22 14 -39 47q12 3 12 16q0 16 -15 16q-14 0 -14 -16q0 -13 11 -15q-21 -21 -32 -19q-19 62 -65 65q6 5 6 13q0 16 -14 16t-14 -16q0 -8 6 -13q-46 -3 -65 -65
q-11 -2 -32 19q11 2 11 15q0 16 -14 16t-14 -16q0 -13 11 -16q-17 -33 -39 -47q-14 2 -31 19q11 3 11 15q0 16 -14 16t-14 -16q0 -13 12 -15q-10 -18 -28 -33v-34q-6 2 -9 2q-27 0 -27 -30q0 -17 13 -26q-38 -22 -38 -44q-3 -20 15 -20q16 0 16 12q0 33 109 53q77 14 135 14
t135 -14q108 -20 108 -53q0 -11 14 -11q17 0 17 19zM767 287q-17 3 -34 25q-13 17 -42 65q-35 -45 -80 -39q-66 9 -74 50q-83 -100 -172 -100q-30 0 -58 13q-3 -41 -27 -54q19 -85 86.5 -138.5t154.5 -53.5q98 0 169 67t77 165zM755 557q0 -12 -11 -12t-11 12q0 13 11 13
t11 -13zM709 602q0 -9 -3 -49q-14 5 -30 9q1 5 4 45l16 12q4 -10 13 -17zM649 615q-1 -30 -1 -45q-26 5 -52 8q-2 38 -2 50q19 8 28 17q12 -18 27 -30zM567 580q-24 2 -46 2q-23 0 -47 -2v63q0 22 13 38.5t34 16.5t33.5 -17t12.5 -38v-63zM447 628l-2 -50q-27 -3 -52 -8
q-1 26 -1 45q15 12 27 30q9 -9 28 -17zM365 563q-15 -4 -30 -9q-2 35 -3 48q9 7 13 17q13 -9 16 -12q2 -21 4 -44zM715 233l-31 -16q-19 36 -59 36q-28 0 -47 -20h-43q29 55 90 55t90 -55zM309 558q0 -13 -11 -13t-11 13q0 12 11 12t11 -12zM506 233h-43q-19 20 -47 20
q-40 0 -59 -36l-31 16q29 55 90 55t90 -55zM646 181q-40 -77 -126 -77q-85 0 -125 77h251zM566 653h-1q0 1 -1 1h-32q-1 6 -10 35l-1 1q-2 0 -2 -1l-10 -35h-32q-1 0 -2 -1q1 -1 1 -2l26 -21q-2 0 -10 -35q0 -1 1 -2h2l26 22q4 -4 25 -22h2q1 1 1 2v0l-10 35q27 17 27 23z
" />
    <glyph glyph-name="seven" unicode="7" horiz-adv-x="1006" 
d="M1006 166q-48 -106 -152 -106q-63 0 -128 35q-85 -85 -205 -85t-206 84q-65 -34 -127 -34q-104 0 -152 106q125 28 125 147q0 14 -4.5 43t-4.5 43q0 94 90 173q8 33 38 43q3 17 9 28q1 2 7 8q-3 8 -3 17q0 19 12.5 32.5t31.5 13.5t32 -14q1 18 13.5 30.5t30.5 12.5
q23 0 36 -19q13 15 28 24q6 39 44 39t44 -39q15 -9 29 -24q13 19 35 19q40 0 45 -43q12 14 31 14t32 -13.5t13 -32.5q0 -11 -3 -18q4 -4 19 -17v-19q27 -12 34 -43q90 -78 90 -172q0 -14 -4.5 -43t-4.5 -43q0 -119 125 -147zM795 488q-1 21 -38 44q14 8 14 26q0 30 -26 30
q-4 0 -9 -2v33l-1 1q-9 7 -27 33q12 2 12 15q0 16 -15 16q-14 0 -14 -16q0 -12 11 -15q-16 -17 -31 -19q-22 14 -39 47q12 3 12 16q0 16 -15 16q-14 0 -14 -16q0 -13 11 -15q-21 -21 -32 -19q-19 62 -65 65q6 5 6 13q0 16 -14 16t-14 -16q0 -8 6 -13q-46 -3 -65 -65
q-11 -2 -32 19q11 2 11 15q0 16 -14 16t-14 -16q0 -13 11 -16q-17 -33 -39 -47q-14 2 -31 19q11 3 11 15q0 16 -14 16t-14 -16q0 -13 12 -15q-10 -18 -28 -33v-34q-6 2 -9 2q-27 0 -27 -30q0 -17 13 -26q-38 -22 -38 -44q-3 -20 15 -20q16 0 16 12q0 33 109 53q77 14 135 14
t135 -14q108 -20 108 -53q0 -11 14 -11q17 0 17 19zM767 287q-17 3 -34 25q-13 17 -42 65q-35 -45 -80 -39q-66 9 -74 50q-49 -60 -107 -85l21 -21l-26 -25l26 -25l-25 -25l-25 25l-25 -25l-25 25l25 25l-25 25l6 6q-26 2 -50 13q-3 -41 -27 -54q19 -85 86.5 -138.5
t154.5 -53.5q98 0 169 67t77 165zM416 297q-12 -4 -24 -6l9 -9zM755 557q0 -12 -11 -12t-11 12q0 13 11 13t11 -13zM709 602q0 -9 -3 -49q-14 5 -30 9q1 5 4 45l16 12q4 -10 13 -17zM649 615q-1 -30 -1 -45q-26 5 -52 8q-2 38 -2 50q19 8 28 17q12 -18 27 -30zM567 580
q-24 2 -46 2q-23 0 -47 -2v63q0 22 13 38.5t34 16.5t33.5 -17t12.5 -38v-63zM447 628l-2 -50q-27 -3 -52 -8q-1 26 -1 45q15 12 27 30q9 -9 28 -17zM365 563q-15 -4 -30 -9q-2 35 -3 48q9 7 13 17q13 -9 16 -12q2 -21 4 -44zM690 232l-24 -25l-26 25l-25 -25l-24 25l25 25
l-25 25l24 25l25 -25l26 25l24 -25l-25 -25zM309 558q0 -13 -11 -13t-11 13q0 12 11 12t11 -12zM646 181q-40 -77 -126 -77q-85 0 -125 77h251zM566 653h-1q0 1 -1 1h-32q-1 6 -10 35l-1 1q-2 0 -2 -1l-10 -35h-32q-1 0 -2 -1q1 -1 1 -2l26 -21q-2 0 -10 -35q0 -1 1 -2h2
l26 22q4 -4 25 -22h2q1 1 1 2v0l-10 35q27 17 27 23z" />
    <glyph glyph-name="eight" unicode="8" horiz-adv-x="1007" 
d="M1006 166q-48 -106 -152 -106q-63 0 -128 35q-85 -85 -205 -85t-206 84q-65 -34 -127 -34q-104 0 -152 106q125 28 125 147q0 14 -4.5 43t-4.5 43q0 94 90 173q8 33 38 43q3 17 9 28q1 2 7 8q-3 8 -3 17q0 19 12.5 32.5t31.5 13.5t32 -14q1 18 13.5 30.5t30.5 12.5
q23 0 36 -19q13 15 28 24q6 39 44 39t44 -39q15 -9 29 -24q13 19 35 19q40 0 45 -43q12 14 31 14t32 -13.5t13 -32.5q0 -11 -3 -18q4 -4 19 -17v-19q27 -12 34 -43q90 -78 90 -172q0 -14 -4.5 -43t-4.5 -43q0 -119 125 -147zM795 488q-1 21 -38 44q14 8 14 26q0 30 -26 30
q-4 0 -9 -2v33l-1 1q-9 7 -27 33q12 2 12 15q0 16 -15 16q-14 0 -14 -16q0 -12 11 -15q-16 -17 -31 -19q-22 14 -39 47q12 3 12 16q0 16 -15 16q-14 0 -14 -16q0 -13 11 -15q-21 -21 -32 -19q-19 62 -65 65q6 5 6 13q0 16 -14 16t-14 -16q0 -8 6 -13q-46 -3 -65 -65
q-11 -2 -32 19q11 2 11 15q0 16 -14 16t-14 -16q0 -13 11 -16q-17 -33 -39 -47q-14 2 -31 19q11 3 11 15q0 16 -14 16t-14 -16q0 -13 12 -15q-10 -18 -28 -33v-34q-6 2 -9 2q-27 0 -27 -30q0 -17 13 -26q-38 -22 -38 -44q-3 -20 15 -20q16 0 16 12q0 33 109 53q77 14 135 14
t135 -14q108 -20 108 -53q0 -11 14 -11q17 0 17 19zM767 287q-17 3 -34 25q-13 17 -42 65q-35 -45 -80 -39q-66 9 -74 50q-83 -100 -172 -100q-30 0 -58 13q-3 -41 -27 -54q19 -85 86.5 -138.5t154.5 -53.5q98 0 169 67t77 165zM755 557q0 -12 -11 -12t-11 12q0 13 11 13
t11 -13zM709 602q0 -9 -3 -49q-14 5 -30 9q1 5 4 45l16 12q4 -10 13 -17zM649 615q-1 -30 -1 -45q-26 5 -52 8q-2 38 -2 50q19 8 28 17q12 -18 27 -30zM567 580q-24 2 -46 2q-23 0 -47 -2v63q0 22 13 38.5t34 16.5t33.5 -17t12.5 -38v-63zM447 628l-2 -50q-27 -3 -52 -8
q-1 26 -1 45q15 12 27 30q9 -9 28 -17zM365 563q-15 -4 -30 -9q-2 35 -3 48q9 7 13 17q13 -9 16 -12q2 -21 4 -44zM688 255q0 -33 -34 -33q-33 0 -33 33q0 34 33 34q14 0 24 -10t10 -24zM309 558q0 -13 -11 -13t-11 13q0 12 11 12t11 -12zM646 181q-40 -77 -126 -77
q-85 0 -125 77h251zM421 255q0 -33 -34 -33q-33 0 -33 33q0 34 33 34q14 0 24 -10t10 -24zM566 653h-1q0 1 -1 1h-32q-1 6 -10 35l-1 1q-2 0 -2 -1l-10 -35h-32q-1 0 -2 -1q1 -1 1 -2l26 -21q-2 0 -10 -35q0 -1 1 -2h2l26 22q4 -4 25 -22h2q1 1 1 2v0l-10 35q27 17 27 23z
" />
    <glyph glyph-name="nine" unicode="9" horiz-adv-x="779" 
d="M772 440q0 -241 -131 -329q-87 -101 -220 -101q-134 0 -221 101q-131 89 -131 329q0 115 115 191q105 70 237 70q131 0 236 -70q115 -76 115 -191zM707 417q6 8 5 17q-1 10 -9 11l-22 4q-23 4 -28 -4l-6 -9q-6 -9 4 -28l10 -20q3 -7 13 -5t15 9zM645 452q12 16 -4 28
l-16 12q-16 12 -28 -4l-7 -9q-12 -16 4 -28l16 -12q16 -12 28 4zM589 493q3 3 3 9q0 7 -6 19l-10 20q-4 7 -14 5q-8 -2 -14 -9l-19 -24q-5 -8 -5 -17q1 -10 9 -11l22 -5q22 -5 28 4zM311 513l-19 24q-6 7 -14 9q-10 2 -14 -5l-10 -20q-6 -12 -6 -19q0 -6 3 -9l6 -9
q6 -9 28 -4l22 5q8 1 9 11q0 9 -5 17zM250 479l-7 9q-12 16 -28 4l-16 -12q-16 -12 -4 -28l7 -9q12 -16 28 -4l16 12q16 12 4 28zM663 256q-51 29 -67 76q-14 43 -53 52q-25 6 -122 6t-122 -6q-39 -9 -53 -52q-16 -48 -68 -76q16 -88 84.5 -144.5t158.5 -56.5q89 0 157.5 57
t84.5 144zM193 436l-6 9q-5 8 -28 4l-22 -4q-8 -1 -9 -11q-1 -9 5 -17l18 -25q5 -7 15 -9q9 -2 13 5l10 20q10 19 4 28zM673 412q-11 0 -23 29q35 -3 35 -16t-12 -13zM586 489q-34 4 -34 16q0 14 11 14q12 0 23 -30zM288 505q0 -12 -34 -16q11 30 23 30q11 0 11 -14z
M589 235h-148q23 45 74 45t74 -45zM190 441q-12 -29 -23 -29q-12 0 -12 13t35 16zM401 235h-149q23 45 74 45t75 -45zM546 181q-40 -77 -126 -77q-85 0 -125 77h251z" />
    <glyph glyph-name="colon" unicode=":" horiz-adv-x="775" 
d="M772 440q0 -241 -131 -329q-87 -101 -220 -101q-134 0 -221 101q-131 89 -131 329q0 115 115 191q105 70 237 70q131 0 236 -70q115 -76 115 -191zM707 417q6 8 5 17q-1 10 -9 11l-22 4q-23 4 -28 -4l-6 -9q-6 -9 4 -28l10 -20q3 -7 13 -5t15 9zM645 452q12 16 -4 28
l-16 12q-16 12 -28 -4l-7 -9q-12 -16 4 -28l16 -12q16 -12 28 4zM589 493q3 3 3 9q0 7 -6 19l-10 20q-4 7 -14 5q-8 -2 -14 -9l-19 -24q-5 -8 -5 -17q1 -10 9 -11l22 -5q22 -5 28 4zM311 513l-19 24q-6 7 -14 9q-10 2 -14 -5l-10 -20q-6 -12 -6 -19q0 -6 3 -9l6 -9
q6 -9 28 -4l22 5q8 1 9 11q0 9 -5 17zM250 479l-7 9q-12 16 -28 4l-16 -12q-16 -12 -4 -28l7 -9q12 -16 28 -4l16 12q16 12 4 28zM663 256q-51 29 -67 76q-14 43 -53 52q-25 6 -122 6t-122 -6q-39 -9 -53 -52q-16 -48 -68 -76q16 -88 84.5 -144.5t158.5 -56.5q89 0 157.5 57
t84.5 144zM193 436l-6 9q-5 8 -28 4l-22 -4q-8 -1 -9 -11q-1 -9 5 -17l18 -25q5 -7 15 -9q9 -2 13 5l10 20q10 19 4 28zM673 412q-11 0 -23 29q35 -3 35 -16t-12 -13zM586 489q-34 4 -34 16q0 14 11 14q12 0 23 -30zM615 233l-31 -16q-19 36 -59 36q-28 0 -47 -20h-43
q29 55 90 55t90 -55zM288 505q0 -12 -34 -16q11 30 23 30q11 0 11 -14zM190 441q-12 -29 -23 -29q-12 0 -12 13t35 16zM406 233h-43q-19 20 -47 20q-40 0 -59 -36l-31 16q29 55 90 55t90 -55zM546 181q-40 -77 -126 -77q-85 0 -125 77h251z" />
    <glyph glyph-name="semicolon" unicode=";" horiz-adv-x="777" 
d="M772 440q0 -241 -131 -329q-87 -101 -220 -101q-134 0 -221 101q-131 89 -131 329q0 115 115 191q105 70 237 70q131 0 236 -70q115 -76 115 -191zM663 256q-51 29 -67 76q-14 43 -53 52q-25 6 -122 6t-122 -6q-39 -9 -53 -52q-16 -48 -68 -76q16 -88 84.5 -144.5
t158.5 -56.5q89 0 157.5 57t84.5 144zM590 242l-24 -25l-26 25l-25 -25l-24 25l25 25l-25 25l24 25l25 -25l26 25l24 -25l-25 -25zM351 242l-25 -25l-25 25l-25 -25l-25 25l25 25l-25 25l25 25l25 -25l25 25l25 -25l-26 -25zM546 181q-40 -77 -126 -77q-85 0 -125 77h251z
" />
    <glyph glyph-name="less" unicode="&#x3c;" horiz-adv-x="774" 
d="M772 440q0 -241 -131 -329q-87 -101 -220 -101q-134 0 -221 101q-131 89 -131 329q0 115 115 191q105 70 237 70q131 0 236 -70q115 -76 115 -191zM707 417q6 8 5 17q-1 10 -9 11l-22 4q-23 4 -28 -4l-6 -9q-6 -9 4 -28l10 -20q3 -7 13 -5t15 9zM645 452q12 16 -4 28
l-16 12q-16 12 -28 -4l-7 -9q-12 -16 4 -28l16 -12q16 -12 28 4zM589 493q3 3 3 9q0 7 -6 19l-10 20q-4 7 -14 5q-8 -2 -14 -9l-19 -24q-5 -8 -5 -17q1 -10 9 -11l22 -5q22 -5 28 4zM311 513l-19 24q-6 7 -14 9q-10 2 -14 -5l-10 -20q-6 -12 -6 -19q0 -6 3 -9l6 -9
q6 -9 28 -4l22 5q8 1 9 11q0 9 -5 17zM250 479l-7 9q-12 16 -28 4l-16 -12q-16 -12 -4 -28l7 -9q12 -16 28 -4l16 12q16 12 4 28zM663 256q-51 29 -67 76q-14 43 -53 52q-25 6 -122 6t-122 -6q-39 -9 -53 -52q-16 -48 -68 -76q16 -88 84.5 -144.5t158.5 -56.5q89 0 157.5 57
t84.5 144zM193 436l-6 9q-5 8 -28 4l-22 -4q-8 -1 -9 -11q-1 -9 5 -17l18 -25q5 -7 15 -9q9 -2 13 5l10 20q10 19 4 28zM673 412q-11 0 -23 29q35 -3 35 -16t-12 -13zM586 489q-34 4 -34 16q0 14 11 14q12 0 23 -30zM588 255q0 -33 -34 -33q-33 0 -33 33q0 34 33 34
q14 0 24 -10t10 -24zM288 505q0 -12 -34 -16q11 30 23 30q11 0 11 -14zM190 441q-12 -29 -23 -29q-12 0 -12 13t35 16zM546 181q-40 -77 -126 -77q-85 0 -125 77h251zM321 255q0 -33 -34 -33q-33 0 -33 33q0 34 33 34q14 0 24 -10t10 -24z" />
    <glyph glyph-name="equal" unicode="=" horiz-adv-x="774" 
d="M772 440q0 -241 -131 -329q-87 -101 -220 -101q-134 0 -221 101q-131 89 -131 329q0 115 115 191q105 70 237 70q131 0 236 -70q115 -76 115 -191zM663 256q-51 29 -67 76q-14 43 -53 52q-25 6 -122 6t-122 -6q-39 -9 -53 -52q-16 -48 -68 -76q16 -88 84.5 -144.5
t158.5 -56.5q89 0 157.5 57t84.5 144zM563 215h-72v72h72v-72zM351 215h-72v72h72v-72zM546 181q-40 -77 -126 -77q-85 0 -125 77h251z" />
    <glyph glyph-name="greater" unicode="&#x3e;" horiz-adv-x="1003" 
d="M986 303q14 0 14 -13q0 -40 -57 -86t-99 -48q1 -54 61 -53q14 0 14 -6q0 -21 -57 -39q-46 -15 -74 -15q-51 0 -88 29q-79 -62 -179 -62q-101 0 -180 62q-37 -29 -88 -29q-28 0 -74 15q-57 18 -57 39q0 6 14 6q60 -1 61 53q-42 2 -99 48t-57 86q0 13 14 13q7 0 20.5 -3.5
t20.5 -3.5q56 0 74 77q-48 42 -48 68q0 29 64 28q36 -1 89 62q2 2 71 94q49 53 102 48q61 -6 73 -60q10 54 72 60q53 5 102 -48q69 -92 71 -94q53 -63 89 -62q64 1 64 -28q0 -26 -48 -68q18 -77 74 -77q7 0 20.5 3.5t20.5 3.5zM766 275q-130 9 -245 153q-117 -144 -246 -153
q11 -94 81 -157t165 -63q94 0 164 63t81 157zM689 235h-148q23 45 74 45t74 -45zM501 235h-149q23 45 74 45t75 -45zM646 181q-40 -77 -126 -77q-85 0 -125 77h251z" />
    <glyph glyph-name="question" unicode="?" horiz-adv-x="1005" 
d="M986 303q14 0 14 -13q0 -40 -57 -86t-99 -48q1 -54 61 -53q14 0 14 -6q0 -21 -57 -39q-46 -15 -74 -15q-51 0 -88 29q-79 -62 -179 -62q-101 0 -180 62q-37 -29 -88 -29q-28 0 -74 15q-57 18 -57 39q0 6 14 6q60 -1 61 53q-42 2 -99 48t-57 86q0 13 14 13q7 0 20.5 -3.5
t20.5 -3.5q56 0 74 77q-48 42 -48 68q0 29 64 28q36 -1 89 62q2 2 71 94q49 53 102 48q61 -6 73 -60q10 54 72 60q53 5 102 -48q69 -92 71 -94q53 -63 89 -62q64 1 64 -28q0 -26 -48 -68q18 -77 74 -77q7 0 20.5 3.5t20.5 3.5zM766 275q-130 9 -245 153q-117 -144 -246 -153
q11 -94 81 -157t165 -63q94 0 164 63t81 157zM715 233l-31 -16q-19 36 -59 36q-28 0 -47 -20h-43q29 55 90 55t90 -55zM506 233h-43q-19 20 -47 20q-40 0 -59 -36l-31 16q29 55 90 55t90 -55zM646 181q-40 -77 -126 -77q-85 0 -125 77h251z" />
    <glyph glyph-name="at" unicode="@" horiz-adv-x="1004" 
d="M986 303q14 0 14 -13q0 -40 -57 -86t-99 -48q1 -54 61 -53q14 0 14 -6q0 -21 -57 -39q-46 -15 -74 -15q-51 0 -88 29q-79 -62 -179 -62q-101 0 -180 62q-37 -29 -88 -29q-28 0 -74 15q-57 18 -57 39q0 6 14 6q60 -1 61 53q-42 2 -99 48t-57 86q0 13 14 13q7 0 20.5 -3.5
t20.5 -3.5q56 0 74 77q-48 42 -48 68q0 29 64 28q36 -1 89 62q2 2 71 94q49 53 102 48q61 -6 73 -60q10 54 72 60q53 5 102 -48q69 -92 71 -94q53 -63 89 -62q64 1 64 -28q0 -26 -48 -68q18 -77 74 -77q7 0 20.5 3.5t20.5 3.5zM766 275q-130 9 -245 153q-117 -144 -246 -153
q11 -94 81 -157t165 -63q94 0 164 63t81 157zM688 255q0 -33 -34 -33q-33 0 -33 33q0 34 33 34q14 0 24 -10t10 -24zM646 181q-40 -77 -126 -77q-85 0 -125 77h251zM421 255q0 -33 -34 -33q-33 0 -33 33q0 34 33 34q14 0 24 -10t10 -24z" />
    <glyph glyph-name="A" unicode="A" horiz-adv-x="823" 
d="M817 108l-152 35q-87 -133 -244 -133q-75 0 -139.5 35t-105.5 98l-152 -35q-3 28 -3 63q0 155 65 260q100 162 335 162q234 0 334 -162q65 -105 65 -260q0 -35 -3 -63zM667 302q0 17 -3 35h-487q-3 -18 -3 -35q0 -104 71.5 -175.5t175.5 -71.5q103 0 174.5 72t71.5 175z
M589 235h-148q23 45 74 45t74 -45zM401 235h-149q23 45 74 45t75 -45zM546 181q-40 -77 -126 -77q-85 0 -125 77h251z" />
    <glyph glyph-name="B" unicode="B" horiz-adv-x="823" 
d="M817 108l-152 35q-87 -133 -244 -133q-75 0 -139.5 35t-105.5 98l-152 -35q-3 28 -3 63q0 155 65 260q100 162 335 162q234 0 334 -162q65 -105 65 -260q0 -35 -3 -63zM667 302q0 17 -3 35h-487q-3 -18 -3 -35q0 -104 71.5 -175.5t175.5 -71.5q103 0 174.5 72t71.5 175z
M615 233l-31 -16q-19 36 -59 36q-28 0 -47 -20h-43q29 55 90 55t90 -55zM406 233h-43q-19 20 -47 20q-40 0 -59 -36l-31 16q29 55 90 55t90 -55zM546 181q-40 -77 -126 -77q-85 0 -125 77h251z" />
    <glyph glyph-name="C" unicode="C" horiz-adv-x="820" 
d="M817 108l-152 35q-87 -133 -244 -133q-75 0 -139.5 35t-105.5 98l-152 -35q-3 28 -3 63q0 155 65 260q100 162 335 162q234 0 334 -162q65 -105 65 -260q0 -35 -3 -63zM667 302q0 17 -3 35h-487q-3 -18 -3 -35q0 -104 71.5 -175.5t175.5 -71.5q103 0 174.5 72t71.5 175z
M590 242l-24 -25l-26 25l-25 -25l-24 25l25 25l-25 25l24 25l25 -25l26 25l24 -25l-25 -25zM351 242l-25 -25l-25 25l-25 -25l-25 25l25 25l-25 25l25 25l25 -25l25 25l25 -25l-26 -25zM546 181q-40 -77 -126 -77q-85 0 -125 77h251z" />
    <glyph glyph-name="D" unicode="D" horiz-adv-x="817" 
d="M817 108l-152 35q-87 -133 -244 -133q-75 0 -139.5 35t-105.5 98l-152 -35q-3 28 -3 63q0 155 65 260q100 162 335 162q234 0 334 -162q65 -105 65 -260q0 -35 -3 -63zM667 302q0 17 -3 35h-487q-3 -18 -3 -35q0 -104 71.5 -175.5t175.5 -71.5q103 0 174.5 72t71.5 175z
M588 255q0 -33 -34 -33q-33 0 -33 33q0 34 33 34q14 0 24 -10t10 -24zM546 181q-40 -77 -126 -77q-85 0 -125 77h251zM321 255q0 -33 -34 -33q-33 0 -33 33q0 34 33 34q14 0 24 -10t10 -24z" />
    <glyph glyph-name="E" unicode="E" horiz-adv-x="820" 
d="M817 108l-152 35q-87 -133 -244 -133q-75 0 -139.5 35t-105.5 98l-152 -35q-3 28 -3 63q0 155 65 260q100 162 335 162q234 0 334 -162q65 -105 65 -260q0 -35 -3 -63zM667 302q0 17 -3 35h-487q-3 -18 -3 -35q0 -104 71.5 -175.5t175.5 -71.5q103 0 174.5 72t71.5 175z
M563 215h-72v72h72v-72zM351 215h-72v72h72v-72zM546 181q-40 -77 -126 -77q-85 0 -125 77h251z" />
    <glyph glyph-name="F" unicode="F" horiz-adv-x="761" 
d="M757 362q0 -165 -130 -266q-85 -86 -206 -86q-122 0 -207 86q-130 101 -130 266q0 140 98.5 238t238.5 98t238 -98t98 -238zM479 672q-29 6 -58 6q-30 0 -58 -6l7 -90q14 -10 23 -25q10 2 21 2q13 0 28 -3q10 19 29 29zM454 401q-32 24 -32 69q-3 0 -10 1q1 -44 -29 -68
v-3h71v1zM734 321q-18 75 -72 126l2 5q4 10 4 23q0 43 -38 58l-94 38q-10 4 -24 4q-48 0 -58 -43q-22 7 -41 7q-18 0 -32 -6q-11 42 -58 42q-14 0 -24 -4l-94 -38q-39 -16 -39 -58q0 -12 5 -23l4 -9q-51 -51 -68 -122q5 -43 22 -83q17 92 67 157q19 -25 50 -25q11 0 23 5
l86 35q38 15 38 59q0 9 -2 17l-1 1q12 4 24 4q14 0 30 -6q-2 -8 -2 -16q0 -44 38 -59l86 -35q12 -5 23 -5q34 0 52 29q54 -66 71 -161q17 40 22 83zM647 204q-15 6 -15 24q0 2 6 47q8 59 -81 90q-63 21 -136 21t-136 -21q-89 -31 -81 -90q5 -40 5 -46q0 -19 -15 -25
q29 -68 91 -108.5t136 -40.5t135 40.5t91 108.5zM620 465l-14 -34q-7 -17 -21 -17q-5 0 -12 3l-69 28q-19 8 -14 33l8 37q2 10 12 14q11 4 21 0l75 -30q17 -7 17 -21q0 -6 -3 -13zM589 235h-148q23 45 74 45t74 -45zM345 478q5 -25 -14 -33l-69 -28q-7 -3 -13 -3
q-13 0 -20 17l-14 34q-3 7 -3 13q0 14 17 21l75 30q10 4 20 0q11 -4 13 -14zM401 235h-149q23 45 74 45t75 -45zM546 181q-40 -77 -126 -77q-85 0 -125 77h251zM550 504q0 9 -8 9q-9 0 -9 -9q0 -8 9 -8q8 0 8 8zM530 490q0 14 -14 14t-14 -14t14 -14t14 14zM264 495
q0 6 -6 6t-6 -6t6 -6t6 6zM257 471q0 15 -15 15t-15 -15t15 -15t15 15z" />
    <glyph glyph-name="G" unicode="G" horiz-adv-x="764" 
d="M757 362q0 -165 -130 -266q-85 -86 -206 -86q-122 0 -207 86q-130 101 -130 266q0 140 98.5 238t238.5 98t238 -98t98 -238zM479 672q-29 6 -58 6q-30 0 -58 -6l7 -90q14 -10 23 -25q10 2 21 2q13 0 28 -3q10 19 29 29zM454 401q-32 24 -32 69q-3 0 -10 1q1 -44 -29 -68
v-3h71v1zM734 321q-18 75 -72 126l2 5q4 10 4 23q0 43 -38 58l-94 38q-10 4 -24 4q-48 0 -58 -43q-22 7 -41 7q-18 0 -32 -6q-11 42 -58 42q-14 0 -24 -4l-94 -38q-39 -16 -39 -58q0 -12 5 -23l4 -9q-51 -51 -68 -122q5 -43 22 -83q17 92 67 157q19 -25 50 -25q11 0 23 5
l86 35q38 15 38 59q0 9 -2 17l-1 1q12 4 24 4q14 0 30 -6q-2 -8 -2 -16q0 -44 38 -59l86 -35q12 -5 23 -5q34 0 52 29q54 -66 71 -161q17 40 22 83zM647 204q-23 10 -33 29l-30 -16q-19 36 -59 36q-28 0 -47 -20h-43q29 55 90 55q56 0 86 -48q-6 14 -3 35q8 61 -65 90
q-52 21 -122 21t-122 -21q-73 -29 -65 -90q2 -17 -2 -32q30 45 84 45q61 0 90 -55h-43q-19 20 -47 20q-40 0 -59 -36l-29 15q-10 -18 -34 -28q29 -68 91 -108.5t136 -40.5t135 40.5t91 108.5zM620 465l-14 -34q-7 -17 -21 -17q-5 0 -12 3l-69 28q-19 8 -14 33l8 37
q2 10 12 14q11 4 21 0l75 -30q17 -7 17 -21q0 -6 -3 -13zM345 478q5 -25 -14 -33l-69 -28q-7 -3 -13 -3q-13 0 -20 17l-14 34q-3 7 -3 13q0 14 17 21l75 30q10 4 20 0q11 -4 13 -14zM546 181q-40 -77 -126 -77q-85 0 -125 77h251zM550 504q0 9 -8 9q-9 0 -9 -9q0 -8 9 -8
q8 0 8 8zM530 490q0 14 -14 14t-14 -14t14 -14t14 14zM264 495q0 6 -6 6t-6 -6t6 -6t6 6zM257 471q0 15 -15 15t-15 -15t15 -15t15 15z" />
    <glyph glyph-name="H" unicode="H" horiz-adv-x="758" 
d="M757 362q0 -165 -130 -266q-85 -86 -206 -86q-122 0 -207 86q-130 101 -130 266q0 140 98.5 238t238.5 98t238 -98t98 -238zM479 672q-29 6 -58 6q-30 0 -58 -6l7 -90q14 -10 23 -25q10 2 21 2q13 0 28 -3q10 19 29 29zM454 401q-32 24 -32 69q-3 0 -10 1q1 -44 -29 -68
v-3h71v1zM734 321q-18 75 -72 126l2 5q4 10 4 23q0 43 -38 58l-94 38q-10 4 -24 4q-48 0 -58 -43q-22 7 -41 7q-18 0 -32 -6q-11 42 -58 42q-14 0 -24 -4l-94 -38q-39 -16 -39 -58q0 -12 5 -23l4 -9q-51 -51 -68 -122q5 -43 22 -83q17 92 67 157q19 -25 50 -25q11 0 23 5
l86 35q38 15 38 59q0 9 -2 17l-1 1q12 4 24 4q14 0 30 -6q-2 -8 -2 -16q0 -44 38 -59l86 -35q12 -5 23 -5q34 0 52 29q54 -66 71 -161q17 40 22 83zM647 204q-15 6 -15 24q0 2 6 47q8 59 -81 90q-63 21 -136 21t-136 -21q-89 -31 -81 -90q5 -40 5 -46q0 -19 -15 -25
q30 -69 91 -109t136 -40q74 0 135 40.5t91 108.5zM620 465l-14 -34q-7 -17 -21 -17q-5 0 -12 3l-69 28q-19 8 -14 33l8 37q2 10 12 14q11 4 21 0l75 -30q17 -7 17 -21q0 -6 -3 -13zM590 242l-24 -25l-26 25l-25 -25l-24 25l25 25l-25 25l24 25l25 -25l26 25l24 -25l-25 -25z
M345 478q5 -25 -14 -33l-69 -28q-7 -3 -13 -3q-13 0 -20 17l-14 34q-3 7 -3 13q0 14 17 21l75 30q10 4 20 0q11 -4 13 -14zM351 242l-25 -25l-25 25l-25 -25l-25 25l25 25l-25 25l25 25l25 -25l25 25l25 -25l-26 -25zM546 181q-40 -77 -126 -77q-85 0 -125 77h251zM550 504
q0 9 -8 9q-9 0 -9 -9q0 -8 9 -8q8 0 8 8zM530 490q0 14 -14 14t-14 -14t14 -14t14 14zM264 495q0 6 -6 6t-6 -6t6 -6t6 6zM257 471q0 15 -15 15t-15 -15t15 -15t15 15z" />
    <glyph glyph-name="I" unicode="I" horiz-adv-x="758" 
d="M757 362q0 -165 -130 -266q-85 -86 -206 -86q-122 0 -207 86q-130 101 -130 266q0 140 98.5 238t238.5 98t238 -98t98 -238zM479 672q-29 6 -58 6q-30 0 -58 -6l7 -90q14 -10 23 -25q10 2 21 2q13 0 28 -3q10 19 29 29zM454 401q-32 24 -32 69q-3 0 -10 1q1 -44 -29 -68
v-3h71v1zM734 321q-18 75 -72 126l2 5q4 10 4 23q0 43 -38 58l-94 38q-10 4 -24 4q-48 0 -58 -43q-22 7 -41 7q-18 0 -32 -6q-11 42 -58 42q-14 0 -24 -4l-94 -38q-39 -16 -39 -58q0 -12 5 -23l4 -9q-51 -51 -68 -122q5 -43 22 -83q17 92 67 157q19 -25 50 -25q11 0 23 5
l86 35q38 15 38 59q0 9 -2 17l-1 1q12 4 24 4q14 0 30 -6q-2 -8 -2 -16q0 -44 38 -59l86 -35q12 -5 23 -5q34 0 52 29q54 -66 71 -161q17 40 22 83zM647 204q-15 6 -15 24q0 2 6 47q8 59 -81 90q-63 21 -136 21t-136 -21q-89 -31 -81 -90q5 -40 5 -46q0 -19 -15 -25
q30 -69 91 -109t136 -40q74 0 135 40.5t91 108.5zM620 465l-14 -34q-7 -17 -21 -17q-5 0 -12 3l-69 28q-19 8 -14 33l8 37q2 10 12 14q11 4 21 0l75 -30q17 -7 17 -21q0 -6 -3 -13zM588 255q0 -33 -34 -33q-33 0 -33 33q0 34 33 34q14 0 24 -10t10 -24zM345 478
q5 -25 -14 -33l-69 -28q-7 -3 -13 -3q-13 0 -20 17l-14 34q-3 7 -3 13q0 14 17 21l75 30q10 4 20 0q11 -4 13 -14zM546 181q-40 -77 -126 -77q-85 0 -125 77h251zM321 255q0 -33 -34 -33q-33 0 -33 33q0 34 33 34q14 0 24 -10t10 -24zM550 504q0 9 -8 9q-9 0 -9 -9
q0 -8 9 -8q8 0 8 8zM530 490q0 14 -14 14t-14 -14t14 -14t14 14zM264 495q0 6 -6 6t-6 -6t6 -6t6 6zM257 471q0 15 -15 15t-15 -15t15 -15t15 15z" />
    <glyph glyph-name="J" unicode="J" horiz-adv-x="758" 
d="M757 362q0 -165 -130 -266q-85 -86 -206 -86q-122 0 -207 86q-130 101 -130 266q0 140 98.5 238t238.5 98t238 -98t98 -238zM479 672q-29 6 -58 6q-30 0 -58 -6l7 -90q14 -10 23 -25q10 2 21 2q13 0 28 -3q10 19 29 29zM454 401q-32 24 -32 69q-3 0 -10 1q1 -44 -29 -68
v-3h71v1zM734 321q-18 75 -72 126l2 5q4 10 4 23q0 43 -38 58l-94 38q-10 4 -24 4q-48 0 -58 -43q-22 7 -41 7q-18 0 -32 -6q-11 42 -58 42q-14 0 -24 -4l-94 -38q-39 -16 -39 -58q0 -12 5 -23l4 -9q-51 -51 -68 -122q5 -43 22 -83q17 92 67 157q19 -25 50 -25q11 0 23 5
l86 35q38 15 38 59q0 9 -2 17l-1 1q12 4 24 4q14 0 30 -6q-2 -8 -2 -16q0 -44 38 -59l86 -35q12 -5 23 -5q34 0 52 29q54 -66 71 -161q17 40 22 83zM647 204q-15 6 -15 24q0 2 6 47q8 59 -81 90q-63 21 -136 21t-136 -21q-89 -31 -81 -90q5 -40 5 -46q0 -19 -15 -25
q30 -69 91 -109t136 -40q74 0 135 40.5t91 108.5zM620 465l-14 -34q-7 -17 -21 -17q-5 0 -12 3l-69 28q-19 8 -14 33l8 37q2 10 12 14q11 4 21 0l75 -30q17 -7 17 -21q0 -6 -3 -13zM563 215h-72v72h72v-72zM345 478q5 -25 -14 -33l-69 -28q-7 -3 -13 -3q-13 0 -20 17l-14 34
q-3 7 -3 13q0 14 17 21l75 30q10 4 20 0q11 -4 13 -14zM351 215h-72v72h72v-72zM546 181q-40 -77 -126 -77q-85 0 -125 77h251zM550 504q0 9 -8 9q-9 0 -9 -9q0 -8 9 -8q8 0 8 8zM530 490q0 14 -14 14t-14 -14t14 -14t14 14zM264 495q0 6 -6 6t-6 -6t6 -6t6 6zM257 471
q0 15 -15 15t-15 -15t15 -15t15 15z" />
    <glyph glyph-name="K" unicode="K" horiz-adv-x="805" 
d="M750 793q54 -37 54 -92q0 -89 -127 -197q70 -88 70 -199q0 -68 -27 -138q-29 -74 -54 -74q-13 0 -26 17q-87 -100 -219 -100q-133 0 -220 100q-13 -17 -26 -17q-25 0 -54 74q-27 70 -27 138q0 111 70 199q-127 108 -127 197q0 55 54 92q34 23 66 23q71 0 128 -111
q30 -58 48 -125q42 13 88 13q45 0 87 -13q18 67 48 125q57 111 128 111q32 0 66 -23zM679 711q-50 0 -118 -154q34 -19 63 -46q84 113 84 167q0 33 -29 33zM276 555q-68 156 -119 156q-29 0 -29 -33q0 -54 87 -170q27 27 61 47zM645 206q0 108 -61 153q-52 38 -164 38
q-111 0 -163 -38q-61 -45 -61 -153v-7q31 -66 91.5 -105t133.5 -39t133 38.5t91 105.5v7zM589 235h-148q23 45 74 45t74 -45zM401 235h-149q23 45 74 45t75 -45zM546 181q-40 -77 -126 -77q-85 0 -125 77h251z" />
    <glyph glyph-name="L" unicode="L" horiz-adv-x="805" 
d="M750 793q54 -37 54 -92q0 -89 -127 -197q70 -88 70 -199q0 -68 -27 -138q-29 -74 -54 -74q-13 0 -26 17q-87 -100 -219 -100q-133 0 -220 100q-13 -17 -26 -17q-25 0 -54 74q-27 70 -27 138q0 111 70 199q-127 108 -127 197q0 55 54 92q34 23 66 23q71 0 128 -111
q30 -58 48 -125q42 13 88 13q45 0 87 -13q18 67 48 125q57 111 128 111q32 0 66 -23zM679 711q-50 0 -118 -154q34 -19 63 -46q84 113 84 167q0 33 -29 33zM276 555q-68 156 -119 156q-29 0 -29 -33q0 -54 87 -170q27 27 61 47zM645 206q0 108 -61 153q-52 38 -164 38
q-111 0 -163 -38q-61 -45 -61 -153v-7q31 -66 91.5 -105t133.5 -39t133 38.5t91 105.5v7zM615 233l-31 -16q-19 36 -59 36q-28 0 -47 -20h-43q29 55 90 55t90 -55zM406 233h-43q-19 20 -47 20q-40 0 -59 -36l-31 16q29 55 90 55t90 -55zM546 181q-40 -77 -126 -77
q-85 0 -125 77h251z" />
    <glyph glyph-name="M" unicode="M" horiz-adv-x="805" 
d="M750 793q54 -37 54 -92q0 -89 -127 -197q70 -88 70 -199q0 -68 -27 -138q-29 -74 -54 -74q-13 0 -26 17q-87 -100 -219 -100q-133 0 -220 100q-13 -17 -26 -17q-25 0 -54 74q-27 70 -27 138q0 111 70 199q-127 108 -127 197q0 55 54 92q34 23 66 23q71 0 128 -111
q30 -58 48 -125q42 13 88 13q45 0 87 -13q18 67 48 125q57 111 128 111q32 0 66 -23zM679 711q-50 0 -118 -154q34 -19 63 -46q84 113 84 167q0 33 -29 33zM276 555q-68 156 -119 156q-29 0 -29 -33q0 -54 87 -170q27 27 61 47zM645 206q0 108 -61 153q-52 38 -164 38
q-111 0 -163 -38q-61 -45 -61 -153v-7q31 -66 91.5 -105t133.5 -39t133 38.5t91 105.5v7zM590 242l-24 -25l-26 25l-25 -25l-24 25l25 25l-25 25l24 25l25 -25l26 25l24 -25l-25 -25zM351 242l-25 -25l-25 25l-25 -25l-25 25l25 25l-25 25l25 25l25 -25l25 25l25 -25
l-26 -25zM546 181q-40 -77 -126 -77q-85 0 -125 77h251z" />
    <glyph glyph-name="N" unicode="N" horiz-adv-x="808" 
d="M750 793q54 -37 54 -92q0 -89 -127 -197q70 -88 70 -199q0 -68 -27 -138q-29 -74 -54 -74q-13 0 -26 17q-87 -100 -219 -100q-133 0 -220 100q-13 -17 -26 -17q-25 0 -54 74q-27 70 -27 138q0 111 70 199q-127 108 -127 197q0 55 54 92q34 23 66 23q71 0 128 -111
q30 -58 48 -125q42 13 88 13q45 0 87 -13q18 67 48 125q57 111 128 111q32 0 66 -23zM679 711q-50 0 -118 -154q34 -19 63 -46q84 113 84 167q0 33 -29 33zM276 555q-68 156 -119 156q-29 0 -29 -33q0 -54 87 -170q27 27 61 47zM645 206q0 108 -61 153q-52 38 -164 38
q-111 0 -163 -38q-61 -45 -61 -153v-7q31 -66 91.5 -105t133.5 -39t133 38.5t91 105.5v7zM588 255q0 -33 -34 -33q-33 0 -33 33q0 34 33 34q14 0 24 -10t10 -24zM546 181q-40 -77 -126 -77q-85 0 -125 77h251zM321 255q0 -33 -34 -33q-33 0 -33 33q0 34 33 34q14 0 24 -10
t10 -24z" />
    <glyph glyph-name="O" unicode="O" horiz-adv-x="808" 
d="M750 793q54 -37 54 -92q0 -89 -127 -197q70 -88 70 -199q0 -68 -27 -138q-29 -74 -54 -74q-13 0 -26 17q-87 -100 -219 -100q-133 0 -220 100q-13 -17 -26 -17q-25 0 -54 74q-27 70 -27 138q0 111 70 199q-127 108 -127 197q0 55 54 92q34 23 66 23q71 0 128 -111
q30 -58 48 -125q42 13 88 13q45 0 87 -13q18 67 48 125q57 111 128 111q32 0 66 -23zM679 711q-50 0 -118 -154q34 -19 63 -46q84 113 84 167q0 33 -29 33zM276 555q-68 156 -119 156q-29 0 -29 -33q0 -54 87 -170q27 27 61 47zM645 206q0 108 -61 153q-52 38 -164 38
q-111 0 -163 -38q-61 -45 -61 -153v-7q31 -66 91.5 -105t133.5 -39t133 38.5t91 105.5v7zM563 215h-72v72h72v-72zM351 215h-72v72h72v-72zM546 181q-40 -77 -126 -77q-85 0 -125 77h251z" />
    <glyph glyph-name="P" unicode="P" 
d="M712 302q0 -121 -85 -206.5t-206 -85.5q-122 0 -207 85t-85 207q0 121 85.5 206t206.5 85t206 -85t85 -206zM658 396q-34 5 -34 31q0 10 3 17q6 14 -9 14q-6 0 -9 -6q-5 -21 -5 -26q0 -42 50 -50q12 -2 12 10q0 8 -8 10zM665 332q10 -1 10 10q0 8 -12.5 10.5t-23.5 4.5
q-59 19 -59 68q0 23 20 43q3 3 3 7q0 11 -10 11q-6 0 -14 -13q-19 -24 -19 -50q0 -38 33.5 -64.5t71.5 -26.5zM403 562q0 10 -10 10q-2 0 -5 -1q-37 -23 -56 -69q-7 -16 -22 -16q-13 0 -28 11q-3 2 -6 2q-10 0 -10 -10q0 -5 4 -8q20 -15 41 -15q28 0 39 28q14 34 43 56
q10 8 10 12zM494 553q0 12 -12 10q-35 -7 -66 -36t-45 -65q-16 -40 -54 -40q-25 0 -61 19l-23 12q-10 0 -10 -10q0 -5 4 -8q46 -32 90 -32q52 0 72 51q26 64 87 86q18 6 18 13zM540 511q9 1 9 10q0 11 -11 10q-39 -2 -77 -32q-33 -26 -53 -64q-32 -62 -107 -62q-49 0 -96 25
q-3 1 -5 1q-10 0 -10 -10q0 -6 5 -9q51 -27 107 -27q62 0 95 34q25 35 50 69q31 42 81 53q9 2 12 2zM667 302v8q-127 19 -127 112q0 27 13 60q-63 -3 -87 -57q-16 -35 -64 -69q-58 -40 -119 -40q-55 0 -105 32q-4 -23 -4 -46q0 -104 71.5 -175.5t175.5 -71.5q103 0 174.5 72
t71.5 175zM589 235h-148q23 45 74 45t74 -45zM401 235h-149q23 45 74 45t75 -45zM546 181q-40 -77 -126 -77q-85 0 -125 77h251z" />
    <glyph glyph-name="Q" unicode="Q" 
d="M712 302q0 -121 -85 -206.5t-206 -85.5q-122 0 -207 85t-85 207q0 121 85.5 206t206.5 85t206 -85t85 -206zM658 396q-34 5 -34 31q0 10 3 17q6 14 -9 14q-6 0 -9 -6q-5 -21 -5 -26q0 -42 50 -50q12 -2 12 10q0 8 -8 10zM665 332q10 -1 10 10q0 8 -12.5 10.5t-23.5 4.5
q-59 19 -59 68q0 23 20 43q3 3 3 7q0 11 -10 11q-6 0 -14 -13q-19 -24 -19 -50q0 -38 33.5 -64.5t71.5 -26.5zM403 562q0 10 -10 10q-2 0 -5 -1q-37 -23 -56 -69q-7 -16 -22 -16q-13 0 -28 11q-3 2 -6 2q-10 0 -10 -10q0 -5 4 -8q20 -15 41 -15q28 0 39 28q14 34 43 56
q10 8 10 12zM494 553q0 12 -12 10q-35 -7 -66 -36t-45 -65q-16 -40 -54 -40q-25 0 -61 19l-23 12q-10 0 -10 -10q0 -5 4 -8q46 -32 90 -32q52 0 72 51q26 64 87 86q18 6 18 13zM540 511q9 1 9 10q0 11 -11 10q-39 -2 -77 -32q-33 -26 -53 -64q-32 -62 -107 -62q-49 0 -96 25
q-3 1 -5 1q-10 0 -10 -10q0 -6 5 -9q51 -27 107 -27q62 0 95 34q25 35 50 69q31 42 81 53q9 2 12 2zM667 302v8q-127 19 -127 112q0 27 13 60q-63 -3 -87 -57q-16 -35 -64 -69q-58 -40 -119 -40q-55 0 -105 32q-4 -23 -4 -46q0 -104 71.5 -175.5t175.5 -71.5q103 0 174.5 72
t71.5 175zM615 233l-31 -16q-19 36 -59 36q-28 0 -47 -20h-43q29 55 90 55t90 -55zM406 233h-43q-19 20 -47 20q-40 0 -59 -36l-31 16q29 55 90 55t90 -55zM546 181q-40 -77 -126 -77q-85 0 -125 77h251z" />
    <glyph glyph-name="R" unicode="R" 
d="M712 302q0 -121 -85 -206.5t-206 -85.5q-122 0 -207 85t-85 207q0 121 85.5 206t206.5 85t206 -85t85 -206zM666 386q0 8 -8 10q-34 5 -34 31q0 10 3 17q6 14 -9 14q-6 0 -9 -6q-5 -21 -5 -26q0 -42 50 -50q12 -2 12 10zM675 342q0 8 -12.5 10.5t-23.5 4.5q-59 19 -59 68
q0 23 20 43q3 3 3 7q0 11 -10 11q-6 0 -14 -13q-19 -24 -19 -50q0 -38 33.5 -64.5t71.5 -26.5q10 -1 10 10zM667 302v8q-75 11 -106 48v0l10 -21l20 -9q19 -8 24 -23l51 -31q1 14 1 28zM549 521q0 11 -11 10q-39 -2 -77 -32q-33 -26 -53 -64q-26 -51 -81 -60q4 -3 8 -7
l9 -10q55 14 82 67q35 69 102 84q9 2 12 2q9 1 9 10zM553 482q-63 -3 -87 -57q-19 -43 -80 -79q22 -8 22 -30q0 -12 -7 -24v-1q7 2 16 2q8 0 16 -2l-1 1q-7 12 -7 24q0 29 36 33l23 2l15 17q14 15 30 15q12 0 22 -9q-11 21 -11 48t13 60zM403 562q0 10 -10 10q-2 0 -5 -1
q-37 -23 -56 -69q-7 -16 -22 -16q-13 0 -28 11q-3 2 -6 2q-10 0 -10 -10q0 -5 4 -8q20 -15 41 -15q28 0 39 28q14 35 50 61q3 2 3 7zM494 553q0 12 -12 10q-35 -7 -66 -36t-45 -65q-16 -40 -54 -40q-25 0 -61 19l-23 12q-10 0 -10 -10q0 -5 4 -8q46 -32 90 -32q52 0 72 51
q26 64 87 86q18 6 18 13zM576 294l-34 15l-15 34l-25 -28l-37 -4l19 -32l-8 -37l36 8l33 -19l3 38zM283 374q-40 4 -78 24q-3 1 -5 1q-10 0 -10 -10q0 -6 5 -9q37 -19 76 -25l1 3q5 10 11 16zM369 311l-37 4l-25 28l-15 -34l-35 -15l28 -25l4 -38l32 19l37 -8l-8 37z
M658 232l-57 33l-17 -15l-2 -22q-4 -36 -33 -36q-11 0 -23 7l-20 12l-22 -5q-6 -2 -12 -2q-34 0 -34 34q0 6 1 12l2 7q-15 6 -24 6q-10 0 -23 -7l1 -6q1 -6 1 -12q0 -34 -34 -34q-6 0 -12 2l-22 5l-20 -12q-12 -7 -23 -7q-30 0 -33 36l-3 22l-17 16l-50 -29q16 -62 64 -110
q72 -72 175 -72q102 0 174 72q46 46 63 105zM233 323q-28 8 -55 25q-4 -23 -4 -46q0 -11 1 -22l45 28q4 8 13 15zM546 181q-40 -77 -126 -77q-85 0 -125 77h251z" />
    <glyph glyph-name="S" unicode="S" 
d="M712 302q0 -121 -85 -206.5t-206 -85.5q-122 0 -207 85t-85 207q0 121 85.5 206t206.5 85t206 -85t85 -206zM658 396q-34 5 -34 31q0 10 3 17q6 14 -9 14q-6 0 -9 -6q-5 -21 -5 -26q0 -42 50 -50q12 -2 12 10q0 8 -8 10zM665 332q10 -1 10 10q0 8 -12.5 10.5t-23.5 4.5
q-59 19 -59 68q0 23 20 43q3 3 3 7q0 11 -10 11q-6 0 -14 -13q-19 -24 -19 -50q0 -38 33.5 -64.5t71.5 -26.5zM403 562q0 10 -10 10q-2 0 -5 -1q-37 -23 -56 -69q-7 -16 -22 -16q-13 0 -28 11q-3 2 -6 2q-10 0 -10 -10q0 -5 4 -8q20 -15 41 -15q28 0 39 28q14 34 43 56
q10 8 10 12zM494 553q0 12 -12 10q-35 -7 -66 -36t-45 -65q-16 -40 -54 -40q-25 0 -61 19l-23 12q-10 0 -10 -10q0 -5 4 -8q46 -32 90 -32q52 0 72 51q26 64 87 86q18 6 18 13zM540 511q9 1 9 10q0 11 -11 10q-39 -2 -77 -32q-33 -26 -53 -64q-32 -62 -107 -62q-49 0 -96 25
q-3 1 -5 1q-10 0 -10 -10q0 -6 5 -9q51 -27 107 -27q62 0 95 34q25 35 50 69q31 42 81 53q9 2 12 2zM667 302v8q-127 19 -127 112q0 27 13 60q-63 -3 -87 -57q-16 -35 -64 -69q-58 -40 -119 -40q-55 0 -105 32q-4 -23 -4 -46q0 -104 71.5 -175.5t175.5 -71.5q103 0 174.5 72
t71.5 175zM588 255q0 -33 -34 -33q-33 0 -33 33q0 34 33 34q14 0 24 -10t10 -24zM546 181q-40 -77 -126 -77q-85 0 -125 77h251zM321 255q0 -33 -34 -33q-33 0 -33 33q0 34 33 34q14 0 24 -10t10 -24z" />
    <glyph glyph-name="T" unicode="T" 
d="M712 302q0 -121 -85 -206.5t-206 -85.5q-122 0 -207 85t-85 207q0 121 85.5 206t206.5 85t206 -85t85 -206zM658 396q-34 5 -34 31q0 10 3 17q6 14 -9 14q-6 0 -9 -6q-5 -21 -5 -26q0 -42 50 -50q12 -2 12 10q0 8 -8 10zM665 332q10 -1 10 10q0 8 -12.5 10.5t-23.5 4.5
q-59 19 -59 68q0 23 20 43q3 3 3 7q0 11 -10 11q-6 0 -14 -13q-19 -24 -19 -50q0 -38 33.5 -64.5t71.5 -26.5zM403 562q0 10 -10 10q-2 0 -5 -1q-37 -23 -56 -69q-7 -16 -22 -16q-13 0 -28 11q-3 2 -6 2q-10 0 -10 -10q0 -5 4 -8q20 -15 41 -15q28 0 39 28q14 34 43 56
q10 8 10 12zM494 553q0 12 -12 10q-35 -7 -66 -36t-45 -65q-16 -40 -54 -40q-25 0 -61 19l-23 12q-10 0 -10 -10q0 -5 4 -8q46 -32 90 -32q52 0 72 51q26 64 87 86q18 6 18 13zM540 511q9 1 9 10q0 11 -11 10q-39 -2 -77 -32q-33 -26 -53 -64q-32 -62 -107 -62q-49 0 -96 25
q-3 1 -5 1q-10 0 -10 -10q0 -6 5 -9q51 -27 107 -27q62 0 95 34q25 35 50 69q31 42 81 53q9 2 12 2zM667 302v8q-127 19 -127 112q0 27 13 60q-63 -3 -87 -57q-16 -35 -64 -69q-58 -40 -119 -40q-55 0 -105 32q-4 -23 -4 -46q0 -104 71.5 -175.5t175.5 -71.5q103 0 174.5 72
t71.5 175zM563 215h-72v72h72v-72zM351 215h-72v72h72v-72zM546 181q-40 -77 -126 -77q-85 0 -125 77h251z" />
    <glyph glyph-name="U" unicode="U" horiz-adv-x="876" 
d="M837 275q38 -23 38 -69q0 -62 -54 -121q-26 -28 -71 -28q-32 0 -65 13q-9 -3 -16 -3q-20 0 -33 38q-87 -95 -215 -95q-93 0 -168 53q-15 -16 -46 -12q-44 -36 -93 -36q-51 0 -88.5 37.5t-37.5 88.5q0 50 30 100q-17 23 -17 69q0 50 21 91q24 49 69 55q37 5 61 38
q14 24 42 71q71 112 201 112q61 0 163 -43q35 -15 31 -69q7 5 17 5q26 0 54 -31q49 -104 122 -133q58 -23 58 -98q0 -18 -3 -33zM667 298q-92 47 -117 186q-125 -115 -223 -130q-117 -18 -152 -70q6 -97 77 -163t169 -66q102 0 173 70.5t73 172.5zM589 235h-148q23 45 74 45
t74 -45zM401 235h-149q23 45 74 45t75 -45zM546 181q-40 -77 -126 -77q-85 0 -125 77h251z" />
    <glyph glyph-name="V" unicode="V" horiz-adv-x="880" 
d="M837 275q38 -23 38 -69q0 -62 -54 -121q-26 -28 -71 -28q-32 0 -65 13q-9 -3 -16 -3q-20 0 -33 38q-87 -95 -215 -95q-93 0 -168 53q-15 -16 -46 -12q-44 -36 -93 -36q-51 0 -88.5 37.5t-37.5 88.5q0 50 30 100q-17 23 -17 69q0 50 21 91q24 49 69 55q37 5 61 38
q14 24 42 71q71 112 201 112q61 0 163 -43q35 -15 31 -69q7 5 17 5q26 0 54 -31q49 -104 122 -133q58 -23 58 -98q0 -18 -3 -33zM667 298q-92 47 -117 186q-125 -115 -223 -130q-117 -18 -152 -70q6 -97 77 -163t169 -66q102 0 173 70.5t73 172.5zM615 233l-31 -16
q-19 36 -59 36q-28 0 -47 -20h-43q29 55 90 55t90 -55zM406 233h-43q-19 20 -47 20q-40 0 -59 -36l-31 16q29 55 90 55t90 -55zM546 181q-40 -77 -126 -77q-85 0 -125 77h251z" />
    <glyph glyph-name="W" unicode="W" horiz-adv-x="875" 
d="M837 275q38 -23 38 -69q0 -62 -54 -121q-26 -28 -71 -28q-32 0 -65 13q-9 -3 -16 -3q-20 0 -33 38q-87 -95 -215 -95q-93 0 -168 53q-15 -16 -46 -12q-44 -36 -93 -36q-51 0 -88.5 37.5t-37.5 88.5q0 50 30 100q-17 23 -17 69q0 50 21 91q24 49 69 55q37 5 61 38
q14 24 42 71q71 112 201 112q61 0 163 -43q35 -15 31 -69q7 5 17 5q26 0 54 -31q49 -104 122 -133q58 -23 58 -98q0 -18 -3 -33zM667 298q-92 47 -117 186q-125 -115 -223 -130q-117 -18 -152 -70q6 -97 77 -163t169 -66q102 0 173 70.5t73 172.5zM590 242l-24 -25l-26 25
l-25 -25l-24 25l25 25l-25 25l24 25l25 -25l26 25l24 -25l-25 -25zM351 242l-25 -25l-25 25l-25 -25l-25 25l25 25l-25 25l25 25l25 -25l25 25l25 -25l-26 -25zM546 181q-40 -77 -126 -77q-85 0 -125 77h251z" />
    <glyph glyph-name="X" unicode="X" horiz-adv-x="876" 
d="M837 275q38 -23 38 -69q0 -62 -54 -121q-26 -28 -71 -28q-32 0 -65 13q-9 -3 -16 -3q-20 0 -33 38q-87 -95 -215 -95q-93 0 -168 53q-15 -16 -46 -12q-44 -36 -93 -36q-51 0 -88.5 37.5t-37.5 88.5q0 50 30 100q-17 23 -17 69q0 50 21 91q24 49 69 55q37 5 61 38
q14 24 42 71q71 112 201 112q61 0 163 -43q35 -15 31 -69q7 5 17 5q26 0 54 -31q49 -104 122 -133q58 -23 58 -98q0 -18 -3 -33zM667 298q-92 47 -117 186q-125 -115 -223 -130q-117 -18 -152 -70q6 -97 77 -163t169 -66q102 0 173 70.5t73 172.5zM588 255q0 -33 -34 -33
q-33 0 -33 33q0 34 33 34q14 0 24 -10t10 -24zM546 181q-40 -77 -126 -77q-85 0 -125 77h251zM321 255q0 -33 -34 -33q-33 0 -33 33q0 34 33 34q14 0 24 -10t10 -24z" />
    <glyph glyph-name="Y" unicode="Y" horiz-adv-x="878" 
d="M837 275q38 -23 38 -69q0 -62 -54 -121q-26 -28 -71 -28q-32 0 -65 13q-9 -3 -16 -3q-20 0 -33 38q-87 -95 -215 -95q-93 0 -168 53q-15 -16 -46 -12q-44 -36 -93 -36q-51 0 -88.5 37.5t-37.5 88.5q0 50 30 100q-17 23 -17 69q0 50 21 91q24 49 69 55q37 5 61 38
q14 24 42 71q71 112 201 112q61 0 163 -43q35 -15 31 -69q7 5 17 5q26 0 54 -31q49 -104 122 -133q58 -23 58 -98q0 -18 -3 -33zM667 298q-92 47 -117 186q-125 -115 -223 -130q-117 -18 -152 -70q6 -97 77 -163t169 -66q102 0 173 70.5t73 172.5zM563 215h-72v72h72v-72z
M351 215h-72v72h72v-72zM546 181q-40 -77 -126 -77q-85 0 -125 77h251z" />
    <glyph glyph-name="Z" unicode="Z" horiz-adv-x="802" 
d="M798 277q0 -56 -23 -104q-29 -60 -79 -60q-32 0 -46 8q-88 -111 -229 -111q-144 0 -231 113q-14 -10 -49 -10q-51 0 -80 60q-23 48 -23 104t23 104q30 59 80 59q11 0 21 -3q38 72 107.5 114t151.5 42q81 0 150 -42t107 -113q8 2 18 2q50 0 79 -60q23 -48 23 -103z
M667 293q-32 21 -111 53q-65 27 -91 53q-38 40 -43 115q-8 -121 -90 -147q-88 -28 -158 -76q5 -100 76 -168t171 -68t171 69t75 169zM589 235h-148q23 45 74 45t74 -45zM401 235h-149q23 45 74 45t75 -45zM546 181q-40 -77 -126 -77q-85 0 -125 77h251z" />
    <glyph glyph-name="bracketleft" unicode="[" horiz-adv-x="800" 
d="M798 277q0 -56 -23 -104q-29 -60 -79 -60q-32 0 -46 8q-88 -111 -229 -111q-144 0 -231 113q-14 -10 -49 -10q-51 0 -80 60q-23 48 -23 104t23 104q30 59 80 59q11 0 21 -3q38 72 107.5 114t151.5 42q81 0 150 -42t107 -113q8 2 18 2q50 0 79 -60q23 -48 23 -103z
M667 293q-32 21 -111 53q-65 27 -91 53q-38 40 -43 115q-8 -121 -90 -147q-88 -28 -158 -76q5 -100 76 -168t171 -68t171 69t75 169zM615 233l-31 -16q-19 36 -59 36q-28 0 -47 -20h-43q29 55 90 55t90 -55zM406 233h-43q-19 20 -47 20q-40 0 -59 -36l-31 16q29 55 90 55
t90 -55zM546 181q-40 -77 -126 -77q-85 0 -125 77h251z" />
    <glyph glyph-name="backslash" unicode="\" 
d="M712 302q0 -121 -85 -206.5t-206 -85.5q-122 0 -207 85t-85 207q0 121 85.5 206t206.5 85t206 -85t85 -206zM175 280l45 28q6 13 22 20l21 9l9 21q12 25 33 25q16 0 30 -15l15 -17l23 -2q35 -4 35 -33q0 -12 -7 -24v-1q7 2 16 2q8 0 16 -2l-1 1q-7 12 -7 24q0 29 36 33
l23 2l15 17q14 15 30 15q21 0 32 -25l10 -21l20 -9q19 -8 24 -23l51 -31q1 14 1 28q0 103 -71.5 174.5t-174.5 71.5t-175 -71.5t-72 -174.5q0 -11 1 -22zM232 266l-50 -29q16 -62 64 -110q72 -72 175 -72q102 0 174 72q46 46 63 105l-57 33l-17 -15l-2 -22q-4 -36 -33 -36
q-11 0 -23 7l-20 12l-22 -5q-6 -2 -12 -2q-34 0 -34 34q0 6 1 12l2 7q-15 6 -24 6q-10 0 -23 -7l1 -6q1 -6 1 -12q0 -34 -34 -34q-6 0 -12 2l-22 5l-20 -12q-12 -7 -23 -7q-30 0 -33 36l-3 22zM576 294l-34 15l-15 34l-25 -28l-37 -4l19 -32l-8 -37l36 8l33 -19l3 38z
M369 311l-37 4l-25 28l-15 -34l-35 -15l28 -25l4 -38l32 19l37 -8l-8 37zM546 181q-40 -77 -126 -77q-85 0 -125 77h251z" />
    <glyph glyph-name="bracketright" unicode="]" horiz-adv-x="803" 
d="M798 277q0 -56 -23 -104q-29 -60 -79 -60q-32 0 -46 8q-88 -111 -229 -111q-144 0 -231 113q-14 -10 -49 -10q-51 0 -80 60q-23 48 -23 104t23 104q30 59 80 59q11 0 21 -3q38 72 107.5 114t151.5 42q81 0 150 -42t107 -113q8 2 18 2q50 0 79 -60q23 -48 23 -103z
M667 293q-32 21 -111 53q-65 27 -91 53q-38 40 -43 115q-8 -121 -90 -147q-88 -28 -158 -76q5 -100 76 -168t171 -68t171 69t75 169zM588 255q0 -33 -34 -33q-33 0 -33 33q0 34 33 34q14 0 24 -10t10 -24zM546 181q-40 -77 -126 -77q-85 0 -125 77h251zM321 255
q0 -33 -34 -33q-33 0 -33 33q0 34 33 34q14 0 24 -10t10 -24z" />
    <glyph glyph-name="asciicircum" unicode="^" 
d="M131 262q-74 -57 -112 -57q-24 0 -24 30q0 22 17 81.5t17 79.5q0 44 31 75t75 31q32 0 58 -18q90 109 228 109q137 0 227 -109q27 18 60 18q43 0 74.5 -31t31.5 -75q0 -20 16.5 -79.5t16.5 -81.5q0 -30 -23 -30q-39 0 -114 58q-12 -96 -83 -167q-86 -86 -206 -86
q-121 0 -206 86q-72 71 -84 166zM667 302q0 14 -1 28q-31 15 -61 29q-43 26 -43 65q0 8 2 17q-15 7 -28 7q-26 0 -26 -30q0 -12 5 -30q-75 -6 -75 52q0 9 2 20q-30 -93 -110 -89l3 -3l15 -17l23 -2q35 -4 35 -33q0 -12 -7 -24v-1q7 2 16 2q8 0 16 -2l-1 1q-7 12 -7 24
q0 29 36 33l23 2l15 17q14 15 30 15q21 0 32 -25l10 -21l20 -9q19 -8 24 -23l51 -31q1 14 1 28zM576 294l-34 15l-15 34l-25 -28l-37 -4l19 -32l-8 -37l36 8l33 -19l3 38zM369 311l-37 4l-25 28l-15 -34l-35 -15l28 -25l4 -38l32 19l37 -8l-8 37zM658 232l-57 33l-17 -15
l-2 -22q-4 -36 -33 -36q-11 0 -23 7l-20 12l-22 -5q-6 -2 -12 -2q-34 0 -34 34q0 6 1 12l2 7q-15 6 -24 6q-10 0 -23 -7l1 -6q1 -6 1 -12q0 -34 -34 -34q-6 0 -12 2l-22 5l-20 -12q-12 -7 -23 -7q-30 0 -33 36l-3 22l-17 16l-50 -29q16 -62 64 -110q72 -72 175 -72
q102 0 174 72q46 46 63 105zM254 333q-37 -5 -76 14q-4 -22 -4 -45q0 -11 1 -22l45 28q6 13 22 20zM546 181q-40 -77 -126 -77q-85 0 -125 77h251z" />
    <glyph glyph-name="underscore" unicode="_" horiz-adv-x="821" 
d="M804 280q8 -19 8 -37q0 -33 -28 -61q7 -59 -44 -89q-9 -59 -66 -76q-23 -54 -83 -55q-28 -36 -68 -36q-13 0 -27 4q-26 -20 -53 -20q-23 0 -46 13q-20 -8 -38 -8q-33 0 -61 28q-59 -7 -89 44q-59 8 -75 66q-55 23 -56 83q-36 28 -36 68q0 13 4 27q-20 26 -20 53
q0 23 13 46q-7 20 -7 38q0 32 27 60q-7 60 44 90q9 59 66 75q24 55 83 56q28 36 68 36q13 0 27 -4q26 20 54 20q22 0 46 -13q19 7 37 7q33 0 61 -27q59 7 89 -44q59 -9 75 -66q55 -24 56 -83q36 -28 36 -68q0 -13 -4 -27q20 -26 20 -54q0 -22 -13 -46zM757 283q19 25 19 43
q0 20 -25 45q9 21 9 35q0 27 -37 48q2 11 2 20q0 40 -51 53q-3 33 -18 45.5t-48 12.5q-17 44 -49 44q-12 0 -29 -5q-24 31 -47 31q-16 0 -39 -14q-25 19 -43 19q-21 0 -45 -25q-21 9 -36 9q-26 0 -47 -37q-11 1 -20 1q-40 0 -53 -50q-33 -4 -45.5 -18.5t-12.5 -47.5
q-44 -17 -44 -49q0 -12 5 -30q-31 -23 -31 -46q0 -16 14 -40q-19 -24 -19 -42q0 -21 25 -45q-9 -21 -9 -36q0 -27 37 -47q-2 -11 -2 -20q0 -41 51 -53q4 -33 18.5 -46t47.5 -12q17 -44 49 -44q12 0 29 5q24 -31 47 -31q16 0 40 14q24 -20 42 -20q21 0 45 26q21 -9 36 -9
q26 0 47 37q11 -2 20 -2q41 0 53 51q33 3 46 18t12 48q44 17 44 49q0 12 -5 29q31 24 31 47q0 16 -14 39zM694 313q-10 -19 -10 -39q0 -16 6 -32q-26 -29 -23 -67q-33 -22 -40 -60q-36 -11 -53 -45q-25 -1 -47 -18q26 -15 26 -43q0 -16 -19 -26q-15 -8 -33 -8q-26 0 -46 23
l-7 8q-9 6 -25 19l-1 -1q-23 -37 -25 -40q-16 -19 -40 -19q-17 0 -32.5 12.5t-15.5 28.5q0 26 28 40q-17 6 -36 4q-21 33 -60 40q-12 37 -47 54q-2 38 -31 64q2 10 2 20q0 26 -16 49q10 20 10 41q0 15 -5 31q26 29 23 67q32 21 39 60q37 11 54 47q39 2 64 31q10 -2 20 -2
q27 0 50 16q20 -10 40 -10q15 0 31 5q29 -26 67 -23q22 -32 60 -39q12 -37 47 -54q2 -39 31 -64q-2 -10 -2 -20q0 -27 16 -50zM667 302q0 103 -71.5 174.5t-174.5 71.5t-175 -71.5t-72 -174.5q0 -90 57 -159t146 -84l20 2q6 0 10 -2q5 4 12 3q8 -1 11 -7h4q9 8 49 8
q82 22 133 88t51 151zM523 11q-3 22 -39 22q-12 0 -20 -1q3 -2 6 -6l7 -7q14 -14 24 -14q13 0 22 6zM390 30q-51 -6 -51 -24q9 -11 18 -11q11 0 33 35zM589 235h-148q23 45 74 45t74 -45zM401 235h-149q23 45 74 45t75 -45zM546 181q-40 -77 -126 -77q-85 0 -125 77h251z
" />
    <glyph glyph-name="grave" unicode="`" horiz-adv-x="819" 
d="M804 280q8 -19 8 -37q0 -33 -28 -61q7 -59 -44 -89q-9 -59 -66 -76q-23 -54 -83 -55q-28 -36 -68 -36q-13 0 -27 4q-26 -20 -53 -20q-23 0 -46 13q-20 -8 -38 -8q-33 0 -61 28q-59 -7 -89 44q-59 8 -75 66q-55 23 -56 83q-36 28 -36 68q0 13 4 27q-20 26 -20 53
q0 23 13 46q-7 20 -7 38q0 32 27 60q-7 60 44 90q9 59 66 75q24 55 83 56q28 36 68 36q13 0 27 -4q26 20 54 20q22 0 46 -13q19 7 37 7q33 0 61 -27q59 7 89 -44q59 -9 75 -66q55 -24 56 -83q36 -28 36 -68q0 -13 -4 -27q20 -26 20 -54q0 -22 -13 -46zM757 283q19 25 19 43
q0 20 -25 45q9 21 9 35q0 27 -37 48q2 11 2 20q0 40 -51 53q-3 33 -18 45.5t-48 12.5q-17 44 -49 44q-12 0 -29 -5q-24 31 -47 31q-16 0 -39 -14q-25 19 -43 19q-21 0 -45 -25q-21 9 -36 9q-26 0 -47 -37q-11 1 -20 1q-40 0 -53 -50q-33 -4 -45.5 -18.5t-12.5 -47.5
q-44 -17 -44 -49q0 -12 5 -30q-31 -23 -31 -46q0 -16 14 -40q-19 -24 -19 -42q0 -21 25 -45q-9 -21 -9 -36q0 -27 37 -47q-2 -11 -2 -20q0 -41 51 -53q4 -33 18.5 -46t47.5 -12q17 -44 49 -44q12 0 29 5q24 -31 47 -31q16 0 40 14q24 -20 42 -20q21 0 45 26q21 -9 36 -9
q26 0 47 37q11 -2 20 -2q41 0 53 51q33 3 46 18t12 48q44 17 44 49q0 12 -5 29q31 24 31 47q0 16 -14 39zM694 313q-10 -19 -10 -39q0 -16 6 -32q-26 -29 -23 -67q-33 -22 -40 -60q-36 -11 -53 -45q-25 -1 -47 -18q26 -15 26 -43q0 -16 -19 -26q-15 -8 -33 -8q-26 0 -46 23
l-7 8q-9 6 -25 19l-1 -1q-23 -37 -25 -40q-16 -19 -40 -19q-17 0 -32.5 12.5t-15.5 28.5q0 26 28 40q-17 6 -36 4q-21 33 -60 40q-12 37 -47 54q-2 38 -31 64q2 10 2 20q0 26 -16 49q10 20 10 41q0 15 -5 31q26 29 23 67q32 21 39 60q37 11 54 47q39 2 64 31q10 -2 20 -2
q27 0 50 16q20 -10 40 -10q15 0 31 5q29 -26 67 -23q22 -32 60 -39q12 -37 47 -54q2 -39 31 -64q-2 -10 -2 -20q0 -27 16 -50zM667 302q0 103 -71.5 174.5t-174.5 71.5t-175 -71.5t-72 -174.5q0 -90 57 -159t146 -84l20 2q6 0 10 -2q5 4 12 3q8 -1 11 -7h4q9 8 49 8
q82 22 133 88t51 151zM523 11q-3 22 -39 22q-12 0 -20 -1q3 -2 6 -6l7 -7q14 -14 24 -14q13 0 22 6zM390 30q-51 -6 -51 -24q9 -11 18 -11q11 0 33 35zM615 233l-31 -16q-19 36 -59 36q-28 0 -47 -20h-43q29 55 90 55t90 -55zM406 233h-43q-19 20 -47 20q-40 0 -59 -36
l-31 16q29 55 90 55t90 -55zM546 181q-40 -77 -126 -77q-85 0 -125 77h251z" />
    <glyph glyph-name="a" unicode="a" horiz-adv-x="821" 
d="M804 280q8 -19 8 -37q0 -33 -28 -61q7 -59 -44 -89q-9 -59 -66 -76q-23 -54 -83 -55q-28 -36 -68 -36q-13 0 -27 4q-26 -20 -53 -20q-23 0 -46 13q-20 -8 -38 -8q-33 0 -61 28q-59 -7 -89 44q-59 8 -75 66q-55 23 -56 83q-36 28 -36 68q0 13 4 27q-20 26 -20 53
q0 23 13 46q-7 20 -7 38q0 32 27 60q-7 60 44 90q9 59 66 75q24 55 83 56q28 36 68 36q13 0 27 -4q26 20 54 20q22 0 46 -13q19 7 37 7q33 0 61 -27q59 7 89 -44q59 -9 75 -66q55 -24 56 -83q36 -28 36 -68q0 -13 -4 -27q20 -26 20 -54q0 -22 -13 -46zM757 283q19 25 19 43
q0 20 -25 45q9 21 9 35q0 27 -37 48q2 11 2 20q0 40 -51 53q-3 33 -18 45.5t-48 12.5q-17 44 -49 44q-12 0 -29 -5q-24 31 -47 31q-16 0 -39 -14q-25 19 -43 19q-21 0 -45 -25q-21 9 -36 9q-26 0 -47 -37q-11 1 -20 1q-40 0 -53 -50q-33 -4 -45.5 -18.5t-12.5 -47.5
q-44 -17 -44 -49q0 -12 5 -30q-31 -23 -31 -46q0 -16 14 -40q-19 -24 -19 -42q0 -21 25 -45q-9 -21 -9 -36q0 -27 37 -47q-2 -11 -2 -20q0 -41 51 -53q4 -33 18.5 -46t47.5 -12q17 -44 49 -44q12 0 29 5q24 -31 47 -31q16 0 40 14q24 -20 42 -20q21 0 45 26q21 -9 36 -9
q26 0 47 37q11 -2 20 -2q41 0 53 51q33 3 46 18t12 48q44 17 44 49q0 12 -5 29q31 24 31 47q0 16 -14 39zM694 313q-10 -19 -10 -39q0 -16 6 -32q-26 -29 -23 -67q-33 -22 -40 -60q-36 -11 -53 -45q-25 -1 -47 -18q26 -15 26 -43q0 -16 -19 -26q-15 -8 -33 -8q-26 0 -46 23
l-7 8q-9 6 -25 19l-1 -1q-23 -37 -25 -40q-16 -19 -40 -19q-17 0 -32.5 12.5t-15.5 28.5q0 26 28 40q-17 6 -36 4q-21 33 -60 40q-12 37 -47 54q-2 38 -31 64q2 10 2 20q0 26 -16 49q10 20 10 41q0 15 -5 31q26 29 23 67q32 21 39 60q37 11 54 47q39 2 64 31q10 -2 20 -2
q27 0 50 16q20 -10 40 -10q15 0 31 5q29 -26 67 -23q22 -32 60 -39q12 -37 47 -54q2 -39 31 -64q-2 -10 -2 -20q0 -27 16 -50zM667 302q0 103 -71.5 174.5t-174.5 71.5t-175 -71.5t-72 -174.5q0 -90 57 -159t146 -84l20 2q6 0 10 -2q5 4 12 3q8 -1 11 -7h4q9 8 49 8
q82 22 133 88t51 151zM523 11q-3 22 -39 22q-12 0 -20 -1q3 -2 6 -6l7 -7q14 -14 24 -14q13 0 22 6zM390 30q-51 -6 -51 -24q9 -11 18 -11q11 0 33 35zM590 242l-24 -25l-26 25l-25 -25l-24 25l25 25l-25 25l24 25l25 -25l26 25l24 -25l-25 -25zM351 242l-25 -25l-25 25
l-25 -25l-25 25l25 25l-25 25l25 25l25 -25l25 25l25 -25l-26 -25zM546 181q-40 -77 -126 -77q-85 0 -125 77h251z" />
    <glyph glyph-name="b" unicode="b" horiz-adv-x="818" 
d="M804 280q8 -19 8 -37q0 -33 -28 -61q7 -59 -44 -89q-9 -59 -66 -76q-23 -54 -83 -55q-28 -36 -68 -36q-13 0 -27 4q-26 -20 -53 -20q-23 0 -46 13q-20 -8 -38 -8q-33 0 -61 28q-59 -7 -89 44q-59 8 -75 66q-55 23 -56 83q-36 28 -36 68q0 13 4 27q-20 26 -20 53
q0 23 13 46q-7 20 -7 38q0 32 27 60q-7 60 44 90q9 59 66 75q24 55 83 56q28 36 68 36q13 0 27 -4q26 20 54 20q22 0 46 -13q19 7 37 7q33 0 61 -27q59 7 89 -44q59 -9 75 -66q55 -24 56 -83q36 -28 36 -68q0 -13 -4 -27q20 -26 20 -54q0 -22 -13 -46zM757 283q19 25 19 43
q0 20 -25 45q9 21 9 35q0 27 -37 48q2 11 2 20q0 40 -51 53q-3 33 -18 45.5t-48 12.5q-17 44 -49 44q-12 0 -29 -5q-24 31 -47 31q-16 0 -39 -14q-25 19 -43 19q-21 0 -45 -25q-21 9 -36 9q-26 0 -47 -37q-11 1 -20 1q-40 0 -53 -50q-33 -4 -45.5 -18.5t-12.5 -47.5
q-44 -17 -44 -49q0 -12 5 -30q-31 -23 -31 -46q0 -16 14 -40q-19 -24 -19 -42q0 -21 25 -45q-9 -21 -9 -36q0 -27 37 -47q-2 -11 -2 -20q0 -41 51 -53q4 -33 18.5 -46t47.5 -12q17 -44 49 -44q12 0 29 5q24 -31 47 -31q16 0 40 14q24 -20 42 -20q21 0 45 26q21 -9 36 -9
q26 0 47 37q11 -2 20 -2q41 0 53 51q33 3 46 18t12 48q44 17 44 49q0 12 -5 29q31 24 31 47q0 16 -14 39zM694 313q-10 -19 -10 -39q0 -16 6 -32q-26 -29 -23 -67q-33 -22 -40 -60q-36 -11 -53 -45q-25 -1 -47 -18q26 -15 26 -43q0 -16 -19 -26q-15 -8 -33 -8q-26 0 -46 23
l-7 8q-9 6 -25 19l-1 -1q-23 -37 -25 -40q-16 -19 -40 -19q-17 0 -32.5 12.5t-15.5 28.5q0 26 28 40q-17 6 -36 4q-21 33 -60 40q-12 37 -47 54q-2 38 -31 64q2 10 2 20q0 26 -16 49q10 20 10 41q0 15 -5 31q26 29 23 67q32 21 39 60q37 11 54 47q39 2 64 31q10 -2 20 -2
q27 0 50 16q20 -10 40 -10q15 0 31 5q29 -26 67 -23q22 -32 60 -39q12 -37 47 -54q2 -39 31 -64q-2 -10 -2 -20q0 -27 16 -50zM667 302q0 103 -71.5 174.5t-174.5 71.5t-175 -71.5t-72 -174.5q0 -90 57 -159t146 -84l20 2q6 0 10 -2q5 4 12 3q8 -1 11 -7h4q9 8 49 8
q82 22 133 88t51 151zM523 11q-3 22 -39 22q-12 0 -20 -1q3 -2 6 -6l7 -7q14 -14 24 -14q13 0 22 6zM390 30q-51 -6 -51 -24q9 -11 18 -11q11 0 33 35zM588 255q0 -33 -34 -33q-33 0 -33 33q0 34 33 34q14 0 24 -10t10 -24zM546 181q-40 -77 -126 -77q-85 0 -125 77h251z
M321 255q0 -33 -34 -33q-33 0 -33 33q0 34 33 34q14 0 24 -10t10 -24z" />
    <glyph glyph-name="c" unicode="c" horiz-adv-x="819" 
d="M804 280q8 -19 8 -37q0 -33 -28 -61q7 -59 -44 -89q-9 -59 -66 -76q-23 -54 -83 -55q-28 -36 -68 -36q-13 0 -27 4q-26 -20 -53 -20q-23 0 -46 13q-20 -8 -38 -8q-33 0 -61 28q-59 -7 -89 44q-59 8 -75 66q-55 23 -56 83q-36 28 -36 68q0 13 4 27q-20 26 -20 53
q0 23 13 46q-7 20 -7 38q0 32 27 60q-7 60 44 90q9 59 66 75q24 55 83 56q28 36 68 36q13 0 27 -4q26 20 54 20q22 0 46 -13q19 7 37 7q33 0 61 -27q59 7 89 -44q59 -9 75 -66q55 -24 56 -83q36 -28 36 -68q0 -13 -4 -27q20 -26 20 -54q0 -22 -13 -46zM757 283q19 25 19 43
q0 20 -25 45q9 21 9 35q0 27 -37 48q2 11 2 20q0 40 -51 53q-3 33 -18 45.5t-48 12.5q-17 44 -49 44q-12 0 -29 -5q-24 31 -47 31q-16 0 -39 -14q-25 19 -43 19q-21 0 -45 -25q-21 9 -36 9q-26 0 -47 -37q-11 1 -20 1q-40 0 -53 -50q-33 -4 -45.5 -18.5t-12.5 -47.5
q-44 -17 -44 -49q0 -12 5 -30q-31 -23 -31 -46q0 -16 14 -40q-19 -24 -19 -42q0 -21 25 -45q-9 -21 -9 -36q0 -27 37 -47q-2 -11 -2 -20q0 -41 51 -53q4 -33 18.5 -46t47.5 -12q17 -44 49 -44q12 0 29 5q24 -31 47 -31q16 0 40 14q24 -20 42 -20q21 0 45 26q21 -9 36 -9
q26 0 47 37q11 -2 20 -2q41 0 53 51q33 3 46 18t12 48q44 17 44 49q0 12 -5 29q31 24 31 47q0 16 -14 39zM694 313q-10 -19 -10 -39q0 -16 6 -32q-26 -29 -23 -67q-33 -22 -40 -60q-36 -11 -53 -45q-25 -1 -47 -18q26 -15 26 -43q0 -16 -19 -26q-15 -8 -33 -8q-26 0 -46 23
l-7 8q-9 6 -25 19l-1 -1q-23 -37 -25 -40q-16 -19 -40 -19q-17 0 -32.5 12.5t-15.5 28.5q0 26 28 40q-17 6 -36 4q-21 33 -60 40q-12 37 -47 54q-2 38 -31 64q2 10 2 20q0 26 -16 49q10 20 10 41q0 15 -5 31q26 29 23 67q32 21 39 60q37 11 54 47q39 2 64 31q10 -2 20 -2
q27 0 50 16q20 -10 40 -10q15 0 31 5q29 -26 67 -23q22 -32 60 -39q12 -37 47 -54q2 -39 31 -64q-2 -10 -2 -20q0 -27 16 -50zM667 302q0 103 -71.5 174.5t-174.5 71.5t-175 -71.5t-72 -174.5q0 -90 57 -159t146 -84l20 2q6 0 10 -2q5 4 12 3q8 -1 11 -7h4q9 8 49 8
q82 22 133 88t51 151zM523 11q-3 22 -39 22q-12 0 -20 -1q3 -2 6 -6l7 -7q14 -14 24 -14q13 0 22 6zM390 30q-51 -6 -51 -24q9 -11 18 -11q11 0 33 35zM563 215h-72v72h72v-72zM351 215h-72v72h72v-72zM546 181q-40 -77 -126 -77q-85 0 -125 77h251z" />
    <glyph glyph-name="d" unicode="d" horiz-adv-x="840" 
d="M839 304q0 -21 -17 -34q4 -7 4 -15q0 -35 -34 -37v-2q0 -34 -33 -34q-14 0 -23 9q-3 -25 -28 -26v-1q0 -20 -20 -20q-11 0 -17 9q-39 -66 -106 -104.5t-144 -38.5q-79 0 -146 39t-107 107q-5 -12 -18 -12q-20 0 -20 20v1q-25 1 -28 26q-9 -9 -22 -9q-34 0 -34 34v2
q-34 2 -34 37q0 15 11 25q-1 3 -1 5q0 5 3 9q0 3 -1 6q-11 8 -11 23q0 13 11 22q-12 12 -12 29q0 24 22 35q-5 11 -5 23q0 41 40 53q3 28 28 40q0 17 11.5 28.5t28.5 11.5h2q2 5 5 9q-1 3 -1 8q0 21 22 21q10 0 17 -9q9 16 25 25q-4 5 -4 12q0 18 19 18q9 0 15 -8
q13 19 35 24q9 11 24 11q6 0 11 -2q8 34 44 34q14 0 26 -9q10 16 28 16q19 0 29 -17q8 9 20 9q7 0 14 -4q9 5 20 5q35 0 43 -34q5 2 12 2q14 0 23 -11q22 -5 35 -24q6 8 16 8q18 0 18 -18v-1q26 -2 30 -29q4 2 9 2q21 0 21 -21q0 -5 -1 -8q3 -4 5 -9h2q17 0 28.5 -11.5
t11.5 -28.5q25 -12 28 -40q40 -12 40 -53v-6q25 -14 25 -43q0 -20 -13 -34q10 -7 10 -19v-1q8 -11 8 -25zM663 256q-3 -1 -6 -1q-28 0 -28 28q0 5 2 9h-4q-31 0 -31 31q0 7 3 13q-27 3 -37 28q-22 11 -22 36q-8 4 -14 10q-7 -7 -16 -7q-13 0 -21 11q-8 -4 -17 -4
q-25 0 -37 23q-8 -7 -19 -7q-28 0 -31 28q-3 1 -5 2q-5 -1 -9 -1q-9 0 -17 3q2 -5 2 -11q0 -32 -32 -32q-4 0 -8 1q-12 -20 -36 -20h-4q3 -8 3 -16q0 -39 -40 -44q3 -6 3 -13q0 -31 -31 -31h-4q2 -4 2 -9q0 -28 -28 -28h-3q17 -88 85.5 -144t157.5 -56t157 56.5t85 144.5z
M589 235h-148q23 45 74 45t74 -45zM401 235h-149q23 45 74 45t75 -45zM546 181q-40 -77 -126 -77q-85 0 -125 77h251z" />
    <glyph glyph-name="e" unicode="e" horiz-adv-x="840" 
d="M839 304q0 -21 -17 -34q4 -7 4 -15q0 -35 -34 -37v-2q0 -34 -33 -34q-14 0 -23 9q-3 -25 -28 -26v-1q0 -20 -20 -20q-11 0 -17 9q-39 -66 -106 -104.5t-144 -38.5q-79 0 -146 39t-107 107q-5 -12 -18 -12q-20 0 -20 20v1q-25 1 -28 26q-9 -9 -22 -9q-34 0 -34 34v2
q-34 2 -34 37q0 15 11 25q-1 3 -1 5q0 5 3 9q0 3 -1 6q-11 8 -11 23q0 13 11 22q-12 12 -12 29q0 24 22 35q-5 11 -5 23q0 41 40 53q3 28 28 40q0 17 11.5 28.5t28.5 11.5h2q2 5 5 9q-1 3 -1 8q0 21 22 21q10 0 17 -9q9 16 25 25q-4 5 -4 12q0 18 19 18q9 0 15 -8
q13 19 35 24q9 11 24 11q6 0 11 -2q8 34 44 34q14 0 26 -9q10 16 28 16q19 0 29 -17q8 9 20 9q7 0 14 -4q9 5 20 5q35 0 43 -34q5 2 12 2q14 0 23 -11q22 -5 35 -24q6 8 16 8q18 0 18 -18v-1q26 -2 30 -29q4 2 9 2q21 0 21 -21q0 -5 -1 -8q3 -4 5 -9h2q17 0 28.5 -11.5
t11.5 -28.5q25 -12 28 -40q40 -12 40 -53v-6q25 -14 25 -43q0 -20 -13 -34q10 -7 10 -19v-1q8 -11 8 -25zM663 256q-3 -1 -6 -1q-28 0 -28 28q0 5 2 9h-4q-31 0 -31 31q0 7 3 13q-27 3 -37 28q-22 11 -22 36q-8 4 -14 10q-7 -7 -16 -7q-13 0 -21 11q-8 -4 -17 -4
q-25 0 -37 23q-8 -7 -19 -7q-28 0 -31 28q-3 1 -5 2q-5 -1 -9 -1q-9 0 -17 3q2 -5 2 -11q0 -32 -32 -32q-4 0 -8 1q-12 -20 -36 -20h-4q3 -8 3 -16q0 -39 -40 -44q3 -6 3 -13q0 -31 -31 -31h-4q2 -4 2 -9q0 -28 -28 -28h-3q17 -88 85.5 -144t157.5 -56t157 56.5t85 144.5z
M615 233l-31 -16q-19 36 -59 36q-28 0 -47 -20h-43q29 55 90 55t90 -55zM406 233h-43q-19 20 -47 20q-40 0 -59 -36l-31 16q29 55 90 55t90 -55zM546 181q-40 -77 -126 -77q-85 0 -125 77h251z" />
    <glyph glyph-name="f" unicode="f" horiz-adv-x="844" 
d="M839 304q0 -21 -17 -34q4 -7 4 -15q0 -35 -34 -37v-2q0 -34 -33 -34q-14 0 -23 9q-3 -25 -28 -26v-1q0 -20 -20 -20q-11 0 -17 9q-39 -66 -106 -104.5t-144 -38.5q-79 0 -146 39t-107 107q-5 -12 -18 -12q-20 0 -20 20v1q-25 1 -28 26q-9 -9 -22 -9q-34 0 -34 34v2
q-34 2 -34 37q0 15 11 25q-1 3 -1 5q0 5 3 9q0 3 -1 6q-11 8 -11 23q0 13 11 22q-12 12 -12 29q0 24 22 35q-5 11 -5 23q0 41 40 53q3 28 28 40q0 17 11.5 28.5t28.5 11.5h2q2 5 5 9q-1 3 -1 8q0 21 22 21q10 0 17 -9q9 16 25 25q-4 5 -4 12q0 18 19 18q9 0 15 -8
q13 19 35 24q9 11 24 11q6 0 11 -2q8 34 44 34q14 0 26 -9q10 16 28 16q19 0 29 -17q8 9 20 9q7 0 14 -4q9 5 20 5q35 0 43 -34q5 2 12 2q14 0 23 -11q22 -5 35 -24q6 8 16 8q18 0 18 -18v-1q26 -2 30 -29q4 2 9 2q21 0 21 -21q0 -5 -1 -8q3 -4 5 -9h2q17 0 28.5 -11.5
t11.5 -28.5q25 -12 28 -40q40 -12 40 -53v-6q25 -14 25 -43q0 -20 -13 -34q10 -7 10 -19v-1q8 -11 8 -25zM663 256q-3 -1 -6 -1q-28 0 -28 28q0 5 2 9h-4q-31 0 -31 31q0 7 3 13q-27 3 -37 28q-22 11 -22 36q-8 4 -14 10q-7 -7 -16 -7q-13 0 -21 11q-8 -4 -17 -4
q-25 0 -37 23q-8 -7 -19 -7q-28 0 -31 28q-3 1 -5 2q-5 -1 -9 -1q-9 0 -17 3q2 -5 2 -11q0 -32 -32 -32q-4 0 -8 1q-12 -20 -36 -20h-4q3 -8 3 -16q0 -39 -40 -44q3 -6 3 -13q0 -31 -31 -31h-4q2 -4 2 -9q0 -28 -28 -28h-3q17 -88 85.5 -144t157.5 -56t157 56.5t85 144.5z
M590 242l-24 -25l-26 25l-25 -25l-24 25l25 25l-25 25l24 25l25 -25l26 25l24 -25l-25 -25zM351 242l-25 -25l-25 25l-25 -25l-25 25l25 25l-25 25l25 25l25 -25l25 25l25 -25l-26 -25zM546 181q-40 -77 -126 -77q-85 0 -125 77h251z" />
    <glyph glyph-name="g" unicode="g" horiz-adv-x="842" 
d="M839 304q0 -21 -17 -34q4 -7 4 -15q0 -35 -34 -37v-2q0 -34 -33 -34q-14 0 -23 9q-3 -25 -28 -26v-1q0 -20 -20 -20q-11 0 -17 9q-39 -66 -106 -104.5t-144 -38.5q-79 0 -146 39t-107 107q-5 -12 -18 -12q-20 0 -20 20v1q-25 1 -28 26q-9 -9 -22 -9q-34 0 -34 34v2
q-34 2 -34 37q0 15 11 25q-1 3 -1 5q0 5 3 9q0 3 -1 6q-11 8 -11 23q0 13 11 22q-12 12 -12 29q0 24 22 35q-5 11 -5 23q0 41 40 53q3 28 28 40q0 17 11.5 28.5t28.5 11.5h2q2 5 5 9q-1 3 -1 8q0 21 22 21q10 0 17 -9q9 16 25 25q-4 5 -4 12q0 18 19 18q9 0 15 -8
q13 19 35 24q9 11 24 11q6 0 11 -2q8 34 44 34q14 0 26 -9q10 16 28 16q19 0 29 -17q8 9 20 9q7 0 14 -4q9 5 20 5q35 0 43 -34q5 2 12 2q14 0 23 -11q22 -5 35 -24q6 8 16 8q18 0 18 -18v-1q26 -2 30 -29q4 2 9 2q21 0 21 -21q0 -5 -1 -8q3 -4 5 -9h2q17 0 28.5 -11.5
t11.5 -28.5q25 -12 28 -40q40 -12 40 -53v-6q25 -14 25 -43q0 -20 -13 -34q10 -7 10 -19v-1q8 -11 8 -25zM663 256q-3 -1 -6 -1q-28 0 -28 28q0 5 2 9h-4q-31 0 -31 31q0 7 3 13q-27 3 -37 28q-22 11 -22 36q-8 4 -14 10q-7 -7 -16 -7q-13 0 -21 11q-8 -4 -17 -4
q-25 0 -37 23q-8 -7 -19 -7q-28 0 -31 28q-3 1 -5 2q-5 -1 -9 -1q-9 0 -17 3q2 -5 2 -11q0 -32 -32 -32q-4 0 -8 1q-12 -20 -36 -20h-4q3 -8 3 -16q0 -39 -40 -44q3 -6 3 -13q0 -31 -31 -31h-4q2 -4 2 -9q0 -28 -28 -28h-3q17 -88 85.5 -144t157.5 -56t157 56.5t85 144.5z
M588 255q0 -33 -34 -33q-33 0 -33 33q0 34 33 34q14 0 24 -10t10 -24zM546 181q-40 -77 -126 -77q-85 0 -125 77h251zM321 255q0 -33 -34 -33q-33 0 -33 33q0 34 33 34q14 0 24 -10t10 -24z" />
    <glyph glyph-name="h" unicode="h" horiz-adv-x="840" 
d="M839 304q0 -21 -17 -34q4 -7 4 -15q0 -35 -34 -37v-2q0 -34 -33 -34q-14 0 -23 9q-3 -25 -28 -26v-1q0 -20 -20 -20q-11 0 -17 9q-39 -66 -106 -104.5t-144 -38.5q-79 0 -146 39t-107 107q-5 -12 -18 -12q-20 0 -20 20v1q-25 1 -28 26q-9 -9 -22 -9q-34 0 -34 34v2
q-34 2 -34 37q0 15 11 25q-1 3 -1 5q0 5 3 9q0 3 -1 6q-11 8 -11 23q0 13 11 22q-12 12 -12 29q0 24 22 35q-5 11 -5 23q0 41 40 53q3 28 28 40q0 17 11.5 28.5t28.5 11.5h2q2 5 5 9q-1 3 -1 8q0 21 22 21q10 0 17 -9q9 16 25 25q-4 5 -4 12q0 18 19 18q9 0 15 -8
q13 19 35 24q9 11 24 11q6 0 11 -2q8 34 44 34q14 0 26 -9q10 16 28 16q19 0 29 -17q8 9 20 9q7 0 14 -4q9 5 20 5q35 0 43 -34q5 2 12 2q14 0 23 -11q22 -5 35 -24q6 8 16 8q18 0 18 -18v-1q26 -2 30 -29q4 2 9 2q21 0 21 -21q0 -5 -1 -8q3 -4 5 -9h2q17 0 28.5 -11.5
t11.5 -28.5q25 -12 28 -40q40 -12 40 -53v-6q25 -14 25 -43q0 -20 -13 -34q10 -7 10 -19v-1q8 -11 8 -25zM663 256q-3 -1 -6 -1q-28 0 -28 28q0 5 2 9h-4q-31 0 -31 31q0 7 3 13q-27 3 -37 28q-22 11 -22 36q-8 4 -14 10q-7 -7 -16 -7q-13 0 -21 11q-8 -4 -17 -4
q-25 0 -37 23q-8 -7 -19 -7q-28 0 -31 28q-3 1 -5 2q-5 -1 -9 -1q-9 0 -17 3q2 -5 2 -11q0 -32 -32 -32q-4 0 -8 1q-12 -20 -36 -20h-4q3 -8 3 -16q0 -39 -40 -44q3 -6 3 -13q0 -31 -31 -31h-4q2 -4 2 -9q0 -28 -28 -28h-3q17 -88 85.5 -144t157.5 -56t157 56.5t85 144.5z
M563 215h-72v72h72v-72zM351 215h-72v72h72v-72zM546 181q-40 -77 -126 -77q-85 0 -125 77h251z" />
    <glyph glyph-name="i" unicode="i" 
d="M712 0h-583v302q0 121 85.5 206t206.5 85t206 -85t85 -206v-302zM667 45v257q0 103 -71.5 174.5t-174.5 71.5t-175 -71.5t-72 -174.5v-257h493zM589 235h-148q23 45 74 45t74 -45zM302 476q0 -12 -12 -12q-11 0 -11 12q0 11 11 11q12 0 12 -11zM232 376q0 -12 -12 -12
q-11 0 -11 12q0 11 11 11q12 0 12 -11zM401 235h-149q23 45 74 45t75 -45zM546 106h-251v75h251v-75zM212 276q0 -12 -12 -12q-11 0 -11 12q0 11 11 11q12 0 12 -11zM212 176q0 -12 -12 -12q-11 0 -11 12q0 11 11 11q12 0 12 -11zM212 76q0 -12 -12 -12q-11 0 -11 12
q0 11 11 11q12 0 12 -11zM531 118v51h-29v-51h29z" />
    <glyph glyph-name="j" unicode="j" 
d="M712 0h-583v302q0 121 85.5 206t206.5 85t206 -85t85 -206v-302zM667 45v257q0 103 -71.5 174.5t-174.5 71.5t-175 -71.5t-72 -174.5v-257h493zM615 233l-31 -16q-19 36 -59 36q-28 0 -47 -20h-43q29 55 90 55t90 -55zM302 476q0 -12 -12 -12q-11 0 -11 12q0 11 11 11
q12 0 12 -11zM232 376q0 -12 -12 -12q-11 0 -11 12q0 11 11 11q12 0 12 -11zM406 233h-43q-19 20 -47 20q-40 0 -59 -36l-31 16q29 55 90 55t90 -55zM546 106h-251v75h251v-75zM212 276q0 -12 -12 -12q-11 0 -11 12q0 11 11 11q12 0 12 -11zM212 176q0 -12 -12 -12
q-11 0 -11 12q0 11 11 11q12 0 12 -11zM212 76q0 -12 -12 -12q-11 0 -11 12q0 11 11 11q12 0 12 -11zM531 118v51h-29v-51h29z" />
    <glyph glyph-name="k" unicode="k" 
d="M712 0h-583v302q0 121 85.5 206t206.5 85t206 -85t85 -206v-302zM667 45v257q0 103 -71.5 174.5t-174.5 71.5t-175 -71.5t-72 -174.5v-257h493zM590 242l-24 -25l-26 25l-25 -25l-24 25l25 25l-25 25l24 25l25 -25l26 25l24 -25l-25 -25zM302 476q0 -12 -12 -12
q-11 0 -11 12q0 11 11 11q12 0 12 -11zM232 376q0 -12 -12 -12q-11 0 -11 12q0 11 11 11q12 0 12 -11zM351 242l-25 -25l-25 25l-25 -25l-25 25l25 25l-25 25l25 25l25 -25l25 25l25 -25l-26 -25zM546 106h-251v75h251v-75zM212 276q0 -12 -12 -12q-11 0 -11 12q0 11 11 11
q12 0 12 -11zM212 176q0 -12 -12 -12q-11 0 -11 12q0 11 11 11q12 0 12 -11zM212 76q0 -12 -12 -12q-11 0 -11 12q0 11 11 11q12 0 12 -11zM531 118v51h-29v-51h29z" />
    <glyph glyph-name="l" unicode="l" 
d="M712 0h-583v302q0 121 85.5 206t206.5 85t206 -85t85 -206v-302zM667 45v257q0 103 -71.5 174.5t-174.5 71.5t-175 -71.5t-72 -174.5v-257h493zM588 255q0 -33 -34 -33q-33 0 -33 33q0 34 33 34q14 0 24 -10t10 -24zM302 476q0 -12 -12 -12q-11 0 -11 12q0 11 11 11
q12 0 12 -11zM232 376q0 -12 -12 -12q-11 0 -11 12q0 11 11 11q12 0 12 -11zM546 106h-251v75h251v-75zM321 255q0 -33 -34 -33q-33 0 -33 33q0 34 33 34q14 0 24 -10t10 -24zM212 276q0 -12 -12 -12q-11 0 -11 12q0 11 11 11q12 0 12 -11zM212 176q0 -12 -12 -12
q-11 0 -11 12q0 11 11 11q12 0 12 -11zM212 76q0 -12 -12 -12q-11 0 -11 12q0 11 11 11q12 0 12 -11zM531 118v51h-29v-51h29z" />
    <glyph glyph-name="m" unicode="m" 
d="M712 0h-583v302q0 121 85.5 206t206.5 85t206 -85t85 -206v-302zM667 45v257q0 103 -71.5 174.5t-174.5 71.5t-175 -71.5t-72 -174.5v-257h493zM563 215h-72v72h72v-72zM302 476q0 -12 -12 -12q-11 0 -11 12q0 11 11 11q12 0 12 -11zM232 376q0 -12 -12 -12q-11 0 -11 12
q0 11 11 11q12 0 12 -11zM351 215h-72v72h72v-72zM546 106h-251v75h251v-75zM212 276q0 -12 -12 -12q-11 0 -11 12q0 11 11 11q12 0 12 -11zM212 176q0 -12 -12 -12q-11 0 -11 12q0 11 11 11q12 0 12 -11zM212 76q0 -12 -12 -12q-11 0 -11 12q0 11 11 11q12 0 12 -11z
M531 118v51h-29v-51h29z" />
    <glyph glyph-name="n" unicode="n" 
d="M712 302q0 -121 -85 -206.5t-206 -85.5q-122 0 -207 85t-85 207q0 121 85.5 206t206.5 85t206 -85t85 -206zM667 302q0 20 -3 40h-166q14 20 14 50q0 49 -34 108q-3 -129 -94 -182h-209q-1 -8 -1 -16q0 -104 71.5 -175.5t175.5 -71.5q103 0 174.5 72t71.5 175zM589 235
h-148q23 45 74 45t74 -45zM401 235h-149q23 45 74 45t75 -45zM546 181q-40 -77 -126 -77q-85 0 -125 77h251z" />
    <glyph glyph-name="o" unicode="o" 
d="M712 302q0 -121 -85 -206.5t-206 -85.5q-122 0 -207 85t-85 207q0 121 85.5 206t206.5 85t206 -85t85 -206zM667 302q0 20 -3 40h-166q14 20 14 50q0 49 -34 108q-3 -129 -94 -182h-209q-1 -8 -1 -16q0 -104 71.5 -175.5t175.5 -71.5q103 0 174.5 72t71.5 175zM615 233
l-31 -16q-19 36 -59 36q-28 0 -47 -20h-43q29 55 90 55t90 -55zM406 233h-43q-19 20 -47 20q-40 0 -59 -36l-31 16q29 55 90 55t90 -55zM546 181q-40 -77 -126 -77q-85 0 -125 77h251z" />
    <glyph glyph-name="p" unicode="p" 
d="M712 302q0 -121 -85 -206.5t-206 -85.5q-122 0 -207 85t-85 207q0 121 85.5 206t206.5 85t206 -85t85 -206zM667 302q0 20 -3 40h-166q14 20 14 50q0 49 -34 108q-3 -129 -94 -182h-209q-1 -8 -1 -16q0 -104 71.5 -175.5t175.5 -71.5q103 0 174.5 72t71.5 175zM590 232
l-24 -25l-26 25l-25 -25l-24 25l25 25l-25 25l24 25l25 -25l26 25l24 -25l-25 -25zM546 181q-40 -77 -126 -77q-85 0 -125 77h251zM351 232l-25 -25l-25 25l-25 -25l-25 25l25 25l-25 25l25 25l25 -25l25 25l25 -25l-26 -25z" />
    <glyph glyph-name="q" unicode="q" 
d="M712 302q0 -121 -85 -206.5t-206 -85.5q-122 0 -207 85t-85 207q0 121 85.5 206t206.5 85t206 -85t85 -206zM667 302q0 20 -3 40h-166q14 20 14 50q0 49 -34 108q-3 -129 -94 -182h-209q-1 -8 -1 -16q0 -104 71.5 -175.5t175.5 -71.5q103 0 174.5 72t71.5 175zM588 255
q0 -33 -34 -33q-33 0 -33 33q0 34 33 34q14 0 24 -10t10 -24zM546 181q-40 -77 -126 -77q-85 0 -125 77h251zM321 255q0 -33 -34 -33q-33 0 -33 33q0 34 33 34q14 0 24 -10t10 -24z" />
    <glyph glyph-name="r" unicode="r" 
d="M712 302q0 -121 -85 -206.5t-206 -85.5q-122 0 -207 85t-85 207q0 121 85.5 206t206.5 85t206 -85t85 -206zM667 302q0 20 -3 40h-166q14 20 14 50q0 49 -34 108q-3 -129 -94 -182h-209q-1 -8 -1 -16q0 -104 71.5 -175.5t175.5 -71.5q103 0 174.5 72t71.5 175zM563 215
h-72v72h72v-72zM351 215h-72v72h72v-72zM546 181q-40 -77 -126 -77q-85 0 -125 77h251z" />
    <glyph glyph-name="s" unicode="s" 
d="M712 302q0 -121 -85 -206.5t-206 -85.5q-122 0 -207 85t-85 207q0 145 114 231q55 111 147 111q79 0 128 -68q87 -30 140.5 -106t53.5 -168zM502 540l-86 4v-153h55zM667 293q-6 2 -6 9q0 6 6 8l-2 24q-4 3 -4 8q0 2 2 5q-5 24 -13 46q-9 0 -9 9q0 3 2 5l-6 12
q-2 -6 -7 -6q-9 0 -9 9q0 8 9 8h1q-35 57 -94 89q-2 -6 -7 -6q-7 0 -9 7l-3 -16v-2q0 -4 -2 -6l-6 -26q8 0 8 -8q0 -9 -8 -9q-3 0 -4 1l-19 -81h-105q0 14 -10 60h-2q-9 0 -9 9q0 6 6 8q-9 25 -22 44q-3 2 -4 5q-5 8 -11 14v0q-5 2 -9 9v0l-4 3q-21 -9 -39 -22v-1
q1 -9 -8 -9q-3 0 -4 1q-5 -4 -9 -8q1 -2 1 -4q0 -9 -8 -9q-3 0 -5 1l-8 -8q1 -2 1 -4q0 -9 -8 -9q-2 0 -4 1l-8 -12q0 -7 -6 -9q-13 -20 -22 -43q8 -1 8 -8q0 -9 -8 -9q-3 0 -5 1q-11 -35 -11 -72q0 -104 71.5 -175.5t175.5 -71.5q89 0 157.5 57t84.5 144q-2 3 -2 6q0 4 4 7
zM558 502q0 -9 -8 -9q-9 0 -9 9q0 8 9 8q8 0 8 -8zM578 482q0 -9 -8 -9q-9 0 -9 9q0 8 9 8q8 0 8 -8zM598 462q0 -9 -8 -9q-9 0 -9 9q0 8 9 8q8 0 8 -8zM618 442q0 -9 -8 -9q-9 0 -9 9q0 8 9 8q8 0 8 -8zM538 482q0 -9 -8 -9q-9 0 -9 9q0 8 9 8q8 0 8 -8zM558 462
q0 -9 -8 -9q-9 0 -9 9q0 8 9 8q8 0 8 -8zM578 442q0 -9 -8 -9q-9 0 -9 9q0 8 9 8q8 0 8 -8zM598 422q0 -9 -8 -9q-9 0 -9 9q0 8 9 8q8 0 8 -8zM618 402q0 -9 -8 -9q-9 0 -9 9q0 8 9 8q8 0 8 -8zM638 382q0 -9 -8 -9q-9 0 -9 9q0 8 9 8q8 0 8 -8zM658 362q0 -9 -8 -9
q-9 0 -9 9q0 8 9 8q8 0 8 -8zM538 442q0 -9 -8 -9q-9 0 -9 9q0 8 9 8q8 0 8 -8zM558 422q0 -9 -8 -9q-9 0 -9 9q0 8 9 8q8 0 8 -8zM578 402q0 -9 -8 -9q-9 0 -9 9q0 8 9 8q8 0 8 -8zM598 382q0 -9 -8 -9q-9 0 -9 9q0 8 9 8q8 0 8 -8zM618 362q0 -9 -8 -9q-9 0 -9 9q0 8 9 8
q8 0 8 -8zM638 342q0 -9 -8 -9q-9 0 -9 9q0 8 9 8q8 0 8 -8zM658 322q0 -9 -8 -9q-9 0 -9 9q0 8 9 8q8 0 8 -8zM518 422q0 -9 -8 -9q-9 0 -9 9q0 8 9 8q8 0 8 -8zM538 402q0 -9 -8 -9q-9 0 -9 9q0 8 9 8q8 0 8 -8zM558 382q0 -9 -8 -9q-9 0 -9 9q0 8 9 8q8 0 8 -8zM578 362
q0 -9 -8 -9q-9 0 -9 9q0 8 9 8q8 0 8 -8zM598 342q0 -9 -8 -9q-9 0 -9 9q0 8 9 8q8 0 8 -8zM618 322q0 -9 -8 -9q-9 0 -9 9q0 8 9 8q8 0 8 -8zM638 302q0 -9 -8 -9q-9 0 -9 9q0 8 9 8q8 0 8 -8zM658 282q0 -9 -8 -9q-9 0 -9 9q0 8 9 8q8 0 8 -8zM518 382q0 -9 -8 -9
q-9 0 -9 9q0 8 9 8q8 0 8 -8zM638 262q0 -9 -8 -9q-9 0 -9 9q0 8 9 8q8 0 8 -8zM318 502q0 -9 -8 -9q-9 0 -9 9q0 8 9 8q8 0 8 -8zM338 482q0 -9 -8 -9q-9 0 -9 9q0 8 9 8q8 0 8 -8zM358 462q0 -9 -8 -9q-9 0 -9 9q0 8 9 8q8 0 8 -8zM589 235h-148q23 45 74 45t74 -45z
M298 482q0 -9 -8 -9q-9 0 -9 9q0 8 9 8q8 0 8 -8zM318 462q0 -9 -8 -9q-9 0 -9 9q0 8 9 8q8 0 8 -8zM338 442q0 -9 -8 -9q-9 0 -9 9q0 8 9 8q8 0 8 -8zM358 422q0 -9 -8 -9q-9 0 -9 9q0 8 9 8q8 0 8 -8zM378 402q0 -9 -8 -9q-9 0 -9 9q0 8 9 8q8 0 8 -8zM278 462q0 -9 -8 -9
q-9 0 -9 9q0 8 9 8q8 0 8 -8zM298 442q0 -9 -8 -9q-9 0 -9 9q0 8 9 8q8 0 8 -8zM318 422q0 -9 -8 -9q-9 0 -9 9q0 8 9 8q8 0 8 -8zM338 402q0 -9 -8 -9q-9 0 -9 9q0 8 9 8q8 0 8 -8zM358 382q0 -9 -8 -9q-9 0 -9 9q0 8 9 8q8 0 8 -8zM258 442q0 -9 -8 -9q-9 0 -9 9q0 8 9 8
q8 0 8 -8zM278 422q0 -9 -8 -9q-9 0 -9 9q0 8 9 8q8 0 8 -8zM298 402q0 -9 -8 -9q-9 0 -9 9q0 8 9 8q8 0 8 -8zM318 382q0 -9 -8 -9q-9 0 -9 9q0 8 9 8q8 0 8 -8zM238 422q0 -9 -8 -9q-9 0 -9 9q0 8 9 8q8 0 8 -8zM258 402q0 -9 -8 -9q-9 0 -9 9q0 8 9 8q8 0 8 -8zM278 382
q0 -9 -8 -9q-9 0 -9 9q0 8 9 8q8 0 8 -8zM298 362q0 -9 -8 -9q-9 0 -9 9q0 8 9 8q8 0 8 -8zM218 402q0 -9 -8 -9q-9 0 -9 9q0 8 9 8q8 0 8 -8zM238 382q0 -9 -8 -9q-9 0 -9 9q0 8 9 8q8 0 8 -8zM258 362q0 -9 -8 -9q-9 0 -9 9q0 8 9 8q8 0 8 -8zM278 342q0 -9 -8 -9
q-9 0 -9 9q0 8 9 8q8 0 8 -8zM401 235h-149q23 45 74 45t75 -45zM218 362q0 -9 -8 -9q-9 0 -9 9q0 8 9 8q8 0 8 -8zM238 342q0 -9 -8 -9q-9 0 -9 9q0 8 9 8q8 0 8 -8zM546 181q-40 -77 -126 -77q-85 0 -125 77h251zM198 342q0 -9 -8 -9q-9 0 -9 9q0 8 9 8q8 0 8 -8zM218 322
q0 -9 -8 -9q-9 0 -9 9q0 8 9 8q8 0 8 -8zM198 302q0 -9 -8 -9q-9 0 -9 9q0 8 9 8q8 0 8 -8zM218 282q0 -9 -8 -9q-9 0 -9 9q0 8 9 8q8 0 8 -8zM198 262q0 -9 -8 -9q-9 0 -9 9q0 8 9 8q8 0 8 -8z" />
    <glyph glyph-name="t" unicode="t" 
d="M712 302q0 -121 -85 -206.5t-206 -85.5q-122 0 -207 85t-85 207q0 145 114 231q55 111 147 111q79 0 128 -68q87 -30 140.5 -106t53.5 -168zM502 540l-86 4v-153h55zM667 293q-6 2 -6 9q0 6 6 8l-2 24q-4 3 -4 8q0 2 2 5q-5 24 -13 46q-9 0 -9 9q0 3 2 5l-6 12
q-2 -6 -7 -6q-9 0 -9 9q0 8 9 8h1q-35 57 -94 89q-2 -6 -7 -6q-7 0 -9 7l-3 -16v-2q0 -4 -2 -6l-6 -26q8 0 8 -8q0 -9 -8 -9q-3 0 -4 1l-19 -81h-105q0 14 -10 60h-2q-9 0 -9 9q0 6 6 8q-9 25 -22 44q-3 2 -4 5q-5 8 -11 14v0q-5 2 -9 9v0l-4 3q-21 -9 -39 -22v-1
q1 -9 -8 -9q-3 0 -4 1q-5 -4 -9 -8q1 -2 1 -4q0 -9 -8 -9q-3 0 -5 1l-8 -8q1 -2 1 -4q0 -9 -8 -9q-2 0 -4 1l-8 -12q0 -7 -6 -9q-13 -20 -22 -43q8 -1 8 -8q0 -9 -8 -9q-3 0 -5 1q-11 -35 -11 -72q0 -104 71.5 -175.5t175.5 -71.5q89 0 157.5 57t84.5 144q-2 3 -2 6q0 4 4 7
zM558 502q0 -9 -8 -9q-9 0 -9 9q0 8 9 8q8 0 8 -8zM578 482q0 -9 -8 -9q-9 0 -9 9q0 8 9 8q8 0 8 -8zM598 462q0 -9 -8 -9q-9 0 -9 9q0 8 9 8q8 0 8 -8zM618 442q0 -9 -8 -9q-9 0 -9 9q0 8 9 8q8 0 8 -8zM538 482q0 -9 -8 -9q-9 0 -9 9q0 8 9 8q8 0 8 -8zM558 462
q0 -9 -8 -9q-9 0 -9 9q0 8 9 8q8 0 8 -8zM578 442q0 -9 -8 -9q-9 0 -9 9q0 8 9 8q8 0 8 -8zM598 422q0 -9 -8 -9q-9 0 -9 9q0 8 9 8q8 0 8 -8zM618 402q0 -9 -8 -9q-9 0 -9 9q0 8 9 8q8 0 8 -8zM638 382q0 -9 -8 -9q-9 0 -9 9q0 8 9 8q8 0 8 -8zM658 362q0 -9 -8 -9
q-9 0 -9 9q0 8 9 8q8 0 8 -8zM538 442q0 -9 -8 -9q-9 0 -9 9q0 8 9 8q8 0 8 -8zM558 422q0 -9 -8 -9q-9 0 -9 9q0 8 9 8q8 0 8 -8zM578 402q0 -9 -8 -9q-9 0 -9 9q0 8 9 8q8 0 8 -8zM598 382q0 -9 -8 -9q-9 0 -9 9q0 8 9 8q8 0 8 -8zM618 362q0 -9 -8 -9q-9 0 -9 9q0 8 9 8
q8 0 8 -8zM638 342q0 -9 -8 -9q-9 0 -9 9q0 8 9 8q8 0 8 -8zM658 322q0 -9 -8 -9q-9 0 -9 9q0 8 9 8q8 0 8 -8zM518 422q0 -9 -8 -9q-9 0 -9 9q0 8 9 8q8 0 8 -8zM538 402q0 -9 -8 -9q-9 0 -9 9q0 8 9 8q8 0 8 -8zM558 382q0 -9 -8 -9q-9 0 -9 9q0 8 9 8q8 0 8 -8zM578 362
q0 -9 -8 -9q-9 0 -9 9q0 8 9 8q8 0 8 -8zM598 342q0 -9 -8 -9q-9 0 -9 9q0 8 9 8q8 0 8 -8zM618 322q0 -9 -8 -9q-9 0 -9 9q0 8 9 8q8 0 8 -8zM638 302q0 -9 -8 -9q-9 0 -9 9q0 8 9 8q8 0 8 -8zM658 282q0 -9 -8 -9q-9 0 -9 9q0 8 9 8q8 0 8 -8zM518 382q0 -9 -8 -9
q-9 0 -9 9q0 8 9 8q8 0 8 -8zM638 262q0 -9 -8 -9q-9 0 -9 9q0 8 9 8q8 0 8 -8zM318 502q0 -9 -8 -9q-9 0 -9 9q0 8 9 8q8 0 8 -8zM338 482q0 -9 -8 -9q-9 0 -9 9q0 8 9 8q8 0 8 -8zM358 462q0 -9 -8 -9q-9 0 -9 9q0 8 9 8q8 0 8 -8zM615 233l-31 -16q-19 36 -59 36
q-28 0 -47 -20h-43q29 55 90 55t90 -55zM298 482q0 -9 -8 -9q-9 0 -9 9q0 8 9 8q8 0 8 -8zM318 462q0 -9 -8 -9q-9 0 -9 9q0 8 9 8q8 0 8 -8zM338 442q0 -9 -8 -9q-9 0 -9 9q0 8 9 8q8 0 8 -8zM358 422q0 -9 -8 -9q-9 0 -9 9q0 8 9 8q8 0 8 -8zM378 402q0 -9 -8 -9
q-9 0 -9 9q0 8 9 8q8 0 8 -8zM278 462q0 -9 -8 -9q-9 0 -9 9q0 8 9 8q8 0 8 -8zM298 442q0 -9 -8 -9q-9 0 -9 9q0 8 9 8q8 0 8 -8zM318 422q0 -9 -8 -9q-9 0 -9 9q0 8 9 8q8 0 8 -8zM338 402q0 -9 -8 -9q-9 0 -9 9q0 8 9 8q8 0 8 -8zM358 382q0 -9 -8 -9q-9 0 -9 9q0 8 9 8
q8 0 8 -8zM258 442q0 -9 -8 -9q-9 0 -9 9q0 8 9 8q8 0 8 -8zM278 422q0 -9 -8 -9q-9 0 -9 9q0 8 9 8q8 0 8 -8zM298 402q0 -9 -8 -9q-9 0 -9 9q0 8 9 8q8 0 8 -8zM318 382q0 -9 -8 -9q-9 0 -9 9q0 8 9 8q8 0 8 -8zM238 422q0 -9 -8 -9q-9 0 -9 9q0 8 9 8q8 0 8 -8zM258 402
q0 -9 -8 -9q-9 0 -9 9q0 8 9 8q8 0 8 -8zM278 382q0 -9 -8 -9q-9 0 -9 9q0 8 9 8q8 0 8 -8zM298 362q0 -9 -8 -9q-9 0 -9 9q0 8 9 8q8 0 8 -8zM218 402q0 -9 -8 -9q-9 0 -9 9q0 8 9 8q8 0 8 -8zM238 382q0 -9 -8 -9q-9 0 -9 9q0 8 9 8q8 0 8 -8zM258 362q0 -9 -8 -9
q-9 0 -9 9q0 8 9 8q8 0 8 -8zM278 342q0 -9 -8 -9q-9 0 -9 9q0 8 9 8q8 0 8 -8zM218 362q0 -9 -8 -9q-9 0 -9 9q0 8 9 8q8 0 8 -8zM238 342q0 -9 -8 -9q-9 0 -9 9q0 8 9 8q8 0 8 -8zM406 233h-43q-19 20 -47 20q-40 0 -59 -36l-31 16q29 55 90 55t90 -55zM546 181
q-40 -77 -126 -77q-85 0 -125 77h251zM198 342q0 -9 -8 -9q-9 0 -9 9q0 8 9 8q8 0 8 -8zM218 322q0 -9 -8 -9q-9 0 -9 9q0 8 9 8q8 0 8 -8zM198 302q0 -9 -8 -9q-9 0 -9 9q0 8 9 8q8 0 8 -8zM218 282q0 -9 -8 -9q-9 0 -9 9q0 8 9 8q8 0 8 -8zM198 262q0 -9 -8 -9q-9 0 -9 9
q0 8 9 8q8 0 8 -8z" />
    <glyph glyph-name="u" unicode="u" 
d="M712 302q0 -121 -85 -206.5t-206 -85.5q-122 0 -207 85t-85 207q0 145 114 231q55 111 147 111q79 0 128 -68q87 -30 140.5 -106t53.5 -168zM502 540l-86 4v-153h55zM667 293q-6 2 -6 9q0 6 6 8l-2 24q-4 3 -4 8q0 2 2 5q-5 24 -13 46q-9 0 -9 9q0 3 2 5l-6 12
q-2 -6 -7 -6q-9 0 -9 9q0 8 9 8h1q-35 57 -94 89q-2 -6 -7 -6q-7 0 -9 7l-3 -16v-2q0 -4 -2 -6l-6 -26q8 0 8 -8q0 -9 -8 -9q-3 0 -4 1l-19 -81h-105q0 14 -10 60h-2q-9 0 -9 9q0 6 6 8q-9 25 -22 44q-3 2 -4 5q-5 8 -11 14v0q-5 2 -9 9v0l-4 3q-21 -9 -39 -22v-1
q1 -9 -8 -9q-3 0 -4 1q-5 -4 -9 -8q1 -2 1 -4q0 -9 -8 -9q-3 0 -5 1l-8 -8q1 -2 1 -4q0 -9 -8 -9q-2 0 -4 1l-8 -12q0 -7 -6 -9q-13 -20 -22 -43q8 -1 8 -8q0 -9 -8 -9q-3 0 -5 1q-11 -35 -11 -72q0 -104 71.5 -175.5t175.5 -71.5q89 0 157.5 57t84.5 144q-2 3 -2 6q0 4 4 7
zM558 502q0 -9 -8 -9q-9 0 -9 9q0 8 9 8q8 0 8 -8zM578 482q0 -9 -8 -9q-9 0 -9 9q0 8 9 8q8 0 8 -8zM598 462q0 -9 -8 -9q-9 0 -9 9q0 8 9 8q8 0 8 -8zM618 442q0 -9 -8 -9q-9 0 -9 9q0 8 9 8q8 0 8 -8zM538 482q0 -9 -8 -9q-9 0 -9 9q0 8 9 8q8 0 8 -8zM558 462
q0 -9 -8 -9q-9 0 -9 9q0 8 9 8q8 0 8 -8zM578 442q0 -9 -8 -9q-9 0 -9 9q0 8 9 8q8 0 8 -8zM598 422q0 -9 -8 -9q-9 0 -9 9q0 8 9 8q8 0 8 -8zM618 402q0 -9 -8 -9q-9 0 -9 9q0 8 9 8q8 0 8 -8zM638 382q0 -9 -8 -9q-9 0 -9 9q0 8 9 8q8 0 8 -8zM658 362q0 -9 -8 -9
q-9 0 -9 9q0 8 9 8q8 0 8 -8zM538 442q0 -9 -8 -9q-9 0 -9 9q0 8 9 8q8 0 8 -8zM558 422q0 -9 -8 -9q-9 0 -9 9q0 8 9 8q8 0 8 -8zM578 402q0 -9 -8 -9q-9 0 -9 9q0 8 9 8q8 0 8 -8zM598 382q0 -9 -8 -9q-9 0 -9 9q0 8 9 8q8 0 8 -8zM618 362q0 -9 -8 -9q-9 0 -9 9q0 8 9 8
q8 0 8 -8zM638 342q0 -9 -8 -9q-9 0 -9 9q0 8 9 8q8 0 8 -8zM658 322q0 -9 -8 -9q-9 0 -9 9q0 8 9 8q8 0 8 -8zM518 422q0 -9 -8 -9q-9 0 -9 9q0 8 9 8q8 0 8 -8zM538 402q0 -9 -8 -9q-9 0 -9 9q0 8 9 8q8 0 8 -8zM558 382q0 -9 -8 -9q-9 0 -9 9q0 8 9 8q8 0 8 -8zM578 362
q0 -9 -8 -9q-9 0 -9 9q0 8 9 8q8 0 8 -8zM598 342q0 -9 -8 -9q-9 0 -9 9q0 8 9 8q8 0 8 -8zM618 322q0 -9 -8 -9q-9 0 -9 9q0 8 9 8q8 0 8 -8zM638 302q0 -9 -8 -9q-9 0 -9 9q0 8 9 8q8 0 8 -8zM658 282q0 -9 -8 -9q-9 0 -9 9q0 8 9 8q8 0 8 -8zM518 382q0 -9 -8 -9
q-9 0 -9 9q0 8 9 8q8 0 8 -8zM638 262q0 -9 -8 -9q-9 0 -9 9q0 8 9 8q8 0 8 -8zM318 502q0 -9 -8 -9q-9 0 -9 9q0 8 9 8q8 0 8 -8zM338 482q0 -9 -8 -9q-9 0 -9 9q0 8 9 8q8 0 8 -8zM358 462q0 -9 -8 -9q-9 0 -9 9q0 8 9 8q8 0 8 -8zM590 242l-24 -25l-26 25l-25 -25l-24 25
l25 25l-25 25l24 25l25 -25l26 25l24 -25l-25 -25zM298 482q0 -9 -8 -9q-9 0 -9 9q0 8 9 8q8 0 8 -8zM318 462q0 -9 -8 -9q-9 0 -9 9q0 8 9 8q8 0 8 -8zM338 442q0 -9 -8 -9q-9 0 -9 9q0 8 9 8q8 0 8 -8zM358 422q0 -9 -8 -9q-9 0 -9 9q0 8 9 8q8 0 8 -8zM378 402
q0 -9 -8 -9q-9 0 -9 9q0 8 9 8q8 0 8 -8zM278 462q0 -9 -8 -9q-9 0 -9 9q0 8 9 8q8 0 8 -8zM298 442q0 -9 -8 -9q-9 0 -9 9q0 8 9 8q8 0 8 -8zM318 422q0 -9 -8 -9q-9 0 -9 9q0 8 9 8q8 0 8 -8zM338 402q0 -9 -8 -9q-9 0 -9 9q0 8 9 8q8 0 8 -8zM358 382q0 -9 -8 -9
q-9 0 -9 9q0 8 9 8q8 0 8 -8zM258 442q0 -9 -8 -9q-9 0 -9 9q0 8 9 8q8 0 8 -8zM278 422q0 -9 -8 -9q-9 0 -9 9q0 8 9 8q8 0 8 -8zM298 402q0 -9 -8 -9q-9 0 -9 9q0 8 9 8q8 0 8 -8zM318 382q0 -9 -8 -9q-9 0 -9 9q0 8 9 8q8 0 8 -8zM238 422q0 -9 -8 -9q-9 0 -9 9q0 8 9 8
q8 0 8 -8zM258 402q0 -9 -8 -9q-9 0 -9 9q0 8 9 8q8 0 8 -8zM278 382q0 -9 -8 -9q-9 0 -9 9q0 8 9 8q8 0 8 -8zM298 362q0 -9 -8 -9q-9 0 -9 9q0 8 9 8q8 0 8 -8zM218 402q0 -9 -8 -9q-9 0 -9 9q0 8 9 8q8 0 8 -8zM238 382q0 -9 -8 -9q-9 0 -9 9q0 8 9 8q8 0 8 -8zM258 362
q0 -9 -8 -9q-9 0 -9 9q0 8 9 8q8 0 8 -8zM278 342q0 -9 -8 -9q-9 0 -9 9q0 8 9 8q8 0 8 -8zM218 362q0 -9 -8 -9q-9 0 -9 9q0 8 9 8q8 0 8 -8zM238 342q0 -9 -8 -9q-9 0 -9 9q0 8 9 8q8 0 8 -8zM351 242l-25 -25l-25 25l-25 -25l-25 25l25 25l-25 25l25 25l25 -25l25 25
l25 -25l-26 -25zM546 181q-40 -77 -126 -77q-85 0 -125 77h251zM198 342q0 -9 -8 -9q-9 0 -9 9q0 8 9 8q8 0 8 -8zM218 322q0 -9 -8 -9q-9 0 -9 9q0 8 9 8q8 0 8 -8zM198 302q0 -9 -8 -9q-9 0 -9 9q0 8 9 8q8 0 8 -8zM218 282q0 -9 -8 -9q-9 0 -9 9q0 8 9 8q8 0 8 -8z
M198 262q0 -9 -8 -9q-9 0 -9 9q0 8 9 8q8 0 8 -8z" />
    <glyph glyph-name="v" unicode="v" 
d="M712 302q0 -121 -85 -206.5t-206 -85.5q-122 0 -207 85t-85 207q0 145 114 231q55 111 147 111q79 0 128 -68q87 -30 140.5 -106t53.5 -168zM502 540l-86 4v-153h55zM667 293q-6 2 -6 9q0 6 6 8l-2 24q-4 3 -4 8q0 2 2 5q-5 24 -13 46q-9 0 -9 9q0 3 2 5l-6 12
q-2 -6 -7 -6q-9 0 -9 9q0 8 9 8h1q-35 57 -94 89q-2 -6 -7 -6q-7 0 -9 7l-3 -16v-2q0 -4 -2 -6l-6 -26q8 0 8 -8q0 -9 -8 -9q-3 0 -4 1l-19 -81h-105q0 14 -10 60h-2q-9 0 -9 9q0 6 6 8q-9 25 -22 44q-3 2 -4 5q-5 8 -11 14v0q-5 2 -9 9v0l-4 3q-21 -9 -39 -22v-1
q1 -9 -8 -9q-3 0 -4 1q-5 -4 -9 -8q1 -2 1 -4q0 -9 -8 -9q-3 0 -5 1l-8 -8q1 -2 1 -4q0 -9 -8 -9q-2 0 -4 1l-8 -12q0 -7 -6 -9q-13 -20 -22 -43q8 -1 8 -8q0 -9 -8 -9q-3 0 -5 1q-11 -35 -11 -72q0 -104 71.5 -175.5t175.5 -71.5q89 0 157.5 57t84.5 144q-2 3 -2 6q0 4 4 7
zM558 502q0 -9 -8 -9q-9 0 -9 9q0 8 9 8q8 0 8 -8zM578 482q0 -9 -8 -9q-9 0 -9 9q0 8 9 8q8 0 8 -8zM598 462q0 -9 -8 -9q-9 0 -9 9q0 8 9 8q8 0 8 -8zM618 442q0 -9 -8 -9q-9 0 -9 9q0 8 9 8q8 0 8 -8zM538 482q0 -9 -8 -9q-9 0 -9 9q0 8 9 8q8 0 8 -8zM558 462
q0 -9 -8 -9q-9 0 -9 9q0 8 9 8q8 0 8 -8zM578 442q0 -9 -8 -9q-9 0 -9 9q0 8 9 8q8 0 8 -8zM598 422q0 -9 -8 -9q-9 0 -9 9q0 8 9 8q8 0 8 -8zM618 402q0 -9 -8 -9q-9 0 -9 9q0 8 9 8q8 0 8 -8zM638 382q0 -9 -8 -9q-9 0 -9 9q0 8 9 8q8 0 8 -8zM658 362q0 -9 -8 -9
q-9 0 -9 9q0 8 9 8q8 0 8 -8zM538 442q0 -9 -8 -9q-9 0 -9 9q0 8 9 8q8 0 8 -8zM558 422q0 -9 -8 -9q-9 0 -9 9q0 8 9 8q8 0 8 -8zM578 402q0 -9 -8 -9q-9 0 -9 9q0 8 9 8q8 0 8 -8zM598 382q0 -9 -8 -9q-9 0 -9 9q0 8 9 8q8 0 8 -8zM618 362q0 -9 -8 -9q-9 0 -9 9q0 8 9 8
q8 0 8 -8zM638 342q0 -9 -8 -9q-9 0 -9 9q0 8 9 8q8 0 8 -8zM658 322q0 -9 -8 -9q-9 0 -9 9q0 8 9 8q8 0 8 -8zM518 422q0 -9 -8 -9q-9 0 -9 9q0 8 9 8q8 0 8 -8zM538 402q0 -9 -8 -9q-9 0 -9 9q0 8 9 8q8 0 8 -8zM558 382q0 -9 -8 -9q-9 0 -9 9q0 8 9 8q8 0 8 -8zM578 362
q0 -9 -8 -9q-9 0 -9 9q0 8 9 8q8 0 8 -8zM598 342q0 -9 -8 -9q-9 0 -9 9q0 8 9 8q8 0 8 -8zM618 322q0 -9 -8 -9q-9 0 -9 9q0 8 9 8q8 0 8 -8zM638 302q0 -9 -8 -9q-9 0 -9 9q0 8 9 8q8 0 8 -8zM658 282q0 -9 -8 -9q-9 0 -9 9q0 8 9 8q8 0 8 -8zM518 382q0 -9 -8 -9
q-9 0 -9 9q0 8 9 8q8 0 8 -8zM638 262q0 -9 -8 -9q-9 0 -9 9q0 8 9 8q8 0 8 -8zM318 502q0 -9 -8 -9q-9 0 -9 9q0 8 9 8q8 0 8 -8zM338 482q0 -9 -8 -9q-9 0 -9 9q0 8 9 8q8 0 8 -8zM358 462q0 -9 -8 -9q-9 0 -9 9q0 8 9 8q8 0 8 -8zM588 255q0 -33 -34 -33q-33 0 -33 33
q0 34 33 34q14 0 24 -10t10 -24zM298 482q0 -9 -8 -9q-9 0 -9 9q0 8 9 8q8 0 8 -8zM318 462q0 -9 -8 -9q-9 0 -9 9q0 8 9 8q8 0 8 -8zM338 442q0 -9 -8 -9q-9 0 -9 9q0 8 9 8q8 0 8 -8zM358 422q0 -9 -8 -9q-9 0 -9 9q0 8 9 8q8 0 8 -8zM378 402q0 -9 -8 -9q-9 0 -9 9
q0 8 9 8q8 0 8 -8zM278 462q0 -9 -8 -9q-9 0 -9 9q0 8 9 8q8 0 8 -8zM298 442q0 -9 -8 -9q-9 0 -9 9q0 8 9 8q8 0 8 -8zM318 422q0 -9 -8 -9q-9 0 -9 9q0 8 9 8q8 0 8 -8zM338 402q0 -9 -8 -9q-9 0 -9 9q0 8 9 8q8 0 8 -8zM358 382q0 -9 -8 -9q-9 0 -9 9q0 8 9 8q8 0 8 -8z
M258 442q0 -9 -8 -9q-9 0 -9 9q0 8 9 8q8 0 8 -8zM278 422q0 -9 -8 -9q-9 0 -9 9q0 8 9 8q8 0 8 -8zM298 402q0 -9 -8 -9q-9 0 -9 9q0 8 9 8q8 0 8 -8zM318 382q0 -9 -8 -9q-9 0 -9 9q0 8 9 8q8 0 8 -8zM238 422q0 -9 -8 -9q-9 0 -9 9q0 8 9 8q8 0 8 -8zM258 402q0 -9 -8 -9
q-9 0 -9 9q0 8 9 8q8 0 8 -8zM278 382q0 -9 -8 -9q-9 0 -9 9q0 8 9 8q8 0 8 -8zM298 362q0 -9 -8 -9q-9 0 -9 9q0 8 9 8q8 0 8 -8zM218 402q0 -9 -8 -9q-9 0 -9 9q0 8 9 8q8 0 8 -8zM238 382q0 -9 -8 -9q-9 0 -9 9q0 8 9 8q8 0 8 -8zM258 362q0 -9 -8 -9q-9 0 -9 9q0 8 9 8
q8 0 8 -8zM278 342q0 -9 -8 -9q-9 0 -9 9q0 8 9 8q8 0 8 -8zM218 362q0 -9 -8 -9q-9 0 -9 9q0 8 9 8q8 0 8 -8zM238 342q0 -9 -8 -9q-9 0 -9 9q0 8 9 8q8 0 8 -8zM546 181q-40 -77 -126 -77q-85 0 -125 77h251zM321 255q0 -33 -34 -33q-33 0 -33 33q0 34 33 34q14 0 24 -10
t10 -24zM198 342q0 -9 -8 -9q-9 0 -9 9q0 8 9 8q8 0 8 -8zM218 322q0 -9 -8 -9q-9 0 -9 9q0 8 9 8q8 0 8 -8zM198 302q0 -9 -8 -9q-9 0 -9 9q0 8 9 8q8 0 8 -8zM218 282q0 -9 -8 -9q-9 0 -9 9q0 8 9 8q8 0 8 -8zM198 262q0 -9 -8 -9q-9 0 -9 9q0 8 9 8q8 0 8 -8z" />
    <glyph glyph-name="w" unicode="w" 
d="M712 302q0 -121 -85 -206.5t-206 -85.5q-122 0 -207 85t-85 207q0 145 114 231q55 111 147 111q79 0 128 -68q87 -30 140.5 -106t53.5 -168zM502 540l-86 4v-153h55zM667 293q-6 2 -6 9q0 6 6 8l-2 24q-4 3 -4 8q0 2 2 5q-5 24 -13 46q-9 0 -9 9q0 3 2 5l-6 12
q-2 -6 -7 -6q-9 0 -9 9q0 8 9 8h1q-35 57 -94 89q-2 -6 -7 -6q-7 0 -9 7l-3 -16v-2q0 -4 -2 -6l-6 -26q8 0 8 -8q0 -9 -8 -9q-3 0 -4 1l-19 -81h-105q0 14 -10 60h-2q-9 0 -9 9q0 6 6 8q-9 25 -22 44q-3 2 -4 5q-5 8 -11 14v0q-5 2 -9 9v0l-4 3q-21 -9 -39 -22v-1
q1 -9 -8 -9q-3 0 -4 1q-5 -4 -9 -8q1 -2 1 -4q0 -9 -8 -9q-3 0 -5 1l-8 -8q1 -2 1 -4q0 -9 -8 -9q-2 0 -4 1l-8 -12q0 -7 -6 -9q-13 -20 -22 -43q8 -1 8 -8q0 -9 -8 -9q-3 0 -5 1q-11 -35 -11 -72q0 -104 71.5 -175.5t175.5 -71.5q89 0 157.5 57t84.5 144q-2 3 -2 6q0 4 4 7
zM558 502q0 -9 -8 -9q-9 0 -9 9q0 8 9 8q8 0 8 -8zM578 482q0 -9 -8 -9q-9 0 -9 9q0 8 9 8q8 0 8 -8zM598 462q0 -9 -8 -9q-9 0 -9 9q0 8 9 8q8 0 8 -8zM618 442q0 -9 -8 -9q-9 0 -9 9q0 8 9 8q8 0 8 -8zM538 482q0 -9 -8 -9q-9 0 -9 9q0 8 9 8q8 0 8 -8zM558 462
q0 -9 -8 -9q-9 0 -9 9q0 8 9 8q8 0 8 -8zM578 442q0 -9 -8 -9q-9 0 -9 9q0 8 9 8q8 0 8 -8zM598 422q0 -9 -8 -9q-9 0 -9 9q0 8 9 8q8 0 8 -8zM618 402q0 -9 -8 -9q-9 0 -9 9q0 8 9 8q8 0 8 -8zM638 382q0 -9 -8 -9q-9 0 -9 9q0 8 9 8q8 0 8 -8zM658 362q0 -9 -8 -9
q-9 0 -9 9q0 8 9 8q8 0 8 -8zM538 442q0 -9 -8 -9q-9 0 -9 9q0 8 9 8q8 0 8 -8zM558 422q0 -9 -8 -9q-9 0 -9 9q0 8 9 8q8 0 8 -8zM578 402q0 -9 -8 -9q-9 0 -9 9q0 8 9 8q8 0 8 -8zM598 382q0 -9 -8 -9q-9 0 -9 9q0 8 9 8q8 0 8 -8zM618 362q0 -9 -8 -9q-9 0 -9 9q0 8 9 8
q8 0 8 -8zM638 342q0 -9 -8 -9q-9 0 -9 9q0 8 9 8q8 0 8 -8zM658 322q0 -9 -8 -9q-9 0 -9 9q0 8 9 8q8 0 8 -8zM518 422q0 -9 -8 -9q-9 0 -9 9q0 8 9 8q8 0 8 -8zM538 402q0 -9 -8 -9q-9 0 -9 9q0 8 9 8q8 0 8 -8zM558 382q0 -9 -8 -9q-9 0 -9 9q0 8 9 8q8 0 8 -8zM578 362
q0 -9 -8 -9q-9 0 -9 9q0 8 9 8q8 0 8 -8zM598 342q0 -9 -8 -9q-9 0 -9 9q0 8 9 8q8 0 8 -8zM618 322q0 -9 -8 -9q-9 0 -9 9q0 8 9 8q8 0 8 -8zM638 302q0 -9 -8 -9q-9 0 -9 9q0 8 9 8q8 0 8 -8zM658 282q0 -9 -8 -9q-9 0 -9 9q0 8 9 8q8 0 8 -8zM518 382q0 -9 -8 -9
q-9 0 -9 9q0 8 9 8q8 0 8 -8zM638 262q0 -9 -8 -9q-9 0 -9 9q0 8 9 8q8 0 8 -8zM318 502q0 -9 -8 -9q-9 0 -9 9q0 8 9 8q8 0 8 -8zM338 482q0 -9 -8 -9q-9 0 -9 9q0 8 9 8q8 0 8 -8zM358 462q0 -9 -8 -9q-9 0 -9 9q0 8 9 8q8 0 8 -8zM563 215h-72v72h72v-72zM298 482
q0 -9 -8 -9q-9 0 -9 9q0 8 9 8q8 0 8 -8zM318 462q0 -9 -8 -9q-9 0 -9 9q0 8 9 8q8 0 8 -8zM338 442q0 -9 -8 -9q-9 0 -9 9q0 8 9 8q8 0 8 -8zM358 422q0 -9 -8 -9q-9 0 -9 9q0 8 9 8q8 0 8 -8zM378 402q0 -9 -8 -9q-9 0 -9 9q0 8 9 8q8 0 8 -8zM278 462q0 -9 -8 -9
q-9 0 -9 9q0 8 9 8q8 0 8 -8zM298 442q0 -9 -8 -9q-9 0 -9 9q0 8 9 8q8 0 8 -8zM318 422q0 -9 -8 -9q-9 0 -9 9q0 8 9 8q8 0 8 -8zM338 402q0 -9 -8 -9q-9 0 -9 9q0 8 9 8q8 0 8 -8zM358 382q0 -9 -8 -9q-9 0 -9 9q0 8 9 8q8 0 8 -8zM258 442q0 -9 -8 -9q-9 0 -9 9q0 8 9 8
q8 0 8 -8zM278 422q0 -9 -8 -9q-9 0 -9 9q0 8 9 8q8 0 8 -8zM298 402q0 -9 -8 -9q-9 0 -9 9q0 8 9 8q8 0 8 -8zM318 382q0 -9 -8 -9q-9 0 -9 9q0 8 9 8q8 0 8 -8zM238 422q0 -9 -8 -9q-9 0 -9 9q0 8 9 8q8 0 8 -8zM258 402q0 -9 -8 -9q-9 0 -9 9q0 8 9 8q8 0 8 -8zM278 382
q0 -9 -8 -9q-9 0 -9 9q0 8 9 8q8 0 8 -8zM298 362q0 -9 -8 -9q-9 0 -9 9q0 8 9 8q8 0 8 -8zM218 402q0 -9 -8 -9q-9 0 -9 9q0 8 9 8q8 0 8 -8zM238 382q0 -9 -8 -9q-9 0 -9 9q0 8 9 8q8 0 8 -8zM258 362q0 -9 -8 -9q-9 0 -9 9q0 8 9 8q8 0 8 -8zM278 342q0 -9 -8 -9
q-9 0 -9 9q0 8 9 8q8 0 8 -8zM218 362q0 -9 -8 -9q-9 0 -9 9q0 8 9 8q8 0 8 -8zM238 342q0 -9 -8 -9q-9 0 -9 9q0 8 9 8q8 0 8 -8zM351 215h-72v72h72v-72zM546 181q-40 -77 -126 -77q-85 0 -125 77h251zM198 342q0 -9 -8 -9q-9 0 -9 9q0 8 9 8q8 0 8 -8zM218 322
q0 -9 -8 -9q-9 0 -9 9q0 8 9 8q8 0 8 -8zM198 302q0 -9 -8 -9q-9 0 -9 9q0 8 9 8q8 0 8 -8zM218 282q0 -9 -8 -9q-9 0 -9 9q0 8 9 8q8 0 8 -8zM198 262q0 -9 -8 -9q-9 0 -9 9q0 8 9 8q8 0 8 -8z" />
    <glyph glyph-name="x" unicode="x" horiz-adv-x="792" 
d="M770 555q2 -12 2 -23q0 -88 -72 -147q12 -41 12 -83q0 -121 -85 -206.5t-206 -85.5q-122 0 -207 85t-85 207q0 43 13 85q-71 58 -71 145q0 11 2 23q-17 15 -17 35q0 32 44 72q19 16 57 49q18 16 39 16q42 0 53 -44q6 -19 17 -56q12 -43 8 -73q68 39 147 39q80 0 148 -41
q-1 8 -1 16q0 29 11 66q5 16 15 49q11 44 53 44q21 0 39.5 -16t56.5 -49q44 -40 44 -72q0 -20 -17 -35zM737 602l-82 76q-13 12 -17 -5l-25 -110q-2 -7 2 -10.5t11 -1.5l17 5q3 -12 3 -23q0 -45 -49 -64q-27 -10 -27 -37q0 -17 11 -29t28 -12q9 0 14 2t22 11q82 45 82 127
q0 24 -8 48l14 5q17 6 4 18zM246 469q-49 19 -49 64q0 11 3 23l17 -5q7 -2 11 1.5t2 10.5l-25 110q-4 17 -17 5l-82 -76q-13 -12 4 -18l14 -5q-8 -24 -8 -48q0 -81 82 -127q23 -13 36 -13q17 0 28 12t11 29q0 27 -27 37zM667 302q0 29 -7 58q-29 -14 -51 -14q-58 0 -78 56
q-6 17 -6 33q0 36 41 65q-65 48 -145 48q-81 0 -145 -47q10 -7 18 -15q11 21 34 21q16 0 27.5 -11t11.5 -27t-11.5 -27.5t-27.5 -11.5q-5 0 -10 1q-1 -35 -25 -60t-59 -25q-22 0 -53 15q-7 -29 -7 -59q0 -104 71.5 -175.5t175.5 -71.5q103 0 174.5 72t71.5 175zM399 513
q0 -24 -24 -24t-24 24t24 24t24 -24zM421 469q0 -15 -15 -15q-14 0 -14 15q0 14 14 14q15 0 15 -14zM589 235h-148q23 45 74 45t74 -45zM401 235h-149q23 45 74 45t75 -45zM546 181q-40 -77 -126 -77q-85 0 -125 77h251z" />
    <glyph glyph-name="y" unicode="y" horiz-adv-x="792" 
d="M770 555q2 -12 2 -23q0 -88 -72 -147q12 -41 12 -83q0 -121 -85 -206.5t-206 -85.5q-122 0 -207 85t-85 207q0 43 13 85q-71 58 -71 145q0 11 2 23q-17 15 -17 35q0 32 44 72q19 16 57 49q18 16 39 16q42 0 53 -44q6 -19 17 -56q12 -43 8 -73q68 39 147 39q80 0 148 -41
q-1 8 -1 16q0 29 11 66q5 16 15 49q11 44 53 44q21 0 39.5 -16t56.5 -49q44 -40 44 -72q0 -20 -17 -35zM737 602l-82 76q-13 12 -17 -5l-25 -110q-2 -7 2 -10.5t11 -1.5l17 5q3 -12 3 -23q0 -45 -49 -64q-27 -10 -27 -37q0 -17 11 -29t28 -12q9 0 14 2t22 11q82 45 82 127
q0 24 -8 48l14 5q17 6 4 18zM246 469q-49 19 -49 64q0 11 3 23l17 -5q7 -2 11 1.5t2 10.5l-25 110q-4 17 -17 5l-82 -76q-13 -12 4 -18l14 -5q-8 -24 -8 -48q0 -81 82 -127q23 -13 36 -13q17 0 28 12t11 29q0 27 -27 37zM667 302q0 29 -7 58q-29 -14 -51 -14q-58 0 -78 56
q-6 17 -6 33q0 36 41 65q-65 48 -145 48q-81 0 -145 -47q10 -7 18 -15q11 21 34 21q16 0 27.5 -11t11.5 -27t-11.5 -27.5t-27.5 -11.5q-5 0 -10 1q-1 -35 -25 -60t-59 -25q-22 0 -53 15q-7 -29 -7 -59q0 -104 71.5 -175.5t175.5 -71.5q103 0 174.5 72t71.5 175zM399 513
q0 -24 -24 -24t-24 24t24 24t24 -24zM421 469q0 -15 -15 -15q-14 0 -14 15q0 14 14 14q15 0 15 -14zM615 233l-31 -16q-19 36 -59 36q-28 0 -47 -20h-43q29 55 90 55t90 -55zM406 233h-43q-19 20 -47 20q-40 0 -59 -36l-31 16q29 55 90 55t90 -55zM546 181q-40 -77 -126 -77
q-85 0 -125 77h251z" />
    <glyph glyph-name="z" unicode="z" horiz-adv-x="790" 
d="M770 555q2 -12 2 -23q0 -88 -72 -147q12 -41 12 -83q0 -121 -85 -206.5t-206 -85.5q-122 0 -207 85t-85 207q0 43 13 85q-71 58 -71 145q0 11 2 23q-17 15 -17 35q0 32 44 72q19 16 57 49q18 16 39 16q42 0 53 -44q6 -19 17 -56q12 -43 8 -73q68 39 147 39q80 0 148 -41
q-1 8 -1 16q0 29 11 66q5 16 15 49q11 44 53 44q21 0 39.5 -16t56.5 -49q44 -40 44 -72q0 -20 -17 -35zM737 602l-82 76q-13 12 -17 -5l-25 -110q-2 -7 2 -10.5t11 -1.5l17 5q3 -12 3 -23q0 -45 -49 -64q-27 -10 -27 -37q0 -17 11 -29t28 -12q9 0 14 2t22 11q82 45 82 127
q0 24 -8 48l14 5q17 6 4 18zM246 469q-49 19 -49 64q0 11 3 23l17 -5q7 -2 11 1.5t2 10.5l-25 110q-4 17 -17 5l-82 -76q-13 -12 4 -18l14 -5q-8 -24 -8 -48q0 -81 82 -127q23 -13 36 -13q17 0 28 12t11 29q0 27 -27 37zM667 302q0 29 -7 58q-29 -14 -51 -14q-58 0 -78 56
q-6 17 -6 33q0 36 41 65q-65 48 -145 48q-81 0 -145 -47q10 -7 18 -15q11 21 34 21q16 0 27.5 -11t11.5 -27t-11.5 -27.5t-27.5 -11.5q-5 0 -10 1q-1 -35 -25 -60t-59 -25q-22 0 -53 15q-7 -29 -7 -59q0 -104 71.5 -175.5t175.5 -71.5q103 0 174.5 72t71.5 175zM399 513
q0 -24 -24 -24t-24 24t24 24t24 -24zM421 469q0 -15 -15 -15q-14 0 -14 15q0 14 14 14q15 0 15 -14zM590 242l-24 -25l-26 25l-25 -25l-24 25l25 25l-25 25l24 25l25 -25l26 25l24 -25l-25 -25zM351 242l-25 -25l-25 25l-25 -25l-25 25l25 25l-25 25l25 25l25 -25l25 25
l25 -25l-26 -25zM546 181q-40 -77 -126 -77q-85 0 -125 77h251z" />
    <glyph glyph-name="braceleft" unicode="{" horiz-adv-x="790" 
d="M770 555q2 -12 2 -23q0 -88 -72 -147q12 -41 12 -83q0 -121 -85 -206.5t-206 -85.5q-122 0 -207 85t-85 207q0 43 13 85q-71 58 -71 145q0 11 2 23q-17 15 -17 35q0 32 44 72q19 16 57 49q18 16 39 16q42 0 53 -44q6 -19 17 -56q12 -43 8 -73q68 39 147 39q80 0 148 -41
q-1 8 -1 16q0 29 11 66q5 16 15 49q11 44 53 44q21 0 39.5 -16t56.5 -49q44 -40 44 -72q0 -20 -17 -35zM737 602l-82 76q-13 12 -17 -5l-25 -110q-2 -7 2 -10.5t11 -1.5l17 5q3 -12 3 -23q0 -45 -49 -64q-27 -10 -27 -37q0 -17 11 -29t28 -12q9 0 14 2t22 11q82 45 82 127
q0 24 -8 48l14 5q17 6 4 18zM246 469q-49 19 -49 64q0 11 3 23l17 -5q7 -2 11 1.5t2 10.5l-25 110q-4 17 -17 5l-82 -76q-13 -12 4 -18l14 -5q-8 -24 -8 -48q0 -81 82 -127q23 -13 36 -13q17 0 28 12t11 29q0 27 -27 37zM667 302q0 29 -7 58q-29 -14 -51 -14q-58 0 -78 56
q-6 17 -6 33q0 36 41 65q-65 48 -145 48q-81 0 -145 -47q10 -7 18 -15q11 21 34 21q16 0 27.5 -11t11.5 -27t-11.5 -27.5t-27.5 -11.5q-5 0 -10 1q-1 -35 -25 -60t-59 -25q-22 0 -53 15q-7 -29 -7 -59q0 -104 71.5 -175.5t175.5 -71.5q103 0 174.5 72t71.5 175zM399 513
q0 -24 -24 -24t-24 24t24 24t24 -24zM421 469q0 -15 -15 -15q-14 0 -14 15q0 14 14 14q15 0 15 -14zM588 255q0 -33 -34 -33q-33 0 -33 33q0 34 33 34q14 0 24 -10t10 -24zM546 181q-40 -77 -126 -77q-85 0 -125 77h251zM321 255q0 -33 -34 -33q-33 0 -33 33q0 34 33 34
q14 0 24 -10t10 -24z" />
    <glyph glyph-name="bar" unicode="|" horiz-adv-x="790" 
d="M770 555q2 -12 2 -23q0 -88 -72 -147q12 -41 12 -83q0 -121 -85 -206.5t-206 -85.5q-122 0 -207 85t-85 207q0 43 13 85q-71 58 -71 145q0 11 2 23q-17 15 -17 35q0 32 44 72q19 16 57 49q18 16 39 16q42 0 53 -44q6 -19 17 -56q12 -43 8 -73q68 39 147 39q80 0 148 -41
q-1 8 -1 16q0 29 11 66q5 16 15 49q11 44 53 44q21 0 39.5 -16t56.5 -49q44 -40 44 -72q0 -20 -17 -35zM737 602l-82 76q-13 12 -17 -5l-25 -110q-2 -7 2 -10.5t11 -1.5l17 5q3 -12 3 -23q0 -45 -49 -64q-27 -10 -27 -37q0 -17 11 -29t28 -12q9 0 14 2t22 11q82 45 82 127
q0 24 -8 48l14 5q17 6 4 18zM246 469q-49 19 -49 64q0 11 3 23l17 -5q7 -2 11 1.5t2 10.5l-25 110q-4 17 -17 5l-82 -76q-13 -12 4 -18l14 -5q-8 -24 -8 -48q0 -81 82 -127q23 -13 36 -13q17 0 28 12t11 29q0 27 -27 37zM667 302q0 29 -7 58q-29 -14 -51 -14q-58 0 -78 56
q-6 17 -6 33q0 36 41 65q-65 48 -145 48q-81 0 -145 -47q10 -7 18 -15q11 21 34 21q16 0 27.5 -11t11.5 -27t-11.5 -27.5t-27.5 -11.5q-5 0 -10 1q-1 -35 -25 -60t-59 -25q-22 0 -53 15q-7 -29 -7 -59q0 -104 71.5 -175.5t175.5 -71.5q103 0 174.5 72t71.5 175zM399 513
q0 -24 -24 -24t-24 24t24 24t24 -24zM421 469q0 -15 -15 -15q-14 0 -14 15q0 14 14 14q15 0 15 -14zM563 215h-72v72h72v-72zM351 215h-72v72h72v-72zM546 181q-40 -77 -126 -77q-85 0 -125 77h251z" />
    <glyph glyph-name="braceright" unicode="}" 
d="M712 302q0 -121 -85 -206.5t-206 -85.5q-122 0 -207 85t-85 207q0 101 63 180q-102 10 -113 53l26 10l-26 15l33 21l-16 21l38 16l-6 25l40 10l5 26l40 4l15 26l36 -4l26 25l30 -11l32 22l22 -18l38 17l11 -23l40 10l1 -25l40 3l-11 -27l36 -5l19 -12q1 -5 1 -10
q0 -29 -45 -70q92 -28 150 -105.5t58 -173.5zM505 650q-7 26 -78 26q-60 0 -134.5 -20.5t-124.5 -51.5q-53 -32 -46 -57q7 -27 78 -27q61 0 135 20.5t125 52.5t45 57zM667 302q0 103 -71.5 174.5t-174.5 71.5t-175 -71.5t-72 -174.5q0 -104 71.5 -175.5t175.5 -71.5
q103 0 174.5 72t71.5 175zM428 629q5 -20 -42 -43q-31 -15 -63 -23q-42 -11 -78 -11q-42 0 -46 16q-5 19 43 42q32 16 62 24q41 11 78 11q42 0 46 -16zM589 235h-148q23 45 74 45t74 -45zM401 235h-149q23 45 74 45t75 -45zM546 181q-40 -77 -126 -77q-85 0 -125 77h251z
" />
    <glyph glyph-name="asciitilde" unicode="~" 
d="M712 302q0 -121 -85 -206.5t-206 -85.5q-122 0 -207 85t-85 207q0 101 63 180q-102 10 -113 53l26 10l-26 15l33 21l-16 21l38 16l-6 25l40 10l5 26l40 4l15 26l36 -4l26 25l30 -11l32 22l22 -18l38 17l11 -23l40 10l1 -25l40 3l-11 -27l36 -5l19 -12q1 -5 1 -10
q0 -29 -45 -70q92 -28 150 -105.5t58 -173.5zM505 650q-7 26 -78 26q-60 0 -134.5 -20.5t-124.5 -51.5q-53 -32 -46 -57q7 -27 78 -27q61 0 135 20.5t125 52.5t45 57zM667 302q0 103 -71.5 174.5t-174.5 71.5t-175 -71.5t-72 -174.5q0 -104 71.5 -175.5t175.5 -71.5
q103 0 174.5 72t71.5 175zM428 629q5 -20 -42 -43q-31 -15 -63 -23q-42 -11 -78 -11q-42 0 -46 16q-5 19 43 42q32 16 62 24q41 11 78 11q42 0 46 -16zM615 233l-31 -16q-19 36 -59 36q-28 0 -47 -20h-43q29 55 90 55t90 -55zM406 233h-43q-19 20 -47 20q-40 0 -59 -36
l-31 16q29 55 90 55t90 -55zM546 181q-40 -77 -126 -77q-85 0 -125 77h251z" />
    <glyph glyph-name="dagger" unicode="&#x2020;" 
d="M712 302q0 -121 -85 -206.5t-206 -85.5q-122 0 -207 85t-85 207q0 121 85.5 206t206.5 85t206 -85t85 -206zM667 302q0 103 -71.5 174.5t-174.5 71.5t-175 -71.5t-72 -174.5q0 -104 71.5 -175.5t175.5 -71.5q103 0 174.5 72t71.5 175zM563 215h-72v72h72v-72zM351 215
h-72v72h72v-72zM546 181q-40 -77 -126 -77q-85 0 -125 77h251z" />
    <glyph glyph-name="cent" unicode="&#xa2;" 
d="M712 302q0 -121 -85 -206.5t-206 -85.5q-122 0 -207 85t-85 207q0 121 85.5 206t206.5 85t206 -85t85 -206zM667 302q0 103 -71.5 174.5t-174.5 71.5t-175 -71.5t-72 -174.5q0 -104 71.5 -175.5t175.5 -71.5q103 0 174.5 72t71.5 175zM615 233l-31 -16q-19 36 -59 36
q-28 0 -47 -20h-43q29 55 90 55t90 -55zM406 233h-43q-19 20 -47 20q-40 0 -59 -36l-31 16q29 55 90 55t90 -55zM546 181q-40 -77 -126 -77q-85 0 -125 77h251z" />
    <glyph glyph-name="sterling" unicode="&#xa3;" 
d="M712 302q0 -121 -85 -206.5t-206 -85.5q-122 0 -207 85t-85 207q0 121 85.5 206t206.5 85t206 -85t85 -206zM667 302q0 103 -71.5 174.5t-174.5 71.5t-175 -71.5t-72 -174.5q0 -104 71.5 -175.5t175.5 -71.5q103 0 174.5 72t71.5 175zM590 242l-24 -25l-26 25l-25 -25
l-24 25l25 25l-25 25l24 25l25 -25l26 25l24 -25l-25 -25zM351 242l-25 -25l-25 25l-25 -25l-25 25l25 25l-25 25l25 25l25 -25l25 25l25 -25l-26 -25zM546 181q-40 -77 -126 -77q-85 0 -125 77h251z" />
    <glyph glyph-name="section" unicode="&#xa7;" 
d="M712 302q0 -121 -85 -206.5t-206 -85.5q-122 0 -207 85t-85 207q0 121 85.5 206t206.5 85t206 -85t85 -206zM667 302q0 103 -71.5 174.5t-174.5 71.5t-175 -71.5t-72 -174.5q0 -104 71.5 -175.5t175.5 -71.5q103 0 174.5 72t71.5 175zM588 255q0 -33 -34 -33
q-33 0 -33 33q0 34 33 34q14 0 24 -10t10 -24zM546 181q-40 -77 -126 -77q-85 0 -125 77h251zM321 255q0 -33 -34 -33q-33 0 -33 33q0 34 33 34q14 0 24 -10t10 -24z" />
    <glyph glyph-name="bullet" unicode="&#x2022;" 
d="M712 302q0 -121 -85 -206.5t-206 -85.5q-122 0 -207 85t-85 207q0 121 85.5 206t206.5 85t206 -85t85 -206zM667 302q0 103 -71.5 174.5t-174.5 71.5t-175 -71.5t-72 -174.5q0 -104 71.5 -175.5t175.5 -71.5q103 0 174.5 72t71.5 175zM563 215h-72v72h72v-72zM351 215
h-72v72h72v-72zM546 181q-40 -77 -126 -77q-85 0 -125 77h251z" />
    <glyph glyph-name="paragraph" unicode="&#xb6;" 
d="M712 302q0 -121 -85 -206.5t-206 -85.5q-122 0 -207 85t-85 207q0 121 85.5 206t206.5 85t206 -85t85 -206zM667 302q0 103 -71.5 174.5t-174.5 71.5t-175 -71.5t-72 -174.5q0 -104 71.5 -175.5t175.5 -71.5q103 0 174.5 72t71.5 175zM589 235h-148q23 45 74 45t74 -45z
M401 235h-149q23 45 74 45t75 -45zM546 181q-40 -77 -126 -77q-85 0 -125 77h251z" />
    <glyph glyph-name="germandbls" unicode="&#xdf;" 
d="M712 302q0 -121 -85 -206.5t-206 -85.5q-122 0 -207 85t-85 207q0 121 85.5 206t206.5 85t206 -85t85 -206zM667 302q0 103 -71.5 174.5t-174.5 71.5t-175 -71.5t-72 -174.5q0 -104 71.5 -175.5t175.5 -71.5q103 0 174.5 72t71.5 175zM615 233l-31 -16q-19 36 -59 36
q-28 0 -47 -20h-43q29 55 90 55t90 -55zM406 233h-43q-19 20 -47 20q-40 0 -59 -36l-31 16q29 55 90 55t90 -55zM546 181q-40 -77 -126 -77q-85 0 -125 77h251z" />
    <glyph glyph-name="acute" unicode="&#xb4;" 
d="M712 302q0 -121 -85 -206.5t-206 -85.5q-122 0 -207 85t-85 207q0 121 85.5 206t206.5 85t206 -85t85 -206zM667 302q0 103 -71.5 174.5t-174.5 71.5t-175 -71.5t-72 -174.5q0 -104 71.5 -175.5t175.5 -71.5q103 0 174.5 72t71.5 175zM589 235h-148q23 45 74 45t74 -45z
M401 235h-149q23 45 74 45t75 -45zM546 181q-40 -77 -126 -77q-85 0 -125 77h251z" />
    <glyph glyph-name="dieresis" unicode="&#xa8;" 
d="M712 302q0 -121 -85 -206.5t-206 -85.5q-122 0 -207 85t-85 207q0 121 85.5 206t206.5 85t206 -85t85 -206zM667 302q0 103 -71.5 174.5t-174.5 71.5t-175 -71.5t-72 -174.5q0 -104 71.5 -175.5t175.5 -71.5q103 0 174.5 72t71.5 175zM615 233l-31 -16q-19 36 -59 36
q-28 0 -47 -20h-43q29 55 90 55t90 -55zM406 233h-43q-19 20 -47 20q-40 0 -59 -36l-31 16q29 55 90 55t90 -55zM546 181q-40 -77 -126 -77q-85 0 -125 77h251z" />
    <glyph glyph-name="AE" unicode="&#xc6;" 
d="M712 302q0 -121 -85 -206.5t-206 -85.5q-122 0 -207 85t-85 207q0 121 85.5 206t206.5 85t206 -85t85 -206zM667 302q0 103 -71.5 174.5t-174.5 71.5t-175 -71.5t-72 -174.5q0 -104 71.5 -175.5t175.5 -71.5q103 0 174.5 72t71.5 175zM588 255q0 -33 -34 -33
q-33 0 -33 33q0 34 33 34q14 0 24 -10t10 -24zM546 181q-40 -77 -126 -77q-85 0 -125 77h251zM321 255q0 -33 -34 -33q-33 0 -33 33q0 34 33 34q14 0 24 -10t10 -24z" />
    <glyph glyph-name="Oslash" unicode="&#xd8;" 
d="M712 302q0 -121 -85 -206.5t-206 -85.5q-122 0 -207 85t-85 207q0 121 85.5 206t206.5 85t206 -85t85 -206zM667 302q0 103 -71.5 174.5t-174.5 71.5t-175 -71.5t-72 -174.5q0 -104 71.5 -175.5t175.5 -71.5q103 0 174.5 72t71.5 175zM563 215h-72v72h72v-72zM351 215
h-72v72h72v-72zM546 181q-40 -77 -126 -77q-85 0 -125 77h251z" />
    <glyph glyph-name="yen" unicode="&#xa5;" 
d="M712 302q0 -121 -85 -206.5t-206 -85.5q-122 0 -207 85t-85 207q0 121 85.5 206t206.5 85t206 -85t85 -206zM667 302q0 103 -71.5 174.5t-174.5 71.5t-175 -71.5t-72 -174.5q0 -104 71.5 -175.5t175.5 -71.5q103 0 174.5 72t71.5 175zM563 215h-72v72h72v-72zM351 215
h-72v72h72v-72zM546 181q-40 -77 -126 -77q-85 0 -125 77h251z" />
    <glyph glyph-name="ordfeminine" unicode="&#xaa;" 
d="M712 302q0 -121 -85 -206.5t-206 -85.5q-122 0 -207 85t-85 207q0 121 85.5 206t206.5 85t206 -85t85 -206zM667 302q0 103 -71.5 174.5t-174.5 71.5t-175 -71.5t-72 -174.5q0 -104 71.5 -175.5t175.5 -71.5q103 0 174.5 72t71.5 175zM615 233l-31 -16q-19 36 -59 36
q-28 0 -47 -20h-43q29 55 90 55t90 -55zM406 233h-43q-19 20 -47 20q-40 0 -59 -36l-31 16q29 55 90 55t90 -55zM546 181q-40 -77 -126 -77q-85 0 -125 77h251z" />
    <glyph glyph-name="ordmasculine" unicode="&#xba;" 
d="M712 302q0 -121 -85 -206.5t-206 -85.5q-122 0 -207 85t-85 207q0 121 85.5 206t206.5 85t206 -85t85 -206zM667 302q0 103 -71.5 174.5t-174.5 71.5t-175 -71.5t-72 -174.5q0 -104 71.5 -175.5t175.5 -71.5q103 0 174.5 72t71.5 175zM590 242l-24 -25l-26 25l-25 -25
l-24 25l25 25l-25 25l24 25l25 -25l26 25l24 -25l-25 -25zM351 242l-25 -25l-25 25l-25 -25l-25 25l25 25l-25 25l25 25l25 -25l25 25l25 -25l-26 -25zM546 181q-40 -77 -126 -77q-85 0 -125 77h251z" />
    <glyph glyph-name="ae" unicode="&#xe6;" 
d="M712 302q0 -121 -85 -206.5t-206 -85.5q-122 0 -207 85t-85 207q0 121 85.5 206t206.5 85t206 -85t85 -206zM667 302q0 103 -71.5 174.5t-174.5 71.5t-175 -71.5t-72 -174.5q0 -104 71.5 -175.5t175.5 -71.5q103 0 174.5 72t71.5 175zM563 215h-72v72h72v-72zM351 215
h-72v72h72v-72zM546 181q-40 -77 -126 -77q-85 0 -125 77h251z" />
    <glyph glyph-name="oslash" unicode="&#xf8;" 
d="M712 302q0 -121 -85 -206.5t-206 -85.5q-122 0 -207 85t-85 207q0 121 85.5 206t206.5 85t206 -85t85 -206zM667 302q0 103 -71.5 174.5t-174.5 71.5t-175 -71.5t-72 -174.5q0 -104 71.5 -175.5t175.5 -71.5q103 0 174.5 72t71.5 175zM589 235h-148q23 45 74 45t74 -45z
M401 235h-149q23 45 74 45t75 -45zM546 181q-40 -77 -126 -77q-85 0 -125 77h251z" />
    <glyph glyph-name="questiondown" unicode="&#xbf;" 
d="M712 302q0 -121 -85 -206.5t-206 -85.5q-122 0 -207 85t-85 207q0 121 85.5 206t206.5 85t206 -85t85 -206zM667 302q0 103 -71.5 174.5t-174.5 71.5t-175 -71.5t-72 -174.5q0 -104 71.5 -175.5t175.5 -71.5q103 0 174.5 72t71.5 175zM615 233l-31 -16q-19 36 -59 36
q-28 0 -47 -20h-43q29 55 90 55t90 -55zM406 233h-43q-19 20 -47 20q-40 0 -59 -36l-31 16q29 55 90 55t90 -55zM546 181q-40 -77 -126 -77q-85 0 -125 77h251z" />
    <glyph glyph-name="exclamdown" unicode="&#xa1;" 
d="M712 302q0 -121 -85 -206.5t-206 -85.5q-122 0 -207 85t-85 207q0 121 85.5 206t206.5 85t206 -85t85 -206zM667 302q0 103 -71.5 174.5t-174.5 71.5t-175 -71.5t-72 -174.5q0 -104 71.5 -175.5t175.5 -71.5q103 0 174.5 72t71.5 175zM590 242l-24 -25l-26 25l-25 -25
l-24 25l25 25l-25 25l24 25l25 -25l26 25l24 -25l-25 -25zM351 242l-25 -25l-25 25l-25 -25l-25 25l25 25l-25 25l25 25l25 -25l25 25l25 -25l-26 -25zM546 181q-40 -77 -126 -77q-85 0 -125 77h251z" />
    <glyph glyph-name="florin" unicode="&#x192;" 
d="M712 302q0 -121 -85 -206.5t-206 -85.5q-122 0 -207 85t-85 207q0 121 85.5 206t206.5 85t206 -85t85 -206zM667 302q0 103 -71.5 174.5t-174.5 71.5t-175 -71.5t-72 -174.5q0 -104 71.5 -175.5t175.5 -71.5q103 0 174.5 72t71.5 175zM589 235h-148q23 45 74 45t74 -45z
M401 235h-149q23 45 74 45t75 -45zM546 181q-40 -77 -126 -77q-85 0 -125 77h251z" />
    <glyph glyph-name="guillemotleft" unicode="&#xab;" 
d="M712 302q0 -121 -85 -206.5t-206 -85.5q-122 0 -207 85t-85 207q0 121 85.5 206t206.5 85t206 -85t85 -206zM667 302q0 103 -71.5 174.5t-174.5 71.5t-175 -71.5t-72 -174.5q0 -104 71.5 -175.5t175.5 -71.5q103 0 174.5 72t71.5 175zM588 255q0 -33 -34 -33
q-33 0 -33 33q0 34 33 34q14 0 24 -10t10 -24zM546 181q-40 -77 -126 -77q-85 0 -125 77h251zM321 255q0 -33 -34 -33q-33 0 -33 33q0 34 33 34q14 0 24 -10t10 -24z" />
    <glyph glyph-name="guillemotright" unicode="&#xbb;" 
d="M712 302q0 -121 -85 -206.5t-206 -85.5q-122 0 -207 85t-85 207q0 121 85.5 206t206.5 85t206 -85t85 -206zM667 302q0 103 -71.5 174.5t-174.5 71.5t-175 -71.5t-72 -174.5q0 -104 71.5 -175.5t175.5 -71.5q103 0 174.5 72t71.5 175zM563 215h-72v72h72v-72zM351 215
h-72v72h72v-72zM546 181q-40 -77 -126 -77q-85 0 -125 77h251z" />
    <glyph glyph-name="ellipsis" unicode="&#x2026;" 
d="M712 302q0 -121 -85 -206.5t-206 -85.5q-122 0 -207 85t-85 207q0 121 85.5 206t206.5 85t206 -85t85 -206zM667 302q0 103 -71.5 174.5t-174.5 71.5t-175 -71.5t-72 -174.5q0 -104 71.5 -175.5t175.5 -71.5q103 0 174.5 72t71.5 175zM589 235h-148q23 45 74 45t74 -45z
M401 235h-149q23 45 74 45t75 -45zM546 181q-40 -77 -126 -77q-85 0 -125 77h251z" />
    <glyph glyph-name="OE" unicode="&#x152;" 
d="M712 302q0 -121 -85 -206.5t-206 -85.5q-122 0 -207 85t-85 207q0 121 85.5 206t206.5 85t206 -85t85 -206zM667 302q0 103 -71.5 174.5t-174.5 71.5t-175 -71.5t-72 -174.5q0 -104 71.5 -175.5t175.5 -71.5q103 0 174.5 72t71.5 175zM563 215h-72v72h72v-72zM351 215
h-72v72h72v-72zM546 181q-40 -77 -126 -77q-85 0 -125 77h251z" />
    <glyph glyph-name="oe" unicode="&#x153;" 
d="M712 302q0 -121 -85 -206.5t-206 -85.5q-122 0 -207 85t-85 207q0 121 85.5 206t206.5 85t206 -85t85 -206zM667 302q0 103 -71.5 174.5t-174.5 71.5t-175 -71.5t-72 -174.5q0 -104 71.5 -175.5t175.5 -71.5q103 0 174.5 72t71.5 175zM589 235h-148q23 45 74 45t74 -45z
M401 235h-149q23 45 74 45t75 -45zM546 181q-40 -77 -126 -77q-85 0 -125 77h251z" />
    <glyph glyph-name="endash" unicode="&#x2013;" 
d="M712 302q0 -121 -85 -206.5t-206 -85.5q-122 0 -207 85t-85 207q0 121 85.5 206t206.5 85t206 -85t85 -206zM667 302q0 103 -71.5 174.5t-174.5 71.5t-175 -71.5t-72 -174.5q0 -104 71.5 -175.5t175.5 -71.5q103 0 174.5 72t71.5 175zM615 233l-31 -16q-19 36 -59 36
q-28 0 -47 -20h-43q29 55 90 55t90 -55zM406 233h-43q-19 20 -47 20q-40 0 -59 -36l-31 16q29 55 90 55t90 -55zM546 181q-40 -77 -126 -77q-85 0 -125 77h251z" />
    <glyph glyph-name="emdash" unicode="&#x2014;" 
d="M712 302q0 -121 -85 -206.5t-206 -85.5q-122 0 -207 85t-85 207q0 121 85.5 206t206.5 85t206 -85t85 -206zM667 302q0 103 -71.5 174.5t-174.5 71.5t-175 -71.5t-72 -174.5q0 -104 71.5 -175.5t175.5 -71.5q103 0 174.5 72t71.5 175zM590 242l-24 -25l-26 25l-25 -25
l-24 25l25 25l-25 25l24 25l25 -25l26 25l24 -25l-25 -25zM351 242l-25 -25l-25 25l-25 -25l-25 25l25 25l-25 25l25 25l25 -25l25 25l25 -25l-26 -25zM546 181q-40 -77 -126 -77q-85 0 -125 77h251z" />
    <glyph glyph-name="quotedblleft" unicode="&#x201c;" 
d="M712 302q0 -121 -85 -206.5t-206 -85.5q-122 0 -207 85t-85 207q0 121 85.5 206t206.5 85t206 -85t85 -206zM667 302q0 103 -71.5 174.5t-174.5 71.5t-175 -71.5t-72 -174.5q0 -104 71.5 -175.5t175.5 -71.5q103 0 174.5 72t71.5 175zM588 255q0 -33 -34 -33
q-33 0 -33 33q0 34 33 34q14 0 24 -10t10 -24zM546 181q-40 -77 -126 -77q-85 0 -125 77h251zM321 255q0 -33 -34 -33q-33 0 -33 33q0 34 33 34q14 0 24 -10t10 -24z" />
    <glyph glyph-name="quotedblright" unicode="&#x201d;" 
d="M712 302q0 -121 -85 -206.5t-206 -85.5q-122 0 -207 85t-85 207q0 121 85.5 206t206.5 85t206 -85t85 -206zM667 302q0 103 -71.5 174.5t-174.5 71.5t-175 -71.5t-72 -174.5q0 -104 71.5 -175.5t175.5 -71.5q103 0 174.5 72t71.5 175zM563 215h-72v72h72v-72zM351 215
h-72v72h72v-72zM546 181q-40 -77 -126 -77q-85 0 -125 77h251z" />
    <glyph glyph-name="quoteleft" unicode="&#x2018;" 
d="M712 302q0 -121 -85 -206.5t-206 -85.5q-122 0 -207 85t-85 207q0 121 85.5 206t206.5 85t206 -85t85 -206zM667 302q0 103 -71.5 174.5t-174.5 71.5t-175 -71.5t-72 -174.5q0 -104 71.5 -175.5t175.5 -71.5q103 0 174.5 72t71.5 175zM589 235h-148q23 45 74 45t74 -45z
M401 235h-149q23 45 74 45t75 -45zM546 181q-40 -77 -126 -77q-85 0 -125 77h251z" />
    <glyph glyph-name="quoteright" unicode="&#x2019;" 
d="M712 302q0 -121 -85 -206.5t-206 -85.5q-122 0 -207 85t-85 207q0 121 85.5 206t206.5 85t206 -85t85 -206zM667 302q0 103 -71.5 174.5t-174.5 71.5t-175 -71.5t-72 -174.5q0 -104 71.5 -175.5t175.5 -71.5q103 0 174.5 72t71.5 175zM615 233l-31 -16q-19 36 -59 36
q-28 0 -47 -20h-43q29 55 90 55t90 -55zM406 233h-43q-19 20 -47 20q-40 0 -59 -36l-31 16q29 55 90 55t90 -55zM546 181q-40 -77 -126 -77q-85 0 -125 77h251z" />
    <glyph glyph-name="currency" unicode="&#xa4;" 
d="M712 302q0 -121 -85 -206.5t-206 -85.5q-122 0 -207 85t-85 207q0 121 85.5 206t206.5 85t206 -85t85 -206zM667 302q0 103 -71.5 174.5t-174.5 71.5t-175 -71.5t-72 -174.5q0 -104 71.5 -175.5t175.5 -71.5q103 0 174.5 72t71.5 175zM590 242l-24 -25l-26 25l-25 -25
l-24 25l25 25l-25 25l24 25l25 -25l26 25l24 -25l-25 -25zM351 242l-25 -25l-25 25l-25 -25l-25 25l25 25l-25 25l25 25l25 -25l25 25l25 -25l-26 -25zM546 181q-40 -77 -126 -77q-85 0 -125 77h251z" />
    <glyph glyph-name="guilsinglleft" unicode="&#x2039;" 
d="M712 302q0 -121 -85 -206.5t-206 -85.5q-122 0 -207 85t-85 207q0 121 85.5 206t206.5 85t206 -85t85 -206zM667 302q0 103 -71.5 174.5t-174.5 71.5t-175 -71.5t-72 -174.5q0 -104 71.5 -175.5t175.5 -71.5q103 0 174.5 72t71.5 175zM588 255q0 -33 -34 -33
q-33 0 -33 33q0 34 33 34q14 0 24 -10t10 -24zM546 181q-40 -77 -126 -77q-85 0 -125 77h251zM321 255q0 -33 -34 -33q-33 0 -33 33q0 34 33 34q14 0 24 -10t10 -24z" />
    <glyph glyph-name="guilsinglright" unicode="&#x203a;" 
d="M712 302q0 -121 -85 -206.5t-206 -85.5q-122 0 -207 85t-85 207q0 121 85.5 206t206.5 85t206 -85t85 -206zM667 302q0 103 -71.5 174.5t-174.5 71.5t-175 -71.5t-72 -174.5q0 -104 71.5 -175.5t175.5 -71.5q103 0 174.5 72t71.5 175zM563 215h-72v72h72v-72zM351 215
h-72v72h72v-72zM546 181q-40 -77 -126 -77q-85 0 -125 77h251z" />
    <glyph glyph-name="daggerdbl" unicode="&#x2021;" 
d="M712 302q0 -121 -85 -206.5t-206 -85.5q-122 0 -207 85t-85 207q0 121 85.5 206t206.5 85t206 -85t85 -206zM667 302q0 103 -71.5 174.5t-174.5 71.5t-175 -71.5t-72 -174.5q0 -104 71.5 -175.5t175.5 -71.5q103 0 174.5 72t71.5 175zM590 242l-24 -25l-26 25l-25 -25
l-24 25l25 25l-25 25l24 25l25 -25l26 25l24 -25l-25 -25zM351 242l-25 -25l-25 25l-25 -25l-25 25l25 25l-25 25l25 25l25 -25l25 25l25 -25l-26 -25zM546 181q-40 -77 -126 -77q-85 0 -125 77h251z" />
    <glyph glyph-name="periodcentered" unicode="&#xb7;" 
d="M712 302q0 -121 -85 -206.5t-206 -85.5q-122 0 -207 85t-85 207q0 121 85.5 206t206.5 85t206 -85t85 -206zM667 302q0 103 -71.5 174.5t-174.5 71.5t-175 -71.5t-72 -174.5q0 -104 71.5 -175.5t175.5 -71.5q103 0 174.5 72t71.5 175zM588 255q0 -33 -34 -33
q-33 0 -33 33q0 34 33 34q14 0 24 -10t10 -24zM546 181q-40 -77 -126 -77q-85 0 -125 77h251zM321 255q0 -33 -34 -33q-33 0 -33 33q0 34 33 34q14 0 24 -10t10 -24z" />
    <glyph glyph-name="periodcentered" unicode="&#x2219;" 
d="M712 302q0 -121 -85 -206.5t-206 -85.5q-122 0 -207 85t-85 207q0 121 85.5 206t206.5 85t206 -85t85 -206zM667 302q0 103 -71.5 174.5t-174.5 71.5t-175 -71.5t-72 -174.5q0 -104 71.5 -175.5t175.5 -71.5q103 0 174.5 72t71.5 175zM588 255q0 -33 -34 -33
q-33 0 -33 33q0 34 33 34q14 0 24 -10t10 -24zM546 181q-40 -77 -126 -77q-85 0 -125 77h251zM321 255q0 -33 -34 -33q-33 0 -33 33q0 34 33 34q14 0 24 -10t10 -24z" />
    <glyph glyph-name="quotesinglbase" unicode="&#x201a;" 
d="M712 302q0 -121 -85 -206.5t-206 -85.5q-122 0 -207 85t-85 207q0 121 85.5 206t206.5 85t206 -85t85 -206zM667 302q0 103 -71.5 174.5t-174.5 71.5t-175 -71.5t-72 -174.5q0 -104 71.5 -175.5t175.5 -71.5q103 0 174.5 72t71.5 175zM563 215h-72v72h72v-72zM351 215
h-72v72h72v-72zM546 181q-40 -77 -126 -77q-85 0 -125 77h251z" />
    <glyph glyph-name="quotedblbase" unicode="&#x201e;" 
d="M712 302q0 -121 -85 -206.5t-206 -85.5q-122 0 -207 85t-85 207q0 121 85.5 206t206.5 85t206 -85t85 -206zM667 302q0 103 -71.5 174.5t-174.5 71.5t-175 -71.5t-72 -174.5q0 -104 71.5 -175.5t175.5 -71.5q103 0 174.5 72t71.5 175zM589 235h-148q23 45 74 45t74 -45z
M401 235h-149q23 45 74 45t75 -45zM546 181q-40 -77 -126 -77q-85 0 -125 77h251z" />
    <glyph glyph-name="perthousand" unicode="&#x2030;" 
d="M712 302q0 -121 -85 -206.5t-206 -85.5q-122 0 -207 85t-85 207q0 121 85.5 206t206.5 85t206 -85t85 -206zM667 302q0 103 -71.5 174.5t-174.5 71.5t-175 -71.5t-72 -174.5q0 -104 71.5 -175.5t175.5 -71.5q103 0 174.5 72t71.5 175zM615 233l-31 -16q-19 36 -59 36
q-28 0 -47 -20h-43q29 55 90 55t90 -55zM406 233h-43q-19 20 -47 20q-40 0 -59 -36l-31 16q29 55 90 55t90 -55zM546 181q-40 -77 -126 -77q-85 0 -125 77h251z" />
    <glyph glyph-name="circumflex" unicode="&#x2c6;" 
d="M712 302q0 -121 -85 -206.5t-206 -85.5q-122 0 -207 85t-85 207q0 121 85.5 206t206.5 85t206 -85t85 -206zM667 302q0 103 -71.5 174.5t-174.5 71.5t-175 -71.5t-72 -174.5q0 -104 71.5 -175.5t175.5 -71.5q103 0 174.5 72t71.5 175zM563 215h-72v72h72v-72zM351 215
h-72v72h72v-72zM546 181q-40 -77 -126 -77q-85 0 -125 77h251z" />
    <glyph glyph-name="tilde" unicode="&#x2dc;" 
d="M712 302q0 -121 -85 -206.5t-206 -85.5q-122 0 -207 85t-85 207q0 121 85.5 206t206.5 85t206 -85t85 -206zM667 302q0 103 -71.5 174.5t-174.5 71.5t-175 -71.5t-72 -174.5q0 -104 71.5 -175.5t175.5 -71.5q103 0 174.5 72t71.5 175zM589 235h-148q23 45 74 45t74 -45z
M401 235h-149q23 45 74 45t75 -45zM546 181q-40 -77 -126 -77q-85 0 -125 77h251z" />
    <glyph glyph-name="macron" unicode="&#xaf;" 
d="M712 302q0 -121 -85 -206.5t-206 -85.5q-122 0 -207 85t-85 207q0 121 85.5 206t206.5 85t206 -85t85 -206zM667 302q0 103 -71.5 174.5t-174.5 71.5t-175 -71.5t-72 -174.5q0 -104 71.5 -175.5t175.5 -71.5q103 0 174.5 72t71.5 175zM615 233l-31 -16q-19 36 -59 36
q-28 0 -47 -20h-43q29 55 90 55t90 -55zM406 233h-43q-19 20 -47 20q-40 0 -59 -36l-31 16q29 55 90 55t90 -55zM546 181q-40 -77 -126 -77q-85 0 -125 77h251z" />
    <glyph glyph-name="macron" unicode="&#x2c9;" 
d="M712 302q0 -121 -85 -206.5t-206 -85.5q-122 0 -207 85t-85 207q0 121 85.5 206t206.5 85t206 -85t85 -206zM667 302q0 103 -71.5 174.5t-174.5 71.5t-175 -71.5t-72 -174.5q0 -104 71.5 -175.5t175.5 -71.5q103 0 174.5 72t71.5 175zM615 233l-31 -16q-19 36 -59 36
q-28 0 -47 -20h-43q29 55 90 55t90 -55zM406 233h-43q-19 20 -47 20q-40 0 -59 -36l-31 16q29 55 90 55t90 -55zM546 181q-40 -77 -126 -77q-85 0 -125 77h251z" />
    <glyph glyph-name="cedilla" unicode="&#xb8;" 
d="M712 302q0 -121 -85 -206.5t-206 -85.5q-122 0 -207 85t-85 207q0 121 85.5 206t206.5 85t206 -85t85 -206zM667 302q0 103 -71.5 174.5t-174.5 71.5t-175 -71.5t-72 -174.5q0 -104 71.5 -175.5t175.5 -71.5q103 0 174.5 72t71.5 175zM589 235h-148q23 45 74 45t74 -45z
M401 235h-149q23 45 74 45t75 -45zM546 181q-40 -77 -126 -77q-85 0 -125 77h251z" />
    <glyph glyph-name="Eth" unicode="&#xd0;" 
d="M712 302q0 -121 -85 -206.5t-206 -85.5q-122 0 -207 85t-85 207q0 121 85.5 206t206.5 85t206 -85t85 -206zM667 302q0 103 -71.5 174.5t-174.5 71.5t-175 -71.5t-72 -174.5q0 -104 71.5 -175.5t175.5 -71.5q103 0 174.5 72t71.5 175zM589 235h-148q23 45 74 45t74 -45z
M401 235h-149q23 45 74 45t75 -45zM546 181q-40 -77 -126 -77q-85 0 -125 77h251z" />
    <glyph glyph-name="eth" unicode="&#xf0;" 
d="M712 302q0 -121 -85 -206.5t-206 -85.5q-122 0 -207 85t-85 207q0 121 85.5 206t206.5 85t206 -85t85 -206zM667 302q0 103 -71.5 174.5t-174.5 71.5t-175 -71.5t-72 -174.5q0 -104 71.5 -175.5t175.5 -71.5q103 0 174.5 72t71.5 175zM615 233l-31 -16q-19 36 -59 36
q-28 0 -47 -20h-43q29 55 90 55t90 -55zM406 233h-43q-19 20 -47 20q-40 0 -59 -36l-31 16q29 55 90 55t90 -55zM546 181q-40 -77 -126 -77q-85 0 -125 77h251z" />
    <glyph glyph-name="Scaron" unicode="&#x160;" 
d="M712 302q0 -121 -85 -206.5t-206 -85.5q-122 0 -207 85t-85 207q0 121 85.5 206t206.5 85t206 -85t85 -206zM667 302q0 103 -71.5 174.5t-174.5 71.5t-175 -71.5t-72 -174.5q0 -104 71.5 -175.5t175.5 -71.5q103 0 174.5 72t71.5 175zM563 215h-72v72h72v-72zM351 215
h-72v72h72v-72zM546 181q-40 -77 -126 -77q-85 0 -125 77h251z" />
    <glyph glyph-name="scaron" unicode="&#x161;" 
d="M712 302q0 -121 -85 -206.5t-206 -85.5q-122 0 -207 85t-85 207q0 121 85.5 206t206.5 85t206 -85t85 -206zM667 302q0 103 -71.5 174.5t-174.5 71.5t-175 -71.5t-72 -174.5q0 -104 71.5 -175.5t175.5 -71.5q103 0 174.5 72t71.5 175zM589 235h-148q23 45 74 45t74 -45z
M401 235h-149q23 45 74 45t75 -45zM546 181q-40 -77 -126 -77q-85 0 -125 77h251z" />
    <glyph glyph-name="Yacute" unicode="&#xdd;" 
d="M712 302q0 -121 -85 -206.5t-206 -85.5q-122 0 -207 85t-85 207q0 121 85.5 206t206.5 85t206 -85t85 -206zM667 302q0 103 -71.5 174.5t-174.5 71.5t-175 -71.5t-72 -174.5q0 -104 71.5 -175.5t175.5 -71.5q103 0 174.5 72t71.5 175zM615 233l-31 -16q-19 36 -59 36
q-28 0 -47 -20h-43q29 55 90 55t90 -55zM406 233h-43q-19 20 -47 20q-40 0 -59 -36l-31 16q29 55 90 55t90 -55zM546 181q-40 -77 -126 -77q-85 0 -125 77h251z" />
    <glyph glyph-name="Thorn" unicode="&#xde;" 
d="M712 302q0 -121 -85 -206.5t-206 -85.5q-122 0 -207 85t-85 207q0 121 85.5 206t206.5 85t206 -85t85 -206zM667 302q0 103 -71.5 174.5t-174.5 71.5t-175 -71.5t-72 -174.5q0 -104 71.5 -175.5t175.5 -71.5q103 0 174.5 72t71.5 175zM588 255q0 -33 -34 -33
q-33 0 -33 33q0 34 33 34q14 0 24 -10t10 -24zM546 181q-40 -77 -126 -77q-85 0 -125 77h251zM321 255q0 -33 -34 -33q-33 0 -33 33q0 34 33 34q14 0 24 -10t10 -24z" />
    <glyph glyph-name="thorn" unicode="&#xfe;" 
d="M712 302q0 -121 -85 -206.5t-206 -85.5q-122 0 -207 85t-85 207q0 121 85.5 206t206.5 85t206 -85t85 -206zM667 302q0 103 -71.5 174.5t-174.5 71.5t-175 -71.5t-72 -174.5q0 -104 71.5 -175.5t175.5 -71.5q103 0 174.5 72t71.5 175zM563 215h-72v72h72v-72zM351 215
h-72v72h72v-72zM546 181q-40 -77 -126 -77q-85 0 -125 77h251z" />
    <glyph glyph-name="Zcaron" unicode="&#x17d;" 
d="M712 302q0 -121 -85 -206.5t-206 -85.5q-122 0 -207 85t-85 207q0 121 85.5 206t206.5 85t206 -85t85 -206zM667 302q0 103 -71.5 174.5t-174.5 71.5t-175 -71.5t-72 -174.5q0 -104 71.5 -175.5t175.5 -71.5q103 0 174.5 72t71.5 175zM589 235h-148q23 45 74 45t74 -45z
M401 235h-149q23 45 74 45t75 -45zM546 181q-40 -77 -126 -77q-85 0 -125 77h251z" />
    <glyph glyph-name="zcaron" unicode="&#x17e;" 
d="M712 302q0 -121 -85 -206.5t-206 -85.5q-122 0 -207 85t-85 207q0 121 85.5 206t206.5 85t206 -85t85 -206zM667 302q0 103 -71.5 174.5t-174.5 71.5t-175 -71.5t-72 -174.5q0 -104 71.5 -175.5t175.5 -71.5q103 0 174.5 72t71.5 175zM615 233l-31 -16q-19 36 -59 36
q-28 0 -47 -20h-43q29 55 90 55t90 -55zM406 233h-43q-19 20 -47 20q-40 0 -59 -36l-31 16q29 55 90 55t90 -55zM546 181q-40 -77 -126 -77q-85 0 -125 77h251z" />
    <glyph glyph-name="Adieresis" unicode="&#xc4;" 
d="M712 302q0 -121 -85 -206.5t-206 -85.5q-122 0 -207 85t-85 207q0 121 85.5 206t206.5 85t206 -85t85 -206zM649 395q-29 70 -91 111.5t-137 41.5q-103 0 -175 -71.5t-72 -174.5q0 -55 23 -104q23 6 38 16q-2 10 -2 21q0 37 26 63t63 26q36 0 62 -26q104 89 265 97z
M667 302q0 32 -8 64q-167 -7 -258 -92q10 -18 10 -39q0 -37 -26 -63t-63 -26q-49 0 -75 40q-16 -9 -36 -15q74 -116 210 -116q103 0 174.5 72t71.5 175zM589 235h-148q23 45 74 45t74 -45zM496 120q-24 45 -76 45q-51 0 -75 -45h151z" />
    <glyph glyph-name="Aring" unicode="&#xc5;" 
d="M712 302q0 -121 -85 -206.5t-206 -85.5q-122 0 -207 85t-85 207q0 121 85.5 206t206.5 85t206 -85t85 -206zM197 198q23 6 38 16q-2 10 -2 21q0 37 26 63t63 26q36 0 62 -26q104 89 265 97q-29 70 -91 111.5t-137 41.5q-103 0 -175 -71.5t-72 -174.5q0 -55 23 -104z
M371 161h122v-48h-139v39q-16 -6 -32 -6q-49 0 -75 40q-16 -9 -36 -15q74 -116 210 -116q103 0 174.5 72t71.5 175q0 32 -8 64q-167 -7 -258 -92q10 -18 10 -39q0 -48 -40 -74zM589 235h-148q23 45 74 45t74 -45z" />
    <glyph glyph-name="Ccedilla" unicode="&#xc7;" 
d="M712 302q0 -121 -85 -206.5t-206 -85.5q-122 0 -207 85t-85 207q0 121 85.5 206t206.5 85t206 -85t85 -206zM667 302q0 103 -71.5 174.5t-174.5 71.5t-175 -71.5t-72 -174.5q0 -104 71.5 -175.5t175.5 -71.5q103 0 174.5 72t71.5 175zM590 242l-24 -25l-26 25l-25 -25
l-24 25l25 25l-25 25l24 25l25 -25l26 25l24 -25l-25 -25zM351 242l-25 -25l-25 25l-25 -25l-25 25l25 25l-25 25l25 25l25 -25l25 25l25 -25l-26 -25zM546 181q-40 -77 -126 -77q-85 0 -125 77h251z" />
    <glyph glyph-name="Eacute" unicode="&#xc9;" 
d="M712 302q0 -121 -85 -206.5t-206 -85.5q-122 0 -207 85t-85 207q0 121 85.5 206t206.5 85t206 -85t85 -206zM667 302q0 103 -71.5 174.5t-174.5 71.5t-175 -71.5t-72 -174.5q0 -104 71.5 -175.5t175.5 -71.5q103 0 174.5 72t71.5 175zM588 255q0 -33 -34 -33
q-33 0 -33 33q0 34 33 34q14 0 24 -10t10 -24zM546 181q-40 -77 -126 -77q-85 0 -125 77h251zM321 255q0 -33 -34 -33q-33 0 -33 33q0 34 33 34q14 0 24 -10t10 -24z" />
    <glyph glyph-name="Ntilde" unicode="&#xd1;" 
d="M712 302q0 -121 -85 -206.5t-206 -85.5q-122 0 -207 85t-85 207q0 121 85.5 206t206.5 85t206 -85t85 -206zM667 302q0 103 -71.5 174.5t-174.5 71.5t-175 -71.5t-72 -174.5q0 -104 71.5 -175.5t175.5 -71.5q103 0 174.5 72t71.5 175zM563 215h-72v72h72v-72zM351 215
h-72v72h72v-72zM546 181q-40 -77 -126 -77q-85 0 -125 77h251z" />
    <glyph glyph-name="Odieresis" unicode="&#xd6;" 
d="M712 302q0 -121 -85 -206.5t-206 -85.5q-122 0 -207 85t-85 207q0 121 85.5 206t206.5 85t206 -85t85 -206zM667 302q0 103 -71.5 174.5t-174.5 71.5t-175 -71.5t-72 -174.5q0 -104 71.5 -175.5t175.5 -71.5q103 0 174.5 72t71.5 175zM590 242l-24 -25l-26 25l-25 -25
l-24 25l25 25l-25 25l24 25l25 -25l26 25l24 -25l-25 -25zM351 242l-25 -25l-25 25l-25 -25l-25 25l25 25l-25 25l25 25l25 -25l25 25l25 -25l-26 -25zM546 181q-40 -77 -126 -77q-85 0 -125 77h251z" />
    <glyph glyph-name="Udieresis" unicode="&#xdc;" 
d="M712 302q0 -121 -85 -206.5t-206 -85.5q-122 0 -207 85t-85 207q0 121 85.5 206t206.5 85t206 -85t85 -206zM667 302q0 103 -71.5 174.5t-174.5 71.5t-175 -71.5t-72 -174.5q0 -104 71.5 -175.5t175.5 -71.5q103 0 174.5 72t71.5 175zM588 255q0 -33 -34 -33
q-33 0 -33 33q0 34 33 34q14 0 24 -10t10 -24zM546 181q-40 -77 -126 -77q-85 0 -125 77h251zM321 255q0 -33 -34 -33q-33 0 -33 33q0 34 33 34q14 0 24 -10t10 -24z" />
    <glyph glyph-name="aacute" unicode="&#xe1;" 
d="M712 302q0 -121 -85 -206.5t-206 -85.5q-122 0 -207 85t-85 207q0 121 85.5 206t206.5 85t206 -85t85 -206zM667 302q0 103 -71.5 174.5t-174.5 71.5t-175 -71.5t-72 -174.5q0 -104 71.5 -175.5t175.5 -71.5q103 0 174.5 72t71.5 175zM563 215h-72v72h72v-72zM351 215
h-72v72h72v-72zM546 181q-40 -77 -126 -77q-85 0 -125 77h251z" />
    <glyph glyph-name="agrave" unicode="&#xe0;" 
d="M712 302q0 -121 -85 -206.5t-206 -85.5q-122 0 -207 85t-85 207q0 121 85.5 206t206.5 85t206 -85t85 -206zM667 302q0 103 -71.5 174.5t-174.5 71.5t-175 -71.5t-72 -174.5q0 -104 71.5 -175.5t175.5 -71.5q103 0 174.5 72t71.5 175zM589 235h-148q23 45 74 45t74 -45z
M401 235h-149q23 45 74 45t75 -45zM546 181q-40 -77 -126 -77q-85 0 -125 77h251z" />
    <glyph glyph-name="acircumflex" unicode="&#xe2;" 
d="M712 302q0 -121 -85 -206.5t-206 -85.5q-122 0 -207 85t-85 207q0 121 85.5 206t206.5 85t206 -85t85 -206zM667 302q0 103 -71.5 174.5t-174.5 71.5t-175 -71.5t-72 -174.5q0 -104 71.5 -175.5t175.5 -71.5q103 0 174.5 72t71.5 175zM615 233l-31 -16q-19 36 -59 36
q-28 0 -47 -20h-43q29 55 90 55t90 -55zM406 233h-43q-19 20 -47 20q-40 0 -59 -36l-31 16q29 55 90 55t90 -55zM546 181q-40 -77 -126 -77q-85 0 -125 77h251z" />
    <glyph glyph-name="adieresis" unicode="&#xe4;" 
d="M712 302q0 -121 -85 -206.5t-206 -85.5q-122 0 -207 85t-85 207q0 121 85.5 206t206.5 85t206 -85t85 -206zM667 302q0 103 -71.5 174.5t-174.5 71.5t-175 -71.5t-72 -174.5q0 -104 71.5 -175.5t175.5 -71.5q103 0 174.5 72t71.5 175zM590 242l-24 -25l-26 25l-25 -25
l-24 25l25 25l-25 25l24 25l25 -25l26 25l24 -25l-25 -25zM351 242l-25 -25l-25 25l-25 -25l-25 25l25 25l-25 25l25 25l25 -25l25 25l25 -25l-26 -25zM546 181q-40 -77 -126 -77q-85 0 -125 77h251z" />
    <glyph glyph-name="atilde" unicode="&#xe3;" 
d="M712 302q0 -121 -85 -206.5t-206 -85.5q-122 0 -207 85t-85 207q0 121 85.5 206t206.5 85t206 -85t85 -206zM667 302q0 103 -71.5 174.5t-174.5 71.5t-175 -71.5t-72 -174.5q0 -104 71.5 -175.5t175.5 -71.5q103 0 174.5 72t71.5 175zM588 255q0 -33 -34 -33
q-33 0 -33 33q0 34 33 34q14 0 24 -10t10 -24zM546 181q-40 -77 -126 -77q-85 0 -125 77h251zM321 255q0 -33 -34 -33q-33 0 -33 33q0 34 33 34q14 0 24 -10t10 -24z" />
    <glyph glyph-name="aring" unicode="&#xe5;" 
d="M712 302q0 -121 -85 -206.5t-206 -85.5q-122 0 -207 85t-85 207q0 121 85.5 206t206.5 85t206 -85t85 -206zM667 302q0 103 -71.5 174.5t-174.5 71.5t-175 -71.5t-72 -174.5q0 -104 71.5 -175.5t175.5 -71.5q103 0 174.5 72t71.5 175zM563 215h-72v72h72v-72zM351 215
h-72v72h72v-72zM546 181q-40 -77 -126 -77q-85 0 -125 77h251z" />
    <glyph glyph-name="ccedilla" unicode="&#xe7;" 
d="M712 302q0 -121 -85 -206.5t-206 -85.5q-122 0 -207 85t-85 207q0 121 85.5 206t206.5 85t206 -85t85 -206zM667 302q0 103 -71.5 174.5t-174.5 71.5t-175 -71.5t-72 -174.5q0 -104 71.5 -175.5t175.5 -71.5q103 0 174.5 72t71.5 175zM589 235h-148q23 45 74 45t74 -45z
M401 235h-149q23 45 74 45t75 -45zM546 181q-40 -77 -126 -77q-85 0 -125 77h251z" />
    <glyph glyph-name="eacute" unicode="&#xe9;" 
d="M712 302q0 -121 -85 -206.5t-206 -85.5q-122 0 -207 85t-85 207q0 121 85.5 206t206.5 85t206 -85t85 -206zM667 302q0 103 -71.5 174.5t-174.5 71.5t-175 -71.5t-72 -174.5q0 -104 71.5 -175.5t175.5 -71.5q103 0 174.5 72t71.5 175zM615 233l-31 -16q-19 36 -59 36
q-28 0 -47 -20h-43q29 55 90 55t90 -55zM406 233h-43q-19 20 -47 20q-40 0 -59 -36l-31 16q29 55 90 55t90 -55zM546 181q-40 -77 -126 -77q-85 0 -125 77h251z" />
    <glyph glyph-name="egrave" unicode="&#xe8;" 
d="M712 302q0 -121 -85 -206.5t-206 -85.5q-122 0 -207 85t-85 207q0 121 85.5 206t206.5 85t206 -85t85 -206zM667 302q0 103 -71.5 174.5t-174.5 71.5t-175 -71.5t-72 -174.5q0 -104 71.5 -175.5t175.5 -71.5q103 0 174.5 72t71.5 175zM590 242l-24 -25l-26 25l-25 -25
l-24 25l25 25l-25 25l24 25l25 -25l26 25l24 -25l-25 -25zM351 242l-25 -25l-25 25l-25 -25l-25 25l25 25l-25 25l25 25l25 -25l25 25l25 -25l-26 -25zM546 181q-40 -77 -126 -77q-85 0 -125 77h251z" />
    <glyph glyph-name="ecircumflex" unicode="&#xea;" 
d="M712 302q0 -121 -85 -206.5t-206 -85.5q-122 0 -207 85t-85 207q0 121 85.5 206t206.5 85t206 -85t85 -206zM667 302q0 103 -71.5 174.5t-174.5 71.5t-175 -71.5t-72 -174.5q0 -104 71.5 -175.5t175.5 -71.5q103 0 174.5 72t71.5 175zM588 255q0 -33 -34 -33
q-33 0 -33 33q0 34 33 34q14 0 24 -10t10 -24zM546 181q-40 -77 -126 -77q-85 0 -125 77h251zM321 255q0 -33 -34 -33q-33 0 -33 33q0 34 33 34q14 0 24 -10t10 -24z" />
    <glyph glyph-name="edieresis" unicode="&#xeb;" 
d="M712 302q0 -121 -85 -206.5t-206 -85.5q-122 0 -207 85t-85 207q0 121 85.5 206t206.5 85t206 -85t85 -206zM667 302q0 103 -71.5 174.5t-174.5 71.5t-175 -71.5t-72 -174.5q0 -104 71.5 -175.5t175.5 -71.5q103 0 174.5 72t71.5 175zM563 215h-72v72h72v-72zM351 215
h-72v72h72v-72zM546 181q-40 -77 -126 -77q-85 0 -125 77h251z" />
    <glyph glyph-name="iacute" unicode="&#xed;" 
d="M712 302q0 -121 -85 -206.5t-206 -85.5q-122 0 -207 85t-85 207q0 121 85.5 206t206.5 85t206 -85t85 -206zM667 302q0 103 -71.5 174.5t-174.5 71.5t-175 -71.5t-72 -174.5q0 -104 71.5 -175.5t175.5 -71.5q103 0 174.5 72t71.5 175zM589 235h-148q23 45 74 45t74 -45z
M401 235h-149q23 45 74 45t75 -45zM546 181q-40 -77 -126 -77q-85 0 -125 77h251z" />
    <glyph glyph-name="igrave" unicode="&#xec;" 
d="M712 302q0 -121 -85 -206.5t-206 -85.5q-122 0 -207 85t-85 207q0 121 85.5 206t206.5 85t206 -85t85 -206zM667 302q0 103 -71.5 174.5t-174.5 71.5t-175 -71.5t-72 -174.5q0 -104 71.5 -175.5t175.5 -71.5q103 0 174.5 72t71.5 175zM615 233l-31 -16q-19 36 -59 36
q-28 0 -47 -20h-43q29 55 90 55t90 -55zM406 233h-43q-19 20 -47 20q-40 0 -59 -36l-31 16q29 55 90 55t90 -55zM546 181q-40 -77 -126 -77q-85 0 -125 77h251z" />
    <glyph glyph-name="icircumflex" unicode="&#xee;" 
d="M712 302q0 -121 -85 -206.5t-206 -85.5q-122 0 -207 85t-85 207q0 121 85.5 206t206.5 85t206 -85t85 -206zM667 302q0 103 -71.5 174.5t-174.5 71.5t-175 -71.5t-72 -174.5q0 -104 71.5 -175.5t175.5 -71.5q103 0 174.5 72t71.5 175zM590 242l-24 -25l-26 25l-25 -25
l-24 25l25 25l-25 25l24 25l25 -25l26 25l24 -25l-25 -25zM351 242l-25 -25l-25 25l-25 -25l-25 25l25 25l-25 25l25 25l25 -25l25 25l25 -25l-26 -25zM546 181q-40 -77 -126 -77q-85 0 -125 77h251z" />
    <glyph glyph-name="idieresis" unicode="&#xef;" 
d="M712 302q0 -121 -85 -206.5t-206 -85.5q-122 0 -207 85t-85 207q0 121 85.5 206t206.5 85t206 -85t85 -206zM667 302q0 103 -71.5 174.5t-174.5 71.5t-175 -71.5t-72 -174.5q0 -104 71.5 -175.5t175.5 -71.5q103 0 174.5 72t71.5 175zM588 255q0 -33 -34 -33
q-33 0 -33 33q0 34 33 34q14 0 24 -10t10 -24zM546 181q-40 -77 -126 -77q-85 0 -125 77h251zM321 255q0 -33 -34 -33q-33 0 -33 33q0 34 33 34q14 0 24 -10t10 -24z" />
    <glyph glyph-name="ntilde" unicode="&#xf1;" 
d="M712 302q0 -121 -85 -206.5t-206 -85.5q-122 0 -207 85t-85 207q0 121 85.5 206t206.5 85t206 -85t85 -206zM667 302q0 103 -71.5 174.5t-174.5 71.5t-175 -71.5t-72 -174.5q0 -104 71.5 -175.5t175.5 -71.5q103 0 174.5 72t71.5 175zM563 215h-72v72h72v-72zM351 215
h-72v72h72v-72zM546 181q-40 -77 -126 -77q-85 0 -125 77h251z" />
    <glyph glyph-name="oacute" unicode="&#xf3;" 
d="M712 302q0 -121 -85 -206.5t-206 -85.5q-122 0 -207 85t-85 207q0 121 85.5 206t206.5 85t206 -85t85 -206zM667 302q0 103 -71.5 174.5t-174.5 71.5t-175 -71.5t-72 -174.5q0 -104 71.5 -175.5t175.5 -71.5q103 0 174.5 72t71.5 175zM589 235h-148q23 45 74 45t74 -45z
M401 235h-149q23 45 74 45t75 -45zM546 181q-40 -77 -126 -77q-85 0 -125 77h251z" />
    <glyph glyph-name="ograve" unicode="&#xf2;" 
d="M712 302q0 -121 -85 -206.5t-206 -85.5q-122 0 -207 85t-85 207q0 121 85.5 206t206.5 85t206 -85t85 -206zM667 302q0 103 -71.5 174.5t-174.5 71.5t-175 -71.5t-72 -174.5q0 -104 71.5 -175.5t175.5 -71.5q103 0 174.5 72t71.5 175zM615 233l-31 -16q-19 36 -59 36
q-28 0 -47 -20h-43q29 55 90 55t90 -55zM406 233h-43q-19 20 -47 20q-40 0 -59 -36l-31 16q29 55 90 55t90 -55zM546 181q-40 -77 -126 -77q-85 0 -125 77h251z" />
    <glyph glyph-name="ocircumflex" unicode="&#xf4;" 
d="M712 302q0 -121 -85 -206.5t-206 -85.5q-122 0 -207 85t-85 207q0 121 85.5 206t206.5 85t206 -85t85 -206zM667 302q0 103 -71.5 174.5t-174.5 71.5t-175 -71.5t-72 -174.5q0 -104 71.5 -175.5t175.5 -71.5q103 0 174.5 72t71.5 175zM590 242l-24 -25l-26 25l-25 -25
l-24 25l25 25l-25 25l24 25l25 -25l26 25l24 -25l-25 -25zM351 242l-25 -25l-25 25l-25 -25l-25 25l25 25l-25 25l25 25l25 -25l25 25l25 -25l-26 -25zM546 181q-40 -77 -126 -77q-85 0 -125 77h251z" />
    <glyph glyph-name="odieresis" unicode="&#xf6;" 
d="M712 302q0 -121 -85 -206.5t-206 -85.5q-122 0 -207 85t-85 207q0 121 85.5 206t206.5 85t206 -85t85 -206zM667 302q0 103 -71.5 174.5t-174.5 71.5t-175 -71.5t-72 -174.5q0 -104 71.5 -175.5t175.5 -71.5q103 0 174.5 72t71.5 175zM588 255q0 -33 -34 -33
q-33 0 -33 33q0 34 33 34q14 0 24 -10t10 -24zM546 181q-40 -77 -126 -77q-85 0 -125 77h251zM321 255q0 -33 -34 -33q-33 0 -33 33q0 34 33 34q14 0 24 -10t10 -24z" />
    <glyph glyph-name="otilde" unicode="&#xf5;" 
d="M712 302q0 -121 -85 -206.5t-206 -85.5q-122 0 -207 85t-85 207q0 121 85.5 206t206.5 85t206 -85t85 -206zM667 302q0 103 -71.5 174.5t-174.5 71.5t-175 -71.5t-72 -174.5q0 -104 71.5 -175.5t175.5 -71.5q103 0 174.5 72t71.5 175zM563 215h-72v72h72v-72zM351 215
h-72v72h72v-72zM546 181q-40 -77 -126 -77q-85 0 -125 77h251z" />
    <glyph glyph-name="uacute" unicode="&#xfa;" 
d="M712 302q0 -121 -85 -206.5t-206 -85.5q-122 0 -207 85t-85 207q0 121 85.5 206t206.5 85t206 -85t85 -206zM667 302q0 103 -71.5 174.5t-174.5 71.5t-175 -71.5t-72 -174.5q0 -104 71.5 -175.5t175.5 -71.5q103 0 174.5 72t71.5 175zM589 235h-148q23 45 74 45t74 -45z
M401 235h-149q23 45 74 45t75 -45zM546 181q-40 -77 -126 -77q-85 0 -125 77h251z" />
    <glyph glyph-name="ugrave" unicode="&#xf9;" 
d="M712 302q0 -121 -85 -206.5t-206 -85.5q-122 0 -207 85t-85 207q0 121 85.5 206t206.5 85t206 -85t85 -206zM667 302q0 103 -71.5 174.5t-174.5 71.5t-175 -71.5t-72 -174.5q0 -104 71.5 -175.5t175.5 -71.5q103 0 174.5 72t71.5 175zM615 233l-31 -16q-19 36 -59 36
q-28 0 -47 -20h-43q29 55 90 55t90 -55zM406 233h-43q-19 20 -47 20q-40 0 -59 -36l-31 16q29 55 90 55t90 -55zM546 181q-40 -77 -126 -77q-85 0 -125 77h251z" />
    <glyph glyph-name="ucircumflex" unicode="&#xfb;" 
d="M712 302q0 -121 -85 -206.5t-206 -85.5q-122 0 -207 85t-85 207q0 121 85.5 206t206.5 85t206 -85t85 -206zM667 302q0 103 -71.5 174.5t-174.5 71.5t-175 -71.5t-72 -174.5q0 -104 71.5 -175.5t175.5 -71.5q103 0 174.5 72t71.5 175zM590 242l-24 -25l-26 25l-25 -25
l-24 25l25 25l-25 25l24 25l25 -25l26 25l24 -25l-25 -25zM351 242l-25 -25l-25 25l-25 -25l-25 25l25 25l-25 25l25 25l25 -25l25 25l25 -25l-26 -25zM546 181q-40 -77 -126 -77q-85 0 -125 77h251z" />
    <glyph glyph-name="udieresis" unicode="&#xfc;" 
d="M712 302q0 -121 -85 -206.5t-206 -85.5q-122 0 -207 85t-85 207q0 121 85.5 206t206.5 85t206 -85t85 -206zM667 302q0 103 -71.5 174.5t-174.5 71.5t-175 -71.5t-72 -174.5q0 -104 71.5 -175.5t175.5 -71.5q103 0 174.5 72t71.5 175zM588 255q0 -33 -34 -33
q-33 0 -33 33q0 34 33 34q14 0 24 -10t10 -24zM546 181q-40 -77 -126 -77q-85 0 -125 77h251zM321 255q0 -33 -34 -33q-33 0 -33 33q0 34 33 34q14 0 24 -10t10 -24z" />
    <glyph glyph-name="degree" unicode="&#xb0;" 
d="M712 302q0 -121 -85 -206.5t-206 -85.5q-122 0 -207 85t-85 207q0 121 85.5 206t206.5 85t206 -85t85 -206zM667 302q0 103 -71.5 174.5t-174.5 71.5t-175 -71.5t-72 -174.5q0 -104 71.5 -175.5t175.5 -71.5q103 0 174.5 72t71.5 175zM589 235h-148q23 45 74 45t74 -45z
M401 235h-149q23 45 74 45t75 -45zM546 181q-40 -77 -126 -77q-85 0 -125 77h251z" />
    <glyph glyph-name="registered" unicode="&#xae;" 
d="M712 302q0 -121 -85 -206.5t-206 -85.5q-122 0 -207 85t-85 207q0 121 85.5 206t206.5 85t206 -85t85 -206zM667 302q0 103 -71.5 174.5t-174.5 71.5t-175 -71.5t-72 -174.5q0 -104 71.5 -175.5t175.5 -71.5q103 0 174.5 72t71.5 175zM590 242l-24 -25l-26 25l-25 -25
l-24 25l25 25l-25 25l24 25l25 -25l26 25l24 -25l-25 -25zM351 242l-25 -25l-25 25l-25 -25l-25 25l25 25l-25 25l25 25l25 -25l25 25l25 -25l-26 -25zM546 181q-40 -77 -126 -77q-85 0 -125 77h251z" />
    <glyph glyph-name="copyright" unicode="&#xa9;" 
d="M712 302q0 -121 -85 -206.5t-206 -85.5q-122 0 -207 85t-85 207q0 121 85.5 206t206.5 85t206 -85t85 -206zM667 302q0 103 -71.5 174.5t-174.5 71.5t-175 -71.5t-72 -174.5q0 -104 71.5 -175.5t175.5 -71.5q103 0 174.5 72t71.5 175zM588 255q0 -33 -34 -33
q-33 0 -33 33q0 34 33 34q14 0 24 -10t10 -24zM546 181q-40 -77 -126 -77q-85 0 -125 77h251zM321 255q0 -33 -34 -33q-33 0 -33 33q0 34 33 34q14 0 24 -10t10 -24z" />
    <glyph glyph-name="trademark" unicode="&#x2122;" 
d="M712 302q0 -121 -85 -206.5t-206 -85.5q-122 0 -207 85t-85 207q0 121 85.5 206t206.5 85t206 -85t85 -206zM667 302q0 103 -71.5 174.5t-174.5 71.5t-175 -71.5t-72 -174.5q0 -104 71.5 -175.5t175.5 -71.5q103 0 174.5 72t71.5 175zM563 215h-72v72h72v-72zM351 215
h-72v72h72v-72zM546 181q-40 -77 -126 -77q-85 0 -125 77h251z" />
    <glyph glyph-name="plusminus" unicode="&#xb1;" 
d="M712 302q0 -121 -85 -206.5t-206 -85.5q-122 0 -207 85t-85 207q0 121 85.5 206t206.5 85t206 -85t85 -206zM667 302q0 103 -71.5 174.5t-174.5 71.5t-175 -71.5t-72 -174.5q0 -104 71.5 -175.5t175.5 -71.5q103 0 174.5 72t71.5 175zM615 233l-31 -16q-19 36 -59 36
q-28 0 -47 -20h-43q29 55 90 55t90 -55zM406 233h-43q-19 20 -47 20q-40 0 -59 -36l-31 16q29 55 90 55t90 -55zM546 181q-40 -77 -126 -77q-85 0 -125 77h251z" />
    <glyph glyph-name="mu" unicode="&#xb5;" 
d="M712 302q0 -121 -85 -206.5t-206 -85.5q-122 0 -207 85t-85 207q0 121 85.5 206t206.5 85t206 -85t85 -206zM667 302q0 103 -71.5 174.5t-174.5 71.5t-175 -71.5t-72 -174.5q0 -104 71.5 -175.5t175.5 -71.5q103 0 174.5 72t71.5 175zM589 235h-148q23 45 74 45t74 -45z
M401 235h-149q23 45 74 45t75 -45zM546 181q-40 -77 -126 -77q-85 0 -125 77h251z" />
    <glyph glyph-name="mu" unicode="&#x3bc;" 
d="M712 302q0 -121 -85 -206.5t-206 -85.5q-122 0 -207 85t-85 207q0 121 85.5 206t206.5 85t206 -85t85 -206zM667 302q0 103 -71.5 174.5t-174.5 71.5t-175 -71.5t-72 -174.5q0 -104 71.5 -175.5t175.5 -71.5q103 0 174.5 72t71.5 175zM589 235h-148q23 45 74 45t74 -45z
M401 235h-149q23 45 74 45t75 -45zM546 181q-40 -77 -126 -77q-85 0 -125 77h251z" />
    <glyph glyph-name="logicalnot" unicode="&#xac;" 
d="M712 302q0 -121 -85 -206.5t-206 -85.5q-122 0 -207 85t-85 207q0 121 85.5 206t206.5 85t206 -85t85 -206zM667 302q0 103 -71.5 174.5t-174.5 71.5t-175 -71.5t-72 -174.5q0 -104 71.5 -175.5t175.5 -71.5q103 0 174.5 72t71.5 175zM588 255q0 -33 -34 -33
q-33 0 -33 33q0 34 33 34q14 0 24 -10t10 -24zM546 181q-40 -77 -126 -77q-85 0 -125 77h251zM321 255q0 -33 -34 -33q-33 0 -33 33q0 34 33 34q14 0 24 -10t10 -24z" />
    <glyph glyph-name="Agrave" unicode="&#xc0;" 
d="M712 302q0 -121 -85 -206.5t-206 -85.5q-122 0 -207 85t-85 207q0 121 85.5 206t206.5 85t206 -85t85 -206zM667 302q0 103 -71.5 174.5t-174.5 71.5t-175 -71.5t-72 -174.5q0 -104 71.5 -175.5t175.5 -71.5q103 0 174.5 72t71.5 175zM615 233l-31 -16q-19 36 -59 36
q-28 0 -47 -20h-43q29 55 90 55t90 -55zM406 233h-43q-19 20 -47 20q-40 0 -59 -36l-31 16q29 55 90 55t90 -55zM546 181q-40 -77 -126 -77q-85 0 -125 77h251z" />
    <glyph glyph-name="Atilde" unicode="&#xc3;" 
d="M712 302q0 -121 -85 -206.5t-206 -85.5q-122 0 -207 85t-85 207q0 121 85.5 206t206.5 85t206 -85t85 -206zM667 302q0 103 -71.5 174.5t-174.5 71.5t-175 -71.5t-72 -174.5q0 -104 71.5 -175.5t175.5 -71.5q103 0 174.5 72t71.5 175zM590 242l-24 -25l-26 25l-25 -25
l-24 25l25 25l-25 25l24 25l25 -25l26 25l24 -25l-25 -25zM351 242l-25 -25l-25 25l-25 -25l-25 25l25 25l-25 25l25 25l25 -25l25 25l25 -25l-26 -25zM546 181q-40 -77 -126 -77q-85 0 -125 77h251z" />
    <glyph glyph-name="Otilde" unicode="&#xd5;" 
d="M712 302q0 -121 -85 -206.5t-206 -85.5q-122 0 -207 85t-85 207q0 121 85.5 206t206.5 85t206 -85t85 -206zM667 302q0 103 -71.5 174.5t-174.5 71.5t-175 -71.5t-72 -174.5q0 -104 71.5 -175.5t175.5 -71.5q103 0 174.5 72t71.5 175zM588 255q0 -33 -34 -33
q-33 0 -33 33q0 34 33 34q14 0 24 -10t10 -24zM546 181q-40 -77 -126 -77q-85 0 -125 77h251zM321 255q0 -33 -34 -33q-33 0 -33 33q0 34 33 34q14 0 24 -10t10 -24z" />
    <glyph glyph-name="divide" unicode="&#xf7;" 
d="M712 302q0 -121 -85 -206.5t-206 -85.5q-122 0 -207 85t-85 207q0 121 85.5 206t206.5 85t206 -85t85 -206zM667 302q0 103 -71.5 174.5t-174.5 71.5t-175 -71.5t-72 -174.5q0 -104 71.5 -175.5t175.5 -71.5q103 0 174.5 72t71.5 175zM590 242l-24 -25l-26 25l-25 -25
l-24 25l25 25l-25 25l24 25l25 -25l26 25l24 -25l-25 -25zM351 242l-25 -25l-25 25l-25 -25l-25 25l25 25l-25 25l25 25l25 -25l25 25l25 -25l-26 -25zM546 181q-40 -77 -126 -77q-85 0 -125 77h251z" />
    <glyph glyph-name="ydieresis" unicode="&#xff;" 
d="M712 302q0 -121 -85 -206.5t-206 -85.5q-122 0 -207 85t-85 207q0 121 85.5 206t206.5 85t206 -85t85 -206zM667 302q0 103 -71.5 174.5t-174.5 71.5t-175 -71.5t-72 -174.5q0 -104 71.5 -175.5t175.5 -71.5q103 0 174.5 72t71.5 175zM563 215h-72v72h72v-72zM351 215
h-72v72h72v-72zM546 181q-40 -77 -126 -77q-85 0 -125 77h251z" />
    <glyph glyph-name="Ydieresis" unicode="&#x178;" 
d="M712 302q0 -121 -85 -206.5t-206 -85.5q-122 0 -207 85t-85 207q0 121 85.5 206t206.5 85t206 -85t85 -206zM667 302q0 103 -71.5 174.5t-174.5 71.5t-175 -71.5t-72 -174.5q0 -104 71.5 -175.5t175.5 -71.5q103 0 174.5 72t71.5 175zM589 235h-148q23 45 74 45t74 -45z
M401 235h-149q23 45 74 45t75 -45zM546 181q-40 -77 -126 -77q-85 0 -125 77h251z" />
    <glyph glyph-name="Acircumflex" unicode="&#xc2;" 
d="M712 302q0 -121 -85 -206.5t-206 -85.5q-122 0 -207 85t-85 207q0 121 85.5 206t206.5 85t206 -85t85 -206zM667 302q0 103 -71.5 174.5t-174.5 71.5t-175 -71.5t-72 -174.5q0 -104 71.5 -175.5t175.5 -71.5q103 0 174.5 72t71.5 175zM590 242l-24 -25l-26 25l-25 -25
l-24 25l25 25l-25 25l24 25l25 -25l26 25l24 -25l-25 -25zM351 242l-25 -25l-25 25l-25 -25l-25 25l25 25l-25 25l25 25l25 -25l25 25l25 -25l-26 -25zM546 181q-40 -77 -126 -77q-85 0 -125 77h251z" />
    <glyph glyph-name="Ecircumflex" unicode="&#xca;" 
d="M712 302q0 -121 -85 -206.5t-206 -85.5q-122 0 -207 85t-85 207q0 121 85.5 206t206.5 85t206 -85t85 -206zM667 302q0 103 -71.5 174.5t-174.5 71.5t-175 -71.5t-72 -174.5q0 -104 71.5 -175.5t175.5 -71.5q103 0 174.5 72t71.5 175zM588 255q0 -33 -34 -33
q-33 0 -33 33q0 34 33 34q14 0 24 -10t10 -24zM546 181q-40 -77 -126 -77q-85 0 -125 77h251zM321 255q0 -33 -34 -33q-33 0 -33 33q0 34 33 34q14 0 24 -10t10 -24z" />
    <glyph glyph-name="Aacute" unicode="&#xc1;" 
d="M712 302q0 -121 -85 -206.5t-206 -85.5q-122 0 -207 85t-85 207q0 121 85.5 206t206.5 85t206 -85t85 -206zM667 302q0 103 -71.5 174.5t-174.5 71.5t-175 -71.5t-72 -174.5q0 -104 71.5 -175.5t175.5 -71.5q103 0 174.5 72t71.5 175zM563 215h-72v72h72v-72zM351 215
h-72v72h72v-72zM546 181q-40 -77 -126 -77q-85 0 -125 77h251z" />
    <glyph glyph-name="Edieresis" unicode="&#xcb;" 
d="M712 302q0 -121 -85 -206.5t-206 -85.5q-122 0 -207 85t-85 207q0 121 85.5 206t206.5 85t206 -85t85 -206zM667 302q0 103 -71.5 174.5t-174.5 71.5t-175 -71.5t-72 -174.5q0 -104 71.5 -175.5t175.5 -71.5q103 0 174.5 72t71.5 175zM589 235h-148q23 45 74 45t74 -45z
M401 235h-149q23 45 74 45t75 -45zM546 181q-40 -77 -126 -77q-85 0 -125 77h251z" />
    <glyph glyph-name="Egrave" unicode="&#xc8;" 
d="M712 302q0 -121 -85 -206.5t-206 -85.5q-122 0 -207 85t-85 207q0 121 85.5 206t206.5 85t206 -85t85 -206zM667 302q0 103 -71.5 174.5t-174.5 71.5t-175 -71.5t-72 -174.5q0 -104 71.5 -175.5t175.5 -71.5q103 0 174.5 72t71.5 175zM615 233l-31 -16q-19 36 -59 36
q-28 0 -47 -20h-43q29 55 90 55t90 -55zM406 233h-43q-19 20 -47 20q-40 0 -59 -36l-31 16q29 55 90 55t90 -55zM546 181q-40 -77 -126 -77q-85 0 -125 77h251z" />
    <glyph glyph-name="Iacute" unicode="&#xcd;" 
d="M712 302q0 -121 -85 -206.5t-206 -85.5q-122 0 -207 85t-85 207q0 121 85.5 206t206.5 85t206 -85t85 -206zM667 302q0 103 -71.5 174.5t-174.5 71.5t-175 -71.5t-72 -174.5q0 -104 71.5 -175.5t175.5 -71.5q103 0 174.5 72t71.5 175zM590 242l-24 -25l-26 25l-25 -25
l-24 25l25 25l-25 25l24 25l25 -25l26 25l24 -25l-25 -25zM351 242l-25 -25l-25 25l-25 -25l-25 25l25 25l-25 25l25 25l25 -25l25 25l25 -25l-26 -25zM546 181q-40 -77 -126 -77q-85 0 -125 77h251z" />
    <glyph glyph-name="Icircumflex" unicode="&#xce;" 
d="M712 302q0 -121 -85 -206.5t-206 -85.5q-122 0 -207 85t-85 207q0 121 85.5 206t206.5 85t206 -85t85 -206zM667 302q0 103 -71.5 174.5t-174.5 71.5t-175 -71.5t-72 -174.5q0 -104 71.5 -175.5t175.5 -71.5q103 0 174.5 72t71.5 175zM588 255q0 -33 -34 -33
q-33 0 -33 33q0 34 33 34q14 0 24 -10t10 -24zM546 181q-40 -77 -126 -77q-85 0 -125 77h251zM321 255q0 -33 -34 -33q-33 0 -33 33q0 34 33 34q14 0 24 -10t10 -24z" />
    <glyph glyph-name="Idieresis" unicode="&#xcf;" 
d="M712 302q0 -121 -85 -206.5t-206 -85.5q-122 0 -207 85t-85 207q0 121 85.5 206t206.5 85t206 -85t85 -206zM667 302q0 103 -71.5 174.5t-174.5 71.5t-175 -71.5t-72 -174.5q0 -104 71.5 -175.5t175.5 -71.5q103 0 174.5 72t71.5 175zM563 215h-72v72h72v-72zM351 215
h-72v72h72v-72zM546 181q-40 -77 -126 -77q-85 0 -125 77h251z" />
    <glyph glyph-name="Igrave" unicode="&#xcc;" 
d="M712 302q0 -121 -85 -206.5t-206 -85.5q-122 0 -207 85t-85 207q0 121 85.5 206t206.5 85t206 -85t85 -206zM667 302q0 103 -71.5 174.5t-174.5 71.5t-175 -71.5t-72 -174.5q0 -104 71.5 -175.5t175.5 -71.5q103 0 174.5 72t71.5 175zM589 235h-148q23 45 74 45t74 -45z
M401 235h-149q23 45 74 45t75 -45zM546 181q-40 -77 -126 -77q-85 0 -125 77h251z" />
    <glyph glyph-name="Oacute" unicode="&#xd3;" 
d="M712 302q0 -121 -85 -206.5t-206 -85.5q-122 0 -207 85t-85 207q0 121 85.5 206t206.5 85t206 -85t85 -206zM667 302q0 103 -71.5 174.5t-174.5 71.5t-175 -71.5t-72 -174.5q0 -104 71.5 -175.5t175.5 -71.5q103 0 174.5 72t71.5 175zM615 233l-31 -16q-19 36 -59 36
q-28 0 -47 -20h-43q29 55 90 55t90 -55zM406 233h-43q-19 20 -47 20q-40 0 -59 -36l-31 16q29 55 90 55t90 -55zM546 181q-40 -77 -126 -77q-85 0 -125 77h251z" />
    <glyph glyph-name="Ocircumflex" unicode="&#xd4;" 
d="M712 302q0 -121 -85 -206.5t-206 -85.5q-122 0 -207 85t-85 207q0 121 85.5 206t206.5 85t206 -85t85 -206zM667 302q0 103 -71.5 174.5t-174.5 71.5t-175 -71.5t-72 -174.5q0 -104 71.5 -175.5t175.5 -71.5q103 0 174.5 72t71.5 175zM590 242l-24 -25l-26 25l-25 -25
l-24 25l25 25l-25 25l24 25l25 -25l26 25l24 -25l-25 -25zM351 242l-25 -25l-25 25l-25 -25l-25 25l25 25l-25 25l25 25l25 -25l25 25l25 -25l-26 -25zM546 181q-40 -77 -126 -77q-85 0 -125 77h251z" />
    <glyph glyph-name="Ograve" unicode="&#xd2;" 
d="M712 302q0 -121 -85 -206.5t-206 -85.5q-122 0 -207 85t-85 207q0 121 85.5 206t206.5 85t206 -85t85 -206zM667 302q0 103 -71.5 174.5t-174.5 71.5t-175 -71.5t-72 -174.5q0 -104 71.5 -175.5t175.5 -71.5q103 0 174.5 72t71.5 175zM563 215h-72v72h72v-72zM351 215
h-72v72h72v-72zM546 181q-40 -77 -126 -77q-85 0 -125 77h251z" />
    <glyph glyph-name="Uacute" unicode="&#xda;" 
d="M712 302q0 -121 -85 -206.5t-206 -85.5q-122 0 -207 85t-85 207q0 121 85.5 206t206.5 85t206 -85t85 -206zM667 302q0 103 -71.5 174.5t-174.5 71.5t-175 -71.5t-72 -174.5q0 -104 71.5 -175.5t175.5 -71.5q103 0 174.5 72t71.5 175zM589 235h-148q23 45 74 45t74 -45z
M401 235h-149q23 45 74 45t75 -45zM546 181q-40 -77 -126 -77q-85 0 -125 77h251z" />
    <glyph glyph-name="Ucircumflex" unicode="&#xdb;" 
d="M712 302q0 -121 -85 -206.5t-206 -85.5q-122 0 -207 85t-85 207q0 121 85.5 206t206.5 85t206 -85t85 -206zM667 302q0 103 -71.5 174.5t-174.5 71.5t-175 -71.5t-72 -174.5q0 -104 71.5 -175.5t175.5 -71.5q103 0 174.5 72t71.5 175zM615 233l-31 -16q-19 36 -59 36
q-28 0 -47 -20h-43q29 55 90 55t90 -55zM406 233h-43q-19 20 -47 20q-40 0 -59 -36l-31 16q29 55 90 55t90 -55zM546 181q-40 -77 -126 -77q-85 0 -125 77h251z" />
    <glyph glyph-name="Ugrave" unicode="&#xd9;" 
d="M712 302q0 -121 -85 -206.5t-206 -85.5q-122 0 -207 85t-85 207q0 121 85.5 206t206.5 85t206 -85t85 -206zM667 302q0 103 -71.5 174.5t-174.5 71.5t-175 -71.5t-72 -174.5q0 -104 71.5 -175.5t175.5 -71.5q103 0 174.5 72t71.5 175zM590 242l-24 -25l-26 25l-25 -25
l-24 25l25 25l-25 25l24 25l25 -25l26 25l24 -25l-25 -25zM351 242l-25 -25l-25 25l-25 -25l-25 25l25 25l-25 25l25 25l25 -25l25 25l25 -25l-26 -25zM546 181q-40 -77 -126 -77q-85 0 -125 77h251z" />
  </font>
</defs>
</svg>
